<svg width="32" height="32" viewBox="0 0 32 32" fill="none" xmlns="http://www.w3.org/2000/svg">
<path d="M17.2301 14.7298H23C23.3316 14.7298 23.6495 14.8615 23.8839 15.0959C24.1184 15.3303 24.25 15.6483 24.25 15.9798C24.25 16.3113 24.1184 16.6293 23.8839 16.8637C23.6495 17.0981 23.3316 17.2298 23 17.2298H16.0001C15.8359 17.2325 15.6728 17.2027 15.5201 17.1424C15.3675 17.082 15.2282 16.9921 15.1103 16.8779C14.9923 16.7637 14.8981 16.6273 14.8328 16.4767C14.7676 16.326 14.7327 16.164 14.7301 15.9998V8.99981C14.7301 8.66829 14.8617 8.35034 15.0962 8.11592C15.3306 7.8815 15.6485 7.74981 15.9801 7.74981C16.3116 7.74981 16.6295 7.8815 16.8639 8.11592C17.0984 8.35034 17.2301 8.66829 17.2301 8.99981V14.7298ZM28.23 15.9798C28.23 18.4035 27.5111 20.7727 26.1642 22.7876C24.8172 24.8025 22.9029 26.3726 20.6633 27.2992C18.4237 28.2258 15.9596 28.4672 13.5828 27.9929C11.206 27.5186 9.02331 26.35 7.31092 24.6348C5.59852 22.9196 4.4334 20.735 3.963 18.3574C3.49259 15.9798 3.73804 13.5161 4.66828 11.2781C5.59852 9.04002 7.17174 7.12821 9.18887 5.78457C11.206 4.44093 13.5764 3.72585 16.0001 3.72981C19.2473 3.74039 22.358 5.03779 24.6504 7.33772C26.9428 9.63764 28.2301 12.7525 28.23 15.9998V15.9798ZM25.73 15.9798C25.73 14.0506 25.1577 12.1647 24.0855 10.5609C23.0132 8.95711 21.4893 7.70745 19.7066 6.97008C17.9238 6.23272 15.9624 6.04081 14.0706 6.41864C12.1787 6.79647 10.4414 7.72705 9.07868 9.09262C7.71592 10.4582 6.78891 12.1973 6.41496 14.09C6.04102 15.9826 6.23696 17.9436 6.97798 19.7248C7.719 21.5061 8.97179 23.0274 10.5778 24.0964C12.1838 25.1653 14.0708 25.7338 16.0001 25.7298C18.5782 25.7219 21.0484 24.6942 22.8715 22.8712C24.6945 21.0482 25.7221 18.5779 25.73 15.9998V15.9798ZM29.59 6.60981L25.35 2.36981C25.1125 2.15623 24.8022 2.04169 24.4829 2.04971C24.1636 2.05773 23.8594 2.1877 23.6329 2.41293C23.4064 2.63817 23.2747 2.94157 23.2649 3.26085C23.255 3.58014 23.3678 3.89107 23.58 4.12981L27.82 8.37981C28.0588 8.61073 28.3779 8.73982 28.71 8.73981C28.9561 8.73828 29.1963 8.66415 29.4005 8.5267C29.6046 8.38924 29.7636 8.19459 29.8576 7.96713C29.9516 7.73967 29.9763 7.48954 29.9287 7.24808C29.8811 7.00662 29.7633 6.78458 29.59 6.60981ZM8.38005 4.12981C8.59228 3.89107 8.70506 3.58014 8.69523 3.26085C8.6854 2.94157 8.55371 2.63817 8.3272 2.41293C8.10068 2.1877 7.79654 2.05773 7.4772 2.04971C7.15787 2.04169 6.84758 2.15623 6.61005 2.36981L2.37005 6.60981C2.15647 6.84734 2.04193 7.15763 2.04996 7.47696C2.05798 7.79629 2.18794 8.10044 2.41318 8.32695C2.63841 8.55346 2.94181 8.68515 3.2611 8.69498C3.58038 8.70481 3.89131 8.59203 4.13005 8.37981L8.38005 4.12981Z" fill="black"/>
</svg>
