<svg width="32" height="32" viewBox="0 0 32 32" fill="none" xmlns="http://www.w3.org/2000/svg">
<path fill-rule="evenodd" clip-rule="evenodd" d="M16 3.75C16.6904 3.75 17.25 4.30964 17.25 5V27C17.25 27.6904 16.6904 28.25 16 28.25C15.3096 28.25 14.75 27.6904 14.75 27V5C14.75 4.30964 15.3096 3.75 16 3.75Z" fill="black"/>
<path fill-rule="evenodd" clip-rule="evenodd" d="M6.11612 17.1161C6.60427 16.628 7.39573 16.628 7.88388 17.1161L16 25.2322L24.1161 17.1161C24.6043 16.628 25.3957 16.628 25.8839 17.1161C26.372 17.6043 26.372 18.3957 25.8839 18.8839L16.8839 27.8839C16.3957 28.372 15.6043 28.372 15.1161 27.8839L6.11612 18.8839C5.62796 18.3957 5.62796 17.6043 6.11612 17.1161Z" fill="black"/>
</svg>
