<svg width="32" height="32" viewBox="0 0 32 32" fill="none" xmlns="http://www.w3.org/2000/svg">
<path fill-rule="evenodd" clip-rule="evenodd" d="M7.11612 7.11612C7.60427 6.62796 8.39573 6.62796 8.88388 7.11612L24.8839 23.1161C25.372 23.6043 25.372 24.3957 24.8839 24.8839C24.3957 25.372 23.6043 25.372 23.1161 24.8839L7.11612 8.88388C6.62796 8.39573 6.62796 7.60427 7.11612 7.11612Z" fill="black"/>
<path fill-rule="evenodd" clip-rule="evenodd" d="M24 9.75C24.6904 9.75 25.25 10.3096 25.25 11V24C25.25 24.6904 24.6904 25.25 24 25.25H11C10.3096 25.25 9.75 24.6904 9.75 24C9.75 23.3096 10.3096 22.75 11 22.75H22.75V11C22.75 10.3096 23.3096 9.75 24 9.75Z" fill="black"/>
</svg>
