<svg width="32" height="32" viewBox="0 0 32 32" fill="none" xmlns="http://www.w3.org/2000/svg">
<path fill-rule="evenodd" clip-rule="evenodd" d="M7.11612 7.11612C7.60427 6.62796 8.39573 6.62796 8.88388 7.11612L24.8839 23.1161C25.372 23.6043 25.372 24.3957 24.8839 24.8839C24.3957 25.372 23.6043 25.372 23.1161 24.8839L7.11612 8.88388C6.62796 8.39573 6.62796 7.60427 7.11612 7.11612Z" fill="black"/>
<path fill-rule="evenodd" clip-rule="evenodd" d="M6.75 8C6.75 7.30964 7.30964 6.75 8 6.75H21C21.6904 6.75 22.25 7.30964 22.25 8C22.25 8.69036 21.6904 9.25 21 9.25H9.25V21C9.25 21.6904 8.69036 22.25 8 22.25C7.30964 22.25 6.75 21.6904 6.75 21V8Z" fill="black"/>
</svg>
