<svg width="32" height="32" viewBox="0 0 32 32" fill="none" xmlns="http://www.w3.org/2000/svg">
<path fill-rule="evenodd" clip-rule="evenodd" d="M3.75 16C3.75 15.3096 4.30964 14.75 5 14.75H27C27.6904 14.75 28.25 15.3096 28.25 16C28.25 16.6904 27.6904 17.25 27 17.25H5C4.30964 17.25 3.75 16.6904 3.75 16Z" fill="black"/>
<path fill-rule="evenodd" clip-rule="evenodd" d="M14.8839 6.11612C15.372 6.60427 15.372 7.39573 14.8839 7.88388L6.76777 16L14.8839 24.1161C15.372 24.6043 15.372 25.3957 14.8839 25.8839C14.3957 26.372 13.6043 26.372 13.1161 25.8839L4.11612 16.8839C3.62796 16.3957 3.62796 15.6043 4.11612 15.1161L13.1161 6.11612C13.6043 5.62796 14.3957 5.62796 14.8839 6.11612Z" fill="black"/>
</svg>
