<svg width="32" height="32" viewBox="0 0 32 32" fill="none" xmlns="http://www.w3.org/2000/svg">
<path fill-rule="evenodd" clip-rule="evenodd" d="M24.8839 7.11612C25.372 7.60427 25.372 8.39573 24.8839 8.88388L8.88388 24.8839C8.39573 25.372 7.60427 25.372 7.11612 24.8839C6.62796 24.3957 6.62796 23.6043 7.11612 23.1161L23.1161 7.11612C23.6043 6.62796 24.3957 6.62796 24.8839 7.11612Z" fill="black"/>
<path fill-rule="evenodd" clip-rule="evenodd" d="M8 9.75C8.69036 9.75 9.25 10.3096 9.25 11V22.75H21C21.6904 22.75 22.25 23.3096 22.25 24C22.25 24.6904 21.6904 25.25 21 25.25H8C7.30964 25.25 6.75 24.6904 6.75 24V11C6.75 10.3096 7.30964 9.75 8 9.75Z" fill="black"/>
</svg>
