<svg width="32" height="32" viewBox="0 0 32 32" fill="none" xmlns="http://www.w3.org/2000/svg">
<path fill-rule="evenodd" clip-rule="evenodd" d="M16 3.75C16.6904 3.75 17.25 4.30964 17.25 5V27C17.25 27.6904 16.6904 28.25 16 28.25C15.3096 28.25 14.75 27.6904 14.75 27V5C14.75 4.30964 15.3096 3.75 16 3.75Z" fill="black"/>
<path fill-rule="evenodd" clip-rule="evenodd" d="M15.1161 4.11612C15.6043 3.62796 16.3957 3.62796 16.8839 4.11612L25.8839 13.1161C26.372 13.6043 26.372 14.3957 25.8839 14.8839C25.3957 15.372 24.6043 15.372 24.1161 14.8839L16 6.76777L7.88388 14.8839C7.39573 15.372 6.60427 15.372 6.11612 14.8839C5.62796 14.3957 5.62796 13.6043 6.11612 13.1161L15.1161 4.11612Z" fill="black"/>
</svg>
