<svg width="32" height="32" viewBox="0 0 32 32" fill="none" xmlns="http://www.w3.org/2000/svg">
<path fill-rule="evenodd" clip-rule="evenodd" d="M3.75 16C3.75 15.3096 4.30964 14.75 5 14.75H27C27.6904 14.75 28.25 15.3096 28.25 16C28.25 16.6904 27.6904 17.25 27 17.25H5C4.30964 17.25 3.75 16.6904 3.75 16Z" fill="black"/>
<path fill-rule="evenodd" clip-rule="evenodd" d="M17.1161 6.11612C17.6043 5.62796 18.3957 5.62796 18.8839 6.11612L27.8839 15.1161C28.372 15.6043 28.372 16.3957 27.8839 16.8839L18.8839 25.8839C18.3957 26.372 17.6043 26.372 17.1161 25.8839C16.628 25.3957 16.628 24.6043 17.1161 24.1161L25.2322 16L17.1161 7.88388C16.628 7.39573 16.628 6.60427 17.1161 6.11612Z" fill="black"/>
</svg>
