<svg width="32" height="32" viewBox="0 0 32 32" fill="none" xmlns="http://www.w3.org/2000/svg">
<path fill-rule="evenodd" clip-rule="evenodd" d="M24.8839 7.11612C25.372 7.60427 25.372 8.39573 24.8839 8.88388L8.88388 24.8839C8.39573 25.372 7.60427 25.372 7.11612 24.8839C6.62796 24.3957 6.62796 23.6043 7.11612 23.1161L23.1161 7.11612C23.6043 6.62796 24.3957 6.62796 24.8839 7.11612Z" fill="black"/>
<path fill-rule="evenodd" clip-rule="evenodd" d="M9.75 8C9.75 7.30964 10.3096 6.75 11 6.75H24C24.6904 6.75 25.25 7.30964 25.25 8V21C25.25 21.6904 24.6904 22.25 24 22.25C23.3096 22.25 22.75 21.6904 22.75 21V9.25H11C10.3096 9.25 9.75 8.69036 9.75 8Z" fill="black"/>
</svg>
