<svg width="32" height="32" viewBox="0 0 32 32" fill="none" xmlns="http://www.w3.org/2000/svg">
<path fill-rule="evenodd" clip-rule="evenodd" d="M16 3.75C16.6904 3.75 17.25 4.30964 17.25 5V27C17.25 27.6904 16.6904 28.25 16 28.25C15.3096 28.25 14.75 27.6904 14.75 27V5C14.75 4.30964 15.3096 3.75 16 3.75Z" fill="black"/>
<path fill-rule="evenodd" clip-rule="evenodd" d="M5.39131 9.87521C5.73649 9.27734 6.50098 9.0725 7.09884 9.41768L26.1514 20.4177C26.7493 20.7629 26.9541 21.5273 26.6089 22.1252C26.2638 22.7231 25.4993 22.9279 24.9014 22.5827L5.84884 11.5827C5.25098 11.2376 5.04613 10.4731 5.39131 9.87521Z" fill="black"/>
<path fill-rule="evenodd" clip-rule="evenodd" d="M26.6089 9.87521C26.9541 10.4731 26.7493 11.2376 26.1514 11.5827L7.09884 22.5827C6.50098 22.9279 5.73649 22.7231 5.39131 22.1252C5.04613 21.5273 5.25098 20.7629 5.84884 20.4177L24.9014 9.41768C25.4993 9.0725 26.2638 9.27734 26.6089 9.87521Z" fill="black"/>
</svg>
