<svg width="32" height="32" viewBox="0 0 32 32" fill="none" xmlns="http://www.w3.org/2000/svg">
<path d="M26.698 8.1013C25.3419 6.36253 23.5733 4.9897 21.5525 4.10726C19.5317 3.22481 17.3226 2.86066 15.1254 3.04781C12.9283 3.23496 10.8126 3.96749 8.97019 5.17901C7.12775 6.39052 5.61679 8.04271 4.57429 9.98579C3.5318 11.9289 2.99072 14.1014 3.00012 16.3065C3.00952 18.5115 3.56909 20.6794 4.62811 22.6135C5.68714 24.5476 7.21212 26.1869 9.06483 27.3826C10.9175 28.5784 13.0394 29.2929 15.238 29.4613C15.568 29.4613 15.898 29.4613 16.238 29.4613C18.8482 29.4586 21.4003 28.6902 23.578 27.2513C23.7146 27.16 23.8319 27.0428 23.9231 26.9062C24.0144 26.7696 24.0778 26.6164 24.1099 26.4553C24.1419 26.2941 24.1419 26.1283 24.1098 25.9672C24.0778 25.8061 24.0143 25.6529 23.923 25.5163C23.8318 25.3797 23.7145 25.2625 23.5779 25.1712C23.4413 25.08 23.2881 25.0165 23.127 24.9845C22.9659 24.9524 22.8 24.9524 22.6389 24.9845C22.4778 25.0166 22.3246 25.08 22.188 25.1713C20.1958 26.5028 17.8159 27.1305 15.4262 26.9547C13.0365 26.779 10.774 25.8099 8.99802 24.2013C7.23483 22.5903 6.05774 20.4385 5.65219 18.0848C5.24664 15.7312 5.63568 13.3095 6.75802 11.2013C7.8903 9.09235 9.69348 7.42117 11.8823 6.45216C14.071 5.48315 16.5204 5.27166 18.8429 5.85113C21.1654 6.4306 23.2284 7.76796 24.7054 9.65161C26.1824 11.5353 26.9892 13.8576 26.998 16.2513C26.998 18.0013 26.608 20.0013 24.748 20.0013C22.888 20.0013 22.498 18.0013 22.498 16.2513V11.2513C22.498 10.9198 22.3663 10.6018 22.1319 10.3674C21.8975 10.133 21.5795 10.0013 21.248 10.0013C20.9165 10.0013 20.5986 10.133 20.3641 10.3674C20.1297 10.6018 19.998 10.9198 19.998 11.2513C19.0223 10.5223 17.8548 10.0944 16.639 10.02C15.4233 9.94562 14.2123 10.2281 13.155 10.8327C12.0977 11.4373 11.24 12.3377 10.6875 13.4231C10.135 14.5086 9.91164 15.7318 10.045 16.9425C10.1783 18.1532 10.6625 19.2985 11.438 20.2377C12.2135 21.1769 13.2465 21.8691 14.4101 22.2291C15.5737 22.5891 16.8171 22.6013 17.9875 22.2641C19.1579 21.9269 20.2043 21.2551 20.998 20.3313C21.3705 21.0046 21.9212 21.5624 22.5898 21.9434C23.2583 22.3244 24.0189 22.514 24.788 22.4913C27.788 22.4913 29.538 20.1513 29.538 16.2413C29.5184 13.2884 28.5195 10.4255 26.698 8.1013ZM16.248 20.0013C15.5063 20.0013 14.7813 19.7814 14.1646 19.3693C13.5479 18.9573 13.0673 18.3716 12.7835 17.6864C12.4996 17.0011 12.4254 16.2471 12.5701 15.5197C12.7148 14.7923 13.0719 14.1241 13.5964 13.5997C14.1208 13.0752 14.789 12.7181 15.5164 12.5734C16.2439 12.4287 16.9979 12.5029 17.6831 12.7868C18.3683 13.0706 18.954 13.5512 19.366 14.1679C19.7781 14.7846 19.998 15.5096 19.998 16.2513C19.9954 17.2451 19.5994 18.1973 18.8968 18.9C18.1941 19.6027 17.2418 19.9987 16.248 20.0013Z" fill="black"/>
</svg>
