<svg width="32" height="32" viewBox="0 0 32 32" fill="none" xmlns="http://www.w3.org/2000/svg">
<path fill-rule="evenodd" clip-rule="evenodd" d="M16 13.25C14.4812 13.25 13.25 14.4812 13.25 16C13.25 17.5188 14.4812 18.75 16 18.75C17.5188 18.75 18.75 17.5188 18.75 16C18.75 14.4812 17.5188 13.25 16 13.25ZM10.75 16C10.75 13.1005 13.1005 10.75 16 10.75C18.8995 10.75 21.25 13.1005 21.25 16C21.25 18.8995 18.8995 21.25 16 21.25C13.1005 21.25 10.75 18.8995 10.75 16Z" fill="black"/>
<path fill-rule="evenodd" clip-rule="evenodd" d="M10.5207 8.7531C11.0084 9.24167 11.0078 10.0331 10.5192 10.5209C9.79884 11.24 9.22736 12.0941 8.83744 13.0343C8.44753 13.9745 8.24683 14.9823 8.24683 16.0002C8.24683 17.018 8.44753 18.0259 8.83744 18.9661C9.22736 19.9063 9.79884 20.7604 10.5192 21.4795C11.0078 21.9673 11.0084 22.7587 10.5207 23.2473C10.0329 23.7359 9.24149 23.7365 8.75292 23.2488C7.79998 22.2975 7.04397 21.1676 6.52815 19.9238C6.01233 18.68 5.74683 17.3467 5.74683 16.0002C5.74683 14.6537 6.01233 13.3204 6.52815 12.0766C7.04397 10.8328 7.79998 9.70291 8.75292 8.75159C9.24149 8.26385 10.0329 8.26453 10.5207 8.7531Z" fill="black"/>
<path fill-rule="evenodd" clip-rule="evenodd" d="M21.4794 8.7531C21.9671 8.26453 22.7586 8.26385 23.2471 8.75159C24.2001 9.70291 24.9561 10.8328 25.4719 12.0766C25.9877 13.3204 26.2532 14.6537 26.2532 16.0002C26.2532 17.3467 25.9877 18.68 25.4719 19.9238C24.9561 21.1676 24.2001 22.2975 23.2471 23.2488C22.7586 23.7365 21.9671 23.7359 21.4794 23.2473C20.9916 22.7587 20.9923 21.9673 21.4809 21.4795C22.2012 20.7604 22.7727 19.9063 23.1626 18.9661C23.5525 18.0259 23.7532 17.018 23.7532 16.0002C23.7532 14.9823 23.5525 13.9745 23.1626 13.0343C22.7727 12.0941 22.2012 11.24 21.4809 10.5209C20.9923 10.0331 20.9916 9.24167 21.4794 8.7531Z" fill="black"/>
<path fill-rule="evenodd" clip-rule="evenodd" d="M6.98522 5.21746C7.47295 5.70603 7.47228 6.49749 6.98371 6.98522C5.79856 8.16834 4.85834 9.57354 4.21683 11.1204C3.57532 12.6673 3.24512 14.3255 3.24512 16.0001C3.24512 17.6747 3.57532 19.3329 4.21683 20.8798C4.85834 22.4266 5.79856 23.8318 6.98371 25.0149C7.47228 25.5027 7.47295 26.2941 6.98522 26.7827C6.49748 27.2713 5.70602 27.272 5.21745 26.7842C3.79971 25.3689 2.67495 23.6879 1.90754 21.8374C1.14012 19.987 0.745117 18.0034 0.745117 16.0001C0.745117 13.9968 1.14012 12.0132 1.90754 10.1627C2.67495 8.31225 3.79971 6.63127 5.21745 5.21595C5.70602 4.72821 6.49748 4.72889 6.98522 5.21746Z" fill="black"/>
<path fill-rule="evenodd" clip-rule="evenodd" d="M25.015 5.21746C25.5028 4.72889 26.2942 4.72821 26.7828 5.21595C28.2005 6.63127 29.3253 8.31225 30.0927 10.1627C30.8601 12.0132 31.2551 13.9968 31.2551 16.0001C31.2551 18.0034 30.8601 19.987 30.0927 21.8374C29.3253 23.6879 28.2005 25.3689 26.7828 26.7842C26.2942 27.272 25.5028 27.2713 25.015 26.7827C24.5273 26.2941 24.528 25.5027 25.0165 25.0149C26.2017 23.8318 27.1419 22.4266 27.7834 20.8797C28.4249 19.3329 28.7551 17.6747 28.7551 16.0001C28.7551 14.3255 28.4249 12.6673 27.7834 11.1204C27.1419 9.57354 26.2017 8.16834 25.0165 6.98522C24.528 6.49749 24.5273 5.70603 25.015 5.21746Z" fill="black"/>
</svg>
