<svg width="32" height="32" viewBox="0 0 32 32" fill="none" xmlns="http://www.w3.org/2000/svg">
<path d="M17.45 18.35C17.3712 18.2449 17.3139 18.1254 17.2813 17.9982C17.2487 17.871 17.2415 17.7386 17.2601 17.6086C17.2976 17.346 17.4378 17.1091 17.65 16.95L19.65 15.45C19.793 15.3466 19.9609 15.2828 20.1365 15.2653C20.3122 15.2477 20.4893 15.2769 20.65 15.35C20.8164 15.4339 20.9561 15.5626 21.0533 15.7216C21.1505 15.8806 21.2013 16.0636 21.2 16.25V22.75C21.2 23.0152 21.0946 23.2696 20.9071 23.4571C20.7196 23.6446 20.4652 23.75 20.2 23.75C19.9348 23.75 19.6804 23.6446 19.4929 23.4571C19.3054 23.2696 19.2 23.0152 19.2 22.75V18.25L18.8 18.55C18.5915 18.6938 18.3362 18.7532 18.0856 18.7161C17.835 18.679 17.6078 18.5481 17.45 18.35ZM28.5 6.25V26.25C28.5 26.8467 28.2629 27.419 27.841 27.841C27.419 28.2629 26.8467 28.5 26.25 28.5H6.25C5.65326 28.5 5.08097 28.2629 4.65901 27.841C4.23705 27.419 4 26.8467 4 26.25V6.25C4 5.65326 4.23705 5.08097 4.65901 4.65901C5.08097 4.23705 5.65326 4 6.25 4H9V3.25C9 2.91848 9.1317 2.60054 9.36612 2.36612C9.60054 2.1317 9.91848 2 10.25 2C10.5815 2 10.8995 2.1317 11.1339 2.36612C11.3683 2.60054 11.5 2.91848 11.5 3.25V4H21V3.25C21 2.91848 21.1317 2.60054 21.3661 2.36612C21.6005 2.1317 21.9185 2 22.25 2C22.5815 2 22.8995 2.1317 23.1339 2.36612C23.3683 2.60054 23.5 2.91848 23.5 3.25V4H26.25C26.8467 4 27.419 4.23705 27.841 4.65901C28.2629 5.08097 28.5 5.65326 28.5 6.25ZM26 12.5H6.5V26H26V12.5ZM26 6.5H23.5V7.25C23.5 7.58152 23.3683 7.89946 23.1339 8.13388C22.8995 8.3683 22.5815 8.5 22.25 8.5C21.9185 8.5 21.6005 8.3683 21.3661 8.13388C21.1317 7.89946 21 7.58152 21 7.25V6.5H11.5V7.25C11.5 7.58152 11.3683 7.89946 11.1339 8.13388C10.8995 8.3683 10.5815 8.5 10.25 8.5C9.91848 8.5 9.60054 8.3683 9.36612 8.13388C9.1317 7.89946 9 7.58152 9 7.25V6.5H6.5V10H26V6.5ZM11.75 17.25H13.17L12.47 18.12C12.3508 18.267 12.2757 18.4447 12.2535 18.6327C12.2313 18.8206 12.2629 19.011 12.3446 19.1817C12.4262 19.3524 12.5547 19.4964 12.715 19.597C12.8752 19.6976 13.0608 19.7506 13.25 19.75C13.4141 19.7508 13.5756 19.792 13.72 19.87C13.866 19.9432 13.9902 20.0536 14.08 20.19C14.17 20.3289 14.228 20.486 14.25 20.65C14.2633 20.8141 14.2358 20.979 14.17 21.13C14.1096 21.2834 14.0095 21.418 13.88 21.52C13.7591 21.6288 13.6101 21.7016 13.45 21.73C13.2885 21.7649 13.1215 21.7649 12.96 21.73C12.8033 21.6786 12.6599 21.5932 12.54 21.48C12.4504 21.3753 12.34 21.2903 12.216 21.2303C12.0919 21.1703 11.9568 21.1365 11.8191 21.1312C11.6813 21.1259 11.544 21.1491 11.4157 21.1994C11.2874 21.2496 11.1708 21.3259 11.0733 21.4233C10.9759 21.5208 10.8996 21.6374 10.8494 21.7657C10.7991 21.894 10.7759 22.0313 10.7812 22.1691C10.7865 22.3068 10.8203 22.4419 10.8803 22.566C10.9403 22.69 11.0253 22.8004 11.13 22.89C11.4787 23.239 11.908 23.4966 12.38 23.64C12.6616 23.7278 12.955 23.7716 13.25 23.77C13.4482 23.7695 13.6458 23.7494 13.84 23.71C14.3243 23.6151 14.7777 23.4021 15.16 23.09C15.5405 22.7771 15.838 22.3753 16.0264 21.9201C16.2148 21.4649 16.2881 20.9703 16.24 20.48C16.1902 19.9857 16.0184 19.5115 15.74 19.1C15.5244 18.7744 15.2456 18.4956 14.92 18.28L16 16.87C16.1067 16.7288 16.174 16.5619 16.1951 16.3862C16.2162 16.2105 16.1903 16.0324 16.12 15.87C16.039 15.6998 15.9115 15.556 15.7522 15.4552C15.593 15.3543 15.4085 15.3005 15.22 15.3H11.75C11.4848 15.3 11.2304 15.4054 11.0429 15.5929C10.8554 15.7804 10.75 16.0348 10.75 16.3C10.75 16.5652 10.8554 16.8196 11.0429 17.0071C11.2304 17.1946 11.4848 17.3 11.75 17.3V17.25Z" fill="black"/>
</svg>
