<svg width="32" height="32" viewBox="0 0 32 32" fill="none" xmlns="http://www.w3.org/2000/svg">
<path fill-rule="evenodd" clip-rule="evenodd" d="M6.25 6.25V25.75H25.75V6.25H6.25ZM3.75 6C3.75 4.75736 4.75736 3.75 6 3.75H26C27.2426 3.75 28.25 4.75736 28.25 6V26C28.25 27.2426 27.2426 28.25 26 28.25H6C4.75736 28.25 3.75 27.2426 3.75 26V6Z" fill="black"/>
<path fill-rule="evenodd" clip-rule="evenodd" d="M22 1.75C22.6904 1.75 23.25 2.30964 23.25 3V7C23.25 7.69036 22.6904 8.25 22 8.25C21.3096 8.25 20.75 7.69036 20.75 7V3C20.75 2.30964 21.3096 1.75 22 1.75Z" fill="black"/>
<path fill-rule="evenodd" clip-rule="evenodd" d="M10 1.75C10.6904 1.75 11.25 2.30964 11.25 3V7C11.25 7.69036 10.6904 8.25 10 8.25C9.30964 8.25 8.75 7.69036 8.75 7V3C8.75 2.30964 9.30964 1.75 10 1.75Z" fill="black"/>
<path fill-rule="evenodd" clip-rule="evenodd" d="M3.75 11C3.75 10.3096 4.30964 9.75 5 9.75H27C27.6904 9.75 28.25 10.3096 28.25 11C28.25 11.6904 27.6904 12.25 27 12.25H5C4.30964 12.25 3.75 11.6904 3.75 11Z" fill="black"/>
</svg>
