<svg width="32" height="32" viewBox="0 0 32 32" fill="none" xmlns="http://www.w3.org/2000/svg">
<path fill-rule="evenodd" clip-rule="evenodd" d="M3.34105 2.07508C3.85187 1.6107 4.64244 1.64835 5.10682 2.15917L28.7432 28.1592C29.2076 28.67 29.1699 29.4606 28.6591 29.9249C28.1483 30.3893 27.3577 30.3517 26.8933 29.8409L3.25697 3.84085C2.79258 3.33003 2.83023 2.53947 3.34105 2.07508Z" fill="black"/>
<path fill-rule="evenodd" clip-rule="evenodd" d="M10.9592 4.30662C11.191 3.95888 11.5813 3.75 11.9993 3.75H19.9993C20.4172 3.75 20.8075 3.95888 21.0393 4.30662L22.6682 6.75H26C26.8619 6.75 27.6886 7.09241 28.2981 7.7019C28.9076 8.3114 29.25 9.13805 29.25 10V23.2536C29.25 23.944 28.6903 24.5036 28 24.5036C27.3096 24.5036 26.75 23.944 26.75 23.2536V10C26.75 9.80109 26.671 9.61032 26.5303 9.46967C26.3897 9.32902 26.1989 9.25 26 9.25H21.9993C21.5813 9.25 21.191 9.04112 20.9592 8.69338L19.3303 6.25H12.6427C12.2309 6.67281 11.5637 6.75594 11.0548 6.41668C10.4804 6.03373 10.3252 5.25765 10.7081 4.68324L10.9592 4.30662Z" fill="black"/>
<path fill-rule="evenodd" clip-rule="evenodd" d="M6 9.25C5.80109 9.25 5.61032 9.32902 5.46967 9.46967C5.32902 9.61032 5.25 9.80109 5.25 10V24C5.25 24.1989 5.32902 24.3897 5.46967 24.5303C5.61032 24.671 5.80109 24.75 6 24.75H25.0909C25.7813 24.75 26.3409 25.3096 26.3409 26C26.3409 26.6904 25.7813 27.25 25.0909 27.25H6C5.13805 27.25 4.3114 26.9076 3.7019 26.2981C3.09241 25.6886 2.75 24.862 2.75 24V10C2.75 9.13805 3.09241 8.3114 3.7019 7.7019C4.3114 7.09241 5.13805 6.75 6 6.75H8.72726C9.41762 6.75 9.97726 7.30964 9.97726 8C9.97726 8.69036 9.41762 9.25 8.72726 9.25H6Z" fill="black"/>
<path fill-rule="evenodd" clip-rule="evenodd" d="M14.2153 12.1838C14.6403 12.7279 14.5437 13.5134 13.9996 13.9383C13.6471 14.2136 13.3552 14.5587 13.1422 14.952C12.9292 15.3453 12.7997 15.7783 12.7617 16.224C12.7238 16.6696 12.7782 17.1183 12.9216 17.542C13.065 17.9656 13.2944 18.3551 13.5952 18.686C13.8961 19.017 14.262 19.2823 14.6701 19.4653C15.0782 19.6483 15.5197 19.7452 15.9669 19.7497C16.4142 19.7543 16.8575 19.6665 17.2693 19.4918C17.681 19.3172 18.0523 19.0594 18.3599 18.7346C18.8346 18.2334 19.6257 18.2119 20.127 18.6866C20.6282 19.1613 20.6497 19.9525 20.175 20.4537C19.6309 21.0283 18.9741 21.4843 18.2456 21.7933C17.5171 22.1023 16.7327 22.2577 15.9414 22.2496C15.1502 22.2415 14.3691 22.0702 13.6471 21.7464C12.9251 21.4226 12.2776 20.9532 11.7454 20.3677C11.2131 19.7822 10.8074 19.0931 10.5536 18.3436C10.2999 17.5941 10.2036 16.8003 10.2707 16.0118C10.3379 15.2234 10.5671 14.4573 10.9439 13.7614C11.3207 13.0656 11.8371 12.4551 12.4608 11.968C13.0049 11.5431 13.7904 11.6397 14.2153 12.1838Z" fill="black"/>
</svg>
