<svg width="32" height="32" viewBox="0 0 32 32" fill="none" xmlns="http://www.w3.org/2000/svg">
<path fill-rule="evenodd" clip-rule="evenodd" d="M10.9592 4.30662C11.191 3.95888 11.5813 3.75 11.9993 3.75H19.9993C20.4172 3.75 20.8075 3.95888 21.0393 4.30662L22.6682 6.75H26C26.862 6.75 27.6886 7.09241 28.2981 7.7019C28.9076 8.3114 29.25 9.13805 29.25 10V24C29.25 24.862 28.9076 25.6886 28.2981 26.2981C27.6886 26.9076 26.862 27.25 26 27.25H6C5.13805 27.25 4.3114 26.9076 3.7019 26.2981C3.09241 25.6886 2.75 24.862 2.75 24V10C2.75 9.13805 3.09241 8.3114 3.7019 7.7019C4.3114 7.09241 5.13805 6.75 6 6.75H9.33029L10.9592 4.30662ZM12.6682 6.25L11.0393 8.69338C10.8075 9.04112 10.4172 9.25 9.99927 9.25H6C5.80109 9.25 5.61032 9.32902 5.46967 9.46967C5.32902 9.61032 5.25 9.80109 5.25 10V24C5.25 24.1989 5.32902 24.3897 5.46967 24.5303C5.61032 24.671 5.80109 24.75 6 24.75H26C26.1989 24.75 26.3897 24.671 26.5303 24.5303C26.671 24.3897 26.75 24.1989 26.75 24V10C26.75 9.80109 26.671 9.61032 26.5303 9.46967C26.3897 9.32902 26.1989 9.25 26 9.25H21.9993C21.5813 9.25 21.191 9.04112 20.9592 8.69338L19.3303 6.25H12.6682Z" fill="black"/>
<path fill-rule="evenodd" clip-rule="evenodd" d="M16 13.25C14.2051 13.25 12.75 14.7051 12.75 16.5C12.75 18.2949 14.2051 19.75 16 19.75C17.7949 19.75 19.25 18.2949 19.25 16.5C19.25 14.7051 17.7949 13.25 16 13.25ZM10.25 16.5C10.25 13.3244 12.8244 10.75 16 10.75C19.1756 10.75 21.75 13.3244 21.75 16.5C21.75 19.6756 19.1756 22.25 16 22.25C12.8244 22.25 10.25 19.6756 10.25 16.5Z" fill="black"/>
</svg>
