<svg width="32" height="32" viewBox="0 0 32 32" fill="none" xmlns="http://www.w3.org/2000/svg">
<path fill-rule="evenodd" clip-rule="evenodd" d="M0.75 15C0.75 14.3096 1.30964 13.75 2 13.75H30C30.6904 13.75 31.25 14.3096 31.25 15C31.25 15.6904 30.6904 16.25 30 16.25H2C1.30964 16.25 0.75 15.6904 0.75 15Z" fill="black"/>
<path fill-rule="evenodd" clip-rule="evenodd" d="M23 21.75C23.6904 21.75 24.25 22.3096 24.25 23V25.75H26.75V23C26.75 22.3096 27.3096 21.75 28 21.75C28.6904 21.75 29.25 22.3096 29.25 23V26C29.25 26.5967 29.013 27.169 28.591 27.591C28.169 28.013 27.5967 28.25 27 28.25H24C23.4033 28.25 22.831 28.013 22.409 27.591C21.987 27.169 21.75 26.5967 21.75 26V23C21.75 22.3096 22.3096 21.75 23 21.75Z" fill="black"/>
<path fill-rule="evenodd" clip-rule="evenodd" d="M4 21.75C4.69036 21.75 5.25 22.3096 5.25 23V25.75H7.75V23C7.75 22.3096 8.30964 21.75 9 21.75C9.69036 21.75 10.25 22.3096 10.25 23V26C10.25 26.5967 10.0129 27.169 9.59099 27.591C9.16903 28.0129 8.59674 28.25 8 28.25H5C4.40326 28.25 3.83097 28.0129 3.40901 27.591C2.98705 27.169 2.75 26.5967 2.75 26V23C2.75 22.3096 3.30964 21.75 4 21.75Z" fill="black"/>
<path fill-rule="evenodd" clip-rule="evenodd" d="M6.75 19C6.75 18.3096 7.30964 17.75 8 17.75H10C10.6904 17.75 11.25 18.3096 11.25 19C11.25 19.6904 10.6904 20.25 10 20.25H8C7.30964 20.25 6.75 19.6904 6.75 19Z" fill="black"/>
<path fill-rule="evenodd" clip-rule="evenodd" d="M20.75 19C20.75 18.3096 21.3096 17.75 22 17.75H24C24.6904 17.75 25.25 18.3096 25.25 19C25.25 19.6904 24.6904 20.25 24 20.25H22C21.3096 20.25 20.75 19.6904 20.75 19Z" fill="black"/>
<path fill-rule="evenodd" clip-rule="evenodd" d="M7.42382 5.11339C7.78876 4.87623 8.21465 4.75 8.64987 4.75H23.3501C23.7854 4.75 24.2112 4.87623 24.5762 5.11339C24.9411 5.35055 25.2294 5.68847 25.4062 6.08619L24.2833 6.58525L25.4062 6.08619L29.1423 14.4923C29.2133 14.6522 29.25 14.8251 29.25 15V23C29.25 23.6904 28.6904 24.25 28 24.25H4C3.30964 24.25 2.75 23.6904 2.75 23V15C2.75 14.8251 2.7867 14.6522 2.85774 14.4923L6.5938 6.08619C6.77056 5.68847 7.05888 5.35056 7.42382 5.11339ZM8.81234 7.25L5.25 15.2653V21.75H26.75V15.2653L23.1877 7.25H8.81234Z" fill="black"/>
</svg>
