<svg width="32" height="32" viewBox="0 0 32 32" fill="none" xmlns="http://www.w3.org/2000/svg">
<path fill-rule="evenodd" clip-rule="evenodd" d="M28.8839 12.1161C29.372 12.6043 29.372 13.3957 28.8839 13.8839L22.8839 19.8839C22.3957 20.372 21.6043 20.372 21.1161 19.8839C20.628 19.3957 20.628 18.6043 21.1161 18.1161L27.1161 12.1161C27.6043 11.628 28.3957 11.628 28.8839 12.1161Z" fill="black"/>
<path fill-rule="evenodd" clip-rule="evenodd" d="M21.1161 12.1161C21.6043 11.628 22.3957 11.628 22.8839 12.1161L28.8839 18.1161C29.372 18.6043 29.372 19.3957 28.8839 19.8839C28.3957 20.372 27.6043 20.372 27.1161 19.8839L21.1161 13.8839C20.628 13.3957 20.628 12.6043 21.1161 12.1161Z" fill="black"/>
<path fill-rule="evenodd" clip-rule="evenodd" d="M23.7501 6.01762V10.343C23.7501 11.0334 24.3097 11.593 25.0001 11.593C25.6904 11.593 26.2501 11.0334 26.2501 10.343V5.41406C26.2501 4.96906 26.1181 4.53404 25.8709 4.16403C25.6237 3.79402 25.2723 3.50563 24.8611 3.33533C24.45 3.16504 23.9976 3.12048 23.5611 3.2073C23.1247 3.29411 22.7238 3.5084 22.4091 3.82307L23.293 4.70696L22.4091 3.82307L1.82332 24.4089C1.50865 24.7235 1.29436 25.1244 1.20754 25.5609C1.12072 25.9974 1.16528 26.4498 1.33558 26.8609C1.50588 27.272 1.79426 27.6234 2.16428 27.8707C2.53429 28.1179 2.9693 28.2498 3.41431 28.2498H24.0001C24.5968 28.2498 25.1691 28.0128 25.5911 27.5908C26.013 27.1689 26.2501 26.5966 26.2501 25.9998V21.6566C26.2501 20.9663 25.6904 20.4066 25.0001 20.4066C24.3097 20.4066 23.7501 20.9663 23.7501 21.6566V25.7498H4.01786L23.7501 6.01762Z" fill="black"/>
</svg>
