<svg width="32" height="32" viewBox="0 0 32 32" fill="none" xmlns="http://www.w3.org/2000/svg">
<path fill-rule="evenodd" clip-rule="evenodd" d="M5.25 8.25V27.3162L8.86452 24.2777C9.26997 23.9369 9.78267 23.75 10.3123 23.75H26.75V8.25H5.25ZM3.40901 6.40901C3.83097 5.98705 4.40326 5.75 5 5.75H27C27.5967 5.75 28.169 5.98705 28.591 6.40901C29.0129 6.83097 29.25 7.40326 29.25 8V24C29.25 24.5967 29.013 25.169 28.591 25.591C28.169 26.013 27.5967 26.25 27 26.25H10.4035L6.44783 29.5753C6.11984 29.851 5.71996 30.0273 5.29519 30.0835C4.87043 30.1397 4.43844 30.0735 4.05003 29.8926C3.66162 29.7117 3.33294 29.4236 3.10264 29.0623C2.87234 28.701 2.75 28.2814 2.75 27.853V8C2.75 7.40326 2.98705 6.83097 3.40901 6.40901Z" fill="black"/>
<path d="M9.99976 17.5C10.8282 17.5 11.4998 16.8284 11.4998 16C11.4998 15.1716 10.8282 14.5 9.99976 14.5C9.17133 14.5 8.49976 15.1716 8.49976 16C8.49976 16.8284 9.17133 17.5 9.99976 17.5Z" fill="black"/>
<path d="M16 17.5C16.8284 17.5 17.5 16.8284 17.5 16C17.5 15.1716 16.8284 14.5 16 14.5C15.1716 14.5 14.5 15.1716 14.5 16C14.5 16.8284 15.1716 17.5 16 17.5Z" fill="black"/>
<path d="M22.0002 17.5C22.8287 17.5 23.5002 16.8284 23.5002 16C23.5002 15.1716 22.8287 14.5 22.0002 14.5C21.1718 14.5 20.5002 15.1716 20.5002 16C20.5002 16.8284 21.1718 17.5 22.0002 17.5Z" fill="black"/>
<path d="M10.2498 18C11.2163 18 11.9998 17.2165 11.9998 16.25C11.9998 15.2835 11.2163 14.5 10.2498 14.5C9.28326 14.5 8.49976 15.2835 8.49976 16.25C8.49976 17.2165 9.28326 18 10.2498 18Z" fill="black"/>
<path d="M16.25 18C17.2165 18 18 17.2165 18 16.25C18 15.2835 17.2165 14.5 16.25 14.5C15.2835 14.5 14.5 15.2835 14.5 16.25C14.5 17.2165 15.2835 18 16.25 18Z" fill="black"/>
<path d="M22.2502 18C23.2167 18 24.0002 17.2165 24.0002 16.25C24.0002 15.2835 23.2167 14.5 22.2502 14.5C21.2837 14.5 20.5002 15.2835 20.5002 16.25C20.5002 17.2165 21.2837 18 22.2502 18Z" fill="black"/>
</svg>
