<svg width="32" height="32" viewBox="0 0 32 32" fill="none" xmlns="http://www.w3.org/2000/svg">
<path fill-rule="evenodd" clip-rule="evenodd" d="M5.25 6.25V19.3821L8.16201 17.0279C8.38445 16.8481 8.66183 16.75 8.94786 16.75H20.75V6.25H5.25ZM3.40901 4.40901C3.83097 3.98705 4.40326 3.75 5 3.75H21C21.5967 3.75 22.169 3.98705 22.591 4.40901C23.0129 4.83097 23.25 5.40326 23.25 6V17C23.25 17.5967 23.013 18.169 22.591 18.591C22.169 19.0129 21.5967 19.25 21 19.25H9.38994L4.78586 22.9721C4.41129 23.2749 3.89606 23.3356 3.4614 23.128C3.02674 22.9205 2.75 22.4817 2.75 22V6C2.75 5.40326 2.98705 4.83097 3.40901 4.40901Z" fill="black"/>
<path fill-rule="evenodd" clip-rule="evenodd" d="M20.75 11C20.75 10.3096 21.3096 9.75 22 9.75H27C27.5967 9.75 28.169 9.98705 28.591 10.409C29.0129 10.831 29.25 11.4033 29.25 12V28C29.25 28.4817 28.9733 28.9205 28.5386 29.128C28.1039 29.3356 27.5887 29.2749 27.2141 28.9721L22.6101 25.25H11C10.4033 25.25 9.83097 25.0129 9.40901 24.591C8.98705 24.169 8.75 23.5967 8.75 23V18C8.75 17.3096 9.30964 16.75 10 16.75C10.6904 16.75 11.25 17.3096 11.25 18V22.75H23.0521C23.3382 22.75 23.6156 22.8481 23.838 23.0279L26.75 25.3821V12.25H22C21.3096 12.25 20.75 11.6904 20.75 11Z" fill="black"/>
</svg>
