<svg width="32" height="32" viewBox="0 0 32 32" fill="none" xmlns="http://www.w3.org/2000/svg">
<path fill-rule="evenodd" clip-rule="evenodd" d="M5.25 8.25V27.3162L8.94373 24.2111C9.05549 24.1172 9.18284 24.0435 9.32002 23.9935L9.78081 23.8256C9.91799 23.7756 10.0629 23.75 10.2089 23.75H26.75V8.25H5.25ZM3.40901 6.40901C3.83097 5.98705 4.40326 5.75 5 5.75H27C27.5967 5.75 28.169 5.98705 28.591 6.40901C29.0129 6.83097 29.25 7.40326 29.25 8V24C29.25 24.5967 29.013 25.169 28.591 25.591C28.169 26.013 27.5967 26.25 27 26.25H10.4296L10.3835 26.2668L6.44783 29.5753C6.11984 29.851 5.71996 30.0273 5.29519 30.0835C4.87043 30.1397 4.43844 30.0735 4.05003 29.8926C3.66162 29.7117 3.33294 29.4236 3.10264 29.0623C2.87234 28.701 2.75 28.2814 2.75 27.853V8C2.75 7.40326 2.98705 6.83097 3.40901 6.40901Z" fill="black"/>
<path fill-rule="evenodd" clip-rule="evenodd" d="M10.75 14C10.75 13.3096 11.3096 12.75 12 12.75H20C20.6904 12.75 21.25 13.3096 21.25 14C21.25 14.6904 20.6904 15.25 20 15.25H12C11.3096 15.25 10.75 14.6904 10.75 14Z" fill="black"/>
<path fill-rule="evenodd" clip-rule="evenodd" d="M10.75 18C10.75 17.3096 11.3096 16.75 12 16.75H20C20.6904 16.75 21.25 17.3096 21.25 18C21.25 18.6904 20.6904 19.25 20 19.25H12C11.3096 19.25 10.75 18.6904 10.75 18Z" fill="black"/>
</svg>
