<svg width="32" height="32" viewBox="0 0 32 32" fill="none" xmlns="http://www.w3.org/2000/svg">
<path fill-rule="evenodd" clip-rule="evenodd" d="M5.25 8.25V27.3162L8.86452 24.2777C9.26997 23.9369 9.78267 23.75 10.3123 23.75H26.75V8.25H5.25ZM3.40901 6.40901C3.83097 5.98705 4.40326 5.75 5 5.75H27C27.5967 5.75 28.169 5.98705 28.591 6.40901C29.0129 6.83097 29.25 7.40326 29.25 8V24C29.25 24.5967 29.013 25.169 28.591 25.591C28.169 26.013 27.5967 26.25 27 26.25H10.4035L6.44783 29.5753C6.11984 29.851 5.71996 30.0273 5.29519 30.0835C4.87043 30.1397 4.43844 30.0735 4.05003 29.8926C3.66162 29.7117 3.33294 29.4236 3.10264 29.0623C2.87234 28.701 2.75 28.2814 2.75 27.853V8C2.75 7.40326 2.98705 6.83097 3.40901 6.40901Z" fill="black"/>
</svg>
