<svg width="32" height="32" viewBox="0 0 32 32" fill="none" xmlns="http://www.w3.org/2000/svg">
<path fill-rule="evenodd" clip-rule="evenodd" d="M10.7501 13C10.7501 12.3096 11.3098 11.75 12.0001 11.75H20.0001C20.6905 11.75 21.2501 12.3096 21.2501 13C21.2501 13.6904 20.6905 14.25 20.0001 14.25H12.0001C11.3098 14.25 10.7501 13.6904 10.7501 13Z" fill="black"/>
<path fill-rule="evenodd" clip-rule="evenodd" d="M10.7501 17C10.7501 16.3096 11.3098 15.75 12.0001 15.75H20.0001C20.6905 15.75 21.2501 16.3096 21.2501 17C21.2501 17.6904 20.6905 18.25 20.0001 18.25H12.0001C11.3098 18.25 10.7501 17.6904 10.7501 17Z" fill="black"/>
<path fill-rule="evenodd" clip-rule="evenodd" d="M5.25 7.25V22.7499H12.4338C12.8223 22.7499 13.2043 22.8506 13.5424 23.042C13.8805 23.2334 14.1633 23.5091 14.3632 23.8423L13.2913 24.4854L14.3632 23.8423L16 26.5704L17.6368 23.8423L18.7087 24.4854L17.6368 23.8423C17.8367 23.5091 18.1195 23.2334 18.4576 23.042C18.7957 22.8506 19.1777 22.7499 19.5662 22.7499L26.75 22.75V7.25H5.25ZM3.40901 5.40901C3.83097 4.98705 4.40326 4.75 5 4.75H27C27.5967 4.75 28.169 4.98705 28.591 5.40901C29.0129 5.83096 29.25 6.40326 29.25 7V23C29.25 23.5967 29.0129 24.169 28.591 24.591C28.169 25.0129 27.5967 25.25 27 25.25L19.7077 25.25L17.9294 28.2139C17.7295 28.5471 17.4467 28.8228 17.1086 29.0142C16.7705 29.2057 16.3885 29.3063 16 29.3063C15.6115 29.3063 15.2295 29.2057 14.8914 29.0142C14.5533 28.8228 14.2705 28.5471 14.0706 28.2139L12.2923 25.2499H5C4.40326 25.2499 3.83096 25.0129 3.40901 24.5909C2.98705 24.169 2.75 23.5967 2.75 22.9999V7C2.75 6.40326 2.98705 5.83097 3.40901 5.40901Z" fill="black"/>
</svg>
