<svg width="32" height="32" viewBox="0 0 32 32" fill="none" xmlns="http://www.w3.org/2000/svg">
<path fill-rule="evenodd" clip-rule="evenodd" d="M19.3839 9.61612C19.872 10.1043 19.872 10.8957 19.3839 11.3839L8.38388 22.3839C7.89574 22.872 7.1043 22.872 6.61614 22.3839L1.11614 16.8842C0.62797 16.396 0.627952 15.6046 1.1161 15.1164C1.60424 14.6282 2.3957 14.6282 2.88386 15.1163L7.49998 19.7323L17.6161 9.61612C18.1043 9.12796 18.8957 9.12796 19.3839 9.61612Z" fill="black"/>
<path fill-rule="evenodd" clip-rule="evenodd" d="M30.8839 9.61612C31.372 10.1043 31.372 10.8957 30.8839 11.3839L19.8839 22.3839C19.3957 22.872 18.6043 22.872 18.1161 22.3839L15.1945 19.4624C14.7063 18.9743 14.7063 18.1828 15.1945 17.6946C15.6826 17.2065 16.4741 17.2065 16.9622 17.6946L19 19.7323L29.1161 9.61612C29.6043 9.12796 30.3957 9.12796 30.8839 9.61612Z" fill="black"/>
</svg>
