<svg width="32" height="32" viewBox="0 0 32 32" fill="none" xmlns="http://www.w3.org/2000/svg">
<path fill-rule="evenodd" clip-rule="evenodd" d="M22.4042 12.1369C22.8809 12.6363 22.8625 13.4275 22.3631 13.9042L15.0297 20.9042C14.5467 21.3653 13.7866 21.3653 13.3035 20.9042L9.6369 17.4042C9.13753 16.9275 9.11914 16.1363 9.59581 15.6369C10.0725 15.1375 10.8637 15.1191 11.3631 15.5958L14.1666 18.2719L20.6369 12.0958C21.1363 11.6191 21.9275 11.6375 22.4042 12.1369Z" fill="black"/>
<path fill-rule="evenodd" clip-rule="evenodd" d="M16 5.25C10.0629 5.25 5.25 10.0629 5.25 16C5.25 21.9371 10.0629 26.75 16 26.75C21.9371 26.75 26.75 21.9371 26.75 16C26.75 10.0629 21.9371 5.25 16 5.25ZM2.75 16C2.75 8.68223 8.68223 2.75 16 2.75C23.3178 2.75 29.25 8.68223 29.25 16C29.25 23.3178 23.3178 29.25 16 29.25C8.68223 29.25 2.75 23.3178 2.75 16Z" fill="black"/>
</svg>
