<svg width="32" height="32" viewBox="0 0 32 32" fill="none" xmlns="http://www.w3.org/2000/svg">
<path d="M16 3C13.4288 3 10.9154 3.76244 8.77759 5.1909C6.63975 6.61935 4.97351 8.64968 3.98957 11.0251C3.00563 13.4006 2.74819 16.0144 3.2498 18.5362C3.75141 21.0579 4.98953 23.3743 6.80762 25.1924C8.6257 27.0105 10.9421 28.2486 13.4638 28.7502C15.9856 29.2518 18.5995 28.9944 20.9749 28.0104C23.3503 27.0265 25.3807 25.3603 26.8091 23.2224C28.2376 21.0846 29 18.5712 29 16C28.996 12.5534 27.6251 9.24912 25.188 6.81201C22.7509 4.3749 19.4466 3.00398 16 3ZM22.1914 13.7236L14.8574 20.7236C14.671 20.9011 14.4234 21 14.166 21C13.9086 21 13.6611 20.9011 13.4746 20.7236L9.8086 17.2236C9.61707 17.0402 9.5062 16.7882 9.50033 16.523C9.49446 16.2579 9.59407 16.0012 9.77729 15.8095C9.96051 15.6177 10.2124 15.5065 10.4775 15.5003C10.7426 15.4941 10.9994 15.5934 11.1914 15.7764L14.166 18.6172L20.8086 12.2764C21.0006 12.0934 21.2574 11.9941 21.5225 12.0003C21.7877 12.0065 22.0395 12.1177 22.2227 12.3095C22.4059 12.5012 22.5056 12.7579 22.4997 13.023C22.4938 13.2882 22.3829 13.5402 22.1914 13.7236Z" fill="black"/>
</svg>
