<svg width="32" height="32" viewBox="0 0 32 32" fill="none" xmlns="http://www.w3.org/2000/svg">
<path fill-rule="evenodd" clip-rule="evenodd" d="M9.75 3C9.75 2.30964 10.3096 1.75 11 1.75H21C21.6904 1.75 22.25 2.30964 22.25 3V8C22.25 8.69036 21.6904 9.25 21 9.25H11C10.3096 9.25 9.75 8.69036 9.75 8V3ZM12.25 4.25V6.75H19.75V4.25H12.25Z" fill="black"/>
<path fill-rule="evenodd" clip-rule="evenodd" d="M7.25 6.25H11C11.6904 6.25 12.25 5.69036 12.25 5C12.25 4.30964 11.6904 3.75 11 3.75H7C6.40326 3.75 5.83097 3.98705 5.40901 4.40901C4.98705 4.83097 4.75 5.40326 4.75 6V27C4.75 27.5967 4.98705 28.169 5.40901 28.591C5.83097 29.0129 6.40326 29.25 7 29.25H25C25.5967 29.25 26.169 29.013 26.591 28.591C27.013 28.169 27.25 27.5967 27.25 27V6C27.25 5.40326 27.0129 4.83097 26.591 4.40901C26.169 3.98705 25.5967 3.75 25 3.75H21C20.3096 3.75 19.75 4.30964 19.75 5C19.75 5.69036 20.3096 6.25 21 6.25H24.75V26.75H7.25V6.25Z" fill="black"/>
<path fill-rule="evenodd" clip-rule="evenodd" d="M10.75 19C10.75 18.3096 11.3096 17.75 12 17.75H20C20.6904 17.75 21.25 18.3096 21.25 19C21.25 19.6904 20.6904 20.25 20 20.25H12C11.3096 20.25 10.75 19.6904 10.75 19Z" fill="black"/>
<path fill-rule="evenodd" clip-rule="evenodd" d="M10.75 15C10.75 14.3096 11.3096 13.75 12 13.75H20C20.6904 13.75 21.25 14.3096 21.25 15C21.25 15.6904 20.6904 16.25 20 16.25H12C11.3096 16.25 10.75 15.6904 10.75 15Z" fill="black"/>
</svg>
