<svg width="32" height="32" viewBox="0 0 32 32" fill="none" xmlns="http://www.w3.org/2000/svg">
<path fill-rule="evenodd" clip-rule="evenodd" d="M16 8.75C16.6904 8.75 17.25 9.30964 17.25 10V16C17.25 16.6904 16.6904 17.25 16 17.25C15.3096 17.25 14.75 16.6904 14.75 16V10C14.75 9.30964 15.3096 8.75 16 8.75Z" fill="black"/>
<path fill-rule="evenodd" clip-rule="evenodd" d="M14.9174 15.3752C15.2626 14.7773 16.0271 14.5725 16.625 14.9177L21.8211 17.9177C22.419 18.2629 22.6238 19.0273 22.2786 19.6252C21.9335 20.2231 21.169 20.4279 20.5711 20.0827L15.375 17.0827C14.7771 16.7376 14.5723 15.9731 14.9174 15.3752Z" fill="black"/>
<path fill-rule="evenodd" clip-rule="evenodd" d="M28.021 6.21436C28.7114 6.21436 29.271 6.774 29.271 7.46436V12.4644C29.271 13.1547 28.7114 13.7144 28.021 13.7144H23.021C22.3306 13.7144 21.771 13.1547 21.771 12.4644C21.771 11.774 22.3306 11.2144 23.021 11.2144H26.771V7.46436C26.771 6.774 27.3306 6.21436 28.021 6.21436Z" fill="black"/>
<path fill-rule="evenodd" clip-rule="evenodd" d="M17.9021 6.43735C16.0108 6.06114 14.0504 6.25423 12.2688 6.99218C10.4873 7.73013 8.96452 8.97982 7.89317 10.5832C6.82183 12.1866 6.25 14.0716 6.25 16C6.25 17.9284 6.82183 19.8134 7.89317 21.4168C8.96451 23.0202 10.4873 24.2699 12.2688 25.0078C14.0504 25.7458 16.0108 25.9389 17.9021 25.5627C19.7934 25.1865 21.5307 24.2579 22.8943 22.8943C23.3824 22.4061 24.1739 22.4061 24.6621 22.8943C25.1502 23.3825 25.1502 24.1739 24.6621 24.6621C22.9489 26.3753 20.7661 27.542 18.3899 28.0146C16.0136 28.4873 13.5505 28.2447 11.3121 27.3175C9.07373 26.3904 7.16054 24.8202 5.8145 22.8057C4.46845 20.7912 3.75 18.4228 3.75 16C3.75 13.5772 4.46845 11.2088 5.8145 9.19427C7.16054 7.17977 9.07373 5.60965 11.3121 4.68248C13.5505 3.75531 16.0136 3.51272 18.3899 3.98539C20.7661 4.45805 22.9489 5.62475 24.6621 7.33795L23.8203 8.17974L24.6621 7.33795L28.9047 11.5806C29.3929 12.0687 29.3929 12.8602 28.9047 13.3484C28.4165 13.8365 27.6251 13.8365 27.1369 13.3484L22.8943 9.10571C21.5307 7.74215 19.7934 6.81355 17.9021 6.43735Z" fill="black"/>
</svg>
