<svg width="32" height="32" viewBox="0 0 32 32" fill="none" xmlns="http://www.w3.org/2000/svg">
<path fill-rule="evenodd" clip-rule="evenodd" d="M16 5.25C10.0629 5.25 5.25 10.0629 5.25 16C5.25 21.9371 10.0629 26.75 16 26.75C21.9371 26.75 26.75 21.9371 26.75 16C26.75 10.0629 21.9371 5.25 16 5.25ZM2.75 16C2.75 8.68223 8.68223 2.75 16 2.75C23.3178 2.75 29.25 8.68223 29.25 16C29.25 23.3178 23.3178 29.25 16 29.25C8.68223 29.25 2.75 23.3178 2.75 16Z" fill="black"/>
<path fill-rule="evenodd" clip-rule="evenodd" d="M13.75 16C13.75 15.3096 14.3096 14.75 15 14.75L23 14.75C23.6904 14.75 24.25 15.3096 24.25 16C24.25 16.6904 23.6904 17.25 23 17.25L15 17.25C14.3096 17.25 13.75 16.6904 13.75 16Z" fill="black"/>
<path fill-rule="evenodd" clip-rule="evenodd" d="M14.1998 15.0398C14.7301 14.5978 15.5184 14.6695 15.9603 15.1998L20.9603 21.1998C21.4023 21.7301 21.3306 22.5184 20.8003 22.9603C20.2699 23.4023 19.4817 23.3306 19.0398 22.8003L14.0398 16.8003C13.5978 16.2699 13.6695 15.4817 14.1998 15.0398Z" fill="black"/>
</svg>
