<svg width="32" height="32" viewBox="0 0 32 32" fill="none" xmlns="http://www.w3.org/2000/svg">
<path fill-rule="evenodd" clip-rule="evenodd" d="M16 8.75C16.6904 8.75 17.25 9.30964 17.25 10V16C17.25 16.6904 16.6904 17.25 16 17.25C15.3096 17.25 14.75 16.6904 14.75 16V10C14.75 9.30964 15.3096 8.75 16 8.75Z" fill="black"/>
<path fill-rule="evenodd" clip-rule="evenodd" d="M14.9174 15.3752C15.2626 14.7773 16.0271 14.5725 16.625 14.9177L21.8211 17.9177C22.419 18.2629 22.6238 19.0273 22.2786 19.6252C21.9335 20.2231 21.169 20.4279 20.5711 20.0827L15.375 17.0827C14.7771 16.7376 14.5723 15.9731 14.9174 15.3752Z" fill="black"/>
<path fill-rule="evenodd" clip-rule="evenodd" d="M3.979 6.21436C4.66936 6.21436 5.229 6.774 5.229 7.46436V11.2144H8.979C9.66936 11.2144 10.229 11.774 10.229 12.4644C10.229 13.1547 9.66936 13.7144 8.979 13.7144H3.979C3.28865 13.7144 2.729 13.1547 2.729 12.4644V7.46436C2.729 6.774 3.28865 6.21436 3.979 6.21436Z" fill="black"/>
<path fill-rule="evenodd" clip-rule="evenodd" d="M13.61 3.98539C15.9862 3.51272 18.4493 3.75531 20.6877 4.68248C22.9261 5.60965 24.8393 7.17977 26.1853 9.19427C27.5314 11.2088 28.2498 13.5772 28.2498 16C28.2498 18.4228 27.5314 20.7912 26.1853 22.8057C24.8393 24.8202 22.9261 26.3904 20.6877 27.3175C18.4493 28.2447 15.9862 28.4873 13.61 28.0146C11.2337 27.542 9.05095 26.3753 7.33776 24.6621C6.8496 24.1739 6.8496 23.3825 7.33776 22.8943C7.82592 22.4061 8.61737 22.4061 9.10553 22.8943C10.4691 24.2579 12.2064 25.1865 14.0977 25.5627C15.989 25.9389 17.9494 25.7458 19.731 25.0078C21.5126 24.2699 23.0353 23.0202 24.1066 21.4168C25.178 19.8134 25.7498 17.9284 25.7498 16C25.7498 14.0716 25.178 12.1866 24.1066 10.5832C23.0353 8.97982 21.5126 7.73013 19.731 6.99218C17.9494 6.25423 15.989 6.06114 14.0977 6.43735C12.2064 6.81355 10.4691 7.74215 9.10553 9.10571L4.86289 13.3484C4.37473 13.8365 3.58328 13.8365 3.09512 13.3484C2.60697 12.8602 2.60696 12.0687 3.09512 11.5806L7.33776 7.33795C9.05095 5.62475 11.2337 4.45805 13.61 3.98539Z" fill="black"/>
</svg>
