<svg width="32" height="32" viewBox="0 0 32 32" fill="none" xmlns="http://www.w3.org/2000/svg">
<path fill-rule="evenodd" clip-rule="evenodd" d="M11 1.75C11.6904 1.75 12.25 2.30964 12.25 3V7C12.25 7.69036 11.6904 8.25 11 8.25C10.3096 8.25 9.75 7.69036 9.75 7V3C9.75 2.30964 10.3096 1.75 11 1.75Z" fill="black"/>
<path fill-rule="evenodd" clip-rule="evenodd" d="M15 1.75C15.6904 1.75 16.25 2.30964 16.25 3V7C16.25 7.69036 15.6904 8.25 15 8.25C14.3096 8.25 13.75 7.69036 13.75 7V3C13.75 2.30964 14.3096 1.75 15 1.75Z" fill="black"/>
<path fill-rule="evenodd" clip-rule="evenodd" d="M19 1.75C19.6904 1.75 20.25 2.30964 20.25 3V7C20.25 7.69036 19.6904 8.25 19 8.25C18.3096 8.25 17.75 7.69036 17.75 7V3C17.75 2.30964 18.3096 1.75 19 1.75Z" fill="black"/>
<path fill-rule="evenodd" clip-rule="evenodd" d="M2.75 27C2.75 26.3096 3.30964 25.75 4 25.75H26C26.6904 25.75 27.25 26.3096 27.25 27C27.25 27.6904 26.6904 28.25 26 28.25H4C3.30964 28.25 2.75 27.6904 2.75 27Z" fill="black"/>
<path fill-rule="evenodd" clip-rule="evenodd" d="M2.75 11C2.75 10.3096 3.30964 9.75 4 9.75H26C26.6904 9.75 27.25 10.3096 27.25 11V16.9998C27.25 16.9999 27.25 16.9997 27.25 16.9998C27.2503 19.3448 26.5777 21.6408 25.312 23.6148C24.0463 25.5889 22.2406 27.1583 20.1093 28.1365C19.4819 28.4245 18.7398 28.1494 18.4518 27.522C18.1638 26.8946 18.439 26.1525 19.0664 25.8645C20.7627 25.0858 22.2 23.8367 23.2075 22.2654C24.2149 20.6941 24.7503 18.8667 24.75 17.0002V12.25H5.25V17C5.2497 18.8665 5.78506 20.6941 6.79252 22.2654C7.79998 23.8366 9.23721 25.0858 10.9335 25.8644C11.561 26.1524 11.8361 26.8945 11.5481 27.5219C11.2601 28.1494 10.518 28.4245 9.89059 28.1365C7.75938 27.1582 5.9537 25.5888 4.68797 23.6148C3.42227 21.6407 2.74966 19.3449 2.75 17C2.75 16.9999 2.75 17.0001 2.75 17V11Z" fill="black"/>
<path fill-rule="evenodd" clip-rule="evenodd" d="M24.7499 11C24.7499 10.3096 25.3096 9.75 25.9999 9.75C27.3923 9.75 28.7277 10.3031 29.7123 11.2877C30.6968 12.2723 31.2499 13.6076 31.2499 15V16C31.2499 17.3924 30.6968 18.7277 29.7123 19.7123C28.7277 20.6969 27.3923 21.25 25.9999 21.25H25.5776C24.8873 21.25 24.3276 20.6904 24.3276 20C24.3276 19.3096 24.8873 18.75 25.5776 18.75H25.9999C26.7293 18.75 27.4288 18.4603 27.9445 17.9445C28.4602 17.4288 28.7499 16.7293 28.7499 16V15C28.7499 14.2707 28.4602 13.5712 27.9445 13.0555C27.4288 12.5397 26.7293 12.25 25.9999 12.25C25.3096 12.25 24.7499 11.6904 24.7499 11Z" fill="black"/>
</svg>
