<svg width="32" height="32" viewBox="0 0 32 32" fill="none" xmlns="http://www.w3.org/2000/svg">
<path fill-rule="evenodd" clip-rule="evenodd" d="M16 5.25C10.0629 5.25 5.25 10.0629 5.25 16C5.25 21.9371 10.0629 26.75 16 26.75C21.9371 26.75 26.75 21.9371 26.75 16C26.75 10.0629 21.9371 5.25 16 5.25ZM2.75 16C2.75 8.68223 8.68223 2.75 16 2.75C23.3178 2.75 29.25 8.68223 29.25 16C29.25 23.3178 23.3178 29.25 16 29.25C8.68223 29.25 2.75 23.3178 2.75 16Z" fill="black"/>
<path fill-rule="evenodd" clip-rule="evenodd" d="M22.5154 9.46875C22.8839 9.83648 22.9859 10.3941 22.7715 10.8685L19.2597 18.6364C19.131 18.9211 18.9003 19.1473 18.6131 19.2704L11.1885 22.4522C10.7187 22.6536 10.1736 22.5486 9.81219 22.1872C9.45077 21.8258 9.34581 21.2807 9.54715 20.8109L12.7292 13.3863C12.8519 13.0999 13.0771 12.8697 13.3608 12.7407L21.1152 9.21562C21.5891 9.00017 22.1469 9.10101 22.5154 9.46875ZM14.8362 14.8162L13.076 18.9234L17.1818 17.1638L19.1245 12.8668L14.8362 14.8162Z" fill="black"/>
</svg>
