<svg width="32" height="32" viewBox="0 0 32 32" fill="none" xmlns="http://www.w3.org/2000/svg">
<path fill-rule="evenodd" clip-rule="evenodd" d="M4.25 8.25V23.75H27.75V8.25H4.25ZM1.75 8C1.75 6.75736 2.75736 5.75 4 5.75H28C29.2426 5.75 30.25 6.75736 30.25 8V24C30.25 25.2426 29.2426 26.25 28 26.25H4C2.75736 26.25 1.75 25.2426 1.75 24V8Z" fill="black"/>
<path fill-rule="evenodd" clip-rule="evenodd" d="M19.7493 21C19.7493 20.3096 20.3089 19.75 20.9993 19.75H24.9993C25.6896 19.75 26.2493 20.3096 26.2493 21C26.2493 21.6904 25.6896 22.25 24.9993 22.25H20.9993C20.3089 22.25 19.7493 21.6904 19.7493 21Z" fill="black"/>
<path fill-rule="evenodd" clip-rule="evenodd" d="M13.7493 21C13.7493 20.3096 14.3089 19.75 14.9993 19.75H16.9993C17.6896 19.75 18.2493 20.3096 18.2493 21C18.2493 21.6904 17.6896 22.25 16.9993 22.25H14.9993C14.3089 22.25 13.7493 21.6904 13.7493 21Z" fill="black"/>
<path fill-rule="evenodd" clip-rule="evenodd" d="M1.74927 12.1064C1.74927 11.4161 2.30891 10.8564 2.99927 10.8564H28.9993C29.6896 10.8564 30.2493 11.4161 30.2493 12.1064C30.2493 12.7968 29.6896 13.3564 28.9993 13.3564H2.99927C2.30891 13.3564 1.74927 12.7968 1.74927 12.1064Z" fill="black"/>
</svg>
