<svg width="32" height="32" viewBox="0 0 32 32" fill="none" xmlns="http://www.w3.org/2000/svg">
<path fill-rule="evenodd" clip-rule="evenodd" d="M16 5.25C10.0629 5.25 5.25 10.0629 5.25 16C5.25 21.9371 10.0629 26.75 16 26.75C21.9371 26.75 26.75 21.9371 26.75 16C26.75 10.0629 21.9371 5.25 16 5.25ZM2.75 16C2.75 8.68223 8.68223 2.75 16 2.75C23.3178 2.75 29.25 8.68223 29.25 16C29.25 23.3178 23.3178 29.25 16 29.25C8.68223 29.25 2.75 23.3178 2.75 16Z" fill="black"/>
<path fill-rule="evenodd" clip-rule="evenodd" d="M20.8839 11.1161C21.372 11.6043 21.372 12.3957 20.8839 12.8839L12.8839 20.8839C12.3957 21.372 11.6043 21.372 11.1161 20.8839C10.628 20.3957 10.628 19.6043 11.1161 19.1161L19.1161 11.1161C19.6043 10.628 20.3957 10.628 20.8839 11.1161Z" fill="black"/>
<path fill-rule="evenodd" clip-rule="evenodd" d="M11.1161 11.1161C11.6043 10.628 12.3957 10.628 12.8839 11.1161L20.8839 19.1161C21.372 19.6043 21.372 20.3957 20.8839 20.8839C20.3957 21.372 19.6043 21.372 19.1161 20.8839L11.1161 12.8839C10.628 12.3957 10.628 11.6043 11.1161 11.1161Z" fill="black"/>
</svg>
