<svg width="32" height="32" viewBox="0 0 32 32" fill="none" xmlns="http://www.w3.org/2000/svg">
<path fill-rule="evenodd" clip-rule="evenodd" d="M25.8839 6.11612C26.372 6.60427 26.372 7.39573 25.8839 7.88388L7.88388 25.8839C7.39573 26.372 6.60427 26.372 6.11612 25.8839C5.62796 25.3957 5.62796 24.6043 6.11612 24.1161L24.1161 6.11612C24.6043 5.62796 25.3957 5.62796 25.8839 6.11612Z" fill="black"/>
<path fill-rule="evenodd" clip-rule="evenodd" d="M6.11612 6.11612C6.60427 5.62796 7.39573 5.62796 7.88388 6.11612L25.8839 24.1161C26.372 24.6043 26.372 25.3957 25.8839 25.8839C25.3957 26.372 24.6043 26.372 24.1161 25.8839L6.11612 7.88388C5.62796 7.39573 5.62796 6.60427 6.11612 6.11612Z" fill="black"/>
</svg>
