<svg width="32" height="32" viewBox="0 0 32 32" fill="none" xmlns="http://www.w3.org/2000/svg">
<path fill-rule="evenodd" clip-rule="evenodd" d="M9.86612 12.8661C10.3543 12.378 11.1457 12.378 11.6339 12.8661L16 17.2322L20.3661 12.8661C20.8543 12.378 21.6457 12.378 22.1339 12.8661C22.622 13.3543 22.622 14.1457 22.1339 14.6339L16.8839 19.8839C16.3957 20.372 15.6043 20.372 15.1161 19.8839L9.86612 14.6339C9.37796 14.1457 9.37796 13.3543 9.86612 12.8661Z" fill="black"/>
<path fill-rule="evenodd" clip-rule="evenodd" d="M16 3.74609C16.6904 3.74609 17.25 4.30574 17.25 4.99609V18.9961C17.25 19.6865 16.6904 20.2461 16 20.2461C15.3096 20.2461 14.75 19.6865 14.75 18.9961V4.99609C14.75 4.30574 15.3096 3.74609 16 3.74609Z" fill="black"/>
<path fill-rule="evenodd" clip-rule="evenodd" d="M4 15.75C4.69036 15.75 5.25 16.3096 5.25 17V25.75H26.75V17C26.75 16.3096 27.3096 15.75 28 15.75C28.6904 15.75 29.25 16.3096 29.25 17V26C29.25 26.5967 29.013 27.169 28.591 27.591C28.169 28.0129 27.5967 28.25 27 28.25H5C4.40326 28.25 3.83097 28.0129 3.40901 27.591C2.98705 27.169 2.75 26.5967 2.75 26V17C2.75 16.3096 3.30964 15.75 4 15.75Z" fill="black"/>
</svg>
