<svg width="32" height="32" viewBox="0 0 32 32" fill="none" xmlns="http://www.w3.org/2000/svg">
<path fill-rule="evenodd" clip-rule="evenodd" d="M15.3066 2.95994C15.7265 2.68002 16.2735 2.68002 16.6934 2.95994L28.6934 10.9599C29.0411 11.1918 29.25 11.5821 29.25 12V25C29.25 25.5967 29.013 26.169 28.591 26.591C28.169 27.013 27.5967 27.25 27 27.25H5C4.40326 27.25 3.83097 27.0129 3.40901 26.591C2.98705 26.169 2.75 25.5967 2.75 25V12C2.75 11.5821 2.95888 11.1918 3.30662 10.9599L15.3066 2.95994ZM5.25 12.669V24.75H26.75V12.669L16 5.50231L5.25 12.669Z" fill="black"/>
<path fill-rule="evenodd" clip-rule="evenodd" d="M2.9823 11.2744C3.38307 10.7123 4.16364 10.5815 4.72576 10.9823L14.2182 17.7501H17.782L27.2744 10.9823C27.8366 10.5815 28.6171 10.7123 29.0179 11.2744C29.4187 11.8366 29.2879 12.6171 28.7258 13.0179L18.9076 20.0179C18.6958 20.1689 18.4421 20.2501 18.182 20.2501H13.8182C13.5581 20.2501 13.3044 20.1689 13.0926 20.0179L3.27444 13.0179C2.71232 12.6171 2.58153 11.8366 2.9823 11.2744Z" fill="black"/>
</svg>
