<svg width="32" height="32" viewBox="0 0 32 32" fill="none" xmlns="http://www.w3.org/2000/svg">
<path fill-rule="evenodd" clip-rule="evenodd" d="M2.75 7C2.75 6.30964 3.30964 5.75 4 5.75H28C28.6904 5.75 29.25 6.30964 29.25 7V24C29.25 24.5967 29.013 25.169 28.591 25.591C28.169 26.013 27.5967 26.25 27 26.25H5C4.40326 26.25 3.83097 26.0129 3.40901 25.591C2.98705 25.169 2.75 24.5967 2.75 24V7ZM5.25 8.25V23.75H26.75V8.25H5.25Z" fill="black"/>
<path fill-rule="evenodd" clip-rule="evenodd" d="M3.07856 6.15535C3.54506 5.64645 4.33576 5.61207 4.84466 6.07856L16 16.3043L27.1554 6.07856C27.6643 5.61207 28.455 5.64645 28.9214 6.15535C29.3879 6.66425 29.3536 7.45496 28.8447 7.92145L16.8447 18.9215C16.3668 19.3595 15.6333 19.3595 15.1554 18.9215L3.15535 7.92145C2.64645 7.45496 2.61207 6.66425 3.07856 6.15535Z" fill="black"/>
</svg>
