<svg width="32" height="32" viewBox="0 0 32 32" fill="none" xmlns="http://www.w3.org/2000/svg">
<path d="M20.2999 18.9002L13.6 11.5002L6.89995 4.20017C6.49995 3.60017 5.69995 3.60017 5.19995 4.10017C4.59995 4.50017 4.59995 5.30017 5.09995 5.80017L7.29995 8.20017C2.89995 11.0002 0.999951 15.2002 0.899951 15.4002C0.799951 15.7002 0.799951 16.1002 0.899951 16.4002C0.999951 16.9002 5.29995 26.2002 16 26.2002H16.1C18.3 26.2002 20.4 25.7002 22.4 24.9002L25.1 27.8002C25.3 28.1002 25.7 28.2002 26 28.2002C26.2999 28.2002 26.5999 28.1002 26.7999 27.9002C27.2999 27.4002 27.2999 26.6002 26.9 26.1002L20.2999 18.9002ZM12.7 14.2002L17.4 19.4002C16.9 19.6002 16.3 19.7002 15.8 19.7002C14.8 19.7002 13.9 19.2002 13.2 18.5002C12.5 17.8002 12.2 16.8002 12.2 15.8002C12.3 15.3002 12.4 14.7002 12.7 14.2002ZM16.1 23.7002C8.19995 23.7002 4.39995 17.8002 3.39995 16.0002C3.99995 14.9002 5.79995 12.1002 8.99995 10.2002L11 12.3002C10.3 13.3002 9.89995 14.5002 9.79995 15.7002C9.69995 17.3002 10.3 19.0002 11.4 20.2002C12.5 21.4002 14.1 22.2002 15.7 22.2002C15.8 22.2002 15.9 22.2002 16 22.2002C17.1 22.2002 18.2 21.9002 19.2 21.3002L20.7 22.9002C19.2 23.5002 17.7 23.7002 16.1 23.7002ZM31.1 16.5002C31 16.6002 29.7999 19.5002 26.9 22.1002C26.6999 22.3002 26.4 22.4002 26.1 22.4002C25.8 22.4002 25.4 22.3002 25.2 22.0002C24.7 21.5002 24.7999 20.7002 25.2999 20.2002C27.0999 18.6002 28.2 16.8002 28.7 16.0002C27.7 14.2002 23.9 8.30017 16.1 8.30017C15.3 8.30017 14.5 8.40017 13.7 8.50017C13 8.60017 12.4 8.20017 12.3 7.50017C12.2 6.80017 12.6 6.20017 13.3 6.10017C14.2 5.90017 15.2 5.90017 16.1 5.90017C26.8 5.90017 31.1 15.2002 31.2 15.6002C31.3 15.8002 31.3 16.2002 31.1 16.5002ZM16.8 12.1002C16.3 12.0002 15.9 11.5002 16 10.9002C16.1 10.4002 16.6 10.0002 17.2 10.1002C18.5 10.3002 19.6 11.0002 20.5 12.0002C21.4 13.0002 21.9 14.2002 22 15.5002C22.1 16.0002 21.6 16.5002 21.1 16.6002H21C20.5 16.6002 20.1 16.2002 20 15.7002C19.9 14.8002 19.6 14.0002 19 13.4002C18.4 12.7002 17.6 12.2002 16.8 12.1002Z" fill="black"/>
</svg>
