<svg width="32" height="32" viewBox="0 0 32 32" fill="none" xmlns="http://www.w3.org/2000/svg">
<path fill-rule="evenodd" clip-rule="evenodd" d="M24.5185 20.8308C25.1164 20.4856 25.8809 20.6904 26.2261 21.2883L29.0773 26.2268C29.4225 26.8246 29.2176 27.5891 28.6198 27.9343C28.0219 28.2795 27.2574 28.0746 26.9122 27.4768L24.061 22.5383C23.7158 21.9404 23.9207 21.1759 24.5185 20.8308Z" fill="black"/>
<path fill-rule="evenodd" clip-rule="evenodd" d="M19.0559 23.4269C19.7357 23.307 20.384 23.761 20.5039 24.4409L21.3931 29.4839C21.513 30.1637 21.0591 30.812 20.3792 30.9319C19.6993 31.0518 19.051 30.5978 18.9311 29.918L18.0419 24.875C17.922 24.1951 18.376 23.5468 19.0559 23.4269Z" fill="black"/>
<path fill-rule="evenodd" clip-rule="evenodd" d="M12.933 23.4245C13.6129 23.5444 14.0669 24.1927 13.947 24.8725L13.0576 29.9164C12.9378 30.5962 12.2894 31.0502 11.6096 30.9303C10.9297 30.8104 10.4757 30.1621 10.5956 29.4822L11.485 24.4384C11.6049 23.7586 12.2532 23.3046 12.933 23.4245Z" fill="black"/>
<path fill-rule="evenodd" clip-rule="evenodd" d="M7.47626 20.8264C8.07413 21.1715 8.27897 21.936 7.9338 22.5339L5.06882 27.4962C4.72365 28.094 3.95916 28.2989 3.36129 27.9537C2.76343 27.6085 2.55858 26.844 2.90376 26.2462L5.76873 21.2839C6.11391 20.686 6.8784 20.4812 7.47626 20.8264Z" fill="black"/>
<path fill-rule="evenodd" clip-rule="evenodd" d="M3.21451 18.1371C3.75151 17.7032 4.53854 17.7869 4.97238 18.3239C6.93615 20.7546 10.466 23.75 16.0001 23.75C21.5342 23.75 25.064 20.7547 27.0278 18.3239C27.4617 17.7869 28.2487 17.7033 28.7857 18.1371C29.3227 18.571 29.4063 19.358 28.9725 19.895C26.7331 22.6668 22.5576 26.25 16.0001 26.25C9.44257 26.25 5.26705 22.6668 3.02771 19.895C2.59387 19.3579 2.6775 18.5709 3.21451 18.1371Z" fill="black"/>
</svg>
