<svg width="32" height="32" viewBox="0 0 32 32" fill="none" xmlns="http://www.w3.org/2000/svg">
<path fill-rule="evenodd" clip-rule="evenodd" d="M4.36607 10.6157C6.78334 8.19815 10.5842 5.74902 16 5.74902C21.4158 5.74902 25.2167 8.19815 27.6339 10.6157C28.839 11.8208 29.7076 13.0238 30.2766 13.9276C30.5617 14.3805 30.7734 14.7611 30.9159 15.0333C30.9872 15.1695 31.0414 15.2788 31.0789 15.3567C31.0977 15.3957 31.1123 15.4268 31.1228 15.4496L31.1356 15.4775L31.1397 15.4866L31.1412 15.4899L31.1418 15.4912C31.142 15.4918 31.1423 15.4924 30 16C31.1422 16.5077 31.142 16.5083 31.1417 16.5089L31.1411 16.5102L31.1397 16.5135L31.1355 16.5226L31.1228 16.5505C31.1123 16.5732 31.0976 16.6044 31.0789 16.6434C31.0413 16.7213 30.9872 16.8306 30.9159 16.9667C30.7733 17.2389 30.5616 17.6194 30.2765 18.0722C29.7075 18.9758 28.8389 20.1785 27.6338 21.3834C25.2165 23.8005 21.4157 26.249 16 26.249C10.5843 26.249 6.78346 23.8005 4.36616 21.3834C3.16113 20.1785 2.2925 18.9758 1.72349 18.0722C1.43837 17.6194 1.2267 17.2389 1.08414 16.9667C1.01282 16.8306 0.958659 16.7213 0.921134 16.6434C0.902367 16.6044 0.887747 16.5732 0.87721 16.5505L0.864451 16.5226L0.860349 16.5135L0.858864 16.5102L0.858263 16.5089C0.858002 16.5083 0.857756 16.5077 2 16C0.857715 15.4924 0.857961 15.4918 0.858222 15.4912L0.858823 15.4899L0.860307 15.4866L0.864409 15.4775L0.877166 15.4496C0.887703 15.4268 0.902322 15.3957 0.921088 15.3567C0.958612 15.2788 1.01277 15.1695 1.08409 15.0333C1.22664 14.7611 1.43831 14.3805 1.72343 13.9276C2.29243 13.0238 3.16104 11.8208 4.36607 10.6157ZM2 16L0.857715 15.4924C0.714081 15.8156 0.714096 16.1845 0.857756 16.5077L2 16ZM3.40238 15.9999C3.51226 16.2002 3.65733 16.4515 3.83901 16.74C4.3325 17.5237 5.08887 18.5707 6.13384 19.6156C8.21654 21.6981 11.4157 23.749 16 23.749C20.5843 23.749 23.7835 21.6981 25.8662 19.6156C26.9111 18.5707 27.6675 17.5237 28.161 16.74C28.3427 16.4515 28.4877 16.2002 28.5976 15.9999C28.4877 15.7996 28.3426 15.5482 28.1609 15.2596C27.6674 14.4757 26.911 13.4284 25.8661 12.3833C23.7833 10.3004 20.5842 8.24902 16 8.24902C11.4158 8.24902 8.21666 10.3004 6.13393 12.3833C5.08896 13.4284 4.33257 14.4757 3.83907 15.2596C3.65736 15.5482 3.51227 15.7996 3.40238 15.9999ZM30 16L31.1422 16.5077C31.2859 16.1845 31.2859 15.8156 31.1423 15.4924L30 16Z" fill="black"/>
<path fill-rule="evenodd" clip-rule="evenodd" d="M16 12.25C13.9289 12.25 12.25 13.9289 12.25 16C12.25 18.0711 13.9289 19.75 16 19.75C18.0711 19.75 19.75 18.0711 19.75 16C19.75 13.9289 18.0711 12.25 16 12.25ZM9.75 16C9.75 12.5482 12.5482 9.75 16 9.75C19.4518 9.75 22.25 12.5482 22.25 16C22.25 19.4518 19.4518 22.25 16 22.25C12.5482 22.25 9.75 19.4518 9.75 16Z" fill="black"/>
</svg>
