<svg width="33" height="32" viewBox="0 0 33 32" fill="none" xmlns="http://www.w3.org/2000/svg">
<path d="M22.5 14.1888C22.5 14.5203 22.3683 14.8383 22.1339 15.0727C21.8995 15.3071 21.5815 15.4388 21.25 15.4388H11.25C10.9185 15.4388 10.6006 15.3071 10.3661 15.0727C10.1317 14.8383 10 14.5203 10 14.1888C10 13.8573 10.1317 13.5393 10.3661 13.3049C10.6006 13.0705 10.9185 12.9388 11.25 12.9388H21.25C21.5815 12.9388 21.8995 13.0705 22.1339 13.3049C22.3683 13.5393 22.5 13.8573 22.5 14.1888ZM21.25 16.9388H11.25C10.9185 16.9388 10.6006 17.0705 10.3661 17.3049C10.1317 17.5393 10 17.8573 10 18.1888C10 18.5203 10.1317 18.8383 10.3661 19.0727C10.6006 19.3071 10.9185 19.4388 11.25 19.4388H21.25C21.5815 19.4388 21.8995 19.3071 22.1339 19.0727C22.3683 18.8383 22.5 18.5203 22.5 18.1888C22.5 17.8573 22.3683 17.5393 22.1339 17.3049C21.8995 17.0705 21.5815 16.9388 21.25 16.9388ZM32.5 13.1888V16.1888C32.4948 17.3144 32.0453 18.3923 31.2494 19.1882C30.4535 19.9841 29.3756 20.4335 28.25 20.4388H27.77C25.46 25.2688 18.35 27.0288 16.71 27.3688C16.407 27.4355 16.0931 27.4355 15.79 27.3688C14.15 26.9988 7.00003 25.2688 4.73003 20.4388H4.25003C3.69226 20.4385 3.14005 20.3279 2.62519 20.1134C2.11032 19.8989 1.64297 19.5847 1.25003 19.1888C0.852374 18.7972 0.536962 18.3301 0.322308 17.8149C0.107653 17.2998 -0.00191847 16.7469 2.5418e-05 16.1888V13.1888C2.23026e-05 12.0634 0.446416 10.9839 1.24128 10.1871C2.03615 9.39039 3.11459 8.94145 4.24003 8.93881C4.28242 8.81573 4.3395 8.69822 4.41003 8.58881C4.6745 8.21254 5.04793 7.92636 5.48003 7.76881L15.48 4.13881C15.9698 3.95373 16.5103 3.95373 17 4.13881L27 7.76881C27.4351 7.92609 27.8095 8.21652 28.07 8.59881C28.1424 8.70355 28.1997 8.81802 28.24 8.93881C28.799 8.93749 29.3527 9.04645 29.8695 9.25944C30.3863 9.47244 30.856 9.78528 31.2517 10.1801C31.6474 10.5748 31.9614 11.0438 32.1756 11.5601C32.3898 12.0764 32.5 12.6298 32.5 13.1888ZM4.00003 17.9088C3.98453 17.6691 3.98453 17.4286 4.00003 17.1888V11.4588C3.61688 11.5254 3.26585 11.715 3.00003 11.9988C2.68695 12.3167 2.50796 12.7427 2.50003 13.1888V16.1888C2.49826 16.4167 2.54152 16.6426 2.62733 16.8537C2.71313 17.0648 2.83979 17.2568 3.00003 17.4188C3.26843 17.6904 3.62091 17.8631 4.00003 17.9088ZM26 17.1888V10.0588L16.25 6.51881L6.50003 10.0588V17.1888C6.50003 22.6188 15.02 24.6488 16.25 24.9088C17.5 24.6388 26 22.6188 26 17.1888ZM30 13.1888C29.9854 12.7422 29.8034 12.3174 29.49 11.9988C29.2198 11.7297 28.8683 11.5575 28.49 11.5088V17.2388C28.5052 17.4819 28.5052 17.7257 28.49 17.9688C28.8688 17.9153 29.2199 17.7397 29.49 17.4688C29.6582 17.3018 29.7902 17.102 29.878 16.8818C29.9657 16.6616 30.0072 16.4257 30 16.1888V13.1888Z" fill="black"/>
</svg>
