<svg width="32" height="32" viewBox="0 0 32 32" fill="none" xmlns="http://www.w3.org/2000/svg">
<path fill-rule="evenodd" clip-rule="evenodd" d="M7.24902 5.25V26.75H24.75V11.5178L18.4822 5.25H7.24902ZM5.40803 3.40901C5.82999 2.98705 6.40229 2.75 6.99902 2.75H19C19.3315 2.75 19.6495 2.8817 19.8839 3.11612L26.8839 10.1161C27.1183 10.3505 27.25 10.6685 27.25 11V27C27.25 27.2955 27.1918 27.588 27.0787 27.861C26.9657 28.134 26.7999 28.3821 26.591 28.591C26.3821 28.7999 26.134 28.9657 25.861 29.0787C25.5881 29.1918 25.2955 29.25 25 29.25H6.99902C6.40229 29.25 5.82999 29.013 5.40803 28.591C4.98607 28.169 4.74902 27.5967 4.74902 27V5C4.74902 4.40326 4.98608 3.83097 5.40803 3.40901Z" fill="black"/>
<path fill-rule="evenodd" clip-rule="evenodd" d="M19 3C19.5523 3 20 3.44772 20 4V10H26.001C26.5533 10 27.001 10.4477 27.001 11C27.001 11.5523 26.5533 12 26.001 12H19C18.4477 12 18 11.5523 18 11V4C18 3.44772 18.4477 3 19 3Z" fill="black"/>
<path fill-rule="evenodd" clip-rule="evenodd" d="M11 17C11 16.4477 11.4477 16 12 16H20C20.5523 16 21 16.4477 21 17C21 17.5523 20.5523 18 20 18H12C11.4477 18 11 17.5523 11 17Z" fill="black"/>
<path fill-rule="evenodd" clip-rule="evenodd" d="M11 21C11 20.4477 11.4477 20 12 20H20C20.5523 20 21 20.4477 21 21C21 21.5523 20.5523 22 20 22H12C11.4477 22 11 21.5523 11 21Z" fill="black"/>
</svg>
