<svg width="32" height="32" viewBox="0 0 32 32" fill="none" xmlns="http://www.w3.org/2000/svg">
<path d="M23.6107 16.2286C23.6179 20.3006 22.8228 24.334 21.2707 28.0986C21.1789 28.3286 21.0202 28.5258 20.8153 28.6648C20.6103 28.8039 20.3684 28.8783 20.1207 28.8786C19.9566 28.8778 19.794 28.8473 19.6407 28.7886C19.3346 28.6624 19.0911 28.4199 18.9636 28.1143C18.8361 27.8087 18.8351 27.465 18.9607 27.1586C20.3854 23.691 21.1158 19.9775 21.1107 16.2286C21.1107 15.8971 21.2424 15.5792 21.4769 15.3447C21.7113 15.1103 22.0292 14.9786 22.3607 14.9786C22.6923 14.9786 23.0102 15.1103 23.2446 15.3447C23.4791 15.5792 23.6107 15.8971 23.6107 16.2286ZM14.6607 11.7886C15.562 11.45 16.5437 11.3874 17.4807 11.6086C18.4152 11.8369 19.2587 12.3423 19.9007 13.0586C20.1277 13.2776 20.4291 13.4027 20.7444 13.4088C21.0597 13.4149 21.3657 13.3016 21.601 13.0916C21.8363 12.8816 21.9835 12.5905 22.0131 12.2765C22.0427 11.9625 21.9526 11.6489 21.7607 11.3986C20.7846 10.2975 19.4949 9.52147 18.0648 9.17469C16.6348 8.8279 15.1329 8.92698 13.7607 9.45861C12.3895 9.97568 11.2122 10.905 10.3907 12.1186C9.55435 13.3257 9.10766 14.76 9.11075 16.2286C9.11118 19.0652 8.39209 21.8555 7.02075 24.3386C6.85921 24.6278 6.81903 24.9692 6.90903 25.2879C6.99903 25.6067 7.21185 25.8767 7.50075 26.0386C7.64419 26.1195 7.80232 26.1711 7.96591 26.1902C8.12949 26.2094 8.29525 26.1958 8.45351 26.1501C8.61177 26.1045 8.75936 26.0278 8.88765 25.9246C9.01595 25.8213 9.12239 25.6935 9.20075 25.5486C10.7813 22.6965 11.6106 19.4894 11.6107 16.2286C11.614 15.2677 11.9067 14.3301 12.4508 13.5381C12.9948 12.746 13.765 12.1364 14.6607 11.7886ZM28.1207 10.1386C27.1469 8.26009 25.7354 6.64343 24.0053 5.4251C22.2753 4.20678 20.2776 3.42255 18.1807 3.13861C16.0835 2.83262 13.9435 3.03496 11.9407 3.72861C11.6278 3.83868 11.3714 4.06856 11.2279 4.36768C11.0844 4.6668 11.0657 5.01066 11.1757 5.32361C11.2858 5.63657 11.5157 5.89298 11.8148 6.03645C12.1139 6.17991 12.4578 6.19868 12.7707 6.08861C14.3926 5.51729 16.1278 5.34262 17.831 5.57923C19.5342 5.81583 21.156 6.45683 22.5607 7.44861C23.9635 8.44401 25.1083 9.76007 25.8997 11.2873C26.6911 12.8144 27.1063 14.5086 27.1107 16.2286C27.112 18.8358 26.8235 21.4351 26.2507 23.9786C26.2137 24.1388 26.2087 24.3048 26.236 24.467C26.2632 24.6291 26.3222 24.7843 26.4095 24.9237C26.4968 25.063 26.6108 25.1838 26.7448 25.279C26.8789 25.3742 27.0304 25.442 27.1907 25.4786C27.2838 25.4885 27.3777 25.4885 27.4707 25.4786C27.7568 25.4771 28.0336 25.3767 28.2541 25.1945C28.4747 25.0122 28.6254 24.7593 28.6807 24.4786C29.2993 21.762 29.6112 18.9847 29.6107 16.1986C29.6017 14.089 29.091 12.0119 28.1207 10.1386ZM9.19075 8.21861C9.43872 7.99848 9.5891 7.68886 9.60879 7.35786C9.62848 7.02686 9.51588 6.70159 9.29575 6.45361C9.07562 6.20564 8.766 6.05526 8.43499 6.03557C8.10399 6.01588 7.77872 6.12848 7.53075 6.34861C6.13804 7.59163 5.0237 9.1149 4.26075 10.8186C3.49617 12.5194 3.10407 14.3639 3.11075 16.2286C3.10259 17.7764 2.76154 19.3043 2.11075 20.7086C1.97474 21.0112 1.96357 21.3552 2.07964 21.666C2.19572 21.9768 2.42968 22.2293 2.73075 22.3686C2.89508 22.4394 3.07184 22.4768 3.25075 22.4786C3.49053 22.478 3.72517 22.409 3.92711 22.2797C4.12904 22.1504 4.28989 21.9662 4.39075 21.7486C5.1811 20.0157 5.59031 18.1333 5.59075 16.2286C5.58727 14.716 5.90422 13.2199 6.52075 11.8386C7.13989 10.4539 8.05063 9.2191 9.19075 8.21861ZM14.7007 25.0886C14.5518 25.0201 14.3908 24.9818 14.227 24.9759C14.0632 24.9701 13.8998 24.9967 13.7464 25.0544C13.593 25.112 13.4525 25.1996 13.3331 25.3118C13.2137 25.4241 13.1177 25.559 13.0507 25.7086C12.8107 26.2286 12.5407 26.7086 12.2707 27.2486C12.1092 27.5378 12.069 27.8792 12.159 28.1979C12.249 28.5167 12.4618 28.7867 12.7507 28.9486C12.9393 29.0462 13.1484 29.0977 13.3607 29.0986C13.5831 29.0995 13.8016 29.0405 13.9934 28.9279C14.1852 28.8153 14.3431 28.6532 14.4507 28.4586C14.7574 27.8986 15.0474 27.3286 15.3207 26.7486C15.4568 26.446 15.4679 26.102 15.3519 25.7912C15.2358 25.4804 15.0018 25.228 14.7007 25.0886ZM16.3607 14.9786C16.0292 14.9786 15.7113 15.1103 15.4769 15.3447C15.2424 15.5792 15.1107 15.8971 15.1107 16.2286C15.1116 18.1481 14.8697 20.0599 14.3907 21.9186C14.3088 22.2395 14.3575 22.5798 14.5263 22.8648C14.695 23.1498 14.97 23.3562 15.2907 23.4386C15.3936 23.4532 15.4979 23.4532 15.6007 23.4386C15.8786 23.4401 16.1489 23.3483 16.3683 23.1779C16.5877 23.0074 16.7435 22.7682 16.8107 22.4986C17.3415 20.4372 17.6103 18.3172 17.6107 16.1886C17.6004 15.8641 17.4641 15.5563 17.2308 15.3305C16.9975 15.1046 16.6855 14.9784 16.3607 14.9786Z" fill="black"/>
</svg>
