<svg width="32" height="32" viewBox="0 0 32 32" fill="none" xmlns="http://www.w3.org/2000/svg">
<path d="M9.18008 16.2497C9.18688 18.9107 8.57403 21.5367 7.39008 23.9197C7.2415 24.2144 6.98241 24.4384 6.66934 24.5428C6.35627 24.6472 6.01461 24.6235 5.71891 24.477C5.4232 24.3305 5.19744 24.0729 5.09088 23.7606C4.98432 23.4482 5.0056 23.1064 5.15008 22.8097C6.16234 20.7715 6.68617 18.5255 6.68008 16.2497C6.67292 14.8576 6.98144 13.4819 7.58246 12.2262C8.18348 10.9705 9.06135 9.86734 10.1501 8.99972C10.4153 8.79285 10.7518 8.69982 11.0856 8.74107C11.4195 8.78233 11.7232 8.95451 11.9301 9.21972C12.1369 9.48494 12.23 9.82147 12.1887 10.1553C12.1475 10.4891 11.9753 10.7929 11.7101 10.9997C10.9221 11.634 10.2864 12.4371 9.85008 13.3497C9.41149 14.2537 9.18247 15.245 9.18008 16.2497ZM15.9301 14.9997C15.5986 14.9997 15.2806 15.1314 15.0462 15.3658C14.8118 15.6003 14.6801 15.9182 14.6801 16.2497C14.685 20.0983 13.7075 23.8845 11.8401 27.2497C11.7525 27.3956 11.6956 27.5578 11.6729 27.7264C11.6502 27.895 11.6621 28.0665 11.708 28.2303C11.7539 28.3941 11.8327 28.5469 11.9397 28.6792C12.0466 28.8115 12.1795 28.9206 12.3301 28.9997C12.5157 29.106 12.7262 29.1612 12.9401 29.1597C13.1609 29.1493 13.3751 29.081 13.5611 28.9617C13.7472 28.8423 13.8986 28.6761 14.0001 28.4797C16.0736 24.7375 17.1578 20.528 17.1501 16.2497C17.1502 15.9233 17.0226 15.6099 16.7946 15.3763C16.5667 15.1427 16.2564 15.0076 15.9301 14.9997ZM19.6501 12.5397C18.9161 11.7976 17.978 11.2905 16.955 11.0832C15.932 10.8758 14.8704 10.9775 13.9054 11.3753C12.9404 11.7731 12.1156 12.4491 11.5359 13.3171C10.9562 14.1851 10.6478 15.2059 10.6501 16.2497C10.6501 16.5812 10.7818 16.8992 11.0162 17.1336C11.2506 17.368 11.5686 17.4997 11.9001 17.4997C12.2316 17.4997 12.5495 17.368 12.784 17.1336C13.0184 16.8992 13.1501 16.5812 13.1501 16.2497C13.1652 15.516 13.4709 14.8183 14.0001 14.3097C14.5244 13.8102 15.2209 13.5316 15.9451 13.5316C16.6693 13.5316 17.3657 13.8102 17.8901 14.3097C18.4018 14.8258 18.6892 15.5229 18.6901 16.2497C18.6933 20.1872 17.8259 24.0767 16.1501 27.6397C16.0123 27.9413 15.9979 28.2848 16.11 28.5969C16.2221 28.9089 16.4519 29.1648 16.7501 29.3097C16.8983 29.3804 17.0591 29.421 17.2231 29.4291C17.3871 29.4371 17.5511 29.4125 17.7055 29.3567C17.8599 29.3009 18.0017 29.215 18.1227 29.1039C18.2436 28.9928 18.3413 28.8588 18.4101 28.7097C20.2454 24.8126 21.1948 20.5574 21.1901 16.2497C21.1917 15.5602 21.0564 14.8772 20.792 14.2403C20.5276 13.6035 20.1395 13.0254 19.6501 12.5397ZM25.3001 6.87972C23.447 5.02634 21.086 3.76413 18.5155 3.25274C15.945 2.74135 13.2806 3.00374 10.8593 4.00674C8.43797 5.00974 6.36848 6.70829 4.91257 8.88754C3.45667 11.0668 2.67975 13.6289 2.68008 16.2497C2.6832 17.4692 2.47687 18.6801 2.07008 19.8297C2.01492 19.9847 1.99083 20.149 1.99917 20.3133C2.00752 20.4775 2.04813 20.6386 2.11871 20.7871C2.18928 20.9357 2.28842 21.0689 2.41048 21.1792C2.53254 21.2894 2.67512 21.3746 2.83008 21.4297C2.98504 21.4849 3.14934 21.509 3.31361 21.5006C3.47788 21.4923 3.6389 21.4517 3.78748 21.3811C3.93605 21.3105 4.06927 21.2114 4.17953 21.0893C4.28978 20.9673 4.37492 20.8247 4.43008 20.6697C4.92782 19.2493 5.1814 17.7548 5.18008 16.2497C5.18342 14.1241 5.81629 12.047 6.99884 10.2806C8.18139 8.51428 9.86063 7.13775 11.8247 6.32475C13.7887 5.51174 15.9496 5.29869 18.0346 5.71247C20.1196 6.12625 22.0353 7.14832 23.5401 8.64972C24.5401 9.64585 25.3326 10.8305 25.8716 12.1351C26.4106 13.4397 26.6854 14.8382 26.6801 16.2497C26.6688 18.5162 26.4411 20.7765 26.0001 22.9997C25.9668 23.1621 25.9665 23.3295 25.999 23.492C26.0316 23.6545 26.0964 23.8089 26.1896 23.9459C26.2828 24.083 26.4026 24.1999 26.5418 24.2899C26.681 24.3799 26.8368 24.441 27.0001 24.4697H27.2401C27.5291 24.4709 27.8096 24.372 28.0339 24.1896C28.2581 24.0073 28.4123 23.7529 28.4701 23.4697C28.9381 21.0849 29.1725 18.6601 29.1701 16.2297C29.1756 14.4927 28.8363 12.7719 28.172 11.1669C27.5077 9.56196 26.5315 8.10475 25.3001 6.87972ZM11.7801 18.9997C11.6177 18.9665 11.4503 18.9661 11.2878 18.9987C11.1253 19.0312 10.9709 19.096 10.8339 19.1893C10.6968 19.2825 10.5799 19.4022 10.4899 19.5414C10.3999 19.6807 10.3388 19.8365 10.3101 19.9997C9.90682 21.9707 9.19113 23.8646 8.19008 25.6097C8.10754 25.7508 8.0537 25.9067 8.03165 26.0687C8.0096 26.2306 8.01977 26.3953 8.06159 26.5533C8.10341 26.7113 8.17605 26.8594 8.27533 26.9893C8.3746 27.1191 8.49856 27.228 8.64008 27.3097C8.83075 27.4225 9.04854 27.4813 9.27008 27.4797C9.48878 27.4808 9.70388 27.424 9.89355 27.3151C10.0832 27.2062 10.2407 27.0491 10.3501 26.8597C11.4886 24.8823 12.3022 22.735 12.7601 20.4997C12.798 20.3367 12.8026 20.1676 12.7734 20.0027C12.7443 19.8378 12.682 19.6806 12.5904 19.5404C12.4989 19.4003 12.3799 19.2801 12.2406 19.1872C12.1013 19.0942 11.9447 19.0305 11.7801 18.9997ZM22.0501 9.30972C21.066 8.44284 19.909 7.79486 18.6557 7.4087C17.4024 7.02254 16.0814 6.907 14.7801 7.06972C14.6143 7.08647 14.4535 7.13621 14.3072 7.216C14.1609 7.29579 14.032 7.40403 13.9282 7.53434C13.8243 7.66466 13.7476 7.81443 13.7024 7.97485C13.6573 8.13526 13.6447 8.30308 13.6654 8.46844C13.686 8.63379 13.7396 8.79334 13.8228 8.93771C13.906 9.08208 14.0173 9.20835 14.15 9.30909C14.2828 9.40984 14.4343 9.48303 14.5957 9.52435C14.7572 9.56567 14.9253 9.5743 15.0901 9.54972C16.0405 9.43226 17.005 9.51747 17.9201 9.79972C19.2986 10.225 20.5046 11.0808 21.3612 12.2416C22.2179 13.4024 22.6801 14.8071 22.6801 16.2497C22.6782 17.5364 22.6014 18.8219 22.4501 20.0997C22.4291 20.262 22.4404 20.4268 22.4834 20.5847C22.5264 20.7426 22.6003 20.8904 22.7007 21.0196C22.8011 21.1488 22.926 21.2569 23.0684 21.3376C23.2107 21.4182 23.3676 21.47 23.5301 21.4897H23.6901C23.9955 21.4895 24.2902 21.3775 24.5186 21.1748C24.7471 20.9722 24.8934 20.6929 24.9301 20.3897C25.0983 19.0128 25.1818 17.6269 25.1801 16.2397C25.1852 14.9286 24.9054 13.632 24.3601 12.4397C23.8225 11.2433 23.0348 10.1761 22.0501 9.30972ZM23.2401 22.9997C22.9179 22.9175 22.5763 22.966 22.2897 23.1346C22.0031 23.3031 21.7948 23.5782 21.7101 23.8997C21.5301 24.6097 21.3201 25.3097 21.0901 25.9997C20.9856 26.314 21.0101 26.6569 21.1582 26.9532C21.3063 27.2494 21.5659 27.4748 21.8801 27.5797C22.008 27.6272 22.1436 27.651 22.2801 27.6497C22.5425 27.6497 22.798 27.5664 23.0101 27.4118C23.2221 27.2573 23.3797 27.0395 23.4601 26.7897C23.7101 26.0497 23.9401 25.2897 24.1401 24.5197C24.222 24.1988 24.1733 23.8585 24.0046 23.5735C23.8358 23.2885 23.5609 23.0822 23.2401 22.9997Z" fill="black"/>
</svg>
