<svg width="32" height="32" viewBox="0 0 32 32" fill="none" xmlns="http://www.w3.org/2000/svg">
<path fill-rule="evenodd" clip-rule="evenodd" d="M3.75 16C3.75 15.3096 4.30964 14.75 5 14.75H27C27.6904 14.75 28.25 15.3096 28.25 16C28.25 16.6904 27.6904 17.25 27 17.25H5C4.30964 17.25 3.75 16.6904 3.75 16Z" fill="black"/>
<path fill-rule="evenodd" clip-rule="evenodd" d="M3.75 9C3.75 8.30964 4.30964 7.75 5 7.75H27C27.6904 7.75 28.25 8.30964 28.25 9C28.25 9.69036 27.6904 10.25 27 10.25H5C4.30964 10.25 3.75 9.69036 3.75 9Z" fill="black"/>
<path fill-rule="evenodd" clip-rule="evenodd" d="M3.75 23C3.75 22.3096 4.30964 21.75 5 21.75H27C27.6904 21.75 28.25 22.3096 28.25 23C28.25 23.6904 27.6904 24.25 27 24.25H5C4.30964 24.25 3.75 23.6904 3.75 23Z" fill="black"/>
</svg>
