<svg width="32" height="32" viewBox="0 0 32 32" fill="none" xmlns="http://www.w3.org/2000/svg">
<path fill-rule="evenodd" clip-rule="evenodd" d="M4.20459 12C4.20459 11.3096 4.76423 10.75 5.45459 10.75H28C28.6904 10.75 29.25 11.3096 29.25 12C29.25 12.6904 28.6904 13.25 28 13.25H5.45459C4.76423 13.25 4.20459 12.6904 4.20459 12Z" fill="black"/>
<path fill-rule="evenodd" clip-rule="evenodd" d="M22.2236 3.77038C22.9028 3.89387 23.3533 4.5446 23.2298 5.22382L19.2298 27.2238C19.1063 27.903 18.4556 28.3535 17.7764 28.2301C17.0971 28.1066 16.6466 27.4558 16.7701 26.7766L20.7701 4.77661C20.8936 4.09739 21.5444 3.64688 22.2236 3.77038Z" fill="black"/>
<path fill-rule="evenodd" clip-rule="evenodd" d="M14.2236 3.77038C14.9028 3.89387 15.3533 4.5446 15.2298 5.22382L11.2298 27.2238C11.1063 27.903 10.4556 28.3535 9.77637 28.2301C9.09715 28.1066 8.64664 27.4558 8.77014 26.7766L12.7701 4.77661C12.8936 4.09739 13.5444 3.64688 14.2236 3.77038Z" fill="black"/>
<path fill-rule="evenodd" clip-rule="evenodd" d="M2.75 20C2.75 19.3096 3.30964 18.75 4 18.75H26.5455C27.2358 18.75 27.7955 19.3096 27.7955 20C27.7955 20.6904 27.2358 21.25 26.5455 21.25H4C3.30964 21.25 2.75 20.6904 2.75 20Z" fill="black"/>
</svg>
