<svg width="32" height="32" viewBox="0 0 32 32" fill="none" xmlns="http://www.w3.org/2000/svg">
<path d="M28.4 10.9002C27.7 9.3002 26.7001 7.8002 25.5 6.6002C24.3 5.4002 22.8001 4.4002 21.2001 3.7002C19.6 3.0002 17.8 2.7002 16.1 2.7002C14.3 2.7002 12.6 3.0002 11 3.7002C9.40005 4.4002 7.90005 5.4002 6.70005 6.6002C5.50005 7.8002 4.50005 9.3002 3.80005 10.9002C3.10005 12.5002 2.80005 14.2002 2.80005 16.0002V23.0002C2.80005 23.9002 3.10005 24.7002 3.80005 25.3002C4.40005 25.9002 5.20005 26.3002 6.10005 26.3002H8.10005C9.00005 26.3002 9.80005 26.0002 10.4 25.3002C11 24.7002 11.4 23.9002 11.4 23.0002V18.0002C11.4 17.1002 11.1 16.3002 10.4 15.7002C9.80005 15.1002 9.00005 14.7002 8.10005 14.7002H5.30005C5.40005 13.7002 5.70005 12.7002 6.10005 11.8002C6.60005 10.5002 7.40005 9.3002 8.50005 8.3002C9.50005 7.3002 10.7 6.5002 12 6.0002C13.3 5.5002 14.7 5.2002 16.2 5.2002C17.6 5.2002 19 5.5002 20.3 6.0002C21.6 6.5002 22.8 7.3002 23.8 8.3002C24.8 9.3002 25.6 10.5002 26.2001 11.8002C26.6 12.7002 26.8 13.7002 27 14.7002H24.3C23.4 14.7002 22.6 15.0002 22 15.7002C21.4 16.3002 21 17.1002 21 18.0002V23.0002C21 23.9002 21.3 24.7002 22 25.3002C22.7001 25.9002 23.4 26.3002 24.3 26.3002H26.3C26.6 26.3002 26.8 26.3002 27 26.2002C27 26.9002 26.7001 27.5002 26.2001 28.0002C25.7001 28.5002 25 28.8002 24.3 28.8002H17C16.3 28.8002 15.8 29.4002 15.8 30.0002C15.8 30.6002 16.4 31.2002 17 31.2002H24.2001C25.6 31.2002 26.9 30.7002 27.9 29.7002C28.9 28.7002 29.4 27.4002 29.4 26.0002V23.0002V16.0002C29.4 14.2002 29.1 12.5002 28.4 10.9002ZM8.00005 17.2002C8.20005 17.2002 8.40005 17.3002 8.50005 17.4002C8.60005 17.5002 8.70005 17.7002 8.70005 17.9002V22.9002C8.70005 23.1002 8.60005 23.3002 8.50005 23.4002C8.40005 23.5002 8.20005 23.8002 8.00005 23.8002H6.00005C5.80005 23.8002 5.60005 23.7002 5.50005 23.6002C5.40005 23.5002 5.20005 23.2002 5.20005 23.0002V17.2002H8.00005ZM26.2001 23.8002H24.2001C24 23.8002 23.8001 23.7002 23.7001 23.6002C23.6 23.5002 23.5 23.3002 23.5 23.1002V18.1002C23.5 17.9002 23.6 17.7002 23.7001 17.6002C23.8001 17.5002 24 17.4002 24.2001 17.4002H27V23.0002C27 23.2002 26.9 23.4002 26.8 23.5002C26.6 23.7002 26.4001 23.8002 26.2001 23.8002Z" fill="black"/>
</svg>
