<svg width="32" height="32" viewBox="0 0 32 32" fill="none" xmlns="http://www.w3.org/2000/svg">
<path fill-rule="evenodd" clip-rule="evenodd" d="M14.4857 3.68585C14.8998 3.30928 15.4395 3.1006 15.9992 3.10059C16.559 3.10057 17.0987 3.3092 17.5129 3.68575L27.5135 12.7776C27.7455 12.9885 27.9308 13.2456 28.0577 13.5322C28.1845 13.8189 28.25 14.129 28.25 14.4425V26.0001C28.25 26.5968 28.013 27.1691 27.591 27.5911C27.169 28.0131 26.5967 28.2501 26 28.2501H6C5.40326 28.2501 4.83097 28.0131 4.40901 27.5911C3.98705 27.1691 3.75 26.5969 3.75 26.0001V14.4424C3.75 14.129 3.8155 13.819 3.9423 13.5323C4.06911 13.2456 4.25441 12.9886 4.48634 12.7777L14.4857 3.68585ZM15.9993 5.68847L6.25 14.553V25.7501H25.75V14.5531L15.9993 5.68847Z" fill="black"/>
</svg>
