<svg width="32" height="32" viewBox="0 0 32 32" fill="none" xmlns="http://www.w3.org/2000/svg">
<path fill-rule="evenodd" clip-rule="evenodd" d="M15.9993 5.68847L6.25 14.553V25.75L11.7493 25.7492V19.9991C11.7493 19.4023 11.9863 18.83 12.4083 18.4081C12.8302 17.9861 13.4025 17.7491 13.9993 17.7491H17.9993C18.596 17.7491 19.1683 17.9861 19.5903 18.4081C20.0122 18.83 20.2493 19.4023 20.2493 19.9991V25.7492L25.75 25.75V14.5531L15.9993 5.68847ZM14.4857 3.68585C14.8998 3.30928 15.4395 3.1006 15.9992 3.10059C16.559 3.10057 17.0987 3.3092 17.5129 3.68575L27.5135 12.7776C27.7455 12.9885 27.9308 13.2456 28.0577 13.5322C28.1845 13.8189 28.25 14.129 28.25 14.4425V26C28.25 26.2955 28.1918 26.5881 28.0787 26.8611C27.9656 27.1341 27.7998 27.3822 27.5909 27.5911C27.3819 27.8 27.1339 27.9657 26.8608 28.0788C26.5878 28.1919 26.2952 28.25 25.9997 28.25L19.999 28.2492C19.4023 28.2491 18.8301 28.012 18.4082 27.5901C17.9863 27.1681 17.7493 26.5959 17.7493 25.9992V20.2491H14.2493V25.9992C14.2493 26.5959 14.0123 27.1681 13.5904 27.5901C13.1685 28.012 12.5962 28.2491 11.9996 28.2492L6.00029 28.25C5.70479 28.25 5.41217 28.1919 5.13916 28.0788C4.86614 27.9657 4.61807 27.8 4.40911 27.5911C4.20015 27.3821 4.03439 27.1341 3.9213 26.8611C3.80821 26.5881 3.75 26.2955 3.75 26V14.4424C3.75 14.129 3.8155 13.819 3.9423 13.5323C4.06911 13.2456 4.25441 12.9886 4.48634 12.7777L14.4857 3.68585Z" fill="black"/>
</svg>
