<svg width="32" height="32" viewBox="0 0 32 32" fill="none" xmlns="http://www.w3.org/2000/svg">
<path fill-rule="evenodd" clip-rule="evenodd" d="M14.4857 3.68585C14.8998 3.30928 15.4395 3.1006 15.9992 3.10059C16.559 3.10057 17.0987 3.3092 17.5129 3.68575L27.5135 12.7776C27.7455 12.9885 27.9308 13.2456 28.0577 13.5322C28.1845 13.8189 28.25 14.129 28.25 14.4425V27.0001C28.25 27.6905 27.6904 28.2501 27 28.2501C26.3096 28.2501 25.75 27.6905 25.75 27.0001V14.5531L15.9993 5.68847L6.25 14.553V27.0001C6.25 27.6905 5.69036 28.2501 5 28.2501C4.30964 28.2501 3.75 27.6905 3.75 27.0001V14.4424C3.75 14.129 3.8155 13.819 3.9423 13.5323C4.06911 13.2456 4.25441 12.9886 4.48634 12.7777L14.4857 3.68585Z" fill="black"/>
<path fill-rule="evenodd" clip-rule="evenodd" d="M0.75 27C0.75 26.3096 1.30964 25.75 2 25.75H30C30.6904 25.75 31.25 26.3096 31.25 27C31.25 27.6904 30.6904 28.25 30 28.25H2C1.30964 28.25 0.75 27.6904 0.75 27Z" fill="black"/>
<path fill-rule="evenodd" clip-rule="evenodd" d="M11.7493 18.999C11.7493 18.3087 12.3089 17.749 12.9993 17.749H18.9993C19.6896 17.749 20.2493 18.3087 20.2493 18.999V26.999C20.2493 27.6894 19.6896 28.249 18.9993 28.249C18.3089 28.249 17.7493 27.6894 17.7493 26.999V20.249H14.2493V26.999C14.2493 27.6894 13.6896 28.249 12.9993 28.249C12.3089 28.249 11.7493 27.6894 11.7493 26.999V18.999Z" fill="black"/>
</svg>
