<svg width="32" height="32" viewBox="0 0 32 32" fill="none" xmlns="http://www.w3.org/2000/svg">
<path fill-rule="evenodd" clip-rule="evenodd" d="M19.75 6C19.75 5.30964 20.3096 4.75 21 4.75H26C26.6904 4.75 27.25 5.30964 27.25 6V11C27.25 11.6904 26.6904 12.25 26 12.25C25.3096 12.25 24.75 11.6904 24.75 11V7.25H21C20.3096 7.25 19.75 6.69036 19.75 6Z" fill="black"/>
<path fill-rule="evenodd" clip-rule="evenodd" d="M6 19.75C6.69036 19.75 7.25 20.3096 7.25 21V24.75H11C11.6904 24.75 12.25 25.3096 12.25 26C12.25 26.6904 11.6904 27.25 11 27.25H6C5.30964 27.25 4.75 26.6904 4.75 26V21C4.75 20.3096 5.30964 19.75 6 19.75Z" fill="black"/>
<path fill-rule="evenodd" clip-rule="evenodd" d="M26 19.75C26.6904 19.75 27.25 20.3096 27.25 21V26C27.25 26.6904 26.6904 27.25 26 27.25H21C20.3096 27.25 19.75 26.6904 19.75 26C19.75 25.3096 20.3096 24.75 21 24.75H24.75V21C24.75 20.3096 25.3096 19.75 26 19.75Z" fill="black"/>
<path fill-rule="evenodd" clip-rule="evenodd" d="M4.75 6C4.75 5.30964 5.30964 4.75 6 4.75H11C11.6904 4.75 12.25 5.30964 12.25 6C12.25 6.69036 11.6904 7.25 11 7.25H7.25V11C7.25 11.6904 6.69036 12.25 6 12.25C5.30964 12.25 4.75 11.6904 4.75 11V6Z" fill="black"/>
</svg>
