<svg width="32" height="32" viewBox="0 0 32 32" fill="none" xmlns="http://www.w3.org/2000/svg">
<path fill-rule="evenodd" clip-rule="evenodd" d="M5.25 7.25V24.75H26.75V7.25H5.25ZM2.75 7C2.75 5.75736 3.75736 4.75 5 4.75H27C28.2426 4.75 29.25 5.75736 29.25 7V25C29.25 26.2426 28.2426 27.25 27 27.25H5C3.75736 27.25 2.75 26.2426 2.75 25V7Z" fill="black"/>
<path fill-rule="evenodd" clip-rule="evenodd" d="M11 15.7676L4.88388 21.8837C4.39573 22.3719 3.60427 22.3719 3.11612 21.8837C2.62796 21.3956 2.62796 20.6041 3.11612 20.1159L9.40899 13.8231C9.61792 13.6141 9.86596 13.4484 10.1389 13.3353C10.4119 13.2223 10.7045 13.1641 11 13.1641C11.2955 13.1641 11.588 13.2223 11.861 13.3353C12.134 13.4484 12.382 13.6141 12.591 13.8231L18 19.2321L20.409 16.8231C20.6179 16.6141 20.866 16.4484 21.1389 16.3353C21.4119 16.2223 21.7045 16.1641 22 16.1641C22.2955 16.1641 22.588 16.2223 22.861 16.3353C23.134 16.4484 23.382 16.6141 23.591 16.8231L28.8839 22.116C29.372 22.6041 29.372 23.3956 28.8839 23.8837C28.3957 24.3719 27.6042 24.3719 27.1161 23.8837L22 18.7676L19.591 21.1766C19.382 21.3856 19.134 21.5513 18.861 21.6644C18.588 21.7774 18.2955 21.8356 18 21.8356C17.7045 21.8356 17.4119 21.7774 17.1389 21.6644C16.866 21.5513 16.6179 21.3856 16.409 21.1766L11 15.7676Z" fill="black"/>
<path d="M19.5 14C20.3284 14 21 13.3284 21 12.5C21 11.6716 20.3284 11 19.5 11C18.6716 11 18 11.6716 18 12.5C18 13.3284 18.6716 14 19.5 14Z" fill="black"/>
</svg>
