<svg width="32" height="32" viewBox="0 0 32 32" fill="none" xmlns="http://www.w3.org/2000/svg">
<path d="M16.0001 3C13.429 3 10.9156 3.76244 8.77771 5.1909C6.63988 6.61935 4.97363 8.64968 3.98969 11.0251C3.00575 13.4006 2.74831 16.0144 3.24992 18.5362C3.75153 21.0579 4.98966 23.3743 6.80774 25.1924C8.62582 27.0105 10.9422 28.2486 13.464 28.7502C15.9857 29.2518 18.5996 28.9944 20.975 28.0104C23.3505 27.0265 25.3808 25.3603 26.8092 23.2224C28.2377 21.0846 29.0001 18.5712 29.0001 16C28.9961 12.5534 27.6252 9.24912 25.1881 6.81201C22.751 4.3749 19.4467 3.00398 16.0001 3ZM16 9C16.2967 9 16.5867 9.08797 16.8334 9.2528C17.08 9.41762 17.2723 9.65189 17.3858 9.92597C17.4994 10.2001 17.5291 10.5017 17.4712 10.7926C17.4133 11.0836 17.2704 11.3509 17.0607 11.5607C16.8509 11.7704 16.5836 11.9133 16.2926 11.9712C16.0017 12.0291 15.7001 11.9994 15.426 11.8858C15.1519 11.7723 14.9176 11.58 14.7528 11.3334C14.588 11.0867 14.5 10.7967 14.5 10.5C14.5 10.303 14.5388 10.108 14.6142 9.92597C14.6896 9.74399 14.8001 9.57863 14.9393 9.43934C15.0786 9.30005 15.244 9.18956 15.426 9.11418C15.608 9.0388 15.803 9 16 9H16ZM17.0001 23H16.0001C15.8688 23.0001 15.7387 22.9743 15.6174 22.924C15.496 22.8738 15.3857 22.8001 15.2929 22.7073C15.2 22.6144 15.1263 22.5041 15.0761 22.3828C15.0259 22.2614 15.0001 22.1313 15.0001 22V16C14.7349 16 14.4806 15.8946 14.293 15.7071C14.1055 15.5196 14.0001 15.2652 14.0001 15C14.0001 14.7348 14.1055 14.4804 14.293 14.2929C14.4806 14.1054 14.7349 14 15.0001 14H16.0001C16.1315 13.9999 16.2615 14.0257 16.3829 14.076C16.5043 14.1262 16.6145 14.1999 16.7074 14.2927C16.8003 14.3856 16.8739 14.4959 16.9242 14.6172C16.9744 14.7386 17.0002 14.8687 17.0001 15V21C17.2653 21 17.5197 21.1054 17.7072 21.2929C17.8948 21.4804 18.0001 21.7348 18.0001 22C18.0001 22.2652 17.8948 22.5196 17.7072 22.7071C17.5197 22.8946 17.2653 23 17.0001 23Z" fill="black"/>
</svg>
