<svg width="32" height="32" viewBox="0 0 32 32" fill="none" xmlns="http://www.w3.org/2000/svg">
<path fill-rule="evenodd" clip-rule="evenodd" d="M16 5.25C10.0629 5.25 5.25 10.0629 5.25 16C5.25 21.9371 10.0629 26.75 16 26.75C21.9371 26.75 26.75 21.9371 26.75 16C26.75 10.0629 21.9371 5.25 16 5.25ZM2.75 16C2.75 8.68223 8.68223 2.75 16 2.75C23.3178 2.75 29.25 8.68223 29.25 16C29.25 23.3178 23.3178 29.25 16 29.25C8.68223 29.25 2.75 23.3178 2.75 16Z" fill="black"/>
<path fill-rule="evenodd" clip-rule="evenodd" d="M13.75 15C13.75 14.3096 14.3096 13.75 15 13.75H16C16.6904 13.75 17.25 14.3096 17.25 15V20.775C17.8206 20.8908 18.25 21.3953 18.25 22C18.25 22.6904 17.6904 23.25 17 23.25H16C15.3096 23.25 14.75 22.6904 14.75 22V16.225C14.1794 16.1092 13.75 15.6047 13.75 15Z" fill="black"/>
<path d="M16 12C16.8284 12 17.5 11.3284 17.5 10.5C17.5 9.67157 16.8284 9 16 9C15.1716 9 14.5 9.67157 14.5 10.5C14.5 11.3284 15.1716 12 16 12Z" fill="black"/>
</svg>
