<svg width="32" height="32" viewBox="0 0 32 32" fill="none" xmlns="http://www.w3.org/2000/svg">
<path fill-rule="evenodd" clip-rule="evenodd" d="M22 11.75C22.4735 11.75 22.9063 12.0175 23.1181 12.441L30.1181 26.441C30.4268 27.0585 30.1765 27.8093 29.559 28.118C28.9416 28.4268 28.1907 28.1765 27.882 27.559L22 15.7951L16.1181 27.559C15.8093 28.1765 15.0585 28.4268 14.441 28.118C13.8235 27.8093 13.5733 27.0585 13.882 26.441L20.882 12.441C21.0937 12.0175 21.5266 11.75 22 11.75Z" fill="black"/>
<path fill-rule="evenodd" clip-rule="evenodd" d="M15.75 23C15.75 22.3096 16.3096 21.75 17 21.75H27C27.6904 21.75 28.25 22.3096 28.25 23C28.25 23.6904 27.6904 24.25 27 24.25H17C16.3096 24.25 15.75 23.6904 15.75 23Z" fill="black"/>
<path fill-rule="evenodd" clip-rule="evenodd" d="M11 2.75C11.6904 2.75 12.25 3.30964 12.25 4V7C12.25 7.69036 11.6904 8.25 11 8.25C10.3096 8.25 9.75 7.69036 9.75 7V4C9.75 3.30964 10.3096 2.75 11 2.75Z" fill="black"/>
<path fill-rule="evenodd" clip-rule="evenodd" d="M1.75 7C1.75 6.30964 2.30964 5.75 3 5.75H19C19.6904 5.75 20.25 6.30964 20.25 7C20.25 7.69036 19.6904 8.25 19 8.25H3C2.30964 8.25 1.75 7.69036 1.75 7Z" fill="black"/>
<path fill-rule="evenodd" clip-rule="evenodd" d="M15 5.75C15.6904 5.75 16.25 6.30964 16.25 7C16.25 10.5141 14.854 13.8843 12.3692 16.3692C9.88431 18.854 6.51412 20.25 3 20.25C2.30964 20.25 1.75 19.6904 1.75 19C1.75 18.3096 2.30964 17.75 3 17.75C5.85108 17.75 8.58538 16.6174 10.6014 14.6014C12.6174 12.5854 13.75 9.85108 13.75 7C13.75 6.30964 14.3096 5.75 15 5.75Z" fill="black"/>
<path fill-rule="evenodd" clip-rule="evenodd" d="M7.26611 9.82211C7.91683 9.59155 8.63124 9.93216 8.8618 10.5829C9.60415 12.6781 10.9775 14.4918 12.7928 15.7746C14.6082 17.0573 16.7764 17.7461 18.9992 17.7461C19.6896 17.7461 20.2492 18.3057 20.2492 18.9961C20.2492 19.6864 19.6896 20.2461 18.9992 20.2461C16.2597 20.2461 13.5875 19.3972 11.3501 17.8163C9.11278 16.2354 7.42025 14 6.50534 11.4178C6.27478 10.7671 6.61539 10.0527 7.26611 9.82211Z" fill="black"/>
</svg>
