<svg width="32" height="32" viewBox="0 0 32 32" fill="none" xmlns="http://www.w3.org/2000/svg">
<path fill-rule="evenodd" clip-rule="evenodd" d="M15.9993 16.25C15.3089 16.25 14.7493 16.8096 14.7493 17.5C14.7493 18.1904 15.3089 18.75 15.9993 18.75C16.6896 18.75 17.2493 18.1904 17.2493 17.5C17.2493 16.8096 16.6896 16.25 15.9993 16.25ZM12.2493 17.5C12.2493 15.4289 13.9282 13.75 15.9993 13.75C18.0703 13.75 19.7493 15.4289 19.7493 17.5C19.7493 19.5711 18.0703 21.25 15.9993 21.25C13.9282 21.25 12.2493 19.5711 12.2493 17.5Z" fill="black"/>
<path fill-rule="evenodd" clip-rule="evenodd" d="M15.9993 18.75C16.6896 18.75 17.2493 19.3096 17.2493 20V23C17.2493 23.6904 16.6896 24.25 15.9993 24.25C15.3089 24.25 14.7493 23.6904 14.7493 23V20C14.7493 19.3096 15.3089 18.75 15.9993 18.75Z" fill="black"/>
<path fill-rule="evenodd" clip-rule="evenodd" d="M6.24927 12.25V25.75H25.7493V12.25H6.24927ZM3.74927 12C3.74927 10.7574 4.75663 9.75 5.99927 9.75H25.9993C27.2419 9.75 28.2493 10.7574 28.2493 12V26C28.2493 27.2426 27.2419 28.25 25.9993 28.25H5.99927C4.75663 28.25 3.74927 27.2426 3.74927 26V12Z" fill="black"/>
<path fill-rule="evenodd" clip-rule="evenodd" d="M15.9993 3.25C15.1373 3.25 14.3107 3.59241 13.7012 4.2019C13.0917 4.8114 12.7493 5.63805 12.7493 6.5V11C12.7493 11.6904 12.1896 12.25 11.4993 12.25C10.8089 12.25 10.2493 11.6904 10.2493 11V6.5C10.2493 4.97501 10.8551 3.51247 11.9334 2.43414C13.0117 1.3558 14.4743 0.75 15.9993 0.75C17.5243 0.75 18.9868 1.3558 20.0651 2.43414C21.1435 3.51247 21.7493 4.97501 21.7493 6.5C21.7493 7.19036 21.1896 7.75 20.4993 7.75C19.8089 7.75 19.2493 7.19036 19.2493 6.5C19.2493 5.63805 18.9069 4.8114 18.2974 4.2019C17.6879 3.59241 16.8612 3.25 15.9993 3.25Z" fill="black"/>
</svg>
