<svg width="32" height="32" viewBox="0 0 32 32" fill="none" xmlns="http://www.w3.org/2000/svg">
<path fill-rule="evenodd" clip-rule="evenodd" d="M14.5 5.25C9.39137 5.25 5.25 9.39137 5.25 14.5C5.25 19.6086 9.39137 23.75 14.5 23.75C19.6086 23.75 23.75 19.6086 23.75 14.5C23.75 9.39137 19.6086 5.25 14.5 5.25ZM2.75 14.5C2.75 8.01065 8.01065 2.75 14.5 2.75C20.9893 2.75 26.25 8.01065 26.25 14.5C26.25 20.9893 20.9893 26.25 14.5 26.25C8.01065 26.25 2.75 20.9893 2.75 14.5Z" fill="black"/>
<path fill-rule="evenodd" clip-rule="evenodd" d="M21.0404 21.0409C21.5286 20.5528 22.32 20.5528 22.8082 21.0409L28.8833 27.116C29.3714 27.6041 29.3714 28.3956 28.8833 28.8838C28.3951 29.3719 27.6037 29.3719 27.1155 28.8838L21.0404 22.8087C20.5523 22.3205 20.5523 21.5291 21.0404 21.0409Z" fill="black"/>
</svg>
