<svg width="32" height="32" viewBox="0 0 32 32" fill="none" xmlns="http://www.w3.org/2000/svg">
<path fill-rule="evenodd" clip-rule="evenodd" d="M9.25 14.5C9.25 13.8096 9.80964 13.25 10.5 13.25H18.5C19.1904 13.25 19.75 13.8096 19.75 14.5C19.75 15.1904 19.1904 15.75 18.5 15.75H10.5C9.80964 15.75 9.25 15.1904 9.25 14.5Z" fill="black"/>
<path fill-rule="evenodd" clip-rule="evenodd" d="M14.5 5.24951C9.39137 5.24951 5.25 9.39088 5.25 14.4995C5.25 19.6081 9.39137 23.7495 14.5 23.7495C19.6086 23.7495 23.75 19.6081 23.75 14.4995C23.75 9.39088 19.6086 5.24951 14.5 5.24951ZM2.75 14.4995C2.75 8.01017 8.01065 2.74951 14.5 2.74951C20.9893 2.74951 26.25 8.01017 26.25 14.4995C26.25 20.9889 20.9893 26.2495 14.5 26.2495C8.01065 26.2495 2.75 20.9889 2.75 14.4995Z" fill="black"/>
<path fill-rule="evenodd" clip-rule="evenodd" d="M21.0404 21.0409C21.5286 20.5528 22.32 20.5528 22.8082 21.0409L28.8833 27.116C29.3714 27.6041 29.3714 28.3956 28.8833 28.8838C28.3951 29.3719 27.6037 29.3719 27.1155 28.8838L21.0404 22.8087C20.5523 22.3205 20.5523 21.5291 21.0404 21.0409Z" fill="black"/>
</svg>
