<svg width="32" height="32" viewBox="0 0 32 32" fill="none" xmlns="http://www.w3.org/2000/svg">
<path d="M15.9993 1.99951C13.0829 2.00297 10.2871 3.16301 8.22491 5.22516C6.16276 7.28731 5.00273 10.0832 4.99927 12.9995C4.99927 22.4116 14.9993 29.521 15.425 29.8188C15.5934 29.9364 15.7939 29.9995 15.9993 29.9995C16.2047 29.9995 16.4051 29.9364 16.5735 29.8188C16.9993 29.521 26.9993 22.4116 26.9993 12.9995C26.9958 10.0832 25.8358 7.28731 23.7736 5.22516C21.7115 3.16301 18.9156 2.00297 15.9993 1.99951ZM16 8.99987C16.7911 8.99987 17.5645 9.23447 18.2223 9.674C18.8801 10.1135 19.3928 10.7382 19.6955 11.4691C19.9983 12.2 20.0775 13.0043 19.9231 13.7802C19.7688 14.5562 19.3878 15.2689 18.8284 15.8283C18.269 16.3877 17.5563 16.7687 16.7804 16.923C16.0044 17.0774 15.2002 16.9981 14.4693 16.6954C13.7384 16.3926 13.1136 15.88 12.6741 15.2222C12.2346 14.5644 12 13.791 12 12.9999C12 12.4746 12.1034 11.9544 12.3045 11.4691C12.5055 10.9838 12.8001 10.5429 13.1715 10.1714C13.543 9.79998 13.9839 9.50534 14.4692 9.30433C14.9546 9.10331 15.4747 8.99986 16 8.99987Z" fill="black"/>
</svg>
