<svg width="32" height="32" viewBox="0 0 32 32" fill="none" xmlns="http://www.w3.org/2000/svg">
<path fill-rule="evenodd" clip-rule="evenodd" d="M13.2127 4.69664C13.3801 5.36638 12.9729 6.04505 12.3032 6.21249L5.25 7.97578V23.3988L11.6968 21.7871C12.3666 21.6197 13.0452 22.0269 13.2127 22.6966C13.3801 23.3664 12.9729 24.045 12.3032 24.2125L4.30317 26.2125C3.92974 26.3058 3.53413 26.2219 3.23073 25.9851C2.92734 25.7482 2.75 25.3847 2.75 24.9998V6.99981C2.75 6.42622 3.14037 5.92624 3.69683 5.78713L11.6968 3.78713C12.3666 3.61969 13.0452 4.02689 13.2127 4.69664Z" fill="black"/>
<path fill-rule="evenodd" clip-rule="evenodd" d="M11.3428 3.93669C11.7114 3.70893 12.1715 3.68822 12.559 3.88197L20.559 7.88197C20.9825 8.09371 21.25 8.52654 21.25 9V27C21.25 27.4332 21.0257 27.8356 20.6572 28.0633C20.2886 28.2911 19.8285 28.3118 19.441 28.118L11.441 24.118C11.0175 23.9063 10.75 23.4735 10.75 23V5C10.75 4.56678 10.9743 4.16445 11.3428 3.93669ZM13.25 7.02254V22.2275L18.75 24.9775V9.77254L13.25 7.02254Z" fill="black"/>
<path fill-rule="evenodd" clip-rule="evenodd" d="M28.7693 6.01475C29.0727 6.25164 29.2501 6.61509 29.2501 7.00001V25C29.2501 25.5736 28.8597 26.0736 28.3032 26.2127L20.3032 28.2127C19.6335 28.3801 18.9548 27.9729 18.7874 27.3032C18.6199 26.6334 19.0271 25.9548 19.6969 25.7873L26.7501 24.024V8.60098L20.3032 10.2127C19.6335 10.3801 18.9548 9.97292 18.7874 9.30318C18.6199 8.63344 19.0271 7.95477 19.6969 7.78733L27.6969 5.78733C28.0703 5.69398 28.4659 5.77787 28.7693 6.01475Z" fill="black"/>
</svg>
