<svg width="32" height="32" viewBox="0 0 32 32" fill="none" xmlns="http://www.w3.org/2000/svg">
<path fill-rule="evenodd" clip-rule="evenodd" d="M5.75 29C5.75 28.3096 6.30964 27.75 7 27.75H25C25.6904 27.75 26.25 28.3096 26.25 29C26.25 29.6904 25.6904 30.25 25 30.25H7C6.30964 30.25 5.75 29.6904 5.75 29Z" fill="black"/>
<path fill-rule="evenodd" clip-rule="evenodd" d="M16 10.25C14.4812 10.25 13.25 11.4812 13.25 13C13.25 14.5188 14.4812 15.75 16 15.75C17.5188 15.75 18.75 14.5188 18.75 13C18.75 11.4812 17.5188 10.25 16 10.25ZM10.75 13C10.75 10.1005 13.1005 7.75 16 7.75C18.8995 7.75 21.25 10.1005 21.25 13C21.25 15.8995 18.8995 18.25 16 18.25C13.1005 18.25 10.75 15.8995 10.75 13Z" fill="black"/>
<path fill-rule="evenodd" clip-rule="evenodd" d="M16 4.25C13.6794 4.25 11.4538 5.17187 9.81282 6.81282C8.17187 8.45376 7.25 10.6794 7.25 13C7.25 17.0499 9.51481 20.7621 11.9433 23.5548C13.1422 24.9336 14.3444 26.0459 15.2471 26.8132C15.5321 27.0554 15.7863 27.2625 16 27.4319C16.2137 27.2625 16.4679 27.0554 16.7529 26.8132C17.6556 26.0459 18.8578 24.9336 20.0567 23.5548C22.4852 20.7621 24.75 17.0499 24.75 13C24.75 10.6794 23.8281 8.45376 22.1872 6.81282C20.5462 5.17187 18.3206 4.25 16 4.25ZM16 29C15.2832 30.024 15.2828 30.0238 15.2825 30.0235L15.2789 30.0211L15.271 30.0155L15.2446 29.9967C15.2223 29.9808 15.1908 29.9581 15.1507 29.9288C15.0704 29.8702 14.9556 29.7851 14.8113 29.6748C14.5226 29.4542 14.115 29.132 13.6279 28.7181C12.6556 27.8916 11.3578 26.6914 10.0567 25.1952C7.48519 22.2379 4.75 17.9501 4.75 13C4.75 10.0163 5.93526 7.15483 8.04505 5.04505C10.1548 2.93526 13.0163 1.75 16 1.75C18.9837 1.75 21.8452 2.93526 23.955 5.04505C26.0647 7.15483 27.25 10.0163 27.25 13C27.25 17.9501 24.5148 22.2379 21.9433 25.1952C20.6422 26.6914 19.3444 27.8916 18.3721 28.7181C17.885 29.132 17.4774 29.4542 17.1887 29.6748C17.0444 29.7851 16.9296 29.8702 16.8493 29.9288C16.8092 29.9581 16.7777 29.9808 16.7554 29.9967L16.729 30.0155L16.7211 30.0211L16.7175 30.0235C16.7172 30.0238 16.7168 30.024 16 29ZM16 29L16.7175 30.0235C16.2871 30.3248 15.7129 30.3248 15.2825 30.0235L16 29Z" fill="black"/>
</svg>
