<svg width="32" height="32" viewBox="0 0 32 32" fill="none" xmlns="http://www.w3.org/2000/svg">
<path fill-rule="evenodd" clip-rule="evenodd" d="M15.9993 3.25C11.1668 3.25 7.24927 7.16751 7.24927 12C7.24927 16.8325 11.1668 20.75 15.9993 20.75C20.8318 20.75 24.7493 16.8325 24.7493 12C24.7493 7.16751 20.8318 3.25 15.9993 3.25ZM4.74927 12C4.74927 5.7868 9.78606 0.75 15.9993 0.75C22.2125 0.75 27.2493 5.7868 27.2493 12C27.2493 18.2132 22.2125 23.25 15.9993 23.25C9.78606 23.25 4.74927 18.2132 4.74927 12Z" fill="black"/>
<path fill-rule="evenodd" clip-rule="evenodd" d="M15.9993 7.25C13.3759 7.25 11.2493 9.37665 11.2493 12C11.2493 14.6234 13.3759 16.75 15.9993 16.75C18.6226 16.75 20.7493 14.6234 20.7493 12C20.7493 9.37665 18.6226 7.25 15.9993 7.25ZM8.74927 12C8.74927 7.99594 11.9952 4.75 15.9993 4.75C20.0033 4.75 23.2493 7.99594 23.2493 12C23.2493 16.0041 20.0033 19.25 15.9993 19.25C11.9952 19.25 8.74927 16.0041 8.74927 12Z" fill="black"/>
<path fill-rule="evenodd" clip-rule="evenodd" d="M22 18.7495C22.6904 18.7495 23.25 19.3092 23.25 19.9995V30.0001C23.25 30.4333 23.0257 30.8357 22.6572 31.0634C22.2887 31.2912 21.8285 31.3119 21.441 31.1182L15.9992 28.3977L10.5591 31.1181C10.1716 31.3119 9.71141 31.2912 9.34287 31.0635C8.97433 30.8357 8.75 30.4334 8.75 30.0001V20.0004C8.75 19.31 9.30964 18.7504 10 18.7504C10.6904 18.7504 11.25 19.31 11.25 20.0004V27.9775L15.44 25.8821C15.7919 25.7062 16.2062 25.7061 16.5581 25.8821L20.75 27.9777V19.9995C20.75 19.3092 21.3096 18.7495 22 18.7495Z" fill="black"/>
</svg>
