<svg width="32" height="32" viewBox="0 0 32 32" fill="none" xmlns="http://www.w3.org/2000/svg">
<path fill-rule="evenodd" clip-rule="evenodd" d="M19 8.75C19.6904 8.75 20.25 9.30964 20.25 10V25.331L21.2175 25.976L22.7873 19.6968C22.9548 19.0271 23.6334 18.6199 24.3032 18.7873C24.9729 18.9548 25.3801 19.6334 25.2127 20.3032L23.5568 26.9265C23.4694 27.2763 23.2992 27.6 23.0605 27.8702C22.8218 28.1405 22.5217 28.3494 22.1854 28.4795C21.8491 28.6095 21.4864 28.6568 21.128 28.6173C20.7696 28.5779 20.4259 28.4529 20.1259 28.2529L20.7686 27.289L20.793 27.2524M20.7686 27.289L20.1259 28.2529L18.7519 27.3369C18.4437 27.1315 18.191 26.8531 18.0162 26.5265C17.8415 26.1999 17.75 25.8352 17.75 25.4648V10C17.75 9.30964 18.3096 8.75 19 8.75M21.1315 26.3202C21.1315 26.3201 21.1315 26.32 21.1316 26.3199L21.1315 26.3202Z" fill="black"/>
<path fill-rule="evenodd" clip-rule="evenodd" d="M4.05106 3.23131C4.43955 3.05064 4.87156 2.98465 5.29627 3.0411C5.72062 3.09751 6.12007 3.27382 6.44771 3.54932C9.55674 6.15663 12.7229 7.45763 15.1066 8.1071C16.2985 8.43182 17.2915 8.5927 17.9781 8.6723C18.3212 8.71207 18.587 8.73146 18.7621 8.7409C18.8496 8.74562 18.9143 8.74785 18.9545 8.7489C18.9747 8.74942 18.9886 8.74965 18.9963 8.74975L19.0009 8.74982L19.0026 8.74982H24C25.6576 8.74982 27.2473 9.4083 28.4194 10.5804C29.5915 11.7525 30.25 13.3422 30.25 14.9998C30.25 16.6574 29.5915 18.2471 28.4194 19.4192C27.2473 20.5913 25.6576 21.2498 24 21.2498H19.0024L19.0009 21.2498L18.9963 21.2499C18.9886 21.25 18.9747 21.2502 18.9545 21.2507C18.9143 21.2518 18.8496 21.254 18.7621 21.2587C18.587 21.2682 18.3212 21.2876 17.9781 21.3273C17.2915 21.4069 16.2985 21.5678 15.1066 21.8925C12.7226 22.5421 9.55617 23.8432 6.44688 26.451C6.11939 26.7261 5.72027 26.9022 5.29627 26.9585C4.87156 27.015 4.43955 26.949 4.05106 26.7683C3.66258 26.5876 3.33375 26.2998 3.10327 25.9386C2.87279 25.5774 2.75022 25.158 2.75 24.7295L2.75 5.27077C2.75022 4.84232 2.87279 4.42219 3.10327 4.06101C3.33375 3.69984 3.66257 3.41199 4.05106 3.23131ZM19 19.9998V18.7498H24C24.9946 18.7498 25.9484 18.3547 26.6516 17.6515C27.3549 16.9482 27.75 15.9944 27.75 14.9998C27.75 14.0053 27.3549 13.0514 26.6516 12.3482C25.9484 11.6449 24.9946 11.2498 24 11.2498H19V9.99982C19 11.2498 18.9995 11.2498 18.9989 11.2498L18.9977 11.2498L18.9948 11.2498L18.9871 11.2498L18.9643 11.2495C18.9457 11.2493 18.9207 11.2489 18.8894 11.2481C18.8267 11.2464 18.7388 11.2433 18.6274 11.2373C18.4046 11.2253 18.0876 11.2017 17.6902 11.1557C16.8959 11.0636 15.778 10.8811 14.4494 10.5192C11.8981 9.82404 8.55819 8.4633 5.25 5.80069V24.1989C8.55819 21.5363 11.8981 20.1756 14.4494 19.4805C15.778 19.1185 16.8959 18.936 17.6902 18.844C18.0876 18.7979 18.4046 18.7744 18.6274 18.7624C18.7388 18.7564 18.8267 18.7532 18.8894 18.7516C18.9207 18.7508 18.9457 18.7503 18.9643 18.7501L18.9871 18.7499L18.9948 18.7498L18.9989 18.7498C18.9995 18.7498 19 18.7498 19 19.9998ZM4.83869 24.5369C4.83925 24.5365 4.8398 24.536 4.84035 24.5355L4.83869 24.5369Z" fill="black"/>
</svg>
