<svg width="32" height="32" viewBox="0 0 32 32" fill="none" xmlns="http://www.w3.org/2000/svg">
<path d="M26.8799 26.11L7.14993 4.40001C6.92235 4.18903 6.62394 4.07105 6.31362 4.06937C6.0033 4.06768 5.70363 4.18242 5.47378 4.39091C5.24393 4.59941 5.10062 4.88651 5.07213 5.19553C5.04365 5.50454 5.13206 5.813 5.31993 6.06001L9.92993 11.14V16.09C9.92992 16.8998 10.0896 17.7016 10.3998 18.4496C10.71 19.1977 11.1646 19.8772 11.7377 20.4493C12.3108 21.0215 12.991 21.475 13.7395 21.784C14.488 22.093 15.2901 22.2513 16.0999 22.25C17.2089 22.2474 18.2968 21.9469 19.2499 21.38L20.2499 22.49C19.1579 23.1986 17.9029 23.6163 16.604 23.7037C15.3052 23.791 14.0056 23.545 12.8285 22.989C11.6514 22.433 10.6359 21.5855 9.87834 20.5269C9.12079 19.4682 8.64631 18.2335 8.49993 16.94C8.46412 16.6151 8.30072 16.3178 8.04567 16.1133C7.79062 15.9089 7.46482 15.8142 7.13993 15.85C6.81504 15.8858 6.51768 16.0492 6.31326 16.3043C6.10885 16.5593 6.01412 16.8851 6.04993 17.21C6.25522 19.0627 6.96924 20.8225 8.11294 22.2945C9.25664 23.7665 10.7854 24.8932 12.5299 25.55C13.279 25.8257 14.0576 26.0136 14.8499 26.11V29.25C14.8499 29.5815 14.9816 29.8995 15.216 30.1339C15.4505 30.3683 15.7684 30.5 16.0999 30.5C16.4314 30.5 16.7494 30.3683 16.9838 30.1339C17.2182 29.8995 17.3499 29.5815 17.3499 29.25V26.11C17.5599 26.11 17.7799 26.06 17.9899 26.02C19.4092 25.7511 20.7533 25.178 21.9299 24.34L25.0499 27.77C25.167 27.8971 25.3092 27.9983 25.4677 28.0672C25.6261 28.1361 25.7972 28.1711 25.9699 28.17C26.2087 28.1704 26.4425 28.1014 26.6426 27.9712C26.8428 27.8411 27.0008 27.6554 27.0973 27.437C27.1938 27.2186 27.2246 26.9768 27.186 26.7412C27.1474 26.5055 27.0411 26.2862 26.8799 26.11ZM16.0999 19.79C15.1186 19.79 14.1775 19.4002 13.4836 18.7063C12.7897 18.0124 12.3999 17.0713 12.3999 16.09V13.85L17.5299 19.49C17.0783 19.6851 16.5919 19.7871 16.0999 19.79ZM10.7799 5.00001C11.3367 4.08256 12.1179 3.322 13.0499 2.79001C13.9676 2.27873 14.9994 2.00703 16.0499 2.00001C17.2861 1.99834 18.4949 2.36449 19.5224 3.05186C20.5499 3.73923 21.3496 4.71674 21.8199 5.86001C22.1388 6.61634 22.3021 7.42918 22.2999 8.25001V15.8C22.2999 16.1315 22.1682 16.4495 21.9338 16.6839C21.6994 16.9183 21.3814 17.05 21.0499 17.05C20.7184 17.05 20.4005 16.9183 20.166 16.6839C19.9316 16.4495 19.7999 16.1315 19.7999 15.8V8.25001C19.8005 7.75868 19.7019 7.2723 19.5099 6.82001C19.3234 6.36369 19.0481 5.94899 18.6999 5.60001C18.009 4.90955 17.0766 4.51504 16.0999 4.50001C15.4573 4.5084 14.8275 4.68049 14.2699 5.00001C13.7191 5.30958 13.2523 5.74897 12.9099 6.28001C12.7235 6.52497 12.4531 6.6925 12.1508 6.75049C11.8484 6.80849 11.5353 6.75287 11.2715 6.59429C11.0076 6.43572 10.8115 6.18534 10.7208 5.89115C10.6301 5.59696 10.6512 5.27964 10.7799 5.00001ZM23.3199 19.1C23.5722 18.4589 23.7338 17.7858 23.7999 17.1C23.8183 16.9365 23.8687 16.7782 23.9483 16.6342C24.0278 16.4902 24.135 16.3633 24.2636 16.2607C24.3922 16.1581 24.5397 16.0818 24.6978 16.0362C24.8559 15.9906 25.0214 15.9766 25.1849 15.995C25.3484 16.0134 25.5067 16.0638 25.6507 16.1434C25.7947 16.2229 25.9217 16.33 26.0243 16.4587C26.1269 16.5873 26.2031 16.7348 26.2487 16.8929C26.2943 17.051 26.3083 17.2165 26.2899 17.38C26.1907 18.2773 25.9755 19.158 25.6499 20C25.5576 20.2353 25.3967 20.4374 25.1881 20.5801C24.9794 20.7228 24.7327 20.7994 24.4799 20.8C24.3255 20.7992 24.1727 20.7687 24.0299 20.71C23.8753 20.6493 23.7342 20.5587 23.6148 20.4433C23.4953 20.3279 23.3999 20.1901 23.3339 20.0377C23.2679 19.8852 23.2327 19.7213 23.2303 19.5552C23.2279 19.3892 23.2584 19.2243 23.3199 19.07V19.1Z" fill="black"/>
</svg>
