<svg width="32" height="32" viewBox="0 0 32 32" fill="none" xmlns="http://www.w3.org/2000/svg">
<path d="M11.7799 20.6702C12.3581 21.2435 13.0448 21.6957 13.7999 22.0002C14.7497 22.3926 15.7815 22.545 16.8041 22.4442C17.8268 22.3434 18.8089 21.9924 19.6638 21.4221C20.5187 20.8519 21.22 20.08 21.7059 19.1745C22.1918 18.269 22.4474 17.2578 22.4499 16.2302V8.23022C22.4462 6.99562 22.077 5.78978 21.3887 4.76481C20.7004 3.73985 19.724 2.94169 18.5827 2.47102C17.4413 2.00036 16.1861 1.87827 14.9754 2.12016C13.7647 2.36206 12.6528 2.9571 11.7799 3.83022C11.2069 4.41349 10.7546 5.1042 10.4491 5.8627C10.1437 6.62121 9.99103 7.43257 9.99995 8.25022V16.2502C10.0002 17.0698 10.1598 17.8816 10.4699 18.6402C10.7667 19.3976 11.2121 20.0878 11.7799 20.6702ZM12.4499 8.25022C12.4499 7.25566 12.845 6.30183 13.5483 5.59857C14.2516 4.89531 15.2054 4.50022 16.1999 4.50022C17.1945 4.50022 18.1483 4.89531 18.8516 5.59857C19.5549 6.30183 19.9499 7.25566 19.9499 8.25022V16.2502C19.9512 16.7428 19.8545 17.2306 19.6657 17.6855C19.4769 18.1404 19.1996 18.5533 18.8499 18.9002C18.3228 19.4214 17.6539 19.7761 16.9267 19.9201C16.1995 20.0641 15.446 19.9911 14.7599 19.7102C14.3017 19.5274 13.8863 19.2516 13.5399 18.9002C13.1941 18.5532 12.919 18.1422 12.7299 17.6902C12.5422 17.2335 12.447 16.744 12.4499 16.2502V8.25022ZM26.3799 17.3902C26.1236 19.6773 25.1021 21.8106 23.4812 23.4443C21.8602 25.0779 19.7349 26.116 17.4499 26.3902V29.2302C17.4499 29.5617 17.3183 29.8797 17.0838 30.1141C16.8494 30.3485 16.5315 30.4802 16.1999 30.4802C15.8684 30.4802 15.5505 30.3485 15.3161 30.1141C15.0816 29.8797 14.9499 29.5617 14.9499 29.2302V26.4102C12.6632 26.1381 10.5356 25.1009 8.91261 23.4671C7.28967 21.8333 6.26674 19.6988 6.00995 17.4102C5.98617 17.2449 5.99603 17.0765 6.03893 16.9151C6.08184 16.7537 6.15691 16.6026 6.25964 16.4709C6.36237 16.3393 6.49064 16.2297 6.63675 16.1488C6.78287 16.0679 6.94382 16.0174 7.10995 16.0002C7.27296 15.9808 7.43821 15.9939 7.59612 16.0388C7.75403 16.0837 7.90145 16.1595 8.02982 16.2618C8.1582 16.3642 8.26498 16.491 8.34396 16.6349C8.42295 16.7788 8.47257 16.937 8.48995 17.1002C8.65031 18.5131 9.1963 19.8546 10.0681 20.9779C10.94 22.1013 12.1041 22.9631 13.4329 23.469C14.7618 23.975 16.2043 24.1055 17.6025 23.8465C19.0006 23.5874 20.3005 22.9487 21.3599 22.0002C22.7858 20.7307 23.6908 18.9779 23.8999 17.0802C23.9424 16.7552 24.1109 16.4599 24.369 16.2579C24.6271 16.0559 24.9543 15.9634 25.2799 16.0002C25.4441 16.0175 25.6032 16.0675 25.7479 16.1471C25.8925 16.2267 26.0198 16.3344 26.1223 16.4639C26.2247 16.5934 26.3003 16.742 26.3445 16.9011C26.3888 17.0601 26.4008 17.2264 26.3799 17.3902Z" fill="black"/>
</svg>
