<svg width="32" height="32" viewBox="0 0 32 32" fill="none" xmlns="http://www.w3.org/2000/svg">
<path d="M31 11C31 11.6 30.6 12 30 12H28V14C28 14.6 27.6 15 27 15C26.4 15 26 14.6 26 14V12H24C23.4 12 23 11.6 23 11C23 10.4 23.4 10 24 10H26V8C26 7.4 26.4 7 27 7C27.6 7 28 7.4 28 8V10H30C30.6 10 31 10.4 31 11ZM19 6H20V7C20 7.6 20.4 8 21 8C21.6 8 22 7.6 22 7V6H23C23.6 6 24 5.6 24 5C24 4.4 23.6 4 23 4H22V3C22 2.4 21.6 2 21 2C20.4 2 20 2.4 20 3V4H19C18.4 4 18 4.4 18 5C18 5.6 18.4 6 19 6ZM28.6 17.8C28.9 18.1 29 18.5 28.9 19C28.4 21.3 27.2 23.4 25.6 25.1C24 26.8 21.9 28.1 19.6 28.7C18.4 29 17.2 29.2 15.9 29.2C14.8 29.2 13.7 29.1 12.6 28.8C10.3 28.2 8.19999 27 6.49999 25.3C4.79999 23.6 3.59999 21.5 2.99999 19.2C2.39999 16.9 2.39999 14.5 3.09999 12.2C3.79999 9.9 4.99999 7.9 6.69999 6.2C8.39999 4.6 10.5 3.4 12.8 2.9C13.2 2.8 13.7 2.9 14 3.2C14.3 3.5 14.4 3.9 14.3 4.4C13.9 6.2 13.9 8 14.4 9.8C14.9 11.5 15.8 13.2 17.1 14.4C18.4 15.7 20 16.6 21.7 17.1C23.4 17.6 25.3 17.7 27.1 17.2C27.8 17.4 28.3 17.5 28.6 17.8ZM25.9 20.2C24.4 20.3 22.8 20.1 21.4 19.7C19.2 19.1 17.3 17.9 15.7 16.3C14.1 14.7 13 12.7 12.3 10.6C11.9 9.1 11.7 7.6 11.8 6.1C10.6 6.6 9.59999 7.3 8.59999 8.2C7.19999 9.5 6.19999 11.2 5.69999 13C5.19999 14.8 5.09999 16.8 5.59999 18.7C6.09999 20.6 7.09999 22.3 8.39999 23.6C9.79999 25 11.5 25.9 13.3 26.4C15.2 26.9 17.1 26.9 19 26.3C20.8 25.8 22.5 24.8 23.8 23.4C24.7 22.5 25.4 21.4 25.9 20.2Z" fill="black"/>
</svg>
