<svg width="32" height="32" viewBox="0 0 32 32" fill="none" xmlns="http://www.w3.org/2000/svg">
<path d="M16 29.1998C14.9 29.1998 13.8 29.0998 12.7 28.7998C10.4 28.1998 8.29996 26.9998 6.59996 25.2998C4.89996 23.5998 3.69997 21.4998 3.09996 19.1998C2.49996 16.8998 2.49997 14.4998 3.19997 12.1998C3.89997 9.8998 5.09997 7.8998 6.79997 6.1998C8.49997 4.5998 10.6 3.3998 12.9 2.8998C13.3 2.7998 13.8 2.8998 14.1 3.1998C14.4 3.4998 14.5 3.8998 14.4 4.3998C14 6.1998 14 7.9998 14.5 9.7998C15 11.4998 15.9 13.1998 17.2 14.3998C18.5 15.6998 20.1 16.5998 21.8 17.0998C23.5 17.5998 25.4 17.6998 27.2 17.1998C27.6 17.0998 28.1 17.1998 28.4 17.4998C28.7 17.7998 28.8 18.1998 28.7 18.6998C28.2 20.9998 27 23.0998 25.4 24.7998C23.8 26.4998 21.7 27.7998 19.4 28.3998C18.5 29.0998 17.2 29.1998 16 29.1998ZM11.8 6.0998C10.6 6.5998 9.59997 7.2998 8.59997 8.1998C7.19997 9.4998 6.19996 11.1998 5.69996 12.9998C5.19996 14.7998 5.09996 16.7998 5.59996 18.6998C6.09996 20.5998 7.09997 22.2998 8.39996 23.5998C9.79996 24.9998 11.5 25.8998 13.3 26.3998C15.2 26.8998 17.1 26.8998 19 26.2998C20.8 25.7998 22.5 24.7998 23.8 23.3998C24.7 22.4998 25.4 21.3998 25.9 20.1998C24.4 20.2998 22.8 20.0998 21.4 19.6998C19.2 19.0998 17.3 17.8998 15.7 16.2998C14.1 14.6998 13 12.6998 12.3 10.5998C11.8 9.1998 11.7 7.5998 11.8 6.0998Z" fill="black"/>
</svg>
