<svg width="32" height="32" viewBox="0 0 32 32" fill="none" xmlns="http://www.w3.org/2000/svg">
<path fill-rule="evenodd" clip-rule="evenodd" d="M11 19.25C8.92893 19.25 7.25 20.9289 7.25 23C7.25 25.0711 8.92893 26.75 11 26.75C13.0711 26.75 14.75 25.0711 14.75 23C14.75 20.9289 13.0711 19.25 11 19.25ZM4.75 23C4.75 19.5482 7.54822 16.75 11 16.75C14.4518 16.75 17.25 19.5482 17.25 23C17.25 26.4518 14.4518 29.25 11 29.25C7.54822 29.25 4.75 26.4518 4.75 23Z" fill="black"/>
<path fill-rule="evenodd" clip-rule="evenodd" d="M15.2538 3.99714C15.5708 3.76128 15.9807 3.68919 16.3592 3.80273L26.3592 6.80273C27.0204 7.0011 27.3957 7.69795 27.1973 8.3592C26.9989 9.02044 26.3021 9.39567 25.6408 9.19729L17.25 6.68005V23C17.25 23.6904 16.6904 24.25 16 24.25C15.3096 24.25 14.75 23.6904 14.75 23V5.00001C14.75 4.60488 14.9368 4.23301 15.2538 3.99714Z" fill="black"/>
</svg>
