<svg width="32" height="32" viewBox="0 0 32 32" fill="none" xmlns="http://www.w3.org/2000/svg">
<path d="M13.4537 31C12.9427 31.0028 12.4436 30.8453 12.0267 30.5498C11.6099 30.2543 11.2961 29.8356 11.1295 29.3525L3.13143 6.27755C2.98224 5.83808 2.95956 5.36553 3.06596 4.91378C3.16158 4.4613 3.38944 4.0474 3.72065 3.72458C4.04508 3.39548 4.45837 3.16801 4.91 3.06997C5.36127 2.95804 5.83546 2.98079 6.27394 3.13543L29.3517 11.1326C29.8401 11.3063 30.263 11.6263 30.5629 12.049C30.8585 12.4743 31.0113 12.9824 30.9994 13.5001C30.997 14.0175 30.8245 14.5197 30.5083 14.9293C30.1983 15.3415 29.7672 15.6467 29.2753 15.8021L18.964 18.9661L15.7997 29.2652C15.6476 29.7617 15.3419 30.1972 14.9267 30.509C14.5145 30.8202 14.0138 30.9922 13.4973 31H13.4537ZM5.89204 5.8957L13.4319 27.716L16.3998 18.0714C16.5175 17.6884 16.7272 17.3399 17.0106 17.0566C17.294 16.7732 17.6425 16.5635 18.0256 16.4458L27.6714 13.4783L5.89204 5.8957Z" fill="black"/>
</svg>
