<svg width="32" height="32" viewBox="0 0 32 32" fill="none" xmlns="http://www.w3.org/2000/svg">
<path d="M27.94 22.12C27.22 20.87 26.35 18.49 26.35 14.25V13.36C26.3609 10.6452 25.3016 8.03554 23.4018 6.09635C21.5019 4.15717 18.9144 3.0447 16.2 3C14.8503 3.00066 13.5131 3.2586 12.26 3.76C10.3762 4.52984 8.76484 5.84403 7.63191 7.53452C6.49897 9.22501 5.89597 11.215 5.9 13.25V14.25C5.9 18.49 5.03 20.87 4.31 22.11C4.10779 22.4523 4.00076 22.8424 4 23.24C4.00008 23.6363 4.10348 24.0258 4.3 24.37C4.49852 24.7117 4.7807 24.9974 5.12 25.2C5.46505 25.3944 5.85396 25.4977 6.25 25.5H10.9C10.9543 26.8468 11.5285 28.1201 12.5019 29.0525C13.4753 29.9848 14.7721 30.5037 16.12 30.5C16.8082 30.5065 17.4909 30.3774 18.1292 30.12C18.7675 29.8627 19.3488 29.4821 19.84 29C20.7606 28.0777 21.2998 26.8422 21.35 25.54H26C26.3942 25.5379 26.7808 25.4309 27.12 25.23C27.4622 25.0276 27.7477 24.7422 27.95 24.4C28.1401 24.0573 28.2399 23.6719 28.24 23.28C28.2492 22.873 28.1454 22.4715 27.94 22.12ZM18.07 27.19C17.5456 27.6895 16.8492 27.9681 16.125 27.9681C15.4008 27.9681 14.7044 27.6895 14.18 27.19C13.7329 26.7335 13.4573 26.1364 13.4 25.5H18.85C18.7927 26.1364 18.5171 26.7335 18.07 27.19ZM6.67 23C7.9406 20.2645 8.53398 17.2632 8.4 14.25V13.25C8.39683 12.2209 8.59735 11.2013 8.99 10.25C9.38271 9.3104 9.9579 8.45804 10.6823 7.74225C11.4066 7.02647 12.2658 6.46148 13.21 6.08C14.135 5.69427 15.1278 5.49708 16.13 5.5C18.1848 5.53939 20.1416 6.38613 21.5769 7.85705C23.0123 9.32797 23.8109 11.3048 23.8 13.36V14.25C23.8 18.67 24.69 21.41 25.53 23H6.67Z" fill="black"/>
</svg>
