<svg width="32" height="32" viewBox="0 0 32 32" fill="none" xmlns="http://www.w3.org/2000/svg">
<path d="M7.05 4.40993C6.9412 4.28303 6.80806 4.17923 6.65845 4.10468C6.50883 4.03014 6.34578 3.98636 6.17895 3.97593C6.01212 3.96551 5.84489 3.98865 5.68716 4.04399C5.52943 4.09933 5.3844 4.18575 5.26065 4.29812C5.1369 4.4105 5.03695 4.54655 4.96671 4.69823C4.89647 4.84992 4.85737 5.01415 4.85171 5.18121C4.84606 5.34827 4.87397 5.51477 4.93379 5.67086C4.99361 5.82694 5.08414 5.96945 5.2 6.08993L7.2 8.27993C6.34615 9.80752 5.90177 11.5299 5.91 13.2799V14.2799C5.91 18.5199 5.04 20.8999 4.32 22.1399C4.11936 22.4725 4.00906 22.8517 4 23.2399C4.00008 23.6363 4.10348 24.0257 4.3 24.3699C4.49852 24.7117 4.7807 24.9973 5.12 25.1999C5.46505 25.3943 5.85396 25.4976 6.25 25.4999H10.9C10.9543 26.8467 11.5285 28.12 12.5019 29.0524C13.4753 29.9848 14.7721 30.5036 16.12 30.4999C16.8082 30.5064 17.4909 30.3773 18.1292 30.12C18.7675 29.8626 19.3488 29.482 19.84 28.9999C20.7606 28.0776 21.2998 26.8421 21.35 25.5399H22.84L25.2 28.1299C25.3165 28.2583 25.4585 28.3611 25.6169 28.4317C25.7753 28.5023 25.9466 28.5391 26.12 28.5399C26.4319 28.5414 26.7325 28.4233 26.96 28.2099C27.0822 28.1007 27.1815 27.9684 27.2522 27.8206C27.323 27.6727 27.3637 27.5124 27.3721 27.3487C27.3804 27.185 27.3563 27.0213 27.301 26.8671C27.2457 26.7128 27.1604 26.571 27.05 26.4499L7.05 4.40993ZM8.4 14.2499V13.2499C8.4013 12.2193 8.6087 11.1993 9.01 10.2499L20.57 22.9999H6.67C7.9406 20.2644 8.53398 17.2632 8.4 14.2499ZM18.07 27.1899C17.5456 27.6894 16.8492 27.968 16.125 27.968C15.4008 27.968 14.7044 27.6894 14.18 27.1899C13.7329 26.7334 13.4573 26.1364 13.4 25.4999H18.85C18.7927 26.1364 18.5171 26.7334 18.07 27.1899ZM10.6 5.99993C10.4377 5.712 10.396 5.3715 10.484 5.0529C10.5721 4.73431 10.7828 4.46358 11.07 4.29993C12.6333 3.4089 14.4042 2.94642 16.2036 2.95924C18.0029 2.97207 19.767 3.45975 21.3175 4.37298C22.868 5.28621 24.1498 6.59261 25.0335 8.16011C25.9172 9.72761 26.3713 11.5006 26.35 13.2999V14.1899C26.2687 16.469 26.6077 18.7436 27.35 20.8999C27.4681 21.2091 27.4599 21.5523 27.327 21.8555C27.1942 22.1586 26.9474 22.3973 26.64 22.5199C26.4933 22.5762 26.3371 22.6034 26.18 22.5999C25.9298 22.5995 25.6855 22.5239 25.4787 22.3831C25.2719 22.2423 25.1121 22.0426 25.02 21.8099C24.1518 19.3659 23.7416 16.7827 23.81 14.1899V13.2999C23.8054 11.2619 23.0053 9.3062 21.5802 7.8493C20.155 6.39241 18.2174 5.54945 16.18 5.49993C14.8236 5.48003 13.4869 5.82544 12.31 6.49993C12.0169 6.66033 11.6721 6.69776 11.3515 6.604C11.0308 6.51024 10.7605 6.29295 10.6 5.99993Z" fill="black"/>
</svg>
