<svg width="32" height="32" viewBox="0 0 32 32" fill="none" xmlns="http://www.w3.org/2000/svg">
<path d="M28.1903 9.05286C27.9939 8.70613 27.707 8.41925 27.3603 8.22286L16.8603 2.29286C16.5218 2.1009 16.1394 2 15.7503 2C15.3612 2 14.9788 2.1009 14.6403 2.29286L4.1403 8.22286C3.80337 8.41019 3.51818 8.6782 3.3103 9.00286C3.10263 9.36111 2.99553 9.76879 3.0003 10.1829V22.0029C2.99369 22.4078 3.09602 22.8071 3.29656 23.1589C3.49711 23.5107 3.78852 23.8022 4.1403 24.0029L14.6403 29.9429C14.9794 30.1329 15.3616 30.2328 15.7503 30.2328C16.139 30.2328 16.5212 30.1329 16.8603 29.9429L27.3603 24.0029C27.7063 23.81 27.9933 23.5265 28.1903 23.1829C28.3994 22.8252 28.5066 22.4171 28.5003 22.0029V10.1829C28.4995 9.78529 28.3925 9.39516 28.1903 9.05286ZM26.0003 21.8729L15.7503 27.6629L5.5003 21.8729V10.3229L15.7503 4.53286L26.0003 10.3329V21.8729ZM10.0003 16.1029C10.0003 17.2401 10.3375 18.3518 10.9694 19.2974C11.6012 20.243 12.4992 20.98 13.5499 21.4152C14.6005 21.8504 15.7567 21.9642 16.8721 21.7424C17.9875 21.5205 19.012 20.9729 19.8162 20.1687C20.6203 19.3646 21.168 18.34 21.3898 17.2246C21.6117 16.1092 21.4978 14.9531 21.0626 13.9024C20.6274 12.8518 19.8904 11.9537 18.9448 11.3219C17.9992 10.6901 16.8875 10.3529 15.7503 10.3529C14.2261 10.3555 12.7651 10.9622 11.6874 12.0399C10.6096 13.1177 10.0029 14.5787 10.0003 16.1029ZM19.0003 16.1029C19.0003 16.7456 18.8097 17.374 18.4526 17.9085C18.0955 18.4429 17.5879 18.8595 16.994 19.1055C16.4002 19.3515 15.7467 19.4158 15.1163 19.2904C14.4858 19.165 13.9067 18.8555 13.4522 18.401C12.9977 17.9464 12.6882 17.3673 12.5627 16.7369C12.4373 16.1065 12.5017 15.453 12.7477 14.8591C12.9937 14.2653 13.4102 13.7577 13.9447 13.4006C14.4792 13.0435 15.1075 12.8529 15.7503 12.8529C16.6114 12.8555 17.4366 13.1988 18.0455 13.8077C18.6544 14.4166 18.9977 15.2417 19.0003 16.1029Z" fill="black"/>
</svg>
