<svg width="32" height="32" viewBox="0 0 32 32" fill="none" xmlns="http://www.w3.org/2000/svg">
<path d="M29.86 25.2602L18 4.14017C17.8027 3.79293 17.517 3.50417 17.1718 3.30329C16.8266 3.10241 16.4344 2.99658 16.035 2.99658C15.6357 2.99658 15.2434 3.10241 14.8983 3.30329C14.5531 3.50417 14.2673 3.79293 14.07 4.14017L2.29002 25.2602C2.05994 25.6562 1.9586 26.114 2.00002 26.5702C2.03904 27.0278 2.22095 27.4616 2.52002 27.8102C2.81736 28.1593 3.21344 28.4101 3.65613 28.5297C4.09882 28.6493 4.56735 28.632 5.00003 28.4802L16.06 24.4802L27.13 28.4802C27.375 28.5629 27.6315 28.6067 27.89 28.6102C28.086 28.6081 28.2808 28.5812 28.47 28.5302C28.9144 28.4118 29.3121 28.1606 29.61 27.8102C29.9014 27.4569 30.0823 27.0256 30.13 26.5702C30.1762 26.1162 30.0819 25.6589 29.86 25.2602ZM17.32 22.3202V15.2002C17.32 14.8686 17.1883 14.5507 16.9539 14.3163C16.7195 14.0819 16.4015 13.9502 16.07 13.9502C15.7385 13.9502 15.4206 14.0819 15.1861 14.3163C14.9517 14.5507 14.82 14.8686 14.82 15.2002V22.3202L4.82002 25.9002L16.07 5.75017L27.35 25.9002L17.32 22.3202Z" fill="black"/>
</svg>
