<svg width="32" height="32" viewBox="0 0 32 32" fill="none" xmlns="http://www.w3.org/2000/svg">
<path fill-rule="evenodd" clip-rule="evenodd" d="M25.9419 3.28175C26.3268 3.17318 26.7338 3.16918 27.1208 3.27016C27.5078 3.37115 27.8609 3.57346 28.1437 3.85628C28.4265 4.13909 28.6288 4.49217 28.7298 4.87918C28.8308 5.26619 28.8268 5.67312 28.7182 6.05805L22.1489 29.349C22.0246 29.7899 21.7686 30.1823 21.4153 30.4738C21.062 30.7653 20.6281 30.942 20.1716 30.9803C19.7151 31.0187 19.2579 30.9167 18.8609 30.6882C18.4639 30.4597 18.1461 30.1154 17.95 29.7014L12.9192 19.0808L2.29853 14.0499C1.88455 13.8538 1.54029 13.5361 1.31175 13.1391C1.08322 12.7421 0.981293 12.2848 1.0196 11.8283C1.05791 11.3719 1.23463 10.938 1.52614 10.5846C1.81765 10.2313 2.21006 9.97535 2.65093 9.851L25.9419 3.28175ZM26.1909 5.80907L3.97147 12.0761L14.0701 16.8596L13.535 17.9893L14.0701 16.8596C14.5397 17.0821 14.9179 17.4602 15.1403 17.9299L14.0106 18.465L15.1403 17.9299L19.9239 28.0285L26.1909 5.80907Z" fill="black"/>
<path fill-rule="evenodd" clip-rule="evenodd" d="M20.3985 11.6015C20.8867 12.0896 20.8867 12.8811 20.3985 13.3692L14.7417 19.0261C14.2535 19.5142 13.4621 19.5142 12.9739 19.0261C12.4857 18.5379 12.4857 17.7465 12.9739 17.2583L18.6308 11.6015C19.1189 11.1133 19.9104 11.1133 20.3985 11.6015Z" fill="black"/>
</svg>
