<svg width="32" height="32" viewBox="0 0 32 32" fill="none" xmlns="http://www.w3.org/2000/svg">
<path d="M29.31 14.9398C29.1041 14.597 28.8152 14.3115 28.47 14.1098L7.34996 2.2898C6.94381 2.04803 6.46957 1.94615 5.99996 1.9998C5.55745 2.05789 5.14094 2.24185 4.79996 2.5298C4.44881 2.82288 4.19724 3.2177 4.07996 3.6598C3.96316 4.10152 3.98057 4.56801 4.12996 4.9998L8.12996 16.0698L4.12996 27.1398C3.97808 27.5725 3.9608 28.041 4.0804 28.4837C4.19999 28.9264 4.45086 29.3225 4.79996 29.6198C5.13766 29.9113 5.55633 30.0927 5.99996 30.1398H6.20996C6.59553 30.1399 6.97453 30.0399 7.30996 29.8498L28.47 17.9998C28.8174 17.801 29.107 17.5149 29.31 17.1698C29.5091 16.8267 29.6127 16.4365 29.61 16.0398C29.6056 15.6535 29.5023 15.2748 29.31 14.9398ZM6.70996 27.3498L10.29 17.3498H17.41C17.5828 17.3653 17.757 17.3446 17.9215 17.2891C18.0859 17.2336 18.237 17.1444 18.3651 17.0273C18.4932 16.9102 18.5955 16.7677 18.6655 16.6089C18.7355 16.45 18.7717 16.2784 18.7717 16.1048C18.7717 15.9312 18.7355 15.7596 18.6655 15.6007C18.5955 15.4419 18.4932 15.2994 18.3651 15.1823C18.237 15.0652 18.0859 14.976 17.9215 14.9205C17.757 14.865 17.5828 14.8443 17.41 14.8598H10.29L6.70996 4.7998L26.85 16.0798L6.70996 27.3498Z" fill="black"/>
</svg>