<svg width="32" height="32" viewBox="0 0 32 32" fill="none" xmlns="http://www.w3.org/2000/svg">
<path fill-rule="evenodd" clip-rule="evenodd" d="M25 23.25C24.0335 23.25 23.25 24.0335 23.25 25C23.25 25.9665 24.0335 26.75 25 26.75C25.9665 26.75 26.75 25.9665 26.75 25C26.75 24.0335 25.9665 23.25 25 23.25ZM20.75 25C20.75 22.6528 22.6528 20.75 25 20.75C27.3472 20.75 29.25 22.6528 29.25 25C29.25 27.3472 27.3472 29.25 25 29.25C22.6528 29.25 20.75 27.3472 20.75 25Z" fill="black"/>
<path fill-rule="evenodd" clip-rule="evenodd" d="M7.75 7C7.75 6.30964 8.30964 5.75 9 5.75H21C22.3924 5.75 23.7277 6.30312 24.7123 7.28769C25.6969 8.27225 26.25 9.60761 26.25 11C26.25 12.3924 25.6969 13.7277 24.7123 14.7123C23.7277 15.6969 22.3924 16.25 21 16.25H9C8.00544 16.25 7.05161 16.6451 6.34835 17.3483C5.64509 18.0516 5.25 19.0054 5.25 20C5.25 20.9946 5.64509 21.9484 6.34835 22.6516C7.05161 23.3549 8.00544 23.75 9 23.75H22C22.6904 23.75 23.25 24.3096 23.25 25C23.25 25.6904 22.6904 26.25 22 26.25H9C7.3424 26.25 5.75269 25.5915 4.58058 24.4194C3.40848 23.2473 2.75 21.6576 2.75 20C2.75 18.3424 3.40848 16.7527 4.58058 15.5806C5.75269 14.4085 7.3424 13.75 9 13.75H21C21.7293 13.75 22.4288 13.4603 22.9445 12.9445C23.4603 12.4288 23.75 11.7293 23.75 11C23.75 10.2707 23.4603 9.57118 22.9445 9.05546C22.4288 8.53973 21.7293 8.25 21 8.25H9C8.30964 8.25 7.75 7.69036 7.75 7Z" fill="black"/>
</svg>
