<svg width="32" height="32" viewBox="0 0 32 32" fill="none" xmlns="http://www.w3.org/2000/svg">
<path fill-rule="evenodd" clip-rule="evenodd" d="M21 5.76762L6.25 20.5176V25.7498H11.4822L26.2322 10.9998L21 5.76762ZM19.409 3.82307C19.831 3.40111 20.4033 3.16406 21 3.16406C21.5967 3.16406 22.169 3.40111 22.591 3.82307L28.1768 9.40886C28.5987 9.83082 28.8358 10.4031 28.8358 10.9998C28.8358 11.5966 28.5987 12.1689 28.1768 12.5908L13.1768 27.5908C12.9679 27.7998 12.7198 27.9655 12.4468 28.0786C12.1738 28.1917 11.8813 28.2498 11.5858 28.2498H6C5.40326 28.2498 4.83097 28.0128 4.40901 27.5908C3.98705 27.1689 3.75 26.5966 3.75 25.9998V20.4141C3.75 20.1186 3.8082 19.826 3.92127 19.553C4.03434 19.28 4.20008 19.032 4.40901 18.8231L19.409 3.82307L20.2929 4.70695L19.409 3.82307Z" fill="black"/>
<path fill-rule="evenodd" clip-rule="evenodd" d="M16.1161 7.11612C16.6043 6.62796 17.3957 6.62796 17.8839 7.11612L24.8839 14.1161C25.372 14.6043 25.372 15.3957 24.8839 15.8839C24.3957 16.372 23.6043 16.372 23.1161 15.8839L16.1161 8.88388C15.628 8.39573 15.628 7.60427 16.1161 7.11612Z" fill="black"/>
<path fill-rule="evenodd" clip-rule="evenodd" d="M4.17984 19.1796C4.66799 18.6914 5.45945 18.6914 5.9476 19.1796L12.8201 26.0521C13.3083 26.5402 13.3083 27.3317 12.8201 27.8199C12.332 28.308 11.5405 28.308 11.0523 27.8199L4.17984 20.9474C3.69168 20.4592 3.69168 19.6677 4.17984 19.1796Z" fill="black"/>
</svg>
