<svg width="32" height="32" viewBox="0 0 32 32" fill="none" xmlns="http://www.w3.org/2000/svg">
<path fill-rule="evenodd" clip-rule="evenodd" d="M16 8.25C11.8228 8.25 7.81673 9.90937 4.86303 12.8631C4.0459 13.6803 3.55464 14.7674 3.48127 15.9208C3.41207 17.0086 3.71908 18.085 4.34739 18.9709L9.9572 16.7269L10.6674 13.1741C10.742 12.7936 10.9141 12.4389 11.1668 12.1447C11.4205 11.8496 11.7466 11.6256 12.1131 11.4948L12.1223 11.4915C14.6161 10.6232 17.3292 10.6171 19.827 11.474L19.8361 11.4771C20.2018 11.6057 20.5278 11.827 20.7824 12.1193C21.0362 12.4106 21.2103 12.7625 21.2879 13.1409C21.2882 13.1422 21.2884 13.1436 21.2887 13.1449L22.0363 16.7244L27.6525 18.9709C28.2808 18.085 28.5878 17.0086 28.5186 15.9208C28.4453 14.7674 27.954 13.6803 27.1368 12.863C24.1831 9.90935 20.1771 8.25 16 8.25ZM3.09526 11.0953C6.5178 7.67276 11.1598 5.75 16 5.75C20.8402 5.75 25.4821 7.67276 28.9047 11.0953C30.1518 12.3426 30.9016 14.0018 31.0136 15.762C31.1256 17.5223 30.5921 19.2631 29.513 20.6584L29.5079 20.665C29.2074 21.0483 28.7904 21.3235 28.3198 21.4492C27.85 21.5747 27.3522 21.5444 26.9011 21.3629C26.9004 21.3626 26.8996 21.3623 26.8988 21.362L20.9833 18.9958C20.6388 18.858 20.3338 18.6371 20.0953 18.3529C19.8568 18.0687 19.6923 17.7299 19.6165 17.3667L18.8695 13.7899C16.991 13.18 14.9669 13.1846 13.0912 13.8027L12.3822 17.3498C12.3088 17.7168 12.145 18.0598 11.9057 18.3475C11.6663 18.6353 11.359 18.8588 11.0114 18.9978L5.10107 21.362C5.10033 21.3623 5.09959 21.3626 5.09885 21.3629C4.64777 21.5444 4.14994 21.5747 3.68012 21.4492C3.20954 21.3235 2.79256 21.0482 2.49202 20.6649L2.48687 20.6584C1.40781 19.2631 0.874339 17.5223 0.986315 15.762C1.09829 14.0018 1.8481 12.3426 3.09526 11.0953Z" fill="black"/>
<path fill-rule="evenodd" clip-rule="evenodd" d="M3.75 25C3.75 24.3096 4.30964 23.75 5 23.75H27C27.6904 23.75 28.25 24.3096 28.25 25C28.25 25.6904 27.6904 26.25 27 26.25H5C4.30964 26.25 3.75 25.6904 3.75 25Z" fill="black"/>
</svg>
