<svg width="32" height="32" viewBox="0 0 32 32" fill="none" xmlns="http://www.w3.org/2000/svg">
<path d="M22.2501 28.4599C19.8528 28.4664 17.478 27.9968 15.2636 27.0784C13.0492 26.16 11.0392 24.8111 9.35007 23.1099C7.64888 21.4208 6.29997 19.4108 5.38159 17.1964C4.46321 14.982 3.99362 12.6072 4.00007 10.2099C3.99553 8.44325 4.63624 6.73571 5.80183 5.40808C6.96741 4.08046 8.57766 3.22412 10.3301 2.99994C10.8176 2.9405 11.3112 3.04223 11.7355 3.2896C12.1599 3.53697 12.4916 3.91638 12.6801 4.36994L15.1901 10.2199C15.3313 10.5649 15.3895 10.9383 15.3601 11.3099C15.3252 11.6681 15.2015 12.0118 15.0001 12.3099L13.0001 15.3999C13.9039 17.1571 15.3385 18.5847 17.1001 19.4799L20.1001 17.4799C20.3976 17.2757 20.7412 17.1486 21.1001 17.1099C21.4717 17.0805 21.8451 17.1387 22.1901 17.2799L28.0401 19.7899C28.4911 19.9772 28.8679 20.3079 29.112 20.731C29.356 21.154 29.4538 21.6457 29.3901 22.1299C29.1686 23.8807 28.3161 25.4906 26.9924 26.6578C25.6687 27.825 23.9648 28.4693 22.2001 28.4699L22.2501 28.4599ZM10.4501 5.52994C9.34624 5.72055 8.345 6.29434 7.62251 7.15036C6.90001 8.00638 6.50255 9.08978 6.50007 10.2099C6.49348 12.282 6.89608 14.335 7.68477 16.251C8.47346 18.1671 9.63271 19.9087 11.096 21.3757C12.5593 22.8427 14.2979 24.0064 16.212 24.7999C18.1261 25.5935 20.178 26.0013 22.2501 25.9999C23.3781 25.9975 24.4684 25.5937 25.3258 24.8608C26.1833 24.1279 26.752 23.1138 26.9301 21.9999L21.3801 19.6199L18.3801 21.6199C18.0579 21.8341 17.6859 21.9615 17.3001 21.9899C16.9114 22.0213 16.5215 21.9488 16.1701 21.7799C13.7947 20.6257 11.873 18.711 10.7101 16.3399C10.546 15.9905 10.4737 15.6051 10.5001 15.2199C10.5225 14.8298 10.6504 14.4531 10.8701 14.1299L12.8701 11.0799L10.4501 5.52994Z" fill="black"/>
</svg>
