<svg width="32" height="32" viewBox="0 0 32 32" fill="none" xmlns="http://www.w3.org/2000/svg">
<path d="M27.7465 19.8033L21.8917 17.2942C21.586 17.1626 21.2523 17.1096 20.9209 17.1401C20.5895 17.1705 20.271 17.2834 19.9944 17.4685L16.864 19.5552C14.9508 18.6247 13.4023 17.083 12.4634 15.174L12.4636 15.1737L14.543 11.9965C14.724 11.7206 14.8338 11.4042 14.8626 11.0756C14.8914 10.7469 14.8383 10.4163 14.708 10.1132L12.1965 4.25342C12.0256 3.85566 11.7304 3.52398 11.3551 3.30803C10.9799 3.09209 10.5448 3.00351 10.115 3.05554C8.42607 3.27269 6.87398 4.09728 5.74865 5.37525C4.62331 6.65323 4.00173 8.29718 4 10C4 19.9253 12.0747 28 22 28C23.7028 27.9983 25.3468 27.3767 26.6248 26.2513C27.9028 25.126 28.7273 23.5738 28.9445 21.8849C28.9964 21.4551 28.9077 21.02 28.6917 20.6448C28.4758 20.2696 28.1442 19.9744 27.7465 19.8033Z" fill="black"/>
</svg>
