<svg width="32" height="32" viewBox="0 0 32 32" fill="none" xmlns="http://www.w3.org/2000/svg">
<path d="M22.2499 28.4599C19.8526 28.4664 17.4779 27.9968 15.2635 27.0784C13.0491 26.16 11.039 24.8111 9.34994 23.1099C7.64875 21.4208 6.29985 19.4108 5.38147 17.1964C4.46308 14.982 3.9935 12.6072 3.99994 10.2099C3.99541 8.44325 4.63612 6.73571 5.8017 5.40808C6.96729 4.08046 8.57754 3.22412 10.3299 2.99994C10.8175 2.9405 11.3111 3.04223 11.7354 3.2896C12.1597 3.53697 12.4915 3.91638 12.6799 4.36994L15.1899 10.2199C15.3312 10.5649 15.3894 10.9383 15.3599 11.3099C15.3251 11.6681 15.2014 12.0118 14.9999 12.3099L12.9999 15.3999C13.9038 17.1571 15.3384 18.5847 17.0999 19.4799L20.0999 17.4799C20.3975 17.2757 20.7411 17.1486 21.0999 17.1099C21.4716 17.0805 21.8449 17.1387 22.1899 17.2799L28.0399 19.7899C28.491 19.9772 28.8678 20.3079 29.1118 20.731C29.3559 21.154 29.4537 21.6457 29.3899 22.1299C29.1684 23.8807 28.3159 25.4906 26.9923 26.6578C25.6686 27.825 23.9647 28.4693 22.1999 28.4699L22.2499 28.4599ZM10.4499 5.52994C9.34612 5.72055 8.34488 6.29434 7.62238 7.15036C6.89989 8.00638 6.50243 9.08978 6.49994 10.2099C6.49336 12.282 6.89596 14.335 7.68465 16.251C8.47334 18.1671 9.63259 19.9087 11.0959 21.3757C12.5592 22.8427 14.2978 24.0064 16.2119 24.7999C18.1259 25.5935 20.1779 26.0013 22.2499 25.9999C23.3779 25.9975 24.4682 25.5937 25.3257 24.8608C26.1832 24.1279 26.7518 23.1138 26.9299 21.9999L21.3799 19.6199L18.3799 21.6199C18.0577 21.8341 17.6858 21.9615 17.2999 21.9899C16.9113 22.0213 16.5213 21.9488 16.1699 21.7799C13.7946 20.6257 11.8729 18.711 10.7099 16.3399C10.5459 15.9905 10.4736 15.6051 10.4999 15.2199C10.5224 14.8298 10.6503 14.4531 10.8699 14.1299L12.8699 11.0799L10.4499 5.52994ZM27.2499 11.2099V6.20994C27.2499 5.94472 27.1446 5.69037 26.9571 5.50283C26.7695 5.31529 26.5152 5.20994 26.2499 5.20994H21.2499C20.9847 5.20994 20.7304 5.31529 20.5428 5.50283C20.3553 5.69037 20.2499 5.94472 20.2499 6.20994C20.2499 6.47515 20.3553 6.72951 20.5428 6.91704C20.7304 7.10458 20.9847 7.20994 21.2499 7.20994H25.2499V11.2099C25.2499 11.4752 25.3553 11.7295 25.5428 11.917C25.7304 12.1046 25.9847 12.2099 26.2499 12.2099C26.5152 12.2099 26.7695 12.1046 26.9571 11.917C27.1446 11.7295 27.2499 11.4752 27.2499 11.2099ZM20.9999 12.9199L26.9999 6.91994C27.0932 6.82407 27.1666 6.71078 27.2161 6.58653C27.2655 6.46228 27.29 6.32951 27.2882 6.19579C27.2863 6.06208 27.2581 5.93004 27.2053 5.80721C27.1524 5.68438 27.0758 5.57318 26.9799 5.47994C26.8841 5.3867 26.7708 5.31325 26.6465 5.2638C26.5223 5.21434 26.3895 5.18985 26.2558 5.1917C26.1221 5.19356 25.99 5.22174 25.8672 5.27462C25.7444 5.32751 25.6332 5.40407 25.5399 5.49994L19.5399 11.4999C19.4462 11.5929 19.3718 11.7035 19.3211 11.8254C19.2703 11.9472 19.2441 12.0779 19.2441 12.2099C19.2441 12.3419 19.2703 12.4727 19.3211 12.5945C19.3718 12.7164 19.4462 12.827 19.5399 12.9199C19.6329 13.0137 19.7435 13.0881 19.8654 13.1388C19.9872 13.1896 20.1179 13.2157 20.2499 13.2157C20.382 13.2157 20.5127 13.1896 20.6345 13.1388C20.7564 13.0881 20.867 13.0137 20.9599 12.9199H20.9999Z" fill="black"/>
</svg>
