<svg width="32" height="32" viewBox="0 0 32 32" fill="none" xmlns="http://www.w3.org/2000/svg">
<path d="M18.2101 5.01654C18.2437 4.88886 18.3023 4.76911 18.3825 4.66419C18.4626 4.55927 18.5628 4.47127 18.6771 4.40526C18.7915 4.33926 18.9178 4.29655 19.0487 4.2796C19.1797 4.26266 19.3127 4.27181 19.4401 4.30654C21.2974 4.80009 22.9929 5.77161 24.3579 7.12433C25.7229 8.47706 26.7097 10.1638 27.2201 12.0165C27.2548 12.1439 27.2639 12.2769 27.247 12.4079C27.2301 12.5388 27.1873 12.6651 27.1213 12.7795C27.0553 12.8938 26.9673 12.994 26.8624 13.0741C26.7575 13.1543 26.6377 13.2129 26.5101 13.2465H26.2501C26.0243 13.2543 25.8026 13.1853 25.621 13.051C25.4394 12.9166 25.3087 12.7247 25.2501 12.5065C24.8354 10.9929 24.0322 9.61391 22.9201 8.50654C21.8165 7.3895 20.4361 6.58546 18.9201 6.17654C18.6772 6.10835 18.4692 5.95093 18.3375 5.73582C18.2058 5.52071 18.1603 5.26379 18.2101 5.01654ZM17.8801 10.0165C18.728 10.2456 19.5005 10.694 20.1201 11.3165C20.7426 11.9361 21.191 12.7087 21.4201 13.5565C21.4787 13.7747 21.6094 13.9666 21.791 14.101C21.9726 14.2353 22.1943 14.3043 22.4201 14.2965C22.5095 14.3111 22.6007 14.3111 22.6901 14.2965C22.9439 14.2263 23.1597 14.0588 23.2908 13.8304C23.4219 13.602 23.4575 13.3311 23.3901 13.0765C23.0678 11.8835 22.4354 10.7971 21.5572 9.9277C20.679 9.05828 19.5862 8.43684 18.3901 8.12654C18.1608 8.11339 17.934 8.17956 17.7477 8.31392C17.5615 8.44828 17.4272 8.64265 17.3673 8.86437C17.3075 9.0861 17.3258 9.32165 17.4192 9.53147C17.5126 9.74128 17.6753 9.91256 17.8801 10.0165ZM28.4401 22.1365C28.2186 23.8873 27.3661 25.4972 26.0424 26.6644C24.7188 27.8316 23.0148 28.4759 21.2501 28.4765C18.8528 28.483 16.478 28.0134 14.2636 27.095C12.0492 26.1766 10.0392 24.8277 8.35007 23.1265C6.64888 21.4374 5.29997 19.4274 4.38159 17.213C3.46321 14.9986 2.99362 12.6238 3.00007 10.2265C2.99553 8.45986 3.63624 6.75231 4.80183 5.42469C5.96741 4.09706 7.57766 3.24072 9.33007 3.01654C9.81761 2.9571 10.3112 3.05883 10.7355 3.3062C11.1599 3.55357 11.4916 3.93299 11.6801 4.38654L14.1901 10.2365C14.3313 10.5815 14.3895 10.9549 14.3601 11.3265C14.3252 11.6847 14.2015 12.0284 14.0001 12.3265L12.0001 15.4165C12.9039 17.1737 14.3385 18.6013 16.1001 19.4965L19.1001 17.4965C19.3976 17.2923 19.7412 17.1652 20.1001 17.1265C20.4717 17.0971 20.8451 17.1553 21.1901 17.2965L27.0401 19.8065C27.4911 19.9938 27.8679 20.3245 28.112 20.7476C28.356 21.1706 28.4538 21.6623 28.3901 22.1465L28.4401 22.1365ZM25.9301 22.0165L20.3801 19.6365L17.3801 21.6365C17.0579 21.8507 16.6859 21.9781 16.3001 22.0065C15.9114 22.0379 15.5215 21.9654 15.1701 21.7965C12.7947 20.6423 10.873 18.7276 9.71007 16.3565C9.54597 16.0071 9.4737 15.6217 9.50007 15.2365C9.52253 14.8464 9.65041 14.4697 9.87007 14.1465L11.8701 11.0965L9.45007 5.54654C8.34624 5.73715 7.345 6.31094 6.62251 7.16696C5.90001 8.02298 5.50255 9.10638 5.50007 10.2265C5.49348 12.2986 5.89608 14.3516 6.68477 16.2676C7.47346 18.1837 8.63271 19.9253 10.096 21.3923C11.5593 22.8593 13.2979 24.023 15.212 24.8165C17.1261 25.6101 19.178 26.0179 21.2501 26.0165C22.3781 26.0141 23.4684 25.6103 24.3258 24.8774C25.1833 24.1445 25.752 23.1304 25.9301 22.0165Z" fill="black"/>
</svg>
