<svg width="32" height="32" viewBox="0 0 32 32" fill="none" xmlns="http://www.w3.org/2000/svg">
<path d="M11.43 9.34009L6.99996 4.41009C6.88943 4.28156 6.75392 4.17685 6.60166 4.10234C6.4494 4.02783 6.28358 3.98506 6.11427 3.97664C5.94496 3.96822 5.77572 3.99433 5.61682 4.05337C5.45792 4.11241 5.31269 4.20316 5.18996 4.32009C4.94491 4.54382 4.79802 4.85519 4.78117 5.18659C4.76431 5.51798 4.87887 5.84265 5.09996 6.09009L8.36996 9.69009C6.41793 10.5911 4.64058 11.8302 3.11996 13.3501C1.86998 14.5976 1.11908 16.259 1.00858 18.0215C0.898077 19.7841 1.43559 21.5262 2.51996 22.9201C2.82374 23.2998 3.24053 23.573 3.70996 23.7001C4.18116 23.8182 4.67744 23.7868 5.12996 23.6101L11 21.2501C11.3488 21.1059 11.6576 20.8795 11.9 20.5901C12.1366 20.3006 12.298 19.957 12.37 19.5901L13.08 16.0401C13.35 15.9501 13.63 15.8801 13.91 15.8101L25.1 28.0901C25.2184 28.2188 25.3621 28.3216 25.5222 28.3922C25.6822 28.4627 25.8551 28.4995 26.03 28.5001C26.2758 28.509 26.5188 28.4451 26.7285 28.3165C26.9382 28.1879 27.1053 28.0003 27.2088 27.7771C27.3124 27.554 27.3478 27.3053 27.3107 27.0621C27.2735 26.8189 27.1654 26.5921 27 26.4101L11.43 9.34009ZM11.19 14.4001C10.9436 14.6859 10.7748 15.0302 10.7 15.4001L9.99996 19.0001L4.37996 21.2201C3.72945 20.3055 3.42377 19.1902 3.51713 18.0718C3.61048 16.9534 4.09683 15.9041 4.88996 15.1101C6.39709 13.6178 8.18941 12.4445 10.16 11.6601L12.09 13.7701C11.7442 13.9057 11.4357 14.1216 11.19 14.4001ZM29.54 22.9101C29.2406 23.2968 28.8225 23.5743 28.35 23.7001C28.1604 23.748 27.9655 23.7715 27.77 23.7701C27.4821 23.773 27.1966 23.7186 26.93 23.6101L26.43 23.4101C26.2761 23.3517 26.1356 23.263 26.0166 23.1493C25.8977 23.0356 25.8027 22.8991 25.7375 22.7481C25.6722 22.597 25.6379 22.4344 25.6366 22.2698C25.6353 22.1053 25.6671 21.9422 25.73 21.7901C25.8524 21.4828 26.0917 21.2366 26.3953 21.1054C26.699 20.9742 27.0423 20.9687 27.35 21.0901L27.68 21.2201C28.3013 20.3475 28.608 19.2898 28.55 18.2201C28.4697 17.0681 27.9803 15.9828 27.17 15.1601C25.6069 13.5915 23.7296 12.3716 21.6613 11.5805C19.5931 10.7894 17.3808 10.445 15.17 10.5701C14.8292 10.5926 14.4934 10.4789 14.2364 10.2538C13.9795 10.0288 13.8225 9.71089 13.8 9.37009C13.7774 9.02928 13.8912 8.69348 14.1162 8.43656C14.3413 8.17963 14.6592 8.02263 15 8.00009C17.5683 7.85432 20.1384 8.2559 22.5398 9.17822C24.9413 10.1005 27.1195 11.5226 28.93 13.3501C30.1631 14.5964 30.8991 16.2498 31 18.0001C31.1251 19.7597 30.6062 21.5048 29.54 22.9101Z" fill="black"/>
</svg>
