<svg width="32" height="32" viewBox="0 0 32 32" fill="none" xmlns="http://www.w3.org/2000/svg">
<path d="M29.1599 20.7199C28.9128 20.3004 28.5378 19.971 28.0899 19.7799L22.2399 17.2699C21.8949 17.1287 21.5216 17.0705 21.1499 17.0999C20.7911 17.1386 20.4475 17.2657 20.1499 17.4699L17.1499 19.4699C15.3714 18.5858 13.9185 17.161 12.9999 15.3999L14.9999 12.3399C15.2014 12.0418 15.3251 11.6981 15.3599 11.3399C15.3894 10.9683 15.3312 10.5949 15.1899 10.2499L12.6799 4.36994C12.4915 3.91638 12.1597 3.53697 11.7354 3.2896C11.3111 3.04223 10.8175 2.9405 10.3299 2.99994C8.57754 3.22412 6.96729 4.08046 5.8017 5.40808C4.63612 6.73571 3.99541 8.44325 3.99994 10.2099C3.9935 12.6072 4.46308 14.982 5.38147 17.1964C6.29985 19.4108 7.64875 21.4208 9.34994 23.1099C11.039 24.8111 13.0491 26.16 15.2635 27.0784C17.4779 27.9968 19.8526 28.4664 22.2499 28.4599C24.0147 28.4593 25.7186 27.815 27.0423 26.6478C28.3659 25.4806 29.2184 23.8707 29.4399 22.1199C29.4982 21.6354 29.4001 21.1448 29.1599 20.7199ZM25.3899 24.7699C24.5305 25.5526 23.4124 25.9906 22.2499 25.9999C20.1779 26.0013 18.1259 25.5935 16.2119 24.7999C14.2978 24.0064 12.5592 22.8427 11.0959 21.3757C9.63259 19.9087 8.47334 18.1671 7.68465 16.251C6.89596 14.335 6.49336 12.282 6.49994 10.2099C6.50443 9.0825 6.90896 7.99326 7.64148 7.13621C8.374 6.27916 9.38696 5.70994 10.4999 5.52994L12.8399 11.0899L10.8399 14.1399C10.6203 14.4631 10.4924 14.8398 10.4699 15.2299C10.4436 15.6151 10.5159 16.0005 10.6799 16.3499C11.8429 18.721 13.7646 20.6357 16.1399 21.7899C16.4913 21.9588 16.8813 22.0313 17.2699 21.9999C17.6558 21.9715 18.0277 21.8441 18.3499 21.6299L21.3499 19.6299L26.9299 21.9999C26.7528 23.0737 26.2085 24.0527 25.3899 24.7699ZM19.5399 11.4999L21.8399 9.20994L19.5399 6.91994C19.3516 6.72633 19.248 6.46585 19.2517 6.19579C19.2555 5.92574 19.3663 5.66824 19.5599 5.47994C19.7536 5.29163 20.014 5.18795 20.2841 5.1917C20.5541 5.19545 20.8116 5.30633 20.9999 5.49994L23.2899 7.79994L25.5799 5.49994C25.6732 5.4067 25.7839 5.33274 25.9057 5.28228C26.0275 5.23182 26.1581 5.20584 26.2899 5.20584C26.4218 5.20584 26.5524 5.23182 26.6742 5.28228C26.796 5.33274 26.9067 5.4067 26.9999 5.49994C27.0932 5.59318 27.1671 5.70387 27.2176 5.82569C27.2681 5.94751 27.294 6.07808 27.294 6.20994C27.294 6.3418 27.2681 6.47236 27.2176 6.59419C27.1671 6.71601 27.0932 6.8267 26.9999 6.91994L24.6999 9.20994L26.9999 11.4999C27.0937 11.5929 27.1681 11.7035 27.2188 11.8254C27.2696 11.9472 27.2957 12.0779 27.2957 12.2099C27.2957 12.3419 27.2696 12.4727 27.2188 12.5945C27.1681 12.7164 27.0937 12.827 26.9999 12.9199C26.907 13.0137 26.7964 13.0881 26.6745 13.1388C26.5527 13.1896 26.422 13.2157 26.2899 13.2157C26.1579 13.2157 26.0272 13.1896 25.9054 13.1388C25.7835 13.0881 25.6729 13.0137 25.5799 12.9199L23.2899 10.6199L20.9999 12.9199C20.907 13.0137 20.7964 13.0881 20.6745 13.1388C20.5527 13.1896 20.422 13.2157 20.2899 13.2157C20.1579 13.2157 20.0272 13.1896 19.9054 13.1388C19.7835 13.0881 19.6729 13.0137 19.5799 12.9199C19.4835 12.8296 19.406 12.7211 19.3518 12.6007C19.2975 12.4803 19.2677 12.3503 19.264 12.2183C19.2603 12.0862 19.2827 11.9548 19.3301 11.8315C19.3775 11.7082 19.4488 11.5955 19.5399 11.4999Z" fill="black"/>
</svg>
