<svg width="32" height="32" viewBox="0 0 32 32" fill="none" xmlns="http://www.w3.org/2000/svg">
<path d="M19.87 13.1302C19.9902 13.1815 20.1193 13.2086 20.25 13.2102H25.25C25.5152 13.2102 25.7696 13.1049 25.9571 12.9173C26.1446 12.7298 26.25 12.4754 26.25 12.2102C26.25 11.945 26.1446 11.6907 25.9571 11.5031C25.7696 11.3156 25.5152 11.2102 25.25 11.2102H22.66L27 6.92023C27.0932 6.82436 27.1667 6.71107 27.2161 6.58682C27.2656 6.46257 27.2901 6.3298 27.2882 6.19608C27.2864 6.06237 27.2582 5.93033 27.2053 5.8075C27.1524 5.68467 27.0759 5.57347 26.98 5.48023C26.8841 5.38699 26.7708 5.31354 26.6466 5.26409C26.5223 5.21463 26.3896 5.19014 26.2559 5.19199C26.1221 5.19385 25.9901 5.22203 25.8673 5.27491C25.7444 5.3278 25.6332 5.40436 25.54 5.50023L21.25 9.80023V7.21023C21.25 6.94501 21.1446 6.69066 20.9571 6.50312C20.7696 6.31558 20.5152 6.21023 20.25 6.21023C19.9848 6.21023 19.7304 6.31558 19.5429 6.50312C19.3554 6.69066 19.25 6.94501 19.25 7.21023V12.2102C19.2516 12.3409 19.2788 12.47 19.33 12.5902C19.4315 12.8346 19.6257 13.0288 19.87 13.1302Z" fill="black"/>
<path d="M29.1599 20.7199C28.9128 20.3004 28.5378 19.971 28.0899 19.7799L22.2399 17.2699C21.8949 17.1287 21.5216 17.0705 21.1499 17.0999C20.7911 17.1386 20.4475 17.2657 20.1499 17.4699L17.1499 19.4699C15.3714 18.5858 13.9185 17.161 12.9999 15.3999L14.9999 12.3399C15.2014 12.0418 15.3251 11.6981 15.3599 11.3399C15.3894 10.9683 15.3312 10.5949 15.1899 10.2499L12.6799 4.36994C12.4915 3.91638 12.1597 3.53697 11.7354 3.2896C11.3111 3.04223 10.8175 2.9405 10.3299 2.99994C8.57754 3.22412 6.96729 4.08046 5.8017 5.40808C4.63612 6.73571 3.99541 8.44325 3.99994 10.2099C3.9935 12.6072 4.46308 14.982 5.38147 17.1964C6.29985 19.4108 7.64875 21.4208 9.34994 23.1099C11.039 24.8111 13.0491 26.16 15.2635 27.0784C17.4779 27.9968 19.8526 28.4664 22.2499 28.4599C24.0147 28.4593 25.7186 27.815 27.0423 26.6478C28.3659 25.4806 29.2184 23.8707 29.4399 22.1199C29.4982 21.6354 29.4001 21.1448 29.1599 20.7199ZM25.3899 24.7699C24.5305 25.5526 23.4124 25.9906 22.2499 25.9999C20.1779 26.0013 18.1259 25.5935 16.2119 24.7999C14.2978 24.0064 12.5592 22.8427 11.0959 21.3757C9.63259 19.9087 8.47334 18.1671 7.68465 16.251C6.89596 14.335 6.49336 12.282 6.49994 10.2099C6.50443 9.0825 6.90896 7.99326 7.64148 7.13621C8.374 6.27916 9.38696 5.70994 10.4999 5.52994L12.8399 11.0899L10.8399 14.1399C10.6203 14.4631 10.4924 14.8398 10.4699 15.2299C10.4436 15.6151 10.5159 16.0005 10.6799 16.3499C11.8429 18.721 13.7646 20.6357 16.1399 21.7899C16.4913 21.9588 16.8813 22.0313 17.2699 21.9999C17.6558 21.9715 18.0277 21.8441 18.3499 21.6299L21.3499 19.6299L26.9299 21.9999C26.7528 23.0737 26.2085 24.0527 25.3899 24.7699Z" fill="black"/>
</svg>
