<svg width="32" height="32" viewBox="0 0 32 32" fill="none" xmlns="http://www.w3.org/2000/svg">
<path fill-rule="evenodd" clip-rule="evenodd" d="M16 5.25C10.0629 5.25 5.25 10.0629 5.25 16C5.25 21.9371 10.0629 26.75 16 26.75C21.9371 26.75 26.75 21.9371 26.75 16C26.75 10.0629 21.9371 5.25 16 5.25ZM2.75 16C2.75 8.68223 8.68223 2.75 16 2.75C23.3178 2.75 29.25 8.68223 29.25 16C29.25 23.3178 23.3178 29.25 16 29.25C8.68223 29.25 2.75 23.3178 2.75 16Z" fill="black"/>
<path fill-rule="evenodd" clip-rule="evenodd" d="M9.75 16C9.75 15.3096 10.3096 14.75 11 14.75H21C21.6904 14.75 22.25 15.3096 22.25 16C22.25 16.6904 21.6904 17.25 21 17.25H11C10.3096 17.25 9.75 16.6904 9.75 16Z" fill="black"/>
<path fill-rule="evenodd" clip-rule="evenodd" d="M16 9.75C16.6904 9.75 17.25 10.3096 17.25 11V21C17.25 21.6904 16.6904 22.25 16 22.25C15.3096 22.25 14.75 21.6904 14.75 21V11C14.75 10.3096 15.3096 9.75 16 9.75Z" fill="black"/>
</svg>
