<svg width="32" height="32" viewBox="0 0 32 32" fill="none" xmlns="http://www.w3.org/2000/svg">
<path fill-rule="evenodd" clip-rule="evenodd" d="M15.999 4.75049C16.6894 4.75049 17.249 5.31013 17.249 6.00049V15.5005C17.249 16.1908 16.6894 16.7505 15.999 16.7505C15.3087 16.7505 14.749 16.1908 14.749 15.5005V6.00049C14.749 5.31013 15.3087 4.75049 15.999 4.75049Z" fill="black"/>
<path fill-rule="evenodd" clip-rule="evenodd" d="M11.0475 6.09711C11.424 6.67572 11.2603 7.45005 10.6816 7.82662C8.92007 8.97309 7.57612 10.6581 6.85012 12.6305C6.12413 14.603 6.05494 16.7572 6.65288 18.7722C7.25083 20.7871 8.48388 22.5549 10.1683 23.812C11.8526 25.0692 13.8982 25.7484 16 25.7484C18.1018 25.7484 20.1473 25.0692 21.8317 23.8121C23.5161 22.5549 24.7492 20.7871 25.3471 18.7722C25.9451 16.7572 25.8759 14.603 25.1499 12.6306C24.4239 10.6581 23.08 8.97312 21.3184 7.82664C20.7398 7.45007 20.576 6.67574 20.9526 6.09714C21.3292 5.51853 22.1035 5.35475 22.6821 5.73132C24.8953 7.17177 26.5839 9.28886 27.496 11.767C28.4082 14.2452 28.4951 16.9518 27.7438 19.4834C26.9925 22.015 25.4433 24.2361 23.327 25.8156C21.2107 27.395 18.6407 28.2484 16 28.2484C13.3593 28.2484 10.7892 27.395 8.67295 25.8155C6.55667 24.2361 5.00745 22.015 4.25619 19.4834C3.50492 16.9518 3.59185 14.2452 4.504 11.767C5.41616 9.28882 7.1047 7.17173 9.31796 5.73129C9.89657 5.35472 10.6709 5.51851 11.0475 6.09711Z" fill="black"/>
</svg>
