<svg width="32" height="32" viewBox="0 0 32 32" fill="none" xmlns="http://www.w3.org/2000/svg">
<path fill-rule="evenodd" clip-rule="evenodd" d="M15.088 2.00903C15.4512 1.93638 15.8268 1.95454 16.1813 2.06188C16.5358 2.16922 16.8584 2.36242 17.1203 2.62434L30.1769 15.6809C30.3858 15.8899 30.5515 16.1379 30.6646 16.4109C30.7777 16.6839 30.8359 16.9765 30.8359 17.2719C30.8359 17.5674 30.7777 17.86 30.6646 18.133C30.5515 18.4059 30.3858 18.654 30.1769 18.8629L18.8632 30.1766C18.6542 30.3856 18.4062 30.5513 18.1332 30.6644C17.8602 30.7774 17.5676 30.8356 17.2722 30.8356C16.9767 30.8356 16.6841 30.7774 16.4111 30.6644C16.1382 30.5513 15.8901 30.3856 15.6812 30.1766L2.62459 17.12C2.36267 16.8581 2.16946 16.5356 2.06212 16.1811C1.95478 15.8265 1.93663 15.451 2.00927 15.0878L4.02563 5.00597C4.1246 4.51114 4.51139 4.12435 5.00621 4.02539L15.088 2.00903ZM15.4471 4.48672L6.31365 6.31341L4.48696 15.4469L17.2722 28.2321L28.2323 17.2719L15.4471 4.48672Z" fill="black"/>
<path d="M10.5 12C11.3284 12 12 11.3284 12 10.5C12 9.67157 11.3284 9 10.5 9C9.67157 9 9 9.67157 9 10.5C9 11.3284 9.67157 12 10.5 12Z" fill="black"/>
</svg>
