<svg width="32" height="32" viewBox="0 0 32 32" fill="none" xmlns="http://www.w3.org/2000/svg">
<path fill-rule="evenodd" clip-rule="evenodd" d="M16 5.25C10.0629 5.25 5.25 10.0629 5.25 16C5.25 21.9371 10.0629 26.75 16 26.75C21.9371 26.75 26.75 21.9371 26.75 16C26.75 10.0629 21.9371 5.25 16 5.25ZM2.75 16C2.75 8.68223 8.68223 2.75 16 2.75C23.3178 2.75 29.25 8.68223 29.25 16C29.25 23.3178 23.3178 29.25 16 29.25C8.68223 29.25 2.75 23.3178 2.75 16Z" fill="black"/>
<path fill-rule="evenodd" clip-rule="evenodd" d="M16 11.25C13.9289 11.25 12.25 12.9289 12.25 15C12.25 17.0711 13.9289 18.75 16 18.75C18.0711 18.75 19.75 17.0711 19.75 15C19.75 12.9289 18.0711 11.25 16 11.25ZM9.75 15C9.75 11.5482 12.5482 8.75 16 8.75C19.4518 8.75 22.25 11.5482 22.25 15C22.25 18.4518 19.4518 21.25 16 21.25C12.5482 21.25 9.75 18.4518 9.75 15Z" fill="black"/>
<path fill-rule="evenodd" clip-rule="evenodd" d="M16 21.25C14.5691 21.25 13.1662 21.646 11.9464 22.394C10.7267 23.1421 9.73773 24.2131 9.08904 25.4884C8.77607 26.1038 8.02352 26.3489 7.40819 26.0359C6.79285 25.7229 6.54774 24.9704 6.86071 24.3551C7.71855 22.6685 9.02638 21.2521 10.6394 20.2629C12.2524 19.2736 14.1078 18.75 16 18.75C17.8922 18.75 19.7475 19.2736 21.3605 20.2629C22.9736 21.2521 24.2814 22.6684 25.1393 24.355C25.4522 24.9704 25.2071 25.7229 24.5918 26.0359C23.9765 26.3489 23.2239 26.1038 22.9109 25.4884C22.2622 24.213 21.2733 23.1421 20.0535 22.394C18.8338 21.6459 17.4308 21.25 16 21.25Z" fill="black"/>
</svg>
