<svg width="32" height="32" viewBox="0 0 32 32" fill="none" xmlns="http://www.w3.org/2000/svg">
<path fill-rule="evenodd" clip-rule="evenodd" d="M16 5.25C10.0629 5.25 5.25 10.0629 5.25 16C5.25 21.9371 10.0629 26.75 16 26.75C21.9371 26.75 26.75 21.9371 26.75 16C26.75 10.0629 21.9371 5.25 16 5.25ZM2.75 16C2.75 8.68223 8.68223 2.75 16 2.75C23.3178 2.75 29.25 8.68223 29.25 16C29.25 23.3178 23.3178 29.25 16 29.25C8.68223 29.25 2.75 23.3178 2.75 16Z" fill="black"/>
<path fill-rule="evenodd" clip-rule="evenodd" d="M13.9909 9.14963C14.9502 8.75227 16.0058 8.64831 17.0242 8.85088C18.0426 9.05345 18.9781 9.55347 19.7123 10.2877C20.4465 11.0219 20.9466 11.9574 21.1491 12.9758C21.3517 13.9942 21.2477 15.0498 20.8504 16.0091C20.453 16.9684 19.7801 17.7883 18.9167 18.3652C18.4043 18.7076 17.8385 18.9552 17.2461 19.1C17.1951 19.7436 16.6567 20.25 16 20.25C15.3096 20.25 14.75 19.6904 14.75 19V18C14.75 17.3096 15.3096 16.75 16 16.75C16.5439 16.75 17.0756 16.5887 17.5278 16.2865C17.9801 15.9844 18.3325 15.5549 18.5407 15.0524C18.7488 14.5499 18.8033 13.997 18.6972 13.4635C18.5911 12.9301 18.3291 12.4401 17.9445 12.0555C17.5599 11.6709 17.0699 11.409 16.5365 11.3028C16.0031 11.1967 15.4501 11.2512 14.9476 11.4593C14.4451 11.6675 14.0156 12.0199 13.7135 12.4722C13.4113 12.9244 13.25 13.4561 13.25 14C13.25 14.6904 12.6904 15.25 12 15.25C11.3096 15.25 10.75 14.6904 10.75 14C10.75 12.9617 11.0579 11.9466 11.6348 11.0833C12.2117 10.2199 13.0316 9.547 13.9909 9.14963Z" fill="black"/>
<path d="M16 24.5C16.8284 24.5 17.5 23.8284 17.5 23C17.5 22.1716 16.8284 21.5 16 21.5C15.1716 21.5 14.5 22.1716 14.5 23C14.5 23.8284 15.1716 24.5 16 24.5Z" fill="black"/>
</svg>
