<svg width="32" height="32" viewBox="0 0 32 32" fill="none" xmlns="http://www.w3.org/2000/svg">
<path fill-rule="evenodd" clip-rule="evenodd" d="M8.25 13C8.25 12.3096 8.80964 11.75 9.5 11.75H22.5C23.1904 11.75 23.75 12.3096 23.75 13C23.75 13.6904 23.1904 14.25 22.5 14.25H9.5C8.80964 14.25 8.25 13.6904 8.25 13Z" fill="black"/>
<path fill-rule="evenodd" clip-rule="evenodd" d="M8.25 17C8.25 16.3096 8.80964 15.75 9.5 15.75H22.5C23.1904 15.75 23.75 16.3096 23.75 17C23.75 17.6904 23.1904 18.25 22.5 18.25H9.5C8.80964 18.25 8.25 17.6904 8.25 17Z" fill="black"/>
<path fill-rule="evenodd" clip-rule="evenodd" d="M5.25 7.25V23.9775L7.44098 22.882C7.79289 22.706 8.20711 22.706 8.55902 22.882L12 24.6025L15.441 22.882C15.7929 22.706 16.2071 22.706 16.559 22.882L20 24.6025L23.441 22.882C23.7929 22.706 24.2071 22.706 24.559 22.882L26.75 23.9775V7.25H5.25ZM3.40901 5.40901C3.83097 4.98705 4.40326 4.75 5 4.75H27C27.5967 4.75 28.169 4.98705 28.591 5.40901C29.0129 5.83097 29.25 6.40326 29.25 7V26C29.25 26.4332 29.0257 26.8356 28.6572 27.0633C28.2886 27.2911 27.8285 27.3118 27.441 27.118L24 25.3975L20.559 27.118C20.2071 27.294 19.7929 27.294 19.441 27.118L16 25.3975L12.559 27.118C12.2071 27.294 11.7929 27.294 11.441 27.118L8 25.3975L4.55902 27.118C4.17153 27.3118 3.71136 27.2911 3.34284 27.0633C2.97432 26.8356 2.75 26.4332 2.75 26V7C2.75 6.40326 2.98705 5.83097 3.40901 5.40901Z" fill="black"/>
</svg>
