<svg width="32" height="32" viewBox="0 0 32 32" fill="none" xmlns="http://www.w3.org/2000/svg">
<path fill-rule="evenodd" clip-rule="evenodd" d="M5.75 6C5.75 5.30964 6.30964 4.75 7 4.75C12.3706 4.75 17.5213 6.88348 21.3189 10.6811C25.1165 14.4787 27.25 19.6294 27.25 25C27.25 25.6904 26.6904 26.25 26 26.25C25.3096 26.25 24.75 25.6904 24.75 25C24.75 20.2924 22.8799 15.7776 19.5511 12.4489C16.2224 9.12008 11.7076 7.25 7 7.25C6.30964 7.25 5.75 6.69036 5.75 6Z" fill="black"/>
<path fill-rule="evenodd" clip-rule="evenodd" d="M5.75 15C5.75 14.3096 6.30964 13.75 7 13.75C8.47737 13.75 9.94028 14.041 11.3052 14.6064C12.6701 15.1717 13.9103 16.0004 14.955 17.045C15.9996 18.0897 16.8283 19.3299 17.3936 20.6948C17.959 22.0597 18.25 23.5226 18.25 25C18.25 25.6904 17.6904 26.25 17 26.25C16.3096 26.25 15.75 25.6904 15.75 25C15.75 23.8509 15.5237 22.7131 15.0839 21.6515C14.6442 20.5899 13.9997 19.6253 13.1872 18.8128C12.3747 18.0003 11.4101 17.3558 10.3485 16.9161C9.28688 16.4763 8.14907 16.25 7 16.25C6.30964 16.25 5.75 15.6904 5.75 15Z" fill="black"/>
<path d="M7 26.5C7.82843 26.5 8.5 25.8284 8.5 25C8.5 24.1716 7.82843 23.5 7 23.5C6.17157 23.5 5.5 24.1716 5.5 25C5.5 25.8284 6.17157 26.5 7 26.5Z" fill="black"/>
</svg>
