<svg width="32" height="32" viewBox="0 0 32 32" fill="none" xmlns="http://www.w3.org/2000/svg">
<path fill-rule="evenodd" clip-rule="evenodd" d="M4.75 18C4.75 17.3096 5.30964 16.75 6 16.75C8.45325 16.75 10.806 17.7246 12.5407 19.4593C14.2754 21.194 15.25 23.5467 15.25 26C15.25 26.6904 14.6904 27.25 14 27.25C13.3096 27.25 12.75 26.6904 12.75 26C12.75 24.2098 12.0388 22.4929 10.773 21.227C9.5071 19.9612 7.79021 19.25 6 19.25C5.30964 19.25 4.75 18.6904 4.75 18Z" fill="black"/>
<path fill-rule="evenodd" clip-rule="evenodd" d="M4.75 12C4.75 11.3096 5.30964 10.75 6 10.75C10.0446 10.75 13.9234 12.3567 16.7834 15.2166C19.6433 18.0766 21.25 21.9554 21.25 26C21.25 26.6904 20.6904 27.25 20 27.25C19.3096 27.25 18.75 26.6904 18.75 26C18.75 22.6185 17.4067 19.3755 15.0156 16.9844C12.6245 14.5933 9.38151 13.25 6 13.25C5.30964 13.25 4.75 12.6904 4.75 12Z" fill="black"/>
<path fill-rule="evenodd" clip-rule="evenodd" d="M4.75 6C4.75 5.30964 5.30964 4.75 6 4.75C11.6359 4.75 17.0409 6.98883 21.026 10.974C25.0112 14.9591 27.25 20.3641 27.25 26C27.25 26.6904 26.6904 27.25 26 27.25C25.3096 27.25 24.75 26.6904 24.75 26C24.75 21.0272 22.7746 16.2581 19.2583 12.7417C15.7419 9.22544 10.9728 7.25 6 7.25C5.30964 7.25 4.75 6.69036 4.75 6Z" fill="black"/>
<path d="M6.5 27C7.32843 27 8 26.3284 8 25.5C8 24.6716 7.32843 24 6.5 24C5.67157 24 5 24.6716 5 25.5C5 26.3284 5.67157 27 6.5 27Z" fill="black"/>
</svg>
