<svg width="32" height="32" viewBox="0 0 32 32" fill="none" xmlns="http://www.w3.org/2000/svg">
<path fill-rule="evenodd" clip-rule="evenodd" d="M16.0002 10.25C12.8246 10.25 10.2502 12.8244 10.2502 16C10.2502 19.1756 12.8246 21.75 16.0002 21.75C19.1759 21.75 21.7502 19.1756 21.7502 16C21.7502 12.8244 19.1759 10.25 16.0002 10.25ZM7.75024 16C7.75024 11.4437 11.4439 7.75 16.0002 7.75C20.5566 7.75 24.2502 11.4437 24.2502 16C24.2502 20.5563 20.5566 24.25 16.0002 24.25C11.4439 24.25 7.75024 20.5563 7.75024 16Z" fill="black"/>
<path fill-rule="evenodd" clip-rule="evenodd" d="M11.8644 2.37509C12.184 2.28221 12.5202 2.26095 12.849 2.31281C13.1759 2.36438 13.4875 2.48698 13.7619 2.67195L15.3786 3.74973H16.6217L18.2384 2.67196C18.5128 2.48701 18.8244 2.36443 19.1513 2.31287C19.4801 2.26101 19.8163 2.28229 20.1359 2.37519L20.1424 2.37706C22.2319 2.99653 24.1454 4.10129 25.7267 5.60115L25.7316 5.60582C25.9719 5.83619 26.1584 6.11672 26.2778 6.42739C26.3966 6.73624 26.4462 7.06735 26.4233 7.3974L26.2982 9.33657L26.9198 10.4131L28.6616 11.2744C28.9589 11.4196 29.2209 11.6281 29.429 11.8854C29.6383 12.1442 29.7879 12.446 29.8673 12.7693L29.8689 12.7758C30.3772 14.8951 30.3772 17.1047 29.8689 19.224L29.8673 19.2306C29.7879 19.5538 29.6383 19.8556 29.4289 20.1144C29.2208 20.3717 28.9589 20.5803 28.6616 20.7254L26.9197 21.5867L26.2982 22.6633L26.4232 24.6025C26.4461 24.9325 26.3965 25.2636 26.2777 25.5724C26.1582 25.8831 25.9717 26.1636 25.7314 26.394L25.7266 26.3986C24.1453 27.8985 22.2318 29.0032 20.1423 29.6227L20.1358 29.6246C19.8161 29.7175 19.48 29.7388 19.1512 29.6869C18.8242 29.6353 18.5126 29.5127 18.2382 29.3277L16.6215 28.25H15.3784L13.7618 29.3277C13.4874 29.5127 13.1757 29.6353 12.8488 29.6868C12.52 29.7387 12.1838 29.7174 11.8642 29.6245L11.8578 29.6226C9.76819 29.0032 7.8547 27.8984 6.27343 26.3985L6.26853 26.3939C6.02828 26.1635 5.84177 25.883 5.72229 25.5723C5.6035 25.2634 5.55387 24.9323 5.57686 24.6022L5.70188 22.6631L5.08033 21.5866L3.33846 20.7253C3.04115 20.5801 2.77924 20.3716 2.57117 20.1143C2.36187 19.8555 2.2122 19.5537 2.13283 19.2304L2.13123 19.2239C1.62292 17.1046 1.62293 14.8951 2.13122 12.7757L2.1328 12.7691C2.21218 12.4459 2.36188 12.1441 2.57119 11.8853C2.77929 11.628 3.04126 11.4194 3.33862 11.2743L5.08041 10.413L5.70196 9.33645L5.57696 7.39745C5.55397 7.06735 5.60361 6.7362 5.72241 6.42731C5.8419 6.11664 6.02843 5.83613 6.2687 5.60576L6.27353 5.60112C7.85479 4.10123 9.76829 2.99648 11.8579 2.377L11.8644 2.37509ZM12.4579 4.80727C10.8261 5.30921 9.32879 6.17367 8.07819 7.33594L8.24547 9.93096L6.86702 12.3185L4.53592 13.4712C4.15469 15.1354 4.1547 16.8643 4.53595 18.5285L6.86695 19.6811L8.2454 22.0686L8.07809 24.6638C9.32871 25.826 10.826 26.6904 12.4578 27.1924L14.6215 25.75H17.3784L19.5422 27.1924C21.1741 26.6905 22.6713 25.826 23.9219 24.6638L23.7547 22.0688L25.1331 19.6812L27.4642 18.5285C27.8454 16.8643 27.8454 15.1354 27.4642 13.4713L25.1332 12.3186L23.7547 9.93107L23.922 7.33595C22.6714 6.1737 21.1742 5.30927 19.5423 4.80734L17.3786 6.24973H14.6217L12.4579 4.80727Z" fill="black"/>
</svg>
