<svg width="32" height="32" viewBox="0 0 32 32" fill="none" xmlns="http://www.w3.org/2000/svg">
<path fill-rule="evenodd" clip-rule="evenodd" d="M8 13.25C6.48122 13.25 5.25 14.4812 5.25 16C5.25 17.5188 6.48122 18.75 8 18.75C9.51878 18.75 10.75 17.5188 10.75 16C10.75 14.4812 9.51878 13.25 8 13.25ZM2.75 16C2.75 13.1005 5.1005 10.75 8 10.75C10.8995 10.75 13.25 13.1005 13.25 16C13.25 18.8995 10.8995 21.25 8 21.25C5.1005 21.25 2.75 18.8995 2.75 16Z" fill="black"/>
<path fill-rule="evenodd" clip-rule="evenodd" d="M22 22.25C20.4812 22.25 19.25 23.4812 19.25 25C19.25 26.5188 20.4812 27.75 22 27.75C23.5188 27.75 24.75 26.5188 24.75 25C24.75 23.4812 23.5188 22.25 22 22.25ZM16.75 25C16.75 22.1005 19.1005 19.75 22 19.75C24.8995 19.75 27.25 22.1005 27.25 25C27.25 27.8995 24.8995 30.25 22 30.25C19.1005 30.25 16.75 27.8995 16.75 25Z" fill="black"/>
<path fill-rule="evenodd" clip-rule="evenodd" d="M22 4.25C20.4812 4.25 19.25 5.48122 19.25 7C19.25 8.51878 20.4812 9.75 22 9.75C23.5188 9.75 24.75 8.51878 24.75 7C24.75 5.48122 23.5188 4.25 22 4.25ZM16.75 7C16.75 4.1005 19.1005 1.75 22 1.75C24.8995 1.75 27.25 4.1005 27.25 7C27.25 9.8995 24.8995 12.25 22 12.25C19.1005 12.25 16.75 9.8995 16.75 7Z" fill="black"/>
<path fill-rule="evenodd" clip-rule="evenodd" d="M19.687 8.4868C20.0603 9.06752 19.8922 9.84091 19.3115 10.2142L12.0401 14.8887C11.4594 15.262 10.686 15.0939 10.3127 14.5132C9.93938 13.9325 10.1075 13.1591 10.6882 12.7857L17.9596 8.11128C18.5403 7.73796 19.3137 7.90609 19.687 8.4868Z" fill="black"/>
<path fill-rule="evenodd" clip-rule="evenodd" d="M10.3127 17.4868C10.686 16.9061 11.4594 16.738 12.0401 17.1113L19.3115 21.7857C19.8922 22.1591 20.0603 22.9324 19.687 23.5132C19.3137 24.0939 18.5403 24.262 17.9596 23.8887L10.6882 19.2142C10.1075 18.8409 9.93938 18.0675 10.3127 17.4868Z" fill="black"/>
</svg>
