<svg width="32" height="32" viewBox="0 0 32 32" fill="none" xmlns="http://www.w3.org/2000/svg">
<path fill-rule="evenodd" clip-rule="evenodd" d="M6.25 6.25V13.3333C6.25 22.7904 14.1174 26.0468 16 26.6891C17.8826 26.0468 25.75 22.7904 25.75 13.3333V6.25H6.25ZM4.40901 4.40901C4.83097 3.98705 5.40326 3.75 6 3.75H26C26.5967 3.75 27.169 3.98705 27.591 4.40901C28.0129 4.83097 28.25 5.40326 28.25 6V13.3333C28.25 24.7166 18.5655 28.4717 16.7058 29.0894C16.2481 29.2449 15.7519 29.2449 15.2942 29.0894C13.4345 28.4717 3.75 24.7166 3.75 13.3333V6C3.75 5.40326 3.98705 4.83097 4.40901 4.40901Z" fill="black"/>
<path fill-rule="evenodd" clip-rule="evenodd" d="M22.4042 11.1369C22.8809 11.6363 22.8625 12.4275 22.3631 12.9042L15.0297 19.9042C14.5467 20.3653 13.7866 20.3653 13.3035 19.9042L9.6369 16.4042C9.13753 15.9275 9.11914 15.1363 9.59581 14.6369C10.0725 14.1375 10.8637 14.1191 11.3631 14.5958L14.1666 17.2719L20.6369 11.0958C21.1363 10.6191 21.9275 10.6375 22.4042 11.1369Z" fill="black"/>
</svg>
