<svg width="32" height="32" viewBox="0 0 32 32" fill="none" xmlns="http://www.w3.org/2000/svg">
<path fill-rule="evenodd" clip-rule="evenodd" d="M20.8698 9.86612C21.3579 9.37796 22.1494 9.37796 22.6375 9.86612L27.8875 15.1161C28.3757 15.6043 28.3757 16.3957 27.8875 16.8839L22.6375 22.1339C22.1494 22.622 21.3579 22.622 20.8698 22.1339C20.3816 21.6457 20.3816 20.8543 20.8698 20.3661L25.2359 16L20.8698 11.6339C20.3816 11.1457 20.3816 10.3543 20.8698 9.86612Z" fill="black"/>
<path fill-rule="evenodd" clip-rule="evenodd" d="M11.75 16C11.75 15.3096 12.3096 14.75 13 14.75H27C27.6904 14.75 28.25 15.3096 28.25 16C28.25 16.6904 27.6904 17.25 27 17.25H13C12.3096 17.25 11.75 16.6904 11.75 16Z" fill="black"/>
<path fill-rule="evenodd" clip-rule="evenodd" d="M6.25 6.25H15C15.6904 6.25 16.25 5.69036 16.25 5C16.25 4.30964 15.6904 3.75 15 3.75H6C5.40326 3.75 4.83097 3.98705 4.40901 4.40901C3.98705 4.83097 3.75 5.40326 3.75 6V26C3.75 26.5967 3.98705 27.169 4.40901 27.591C4.83097 28.0129 5.40326 28.25 6 28.25H15C15.6904 28.25 16.25 27.6904 16.25 27C16.25 26.3096 15.6904 25.75 15 25.75H6.25V6.25Z" fill="black"/>
</svg>
