<svg width="32" height="32" viewBox="0 0 32 32" fill="none" xmlns="http://www.w3.org/2000/svg">
<path fill-rule="evenodd" clip-rule="evenodd" d="M16 5.25C10.0629 5.25 5.25 10.0629 5.25 16C5.25 21.9371 10.0629 26.75 16 26.75C21.9371 26.75 26.75 21.9371 26.75 16C26.75 10.0629 21.9371 5.25 16 5.25ZM2.75 16C2.75 8.68223 8.68223 2.75 16 2.75C23.3178 2.75 29.25 8.68223 29.25 16C29.25 23.3178 23.3178 29.25 16 29.25C8.68223 29.25 2.75 23.3178 2.75 16Z" fill="black"/>
<path fill-rule="evenodd" clip-rule="evenodd" d="M21.8229 17.9176C22.4205 18.2631 22.6249 19.0277 22.2794 19.6254C21.6425 20.727 20.727 21.6417 19.6248 22.2776C18.5226 22.9135 17.2725 23.2483 16 23.2483C14.7275 23.2483 13.4774 22.9135 12.3752 22.2777C11.273 21.6418 10.3575 20.7271 9.72056 19.6255C9.37501 19.0278 9.57937 18.2632 10.177 17.9177C10.7747 17.5721 11.5393 17.7765 11.8848 18.3741C12.3022 19.0961 12.9022 19.6955 13.6245 20.1122C14.3468 20.5289 15.1661 20.7483 16 20.7483C16.8339 20.7483 17.6531 20.5289 18.3754 20.1122C19.0977 19.6954 19.6977 19.096 20.1151 18.3741C20.4606 17.7764 21.2252 17.572 21.8229 17.9176Z" fill="black"/>
<path d="M11.75 15.5C12.7165 15.5 13.5 14.7165 13.5 13.75C13.5 12.7835 12.7165 12 11.75 12C10.7835 12 10 12.7835 10 13.75C10 14.7165 10.7835 15.5 11.75 15.5Z" fill="black"/>
<path d="M20.75 15.5C21.7165 15.5 22.5 14.7165 22.5 13.75C22.5 12.7835 21.7165 12 20.75 12C19.7835 12 19 12.7835 19 13.75C19 14.7165 19.7835 15.5 20.75 15.5Z" fill="black"/>
</svg>
