<svg width="32" height="32" viewBox="0 0 32 32" fill="none" xmlns="http://www.w3.org/2000/svg">
<path fill-rule="evenodd" clip-rule="evenodd" d="M16 5.25C10.0629 5.25 5.25 10.0629 5.25 16C5.25 21.9371 10.0629 26.75 16 26.75C21.9371 26.75 26.75 21.9371 26.75 16C26.75 10.0629 21.9371 5.25 16 5.25ZM2.75 16C2.75 8.68223 8.68223 2.75 16 2.75C23.3178 2.75 29.25 8.68223 29.25 16C29.25 23.3178 23.3178 29.25 16 29.25C8.68223 29.25 2.75 23.3178 2.75 16Z" fill="black"/>
<path fill-rule="evenodd" clip-rule="evenodd" d="M9.75 20C9.75 19.3096 10.3096 18.75 11 18.75H21C21.6904 18.75 22.25 19.3096 22.25 20C22.25 20.6904 21.6904 21.25 21 21.25H11C10.3096 21.25 9.75 20.6904 9.75 20Z" fill="black"/>
<path d="M11.75 15.5C12.7165 15.5 13.5 14.7165 13.5 13.75C13.5 12.7835 12.7165 12 11.75 12C10.7835 12 10 12.7835 10 13.75C10 14.7165 10.7835 15.5 11.75 15.5Z" fill="black"/>
<path d="M20.75 15.5C21.7165 15.5 22.5 14.7165 22.5 13.75C22.5 12.7835 21.7165 12 20.75 12C19.7835 12 19 12.7835 19 13.75C19 14.7165 19.7835 15.5 20.75 15.5Z" fill="black"/>
</svg>
