<svg width="32" height="32" viewBox="0 0 32 32" fill="none" xmlns="http://www.w3.org/2000/svg">
<path fill-rule="evenodd" clip-rule="evenodd" d="M16 5.25C10.0629 5.25 5.25 10.0629 5.25 16C5.25 21.9371 10.0629 26.75 16 26.75C21.9371 26.75 26.75 21.9371 26.75 16C26.75 10.0629 21.9371 5.25 16 5.25ZM2.75 16C2.75 8.68223 8.68223 2.75 16 2.75C23.3178 2.75 29.25 8.68223 29.25 16C29.25 23.3178 23.3178 29.25 16 29.25C8.68223 29.25 2.75 23.3178 2.75 16Z" fill="black"/>
<path fill-rule="evenodd" clip-rule="evenodd" d="M12.3752 18.7221C13.4774 18.0862 14.7275 17.7515 16 17.7515C17.2725 17.7515 18.5226 18.0862 19.6248 18.7222C20.727 19.3581 21.6425 20.2728 22.2794 21.3744C22.6249 21.972 22.4205 22.7366 21.8229 23.0822C21.2252 23.4277 20.4606 23.2233 20.1151 22.6257C19.6977 21.9038 19.0977 21.3043 18.3754 20.8876C17.6531 20.4709 16.8339 20.2515 16 20.2515C15.1661 20.2515 14.3468 20.4708 13.6245 20.8876C12.9022 21.3043 12.3022 21.9037 11.8848 22.6256C11.5393 23.2233 10.7747 23.4276 10.177 23.0821C9.57937 22.7365 9.37501 21.9719 9.72056 21.3743C10.3575 20.2727 11.273 19.358 12.3752 18.7221Z" fill="black"/>
<path d="M11.75 15.5C12.7165 15.5 13.5 14.7165 13.5 13.75C13.5 12.7835 12.7165 12 11.75 12C10.7835 12 10 12.7835 10 13.75C10 14.7165 10.7835 15.5 11.75 15.5Z" fill="black"/>
<path d="M20.75 15.5C21.7165 15.5 22.5 14.7165 22.5 13.75C22.5 12.7835 21.7165 12 20.75 12C19.7835 12 19 12.7835 19 13.75C19 14.7165 19.7835 15.5 20.75 15.5Z" fill="black"/>
</svg>
