<svg width="32" height="32" viewBox="0 0 32 32" fill="none" xmlns="http://www.w3.org/2000/svg">
<path fill-rule="evenodd" clip-rule="evenodd" d="M19.5966 3.44893C14.4503 2.06997 8.9669 3.93139 5.72346 8.15832C2.48003 12.3852 2.10001 18.1636 4.76397 22.7777C7.42794 27.3919 12.6224 29.9578 17.9048 29.2624C23.1871 28.567 27.5437 24.7444 28.9227 19.598C28.994 19.3568 29.0163 19.1037 28.9883 18.8538C28.9602 18.6038 28.8824 18.362 28.7594 18.1425C28.6364 17.9231 28.4707 17.7306 28.2721 17.5762C28.0734 17.4219 27.8459 17.3089 27.6029 17.2439C27.3599 17.1788 27.1064 17.1632 26.8572 17.1977C26.6081 17.2323 26.3684 17.3164 26.1522 17.4451C25.9361 17.5738 25.7479 17.7444 25.5988 17.947C25.4497 18.1496 25.3427 18.38 25.284 18.6246C24.2967 22.3096 21.1957 25.0285 17.4135 25.5264C13.6312 26.0244 9.93463 24.1997 8.02716 20.8958C6.11969 17.592 6.39078 13.4793 8.71317 10.4527C11.0356 7.42615 14.9383 6.10018 18.6232 7.08756C18.8645 7.15892 19.1175 7.18124 19.3675 7.15321C19.6175 7.12518 19.8594 7.04737 20.0788 6.92437C20.2982 6.80137 20.4908 6.63567 20.6452 6.43704C20.7995 6.23841 20.9126 6.01088 20.9776 5.76787C21.0426 5.52486 21.0583 5.27129 21.0237 5.02212C20.9891 4.77295 20.905 4.53322 20.7763 4.31709C20.6476 4.10095 20.4769 3.91278 20.2743 3.76368C20.0717 3.61457 19.8413 3.50755 19.5966 3.44893Z" fill="black"/>
</svg>
