<svg width="32" height="32" viewBox="0 0 32 32" fill="none" xmlns="http://www.w3.org/2000/svg">
<path d="M30 12.0998C29.7 11.1998 29 10.5998 28.1 10.5998L20.8 10.1998L18 3.2998C17.8 2.8998 17.6 2.4998 17.2 2.2998C16.5 1.7998 15.5 1.7998 14.7 2.2998C14.3 2.5998 14.1 2.8998 13.9 3.2998L11.2 10.1998L3.89999 10.5998C2.99999 10.6998 2.29999 11.2998 1.99999 12.0998C1.69999 12.9998 1.99999 13.8998 2.69999 14.4998L8.29999 19.1998L6.59999 25.7998C6.39999 26.7998 6.69999 27.7998 7.49999 28.3998C8.29999 28.9998 9.39999 28.9998 10.2 28.4998L16 24.7998L22.3 28.7998C22.7 28.9998 23.1 29.0998 23.5 29.0998C23.9 29.0998 24.4 28.9998 24.8 28.6998C25.5 28.1998 25.9 27.1998 25.6 26.3998L23.8 19.2998L29.5 14.5998C30 13.8998 30.3 12.9998 30 12.0998ZM22.2 17.4998C21.9 17.7998 21.6 18.0998 21.5 18.4998C21.4 18.8998 21.4 19.2998 21.5 19.6998L23.3 26.6998L17.1 22.7998C16.4 22.3998 15.5 22.3998 14.8 22.7998L8.99999 26.5998H8.89999C8.79999 26.4998 8.79999 26.3998 8.79999 26.3998L10.5 19.7998C10.6 19.3998 10.6 18.9998 10.5 18.5998C10.4 18.1998 10.1 17.8998 9.79999 17.5998L4.09999 12.9998L11.5 12.4998C11.9 12.4998 12.3 12.2998 12.6 12.0998C12.9 11.8998 13.2 11.4998 13.3 11.0998L16 4.2998L18.7 11.0998C18.8 11.4998 19.1 11.7998 19.4 12.0998C19.7 12.2998 20.1 12.4998 20.5 12.4998L27.8 12.8998L22.2 17.4998Z" fill="black"/>
</svg>
