<svg width="32" height="32" viewBox="0 0 32 32" fill="none" xmlns="http://www.w3.org/2000/svg">
<path fill-rule="evenodd" clip-rule="evenodd" d="M11 6.25C9.74022 6.25 8.53204 6.75045 7.64124 7.64124C6.75045 8.53204 6.25 9.74022 6.25 11V21C6.25 22.2598 6.75045 23.468 7.64124 24.3588C8.53204 25.2496 9.74022 25.75 11 25.75H16.7794C17.3256 25.5325 18.0679 25.0897 18.9375 24.4375C19.8819 23.7292 20.8999 22.8324 21.8661 21.8661C22.8324 20.8999 23.7292 19.8819 24.4375 18.9375C25.0897 18.0679 25.5325 17.3256 25.75 16.7794V11C25.75 9.74022 25.2496 8.53204 24.3588 7.64124C23.468 6.75045 22.2598 6.25 21 6.25H11ZM5.87348 5.87348C7.23311 4.51384 9.07718 3.75 11 3.75H21C22.9228 3.75 24.7669 4.51384 26.1265 5.87348C27.4862 7.23311 28.25 9.07718 28.25 11V17C28.25 17.1344 28.2283 17.2678 28.1859 17.3953C27.8717 18.3378 27.2128 19.4037 26.4375 20.4375C25.6458 21.4931 24.6676 22.6001 23.6339 23.6339C22.6001 24.6676 21.4931 25.6458 20.4375 26.4375C19.4037 27.2128 18.3378 27.8717 17.3953 28.1859C17.2678 28.2283 17.1344 28.25 17 28.25H11C9.07718 28.25 7.23311 27.4862 5.87348 26.1265C4.51384 24.7669 3.75 22.9228 3.75 21V11C3.75 9.07718 4.51384 7.23311 5.87348 5.87348Z" fill="black"/>
<path fill-rule="evenodd" clip-rule="evenodd" d="M23 18.25C21.7402 18.25 20.532 18.7504 19.6412 19.6412C18.7504 20.532 18.25 21.7402 18.25 23V27C18.25 27.6904 17.6904 28.25 17 28.25C16.3096 28.25 15.75 27.6904 15.75 27V23C15.75 21.0772 16.5138 19.2331 17.8735 17.8735C19.2331 16.5138 21.0772 15.75 23 15.75H27C27.6904 15.75 28.25 16.3096 28.25 17C28.25 17.6904 27.6904 18.25 27 18.25H23Z" fill="black"/>
</svg>
