<svg width="32" height="32" viewBox="0 0 32 32" fill="none" xmlns="http://www.w3.org/2000/svg">
<path fill-rule="evenodd" clip-rule="evenodd" d="M6 16.4487C6.55228 16.4487 7 16.8964 7 17.4487V26.0002H25V17.4489C25 16.8966 25.4477 16.4489 26 16.4489C26.5523 16.4489 27 16.8966 27 17.4489V26.0002C27 26.5306 26.7893 27.0393 26.4142 27.4144C26.0391 27.7895 25.5304 28.0002 25 28.0002H7C6.46957 28.0002 5.96086 27.7895 5.58579 27.4144C5.21071 27.0394 5 26.5306 5 26.0002V17.4487C5 16.8964 5.44772 16.4487 6 16.4487Z" fill="black"/>
<path fill-rule="evenodd" clip-rule="evenodd" d="M5.54992 4.4033C5.8969 4.14158 6.31969 4 6.75431 4H25.2457C25.6803 4 26.1031 4.14158 26.4501 4.4033C26.7971 4.66503 27.0494 5.03266 27.1688 5.45056L28.9615 11.7253C29.0477 12.027 28.9873 12.3517 28.7984 12.6022C28.6094 12.8527 28.3138 13 28 13H4.00001C3.68622 13 3.39062 12.8527 3.20166 12.6022C3.0127 12.3517 2.95228 12.027 3.03848 11.7253L4.83126 5.45056L5.79279 5.72528L4.83126 5.45056C4.95066 5.03266 5.20294 4.66503 5.54992 4.4033ZM25.2457 6L6.75431 6L5.32574 11H26.6743L25.2457 6Z" fill="black"/>
<path fill-rule="evenodd" clip-rule="evenodd" d="M4 11C4.55228 11 5 11.4477 5 12V14C5 14.7956 5.31607 15.5587 5.87868 16.1213C6.44129 16.6839 7.20435 17 8 17C8.79565 17 9.55871 16.6839 10.1213 16.1213C10.6839 15.5587 11 14.7956 11 14V12C11 11.4477 11.4477 11 12 11C12.5523 11 13 11.4477 13 12V14C13 15.3261 12.4732 16.5979 11.5355 17.5355C10.5979 18.4732 9.32608 19 8 19C6.67392 19 5.40215 18.4732 4.46447 17.5355C3.52678 16.5979 3 15.3261 3 14V12C3 11.4477 3.44772 11 4 11Z" fill="black"/>
<path fill-rule="evenodd" clip-rule="evenodd" d="M12 11C12.5523 11 13 11.4477 13 12V14C13 14.7956 13.3161 15.5587 13.8787 16.1213C14.4413 16.6839 15.2044 17 16 17C16.7956 17 17.5587 16.6839 18.1213 16.1213C18.6839 15.5587 19 14.7956 19 14V12C19 11.4477 19.4477 11 20 11C20.5523 11 21 11.4477 21 12V14C21 15.3261 20.4732 16.5979 19.5355 17.5355C18.5979 18.4732 17.3261 19 16 19C14.6739 19 13.4021 18.4732 12.4645 17.5355C11.5268 16.5979 11 15.3261 11 14V12C11 11.4477 11.4477 11 12 11Z" fill="black"/>
<path fill-rule="evenodd" clip-rule="evenodd" d="M20 11C20.5523 11 21 11.4477 21 12V14C21 14.7956 21.3161 15.5587 21.8787 16.1213C22.4413 16.6839 23.2044 17 24 17C24.7956 17 25.5587 16.6839 26.1213 16.1213C26.6839 15.5587 27 14.7956 27 14V12C27 11.4477 27.4477 11 28 11C28.5523 11 29 11.4477 29 12V14C29 15.3261 28.4732 16.5979 27.5355 17.5355C26.5979 18.4732 25.3261 19 24 19C22.6739 19 21.4021 18.4732 20.4645 17.5355C19.5268 16.5979 19 15.3261 19 14V12C19 11.4477 19.4477 11 20 11Z" fill="black"/>
</svg>
