<svg width="32" height="32" viewBox="0 0 32 32" fill="none" xmlns="http://www.w3.org/2000/svg">
<path fill-rule="evenodd" clip-rule="evenodd" d="M10.1641 3.91091C10.8019 3.64672 11.5331 3.9496 11.7973 4.5874L12.754 6.8971C13.0182 7.53491 12.7153 8.26612 12.0775 8.5303C11.4397 8.79449 10.7085 8.49162 10.4443 7.85381L9.48757 5.54411C9.22338 4.90631 9.52626 4.1751 10.1641 3.91091Z" fill="black"/>
<path fill-rule="evenodd" clip-rule="evenodd" d="M1.91091 12.1641C2.1751 11.5263 2.90631 11.2234 3.54411 11.4876L5.85381 12.4443C6.49162 12.7085 6.79449 13.4397 6.5303 14.0775C6.26612 14.7153 5.53491 15.0182 4.8971 14.754L2.5874 13.7973C1.9496 13.5331 1.64672 12.8019 1.91091 12.1641Z" fill="black"/>
<path fill-rule="evenodd" clip-rule="evenodd" d="M30.0891 12.1641C30.3533 12.8019 30.0505 13.5331 29.4126 13.7973L27.1029 14.754C26.4651 15.0182 25.7339 14.7153 25.4697 14.0775C25.2056 13.4397 25.5084 12.7085 26.1462 12.4443L28.4559 11.4876C29.0937 11.2234 29.825 11.5263 30.0891 12.1641Z" fill="black"/>
<path fill-rule="evenodd" clip-rule="evenodd" d="M21.836 3.91091C22.4738 4.17509 22.7767 4.9063 22.5125 5.54411L21.5558 7.85381C21.2916 8.49162 20.5604 8.79449 19.9226 8.53031C19.2848 8.26612 18.9819 7.53491 19.2461 6.8971L20.2028 4.5874C20.467 3.9496 21.1982 3.64672 21.836 3.91091Z" fill="black"/>
<path fill-rule="evenodd" clip-rule="evenodd" d="M0.75 20C0.75 19.3096 1.30964 18.75 2 18.75H30C30.6904 18.75 31.25 19.3096 31.25 20C31.25 20.6904 30.6904 21.25 30 21.25H2C1.30964 21.25 0.75 20.6904 0.75 20Z" fill="black"/>
<path fill-rule="evenodd" clip-rule="evenodd" d="M4.75 25C4.75 24.3096 5.30964 23.75 6 23.75H26C26.6904 23.75 27.25 24.3096 27.25 25C27.25 25.6904 26.6904 26.25 26 26.25H6C5.30964 26.25 4.75 25.6904 4.75 25Z" fill="black"/>
<path fill-rule="evenodd" clip-rule="evenodd" d="M16 11.7573C15.0375 11.7573 14.0881 11.9796 13.2257 12.4068C12.3632 12.834 11.6111 13.4547 11.028 14.2203C10.4448 14.986 10.0463 15.876 9.86364 16.8209C9.68094 17.7659 9.71895 18.7402 9.97469 19.6681C10.1581 20.3336 9.76732 21.0219 9.10178 21.2053C8.43624 21.3887 7.74801 20.9979 7.56456 20.3324C7.20652 19.0334 7.15332 17.6693 7.40909 16.3463C7.66487 15.0234 8.22272 13.7774 9.03915 12.7055C9.85558 11.6336 10.9085 10.7647 12.1159 10.1666C13.3233 9.56851 14.6526 9.25733 16 9.25732C17.3474 9.25732 18.6766 9.56851 19.884 10.1666C21.0915 10.7647 22.1444 11.6336 22.9608 12.7055C23.7773 13.7774 24.3351 15.0234 24.5909 16.3463C24.8467 17.6693 24.7935 19.0334 24.4354 20.3324C24.252 20.9979 23.5638 21.3887 22.8982 21.2053C22.2327 21.0218 21.8419 20.3336 22.0253 19.6681C22.2811 18.7402 22.3191 17.7659 22.1364 16.8209C21.9537 15.876 21.5552 14.986 20.972 14.2203C20.3889 13.4547 19.6368 12.834 18.7743 12.4068C17.9119 11.9796 16.9624 11.7573 16 11.7573Z" fill="black"/>
</svg>
