<svg width="32" height="32" viewBox="0 0 32 32" fill="none" xmlns="http://www.w3.org/2000/svg">
<path fill-rule="evenodd" clip-rule="evenodd" d="M16 9.75C12.5482 9.75 9.75 12.5482 9.75 16C9.75 19.4518 12.5482 22.25 16 22.25C19.4518 22.25 22.25 19.4518 22.25 16C22.25 12.5482 19.4518 9.75 16 9.75ZM7.25 16C7.25 11.1675 11.1675 7.25 16 7.25C20.8325 7.25 24.75 11.1675 24.75 16C24.75 20.8325 20.8325 24.75 16 24.75C11.1675 24.75 7.25 20.8325 7.25 16Z" fill="black"/>
<path fill-rule="evenodd" clip-rule="evenodd" d="M16 0.75C16.6904 0.75 17.25 1.30964 17.25 2V4.5C17.25 5.19036 16.6904 5.75 16 5.75C15.3096 5.75 14.75 5.19036 14.75 4.5V2C14.75 1.30964 15.3096 0.75 16 0.75Z" fill="black"/>
<path fill-rule="evenodd" clip-rule="evenodd" d="M5.2167 5.2167C5.70486 4.72855 6.49631 4.72855 6.98447 5.2167L8.75224 6.98447C9.24039 7.47263 9.24039 8.26408 8.75224 8.75224C8.26408 9.24039 7.47263 9.24039 6.98447 8.75224L5.2167 6.98447C4.72855 6.49631 4.72855 5.70486 5.2167 5.2167Z" fill="black"/>
<path fill-rule="evenodd" clip-rule="evenodd" d="M0.75 16C0.75 15.3096 1.30964 14.75 2 14.75H4.5C5.19036 14.75 5.75 15.3096 5.75 16C5.75 16.6904 5.19036 17.25 4.5 17.25H2C1.30964 17.25 0.75 16.6904 0.75 16Z" fill="black"/>
<path fill-rule="evenodd" clip-rule="evenodd" d="M8.75224 23.248C9.24039 23.7361 9.24039 24.5276 8.75224 25.0157L6.98447 26.7835C6.49631 27.2716 5.70486 27.2716 5.2167 26.7835C4.72855 26.2953 4.72855 25.5039 5.2167 25.0157L6.98447 23.248C7.47263 22.7598 8.26408 22.7598 8.75224 23.248Z" fill="black"/>
<path fill-rule="evenodd" clip-rule="evenodd" d="M16 26.25C16.6904 26.25 17.25 26.8096 17.25 27.5V30C17.25 30.6904 16.6904 31.25 16 31.25C15.3096 31.25 14.75 30.6904 14.75 30V27.5C14.75 26.8096 15.3096 26.25 16 26.25Z" fill="black"/>
<path fill-rule="evenodd" clip-rule="evenodd" d="M23.248 23.248C23.7361 22.7598 24.5276 22.7598 25.0157 23.248L26.7835 25.0157C27.2716 25.5039 27.2716 26.2953 26.7835 26.7835C26.2953 27.2716 25.5039 27.2716 25.0157 26.7835L23.248 25.0157C22.7598 24.5276 22.7598 23.7361 23.248 23.248Z" fill="black"/>
<path fill-rule="evenodd" clip-rule="evenodd" d="M26.25 16C26.25 15.3096 26.8096 14.75 27.5 14.75H30C30.6904 14.75 31.25 15.3096 31.25 16C31.25 16.6904 30.6904 17.25 30 17.25H27.5C26.8096 17.25 26.25 16.6904 26.25 16Z" fill="black"/>
<path fill-rule="evenodd" clip-rule="evenodd" d="M26.7835 5.2167C27.2716 5.70486 27.2716 6.49631 26.7835 6.98447L25.0157 8.75224C24.5276 9.24039 23.7361 9.24039 23.248 8.75224C22.7598 8.26408 22.7598 7.47263 23.248 6.98447L25.0157 5.2167C25.5039 4.72855 26.2953 4.72855 26.7835 5.2167Z" fill="black"/>
</svg>
