<svg width="32" height="32" viewBox="0 0 32 32" fill="none" xmlns="http://www.w3.org/2000/svg">
<path fill-rule="evenodd" clip-rule="evenodd" d="M16 5.75C10.3391 5.75 5.75 10.3391 5.75 16C5.75 21.6609 10.3391 26.25 16 26.25C21.6609 26.25 26.25 21.6609 26.25 16C26.25 10.3391 21.6609 5.75 16 5.75ZM3.25 16C3.25 8.95837 8.95837 3.25 16 3.25C23.0416 3.25 28.75 8.95837 28.75 16C28.75 23.0416 23.0416 28.75 16 28.75C8.95837 28.75 3.25 23.0416 3.25 16Z" fill="black"/>
<path fill-rule="evenodd" clip-rule="evenodd" d="M16 3.25C16.6904 3.25 17.25 3.80964 17.25 4.5V9.5C17.25 10.1904 16.6904 10.75 16 10.75C15.3096 10.75 14.75 10.1904 14.75 9.5V4.5C14.75 3.80964 15.3096 3.25 16 3.25Z" fill="black"/>
<path fill-rule="evenodd" clip-rule="evenodd" d="M3.25 16C3.25 15.3096 3.80964 14.75 4.5 14.75H9.5C10.1904 14.75 10.75 15.3096 10.75 16C10.75 16.6904 10.1904 17.25 9.5 17.25H4.5C3.80964 17.25 3.25 16.6904 3.25 16Z" fill="black"/>
<path fill-rule="evenodd" clip-rule="evenodd" d="M16 21.25C16.6904 21.25 17.25 21.8096 17.25 22.5V27.5C17.25 28.1904 16.6904 28.75 16 28.75C15.3096 28.75 14.75 28.1904 14.75 27.5V22.5C14.75 21.8096 15.3096 21.25 16 21.25Z" fill="black"/>
<path fill-rule="evenodd" clip-rule="evenodd" d="M21.25 16C21.25 15.3096 21.8096 14.75 22.5 14.75H27.5C28.1904 14.75 28.75 15.3096 28.75 16C28.75 16.6904 28.1904 17.25 27.5 17.25H22.5C21.8096 17.25 21.25 16.6904 21.25 16Z" fill="black"/>
</svg>
