<svg width="32" height="32" viewBox="0 0 32 32" fill="none" xmlns="http://www.w3.org/2000/svg">
<path fill-rule="evenodd" clip-rule="evenodd" d="M16 6.25C10.6152 6.25 6.25 10.6152 6.25 16C6.25 21.3848 10.6152 25.75 16 25.75C21.3848 25.75 25.75 21.3848 25.75 16C25.75 10.6152 21.3848 6.25 16 6.25ZM3.75 16C3.75 9.23451 9.23451 3.75 16 3.75C22.7655 3.75 28.25 9.23451 28.25 16C28.25 22.7655 22.7655 28.25 16 28.25C9.23451 28.25 3.75 22.7655 3.75 16Z" fill="black"/>
<path fill-rule="evenodd" clip-rule="evenodd" d="M16 1.25C16.6904 1.25 17.25 1.80964 17.25 2.5V7.5C17.25 8.19036 16.6904 8.75 16 8.75C15.3096 8.75 14.75 8.19036 14.75 7.5V2.5C14.75 1.80964 15.3096 1.25 16 1.25Z" fill="black"/>
<path fill-rule="evenodd" clip-rule="evenodd" d="M1.25 16C1.25 15.3096 1.80964 14.75 2.5 14.75H7.5C8.19036 14.75 8.75 15.3096 8.75 16C8.75 16.6904 8.19036 17.25 7.5 17.25H2.5C1.80964 17.25 1.25 16.6904 1.25 16Z" fill="black"/>
<path fill-rule="evenodd" clip-rule="evenodd" d="M16 23.25C16.6904 23.25 17.25 23.8096 17.25 24.5V29.5C17.25 30.1904 16.6904 30.75 16 30.75C15.3096 30.75 14.75 30.1904 14.75 29.5V24.5C14.75 23.8096 15.3096 23.25 16 23.25Z" fill="black"/>
<path fill-rule="evenodd" clip-rule="evenodd" d="M23.25 16C23.25 15.3096 23.8096 14.75 24.5 14.75H29.5C30.1904 14.75 30.75 15.3096 30.75 16C30.75 16.6904 30.1904 17.25 29.5 17.25H24.5C23.8096 17.25 23.25 16.6904 23.25 16Z" fill="black"/>
<path fill-rule="evenodd" clip-rule="evenodd" d="M16 13.25C14.4812 13.25 13.25 14.4812 13.25 16C13.25 17.5188 14.4812 18.75 16 18.75C17.5188 18.75 18.75 17.5188 18.75 16C18.75 14.4812 17.5188 13.25 16 13.25ZM10.75 16C10.75 13.1005 13.1005 10.75 16 10.75C18.8995 10.75 21.25 13.1005 21.25 16C21.25 18.8995 18.8995 21.25 16 21.25C13.1005 21.25 10.75 18.8995 10.75 16Z" fill="black"/>
</svg>
