<svg width="32" height="32" viewBox="0 0 32 32" fill="none" xmlns="http://www.w3.org/2000/svg">
<path d="M30.09 11.29C29.9535 10.8503 29.7251 10.4446 29.42 10.0998C29.1148 9.75499 28.7399 9.47897 28.32 9.29C27.9054 9.10133 27.4556 9.0025 27 9H20.5V7.25C20.4965 6.56383 20.3606 5.88477 20.1 5.25C19.7041 4.28905 19.0319 3.46723 18.1685 2.88866C17.3051 2.3101 16.2894 2.00082 15.25 2C15.0179 2.00068 14.7905 2.06548 14.5929 2.18723C14.3952 2.30899 14.2351 2.48298 14.13 2.69L9.48005 12H4.25005C3.95435 11.998 3.66126 12.0554 3.38814 12.1688C3.11503 12.2822 2.86744 12.4492 2.66005 12.66C2.44926 12.8674 2.28223 13.115 2.16886 13.3881C2.05549 13.6612 1.99809 13.9543 2.00005 14.25V25.25C2.00275 25.8461 2.23981 26.4172 2.66005 26.84C2.86744 27.0508 3.11503 27.2178 3.38814 27.3312C3.66126 27.4446 3.95435 27.502 4.25005 27.5H25.48C26.2747 27.5055 27.0436 27.2179 27.6395 26.6921C28.2354 26.1662 28.6166 25.4392 28.71 24.65L30.21 12.65C30.2706 12.1934 30.2296 11.729 30.09 11.29ZM4.50005 14.5H9.00005V25H4.50005V14.5ZM26.23 24.34C26.2088 24.5226 26.1196 24.6904 25.98 24.81C25.8419 24.9318 25.6642 24.9993 25.48 25H11.5V13.55L16 4.6L16.33 4.71C16.6654 4.84566 16.9685 5.05005 17.22 5.31C17.48 5.56151 17.6844 5.86469 17.82 6.2C17.9531 6.51693 18.0243 6.85634 18.03 7.2V10.2C18.0234 10.3658 18.0498 10.5313 18.1077 10.6868C18.1657 10.8423 18.254 10.9847 18.3675 11.1057C18.4811 11.2267 18.6176 11.3239 18.7691 11.3916C18.9207 11.4593 19.0841 11.4962 19.25 11.5H27C27.2153 11.5062 27.4197 11.5959 27.57 11.75C27.6392 11.8317 27.6903 11.9271 27.72 12.03C27.7398 12.1324 27.7398 12.2376 27.72 12.34L26.23 24.34Z" fill="black"/>
</svg>
