<svg width="32" height="32" viewBox="0 0 32 32" fill="none" xmlns="http://www.w3.org/2000/svg">
<path d="M30.21 19.8501L28.71 7.85008C28.6166 7.06087 28.2354 6.33383 27.6395 5.80802C27.0436 5.28222 26.2747 4.99456 25.48 5.00008H4.25005C3.95435 4.99812 3.66126 5.05552 3.38814 5.16889C3.11503 5.28226 2.86744 5.44929 2.66005 5.66008C2.44926 5.86747 2.28223 6.11506 2.16886 6.38817C2.05549 6.66129 1.99809 6.95437 2.00005 7.25008V18.2501C2.00275 18.8462 2.23981 19.4173 2.66005 19.8401C2.86744 20.0509 3.11503 20.2179 3.38814 20.3313C3.66126 20.4446 3.95435 20.502 4.25005 20.5001H9.48005L14.13 29.8101C14.2351 30.0171 14.3952 30.1911 14.5929 30.3128C14.7905 30.4346 15.0179 30.4994 15.25 30.5001C16.2876 30.4975 17.3014 30.1886 18.1641 29.6122C19.0269 29.0358 19.7004 28.2176 20.1 27.2601C20.3606 26.6253 20.4965 25.9463 20.5 25.2601V23.5001H27C27.4613 23.4992 27.9172 23.4007 28.3377 23.2112C28.7583 23.0216 29.1339 22.7452 29.44 22.4001C29.7446 22.055 29.973 21.6495 30.11 21.2101C30.2429 20.7696 30.2771 20.3053 30.21 19.8501ZM9.00005 18.0001H4.50005V7.50008H9.00005V18.0001ZM27.7 20.4701C27.6703 20.5729 27.6192 20.6684 27.55 20.7501C27.4766 20.8298 27.3883 20.8943 27.29 20.9401C27.1979 20.9777 27.0996 20.9981 27 21.0001H19.25C18.9185 21.0001 18.6006 21.1318 18.3662 21.3662C18.1317 21.6006 18 21.9186 18 22.2501V25.2501C17.9981 25.9766 17.7108 26.6734 17.2 27.1901C16.9431 27.4481 16.6371 27.6521 16.3 27.7901C16.1932 27.8357 16.0829 27.8725 15.97 27.9001L11.5 19.0001V7.50008H25.5C25.6842 7.50073 25.8619 7.56825 26 7.69008C26.1396 7.80969 26.2288 7.97753 26.25 8.16008L27.75 20.1601C27.7528 20.2656 27.7358 20.3707 27.7 20.4701Z" fill="black"/>
</svg>
