<svg width="32" height="33" viewBox="0 0 32 33" fill="none" xmlns="http://www.w3.org/2000/svg">
<path fill-rule="evenodd" clip-rule="evenodd" d="M16 7.25C10.6152 7.25 6.25 11.6152 6.25 17C6.25 22.3848 10.6152 26.75 16 26.75C21.3848 26.75 25.75 22.3848 25.75 17C25.75 11.6152 21.3848 7.25 16 7.25ZM3.75 17C3.75 10.2345 9.23451 4.75 16 4.75C22.7655 4.75 28.25 10.2345 28.25 17C28.25 23.7655 22.7655 29.25 16 29.25C9.23451 29.25 3.75 23.7655 3.75 17Z" fill="black"/>
<path fill-rule="evenodd" clip-rule="evenodd" d="M21.8336 11.1664C22.3218 11.6546 22.3218 12.446 21.8336 12.9342L16.8839 17.8839C16.3957 18.3721 15.6043 18.3721 15.1161 17.8839C14.628 17.3958 14.628 16.6043 15.1161 16.1162L20.0659 11.1664C20.554 10.6783 21.3455 10.6783 21.8336 11.1664Z" fill="black"/>
<path fill-rule="evenodd" clip-rule="evenodd" d="M11.75 2C11.75 1.30964 12.3096 0.75 13 0.75H19C19.6904 0.75 20.25 1.30964 20.25 2C20.25 2.69036 19.6904 3.25 19 3.25H13C12.3096 3.25 11.75 2.69036 11.75 2Z" fill="black"/>
</svg>
