<svg width="32" height="32" viewBox="0 0 32 32" fill="none" xmlns="http://www.w3.org/2000/svg">
<path fill-rule="evenodd" clip-rule="evenodd" d="M15.1161 4.1127C15.6043 3.62454 16.3957 3.62454 16.8839 4.1127L22.1339 9.3627C22.622 9.85085 22.622 10.6423 22.1339 11.1305C21.6457 11.6186 20.8543 11.6186 20.3661 11.1305L16 6.76435L11.6339 11.1305C11.1457 11.6186 10.3543 11.6186 9.86612 11.1305C9.37796 10.6423 9.37796 9.85085 9.86612 9.3627L15.1161 4.1127Z" fill="black"/>
<path fill-rule="evenodd" clip-rule="evenodd" d="M16 3.75C16.6904 3.75 17.25 4.30964 17.25 5V19C17.25 19.6904 16.6904 20.25 16 20.25C15.3096 20.25 14.75 19.6904 14.75 19V5C14.75 4.30964 15.3096 3.75 16 3.75Z" fill="black"/>
<path fill-rule="evenodd" clip-rule="evenodd" d="M4 15.75C4.69036 15.75 5.25 16.3096 5.25 17V25.75H26.75V17C26.75 16.3096 27.3096 15.75 28 15.75C28.6904 15.75 29.25 16.3096 29.25 17V26C29.25 26.5967 29.013 27.169 28.591 27.591C28.169 28.0129 27.5967 28.25 27 28.25H5C4.40326 28.25 3.83097 28.0129 3.40901 27.591C2.98705 27.169 2.75 26.5967 2.75 26V17C2.75 16.3096 3.30964 15.75 4 15.75Z" fill="black"/>
</svg>
