<svg width="32" height="32" viewBox="0 0 32 32" fill="none" xmlns="http://www.w3.org/2000/svg">
<path fill-rule="evenodd" clip-rule="evenodd" d="M11.0002 8.25C8.10075 8.25 5.75024 10.6005 5.75024 13.5C5.75024 16.3995 8.10075 18.75 11.0002 18.75C13.8997 18.75 16.2502 16.3995 16.2502 13.5C16.2502 10.6005 13.8997 8.25 11.0002 8.25ZM3.25024 13.5C3.25024 9.21979 6.72004 5.75 11.0002 5.75C15.2805 5.75 18.7502 9.21979 18.7502 13.5C18.7502 17.7802 15.2805 21.25 11.0002 21.25C6.72004 21.25 3.25024 17.7802 3.25024 13.5Z" fill="black"/>
<path fill-rule="evenodd" clip-rule="evenodd" d="M21.9866 8.30938C21.245 8.1955 20.4877 8.24185 19.7656 8.4453C19.1011 8.63252 18.4107 8.24562 18.2234 7.58114C18.0362 6.91665 18.4231 6.22621 19.0876 6.03899C20.1535 5.73866 21.2715 5.67025 22.3661 5.83835C23.4607 6.00645 24.5065 6.40717 25.4332 7.01351C26.3599 7.61985 27.1459 8.41774 27.7383 9.35343C28.3306 10.2891 28.7156 11.3409 28.8673 12.4379C29.0189 13.5349 28.9337 14.6516 28.6174 15.713C28.3011 16.7743 27.7611 17.7555 27.0337 18.5905C26.3062 19.4255 25.4083 20.0949 24.4004 20.5537C23.3924 21.0125 22.2979 21.2499 21.1904 21.25C20.5001 21.2501 19.9404 20.6905 19.9403 20.0002C19.9402 19.3098 20.4998 18.7501 21.1901 18.75C21.9404 18.7499 22.6819 18.5891 23.3647 18.2783C24.0475 17.9675 24.6558 17.514 25.1486 16.9483C25.6414 16.3826 26.0073 15.7179 26.2216 14.9989C26.4358 14.2799 26.4936 13.5234 26.3908 12.7802C26.2881 12.0371 26.0273 11.3246 25.626 10.6907C25.2247 10.0568 24.6922 9.51626 24.0644 9.10549C23.4366 8.69473 22.7281 8.42326 21.9866 8.30938Z" fill="black"/>
<path fill-rule="evenodd" clip-rule="evenodd" d="M10.9998 21.25C9.43518 21.2501 7.89357 21.6266 6.50509 22.3477C5.11661 23.0689 3.92203 24.1135 3.0222 25.3935C2.62516 25.9582 1.84547 26.0942 1.28072 25.6972C0.715957 25.3001 0.579993 24.5204 0.977032 23.9557C2.10754 22.3476 3.60835 21.0352 5.35277 20.1291C7.09719 19.2231 9.03399 18.7501 10.9997 18.75C12.9654 18.7499 14.9022 19.2228 16.6467 20.1287C18.3912 21.0346 19.8921 22.3469 21.0227 23.9549C21.4198 24.5196 21.2839 25.2993 20.7192 25.6964C20.1544 26.0935 19.3747 25.9576 18.9777 25.3929C18.0777 24.113 16.8831 23.0684 15.4945 22.3474C14.106 21.6263 12.5644 21.2499 10.9998 21.25Z" fill="black"/>
<path fill-rule="evenodd" clip-rule="evenodd" d="M25.6859 22.3458C24.2975 21.6247 22.7558 21.2489 21.1913 21.25C20.501 21.2505 19.9409 20.6913 19.9404 20.0009C19.9399 19.3106 20.4992 18.7505 21.1895 18.75C23.1557 18.7486 25.0932 19.2209 26.8381 20.1271C28.583 21.0332 30.0838 22.3465 31.2135 23.9557C31.6102 24.5207 31.4737 25.3003 30.9087 25.697C30.3437 26.0936 29.5641 25.9572 29.1674 25.3921C28.2685 24.1117 27.0743 23.0668 25.6859 22.3458Z" fill="black"/>
</svg>
