<svg width="32" height="32" fill="none" xmlns="http://www.w3.org/2000/svg"><path d="M20.9 9.4c.2.4.6.6 1.1.6.2 0 .4-.1.6-.2l.4-.2c.2.2.5.3.7.4v.5c0 .7.6 1.2 1.2 1.2s1.2-.6 1.2-1.2V10c.3-.1.5-.3.7-.4l.4.3c.4 0 .6.1.8.1.4 0 .9-.2 1.1-.6.3-.6.1-1.4-.5-1.7l-.4-.3V7v-.4l.4-.3c.6-.3.8-1.1.5-1.7-.3-.6-1.1-.8-1.7-.4l-.4.2c-.2-.2-.5-.3-.7-.4v-.5c0-.7-.6-1.2-1.2-1.2s-1.2.6-1.2 1.2V4c-.3.1-.5.3-.7.4l-.4-.3c-.8-.3-1.6-.1-1.9.5-.3.6-.1 1.4.5 1.7l.4.3v.8l-.4.3c-.7.3-.9 1.1-.5 1.7zM25.8 7c0 .4-.3.8-.8.8s-.8-.4-.8-.8.3-.8.8-.8.8.4.8.8zm3 21.1c-.2.1-.4.2-.6.2-.4 0-.9-.2-1.1-.6-1.1-1.9-2.7-3.5-4.7-4.7-3.9-2.2-8.9-2.2-12.8 0-1.9 1.1-3.6 2.7-4.7 4.7-.3.6-1.1.8-1.7.5-.6-.3-.8-1.1-.5-1.7C4 24.2 6 22.3 8.3 20.9c.8-.5 1.6-.8 2.5-1.1-1.2-.8-2.2-1.9-2.9-3.2-.8-1.5-1.2-3.2-1.2-4.9.1-1.7.6-3.4 1.6-4.8s2.3-2.5 3.9-3.2c1.6-.7 3.3-.9 5-.7.7.1 1.2.7 1.1 1.4-.1.7-.7 1.2-1.4 1.1-1.2-.2-2.5 0-3.7.5-1.1.5-2.1 1.3-2.8 2.4-.7 1.1-1.1 2.2-1.2 3.5-.1 1.3.2 2.5.8 3.6.6 1.1 1.5 2 2.6 2.6 1.1.6 2.3.9 3.6.8 1.3-.1 2.5-.5 3.5-1.2s1.8-1.7 2.4-2.8c.3-.6 1-.9 1.6-.6.6.3.9 1 .6 1.6-.7 1.6-1.8 2.9-3.2 3.9 0 0-.1 0-.1.1.9.3 1.7.7 2.5 1.1 2.3 1.3 4.2 3.3 5.6 5.6.5.4.2 1.1-.3 1.5z" fill="#000"/></svg>