<svg width="32" height="32" viewBox="0 0 32 32" fill="none" xmlns="http://www.w3.org/2000/svg">
<path d="M30.88 9.16993C30.6904 9.05923 30.4747 9.0009 30.255 9.0009C30.0354 9.0009 29.8197 9.05923 29.63 9.16993L24.5 12.0999V11.7499C24.4974 10.3584 23.9434 9.02453 22.9594 8.04054C21.9754 7.05654 20.6416 6.50257 19.25 6.49993H14.11C13.7785 6.49993 13.4606 6.63163 13.2262 6.86605C12.9917 7.10047 12.86 7.41841 12.86 7.74993C12.86 8.08145 12.9917 8.39939 13.2262 8.63381C13.4606 8.86823 13.7785 8.99993 14.11 8.99993H19.25C19.9778 9.00516 20.6742 9.29658 21.1888 9.81117C21.7034 10.3258 21.9948 11.0222 22 11.7499V18.2499C22.0048 18.3974 22.0353 18.5429 22.09 18.6799C22.0845 18.713 22.0845 18.7468 22.09 18.7799C22.1452 18.9094 22.2231 19.0279 22.32 19.1299C22.3984 19.2068 22.4857 19.2739 22.58 19.3299L29.58 23.3299C29.7693 23.4362 29.983 23.4913 30.2 23.4899C30.4211 23.4882 30.6381 23.4296 30.83 23.3199C31.0188 23.2098 31.1753 23.0521 31.2841 22.8626C31.3929 22.6731 31.4501 22.4584 31.45 22.2399V10.2399C31.4536 10.0279 31.4032 9.81839 31.3035 9.6312C31.2037 9.44401 31.058 9.28528 30.88 9.16993ZM29 20.0999L24.5 17.5199V14.9999L29 12.3999V20.0999ZM5.54005 2.40993C5.31631 2.16488 5.00494 2.01799 4.67355 2.00114C4.34215 1.98429 4.01749 2.09884 3.77005 2.31993C3.64824 2.43069 3.54952 2.56442 3.47954 2.71344C3.40957 2.86246 3.36972 3.02384 3.36228 3.18831C3.35485 3.35277 3.37998 3.51709 3.43623 3.67181C3.49247 3.82654 3.57873 3.96863 3.69005 4.08993L5.88005 6.49993H3.25005C2.95435 6.49797 2.66126 6.55537 2.38814 6.66874C2.11503 6.78211 1.86744 6.94914 1.66005 7.15993C1.44926 7.36732 1.28223 7.61491 1.16886 7.88802C1.05549 8.16114 0.998089 8.45423 1.00005 8.74993V20.7499C1.00269 22.1415 1.55666 23.4753 2.54066 24.4593C3.52465 25.4433 4.85847 25.9973 6.25005 25.9999H22.25C22.632 25.9965 23.0069 25.8968 23.34 25.7099L27.34 30.0899C27.4558 30.2193 27.5976 30.3228 27.7562 30.3934C27.9147 30.4641 28.0865 30.5004 28.26 30.4999C28.5695 30.4983 28.8679 30.3846 29.1 30.1799C29.2219 30.0692 29.3206 29.9354 29.3906 29.7864C29.4605 29.6374 29.5004 29.476 29.5078 29.3116C29.5152 29.1471 29.4901 28.9828 29.4339 28.828C29.3776 28.6733 29.2914 28.5312 29.18 28.4099L5.54005 2.40993ZM6.25005 23.4999C5.52232 23.4947 4.82589 23.2033 4.31129 22.6887C3.7967 22.1741 3.50528 21.4777 3.50005 20.7499V8.99993H8.15005L21.33 23.4999H6.25005Z" fill="black"/>
</svg>
