<svg width="32" height="32" viewBox="0 0 32 32" fill="none" xmlns="http://www.w3.org/2000/svg">
<path d="M30.88 8.67005C30.6904 8.55935 30.4747 8.50102 30.255 8.50102C30.0354 8.50102 29.8197 8.55935 29.63 8.67005L24.5 11.6V11.25C24.4974 9.85847 23.9434 8.52465 22.9594 7.54066C21.9754 6.55666 20.6416 6.00269 19.25 6.00005H3.25005C2.95435 5.99809 2.66126 6.05549 2.38814 6.16886C2.11503 6.28223 1.86744 6.44926 1.66005 6.66005C1.44926 6.86744 1.28223 7.11503 1.16886 7.38814C1.05549 7.66126 0.998089 7.95435 1.00005 8.25005V20.25C1.00269 21.6416 1.55666 22.9754 2.54066 23.9594C3.52465 24.9434 4.85847 25.4974 6.25005 25.5H22.25C22.5458 25.502 22.8388 25.4446 23.112 25.3312C23.3851 25.2179 23.6327 25.0508 23.84 24.84C24.2603 24.4173 24.4974 23.8461 24.5 23.25V19.9L29.63 22.84C29.8193 22.9463 30.033 23.0014 30.25 23C30.4711 22.9983 30.6881 22.9398 30.88 22.83C31.0688 22.7199 31.2253 22.5623 31.3341 22.3728C31.4429 22.1833 31.5001 21.9686 31.5 21.75V9.75005C31.5001 9.53154 31.4429 9.31684 31.3341 9.12734C31.2253 8.93785 31.0688 8.78017 30.88 8.67005ZM22 23H6.25005C5.52232 22.9948 4.82589 22.7034 4.31129 22.1888C3.7967 21.6742 3.50528 20.9778 3.50005 20.25V8.50005H19.25C19.9778 8.50528 20.6742 8.7967 21.1888 9.31129C21.7034 9.82589 21.9948 10.5223 22 11.25V23ZM29 19.6L24.5 17V14.48L29 11.9V19.6Z" fill="black"/>
</svg>
