<svg width="32" height="32" viewBox="0 0 32 32" fill="none" xmlns="http://www.w3.org/2000/svg">
<path fill-rule="evenodd" clip-rule="evenodd" d="M16 10.75C16.6904 10.75 17.25 11.3096 17.25 12V18C17.25 18.6904 16.6904 19.25 16 19.25C15.3096 19.25 14.75 18.6904 14.75 18V12C14.75 11.3096 15.3096 10.75 16 10.75Z" fill="black"/>
<path fill-rule="evenodd" clip-rule="evenodd" d="M14.3765 3.18452C14.8702 2.89985 15.4301 2.75 16 2.75C16.5698 2.75 17.1297 2.89985 17.6234 3.18452C18.1171 3.46919 18.5273 3.87868 18.8128 4.3719L17.7309 4.99809L18.8128 4.3719L29.8098 23.3709C30.0957 23.8649 30.2465 24.4255 30.247 24.9963C30.2475 25.5671 30.0976 26.128 29.8125 26.6225C29.5274 27.117 29.117 27.5276 28.6228 27.8132C28.1285 28.0987 27.5678 28.249 26.997 28.249H5.00294C4.43214 28.249 3.8714 28.0987 3.37716 27.8132C2.88291 27.5276 2.47258 27.117 2.18745 26.6225C1.90233 26.128 1.75246 25.5671 1.75293 24.9963C1.7534 24.4256 1.9042 23.8649 2.19014 23.3709L13.1872 4.3719L14.269 4.99809L13.1872 4.3719C13.4727 3.87867 13.8828 3.46919 14.3765 3.18452ZM16 5.25C15.8685 5.25 15.7393 5.28458 15.6253 5.35027C15.5114 5.41597 15.4167 5.51046 15.3509 5.62428L4.35383 24.6233L3.27198 23.9971L4.35383 24.6233C4.28784 24.7373 4.25304 24.8667 4.25293 24.9984C4.25282 25.1301 4.28741 25.2596 4.3532 25.3737C4.419 25.4878 4.5137 25.5826 4.62775 25.6485C4.74181 25.7144 4.87121 25.749 5.00294 25.749H26.997C27.1287 25.749 27.2581 25.7144 27.3722 25.6485C27.4862 25.5826 27.5809 25.4878 27.6467 25.3737C27.7125 25.2596 27.7471 25.1301 27.747 24.9984C27.7469 24.8667 27.7121 24.7373 27.6461 24.6233L28.7279 23.9971L27.6461 24.6233L16.6491 5.62428C16.5832 5.51046 16.4885 5.41597 16.3746 5.35027C16.2607 5.28458 16.1315 5.25 16 5.25Z" fill="black"/>
<path d="M16 24C16.8284 24 17.5 23.3284 17.5 22.5C17.5 21.6716 16.8284 21 16 21C15.1716 21 14.5 21.6716 14.5 22.5C14.5 23.3284 15.1716 24 16 24Z" fill="black"/>
</svg>
