<svg width="32" height="32" viewBox="0 0 32 32" fill="none" xmlns="http://www.w3.org/2000/svg">
<path d="M29.6 23.5L18.6 4.5C18.3 4 18 3.7 17.5 3.4C17 3.1 16.5 3 16 3C15.5 3 15 3.1 14.5 3.4C14 3.7 13.7 4 13.4 4.5L2.4 23.5C2.1 24 2 24.5 2 25C2 25.5 2.1 26 2.4 26.5C2.7 27 3 27.3 3.5 27.6C4 27.9 4.5 28 5 28H27C27.5 28 28 27.9 28.5 27.6C29 27.3 29.3 27 29.6 26.5C29.9 26 30 25.5 30 25C30 24.5 29.9 24 29.6 23.5ZM15 12C15 11.7 15.1 11.5 15.3 11.3C15.5 11.1 15.7 11 16 11C16.3 11 16.5 11.1 16.7 11.3C16.9 11.5 17 11.7 17 12V18C17 18.3 16.9 18.5 16.7 18.7C16.5 18.9 16.3 19 16 19C15.7 19 15.5 18.9 15.3 18.7C15.1 18.5 15 18.3 15 18V12ZM16 24C15.7 24 15.4 23.9 15.2 23.7C15 23.5 14.8 23.3 14.6 23C14.5 22.7 14.5 22.4 14.5 22.1C14.6 21.8 14.7 21.5 14.9 21.3C15.1 21.1 15.4 20.9 15.7 20.9C16 20.8 16.3 20.9 16.6 21C16.9 21.1 17.1 21.3 17.3 21.6C17.5 21.9 17.6 22.1 17.6 22.4C17.6 22.8 17.4 23.2 17.2 23.5C16.8 23.8 16.4 24 16 24Z" fill="black"/>
</svg>
