<svg width="32" height="32" viewBox="0 0 32 32" fill="none" xmlns="http://www.w3.org/2000/svg">
<path fill-rule="evenodd" clip-rule="evenodd" d="M16 5.25C10.0629 5.25 5.25 10.0629 5.25 16C5.25 21.9371 10.0629 26.75 16 26.75C21.9371 26.75 26.75 21.9371 26.75 16C26.75 10.0629 21.9371 5.25 16 5.25ZM2.75 16C2.75 8.68223 8.68223 2.75 16 2.75C23.3178 2.75 29.25 8.68223 29.25 16C29.25 23.3178 23.3178 29.25 16 29.25C8.68223 29.25 2.75 23.3178 2.75 16Z" fill="black"/>
<path fill-rule="evenodd" clip-rule="evenodd" d="M16 8.75C16.6904 8.75 17.25 9.30964 17.25 10V17C17.25 17.6904 16.6904 18.25 16 18.25C15.3096 18.25 14.75 17.6904 14.75 17V10C14.75 9.30964 15.3096 8.75 16 8.75Z" fill="black"/>
<path d="M16 23C16.8284 23 17.5 22.3284 17.5 21.5C17.5 20.6716 16.8284 20 16 20C15.1716 20 14.5 20.6716 14.5 21.5C14.5 22.3284 15.1716 23 16 23Z" fill="black"/>
</svg>
