<svg width="32" height="32" viewBox="0 0 32 32" fill="none" xmlns="http://www.w3.org/2000/svg">
<path fill-rule="evenodd" clip-rule="evenodd" d="M16 8.25C11.7198 8.25 8.25 11.7198 8.25 16C8.25 20.2802 11.7198 23.75 16 23.75C20.2802 23.75 23.75 20.2802 23.75 16C23.75 11.7198 20.2802 8.25 16 8.25ZM5.75 16C5.75 10.3391 10.3391 5.75 16 5.75C21.6609 5.75 26.25 10.3391 26.25 16C26.25 21.6609 21.6609 26.25 16 26.25C10.3391 26.25 5.75 21.6609 5.75 16Z" fill="black"/>
<path fill-rule="evenodd" clip-rule="evenodd" d="M16 9.75C16.6904 9.75 17.25 10.3096 17.25 11V15.75H21C21.6904 15.75 22.25 16.3096 22.25 17C22.25 17.6904 21.6904 18.25 21 18.25H16C15.3096 18.25 14.75 17.6904 14.75 17V11C14.75 10.3096 15.3096 9.75 16 9.75Z" fill="black"/>
<path fill-rule="evenodd" clip-rule="evenodd" d="M13.0437 4.25L12.2299 8.73895C12.1068 9.41823 11.4563 9.86907 10.777 9.74592C10.0977 9.62277 9.64687 8.97227 9.77002 8.29299L10.6211 3.59864C10.7151 3.07997 10.9882 2.61078 11.3929 2.27293C11.7975 1.93507 12.3079 1.75 12.835 1.75H19.165C19.6921 1.75 20.2025 1.93507 20.6071 2.27293C21.0117 2.61078 21.2848 3.07997 21.3789 3.59864L22.2299 8.29302C22.3531 8.9723 21.9022 9.6228 21.223 9.74595C20.5437 9.8691 19.8932 9.41826 19.77 8.73898L18.9562 4.25H13.0437Z" fill="black"/>
<path fill-rule="evenodd" clip-rule="evenodd" d="M21.223 22.2542C21.9022 22.3773 22.3531 23.0278 22.2299 23.7071L21.3789 28.4015C21.2848 28.9201 21.0117 29.3893 20.6071 29.7272C20.2025 30.065 19.6921 30.2501 19.165 30.2501H12.835C12.3079 30.2501 11.7975 30.065 11.3929 29.7272C10.9882 29.3893 10.7151 28.9201 10.6211 28.4015L9.77002 23.7071C9.64687 23.0278 10.0977 22.3773 10.777 22.2542C11.4563 22.131 12.1068 22.5819 12.2299 23.2612L13.0437 27.7501H18.9562L19.77 23.2611C19.8932 22.5818 20.5437 22.131 21.223 22.2542Z" fill="black"/>
</svg>
