<svg width="32" height="32" fill="none" xmlns="http://www.w3.org/2000/svg"><path d="M17.23 14.73H23a1.25 1.25 0 1 1 0 2.5h-7A1.251 1.251 0 0 1 14.73 16V9a1.25 1.25 0 1 1 2.5 0v5.73zm11 1.25A12.25 12.25 0 1 1 16 3.73 12.27 12.27 0 0 1 28.23 16v-.02zm-2.5 0A9.75 9.75 0 1 0 16 25.73 9.76 9.76 0 0 0 25.73 16v-.02zm3.86-9.37-4.24-4.24a1.25 1.25 0 0 0-1.77 1.76l4.24 4.25c.239.23.558.36.89.36a1.25 1.25 0 0 0 .88-2.13zM8.38 4.13a1.25 1.25 0 0 0-1.77-1.76L2.37 6.61a1.25 1.25 0 0 0 1.76 1.77l4.25-4.25z" fill="#000"/></svg>