<svg width="32" height="32" fill="none" xmlns="http://www.w3.org/2000/svg"><path fill-rule="evenodd" clip-rule="evenodd" d="M16 3.75c.69 0 1.25.56 1.25 1.25v22a1.25 1.25 0 1 1-2.5 0V5c0-.69.56-1.25 1.25-1.25z" fill="#000"/><path fill-rule="evenodd" clip-rule="evenodd" d="M5.391 9.875A1.25 1.25 0 0 1 7.1 9.418l19.052 11a1.25 1.25 0 1 1-1.25 2.165l-19.052-11a1.25 1.25 0 0 1-.458-1.708z" fill="#000"/><path fill-rule="evenodd" clip-rule="evenodd" d="M26.609 9.875a1.25 1.25 0 0 1-.458 1.708l-19.052 11a1.25 1.25 0 1 1-1.25-2.165l19.052-11a1.25 1.25 0 0 1 1.708.457z" fill="#000"/></svg>