<svg width="32" height="32" fill="none" xmlns="http://www.w3.org/2000/svg"><path d="M26.698 8.101a13.25 13.25 0 1 0-11.46 21.36h1a13.34 13.34 0 0 0 7.34-2.21 1.25 1.25 0 1 0-1.39-2.08 10.75 10.75 0 0 1-13.19-.97 10.76 10.76 0 0 1-2.24-13 10.76 10.76 0 0 1 20.24 5.05c0 1.75-.39 3.75-2.25 3.75-1.86 0-2.25-2-2.25-3.75v-5a1.25 1.25 0 0 0-2.5 0 6.25 6.25 0 1 0 1 9.08 4.19 4.19 0 0 0 3.79 2.16c3 0 4.75-2.34 4.75-6.25a13.34 13.34 0 0 0-2.84-8.14zm-10.45 11.9a3.75 3.75 0 1 1 3.75-3.75 3.76 3.76 0 0 1-3.75 3.75z" fill="#000"/></svg>