<svg width="32" height="32" fill="none" xmlns="http://www.w3.org/2000/svg"><path fill-rule="evenodd" clip-rule="evenodd" d="M16 13.25a2.75 2.75 0 1 0 0 5.5 2.75 2.75 0 0 0 0-5.5zM10.75 16a5.25 5.25 0 1 1 10.5 0 5.25 5.25 0 0 1-10.5 0z" fill="#000"/><path fill-rule="evenodd" clip-rule="evenodd" d="M10.52 8.753a1.25 1.25 0 0 1 0 1.768 7.742 7.742 0 0 0 0 10.959 1.25 1.25 0 0 1-1.767 1.769 10.242 10.242 0 0 1 0-14.497 1.25 1.25 0 0 1 1.768.001zM21.48 8.753a1.25 1.25 0 0 1 1.767-.001 10.241 10.241 0 0 1 0 14.497 1.25 1.25 0 1 1-1.766-1.77 7.743 7.743 0 0 0 0-10.958 1.25 1.25 0 0 1-.002-1.768z" fill="#000"/><path fill-rule="evenodd" clip-rule="evenodd" d="M6.985 5.217a1.25 1.25 0 0 1-.001 1.768 12.738 12.738 0 0 0 0 18.03 1.25 1.25 0 0 1-1.767 1.77 15.238 15.238 0 0 1 0-21.57 1.25 1.25 0 0 1 1.768.002zM25.015 5.217a1.25 1.25 0 0 1 1.768-.001 15.239 15.239 0 0 1 0 21.568 1.25 1.25 0 1 1-1.767-1.77 12.737 12.737 0 0 0 0-18.029 1.25 1.25 0 0 1-.001-1.768z" fill="#000"/></svg>