<svg width="32" height="32" fill="none" xmlns="http://www.w3.org/2000/svg"><path d="M17.45 18.35a1 1 0 0 1 .2-1.4l2-1.5a1 1 0 0 1 1-.1 1 1 0 0 1 .55.9v6.5a1 1 0 0 1-2 0v-4.5l-.4.3a1 1 0 0 1-1.35-.2zM28.5 6.25v20a2.25 2.25 0 0 1-2.25 2.25h-20A2.25 2.25 0 0 1 4 26.25v-20A2.25 2.25 0 0 1 6.25 4H9v-.75a1.25 1.25 0 0 1 2.5 0V4H21v-.75a1.25 1.25 0 0 1 2.5 0V4h2.75a2.25 2.25 0 0 1 2.25 2.25zM26 12.5H6.5V26H26V12.5zm0-6h-2.5v.75a1.25 1.25 0 0 1-2.5 0V6.5h-9.5v.75a1.25 1.25 0 0 1-2.5 0V6.5H6.5V10H26V6.5zM11.75 17.25h1.42l-.7.87a1 1 0 0 0 .78 1.63 1 1 0 0 1 .47.12.93.93 0 0 1 .36.32c.09.139.148.296.17.46a1 1 0 0 1-.08.48.93.93 0 0 1-.29.39.87.87 0 0 1-.43.21 1.16 1.16 0 0 1-.49 0 1.12 1.12 0 0 1-.42-.25 1 1 0 1 0-1.41 1.41 3 3 0 0 0 2.71.82 3 3 0 0 0 1.32-.62 3 3 0 0 0 1.08-2.61 3 3 0 0 0-.5-1.38 2.91 2.91 0 0 0-.82-.82L16 16.87a1 1 0 0 0 .12-1 .999.999 0 0 0-.9-.57h-3.47a1 1 0 0 0 0 2v-.05z" fill="#000"/></svg>