<svg width="32" height="32" fill="none" xmlns="http://www.w3.org/2000/svg"><path fill-rule="evenodd" clip-rule="evenodd" d="M6.25 6.25v19.5h19.5V6.25H6.25zM3.75 6A2.25 2.25 0 0 1 6 3.75h20A2.25 2.25 0 0 1 28.25 6v20A2.25 2.25 0 0 1 26 28.25H6A2.25 2.25 0 0 1 3.75 26V6z" fill="#000"/><path fill-rule="evenodd" clip-rule="evenodd" d="M22 1.75c.69 0 1.25.56 1.25 1.25v4a1.25 1.25 0 1 1-2.5 0V3c0-.69.56-1.25 1.25-1.25zM10 1.75c.69 0 1.25.56 1.25 1.25v4a1.25 1.25 0 1 1-2.5 0V3c0-.69.56-1.25 1.25-1.25zM3.75 11c0-.69.56-1.25 1.25-1.25h22a1.25 1.25 0 1 1 0 2.5H5c-.69 0-1.25-.56-1.25-1.25z" fill="#000"/></svg>