<svg width="32" height="32" fill="none" xmlns="http://www.w3.org/2000/svg"><path fill-rule="evenodd" clip-rule="evenodd" d="M3.341 2.075a1.25 1.25 0 0 1 1.766.084l23.636 26a1.25 1.25 0 1 1-1.85 1.682l-23.636-26a1.25 1.25 0 0 1 .084-1.766zM10.96 4.307A1.25 1.25 0 0 1 12 3.75h8c.417 0 .808.209 1.04.557l1.628 2.443H26A3.25 3.25 0 0 1 29.25 10v13.254a1.25 1.25 0 0 1-2.5 0V10a.75.75 0 0 0-.75-.75h-4a1.25 1.25 0 0 1-1.04-.557L19.33 6.25h-6.687a1.25 1.25 0 0 1-1.935-1.567l.251-.376z" fill="#000"/><path fill-rule="evenodd" clip-rule="evenodd" d="M6 9.25a.75.75 0 0 0-.75.75v14a.75.75 0 0 0 .75.75h19.09a1.25 1.25 0 1 1 0 2.5H6A3.25 3.25 0 0 1 2.75 24V10A3.25 3.25 0 0 1 6 6.75h2.727a1.25 1.25 0 1 1 0 2.5H6z" fill="#000"/><path fill-rule="evenodd" clip-rule="evenodd" d="M14.215 12.184A1.25 1.25 0 0 1 14 13.938a3.25 3.25 0 1 0 4.36 4.797 1.25 1.25 0 0 1 1.815 1.719 5.748 5.748 0 0 1-9.621-2.11 5.752 5.752 0 0 1 1.907-6.376 1.25 1.25 0 0 1 1.754.216z" fill="#000"/></svg>