<svg width="32" height="32" fill="none" xmlns="http://www.w3.org/2000/svg"><path fill-rule="evenodd" clip-rule="evenodd" d="M10.96 4.307A1.25 1.25 0 0 1 12 3.75h8c.417 0 .808.209 1.04.557l1.628 2.443H26A3.25 3.25 0 0 1 29.25 10v14A3.25 3.25 0 0 1 26 27.25H6A3.25 3.25 0 0 1 2.75 24V10A3.25 3.25 0 0 1 6 6.75h3.33l1.63-2.443zm1.708 1.943L11.04 8.693A1.25 1.25 0 0 1 10 9.25H6a.75.75 0 0 0-.75.75v14a.75.75 0 0 0 .75.75h20a.75.75 0 0 0 .75-.75V10a.75.75 0 0 0-.75-.75h-4a1.25 1.25 0 0 1-1.04-.557L19.33 6.25h-6.662z" fill="#000"/><path fill-rule="evenodd" clip-rule="evenodd" d="M16 13.25a3.25 3.25 0 1 0 0 6.5 3.25 3.25 0 0 0 0-6.5zm-5.75 3.25a5.75 5.75 0 1 1 11.5 0 5.75 5.75 0 0 1-11.5 0z" fill="#000"/></svg>