<svg width="32" height="32" fill="none" xmlns="http://www.w3.org/2000/svg"><path fill-rule="evenodd" clip-rule="evenodd" d="M.75 15c0-.69.56-1.25 1.25-1.25h28a1.25 1.25 0 1 1 0 2.5H2c-.69 0-1.25-.56-1.25-1.25zM23 21.75c.69 0 1.25.56 1.25 1.25v2.75h2.5V23a1.25 1.25 0 1 1 2.5 0v3A2.25 2.25 0 0 1 27 28.25h-3A2.25 2.25 0 0 1 21.75 26v-3c0-.69.56-1.25 1.25-1.25zM4 21.75c.69 0 1.25.56 1.25 1.25v2.75h2.5V23a1.25 1.25 0 1 1 2.5 0v3A2.25 2.25 0 0 1 8 28.25H5A2.25 2.25 0 0 1 2.75 26v-3c0-.69.56-1.25 1.25-1.25zM6.75 19c0-.69.56-1.25 1.25-1.25h2a1.25 1.25 0 1 1 0 2.5H8c-.69 0-1.25-.56-1.25-1.25zM20.75 19c0-.69.56-1.25 1.25-1.25h2a1.25 1.25 0 1 1 0 2.5h-2c-.69 0-1.25-.56-1.25-1.25z" fill="#000"/><path fill-rule="evenodd" clip-rule="evenodd" d="M7.424 5.113A2.25 2.25 0 0 1 8.65 4.75h14.7a2.25 2.25 0 0 1 2.056 1.336l-1.123.5 1.123-.5 3.736 8.406c.071.16.108.333.108.508v8c0 .69-.56 1.25-1.25 1.25H4c-.69 0-1.25-.56-1.25-1.25v-8c0-.175.037-.348.108-.508l3.736-8.406a2.25 2.25 0 0 1 .83-.973zM8.812 7.25 5.25 15.265v6.485h21.5v-6.485L23.188 7.25H8.812z" fill="#000"/></svg>