<svg width="32" height="32" fill="none" xmlns="http://www.w3.org/2000/svg"><path fill-rule="evenodd" clip-rule="evenodd" d="M28.884 12.116a1.25 1.25 0 0 1 0 1.768l-6 6a1.25 1.25 0 0 1-1.768-1.768l6-6a1.25 1.25 0 0 1 1.768 0z" fill="#000"/><path fill-rule="evenodd" clip-rule="evenodd" d="M21.116 12.116a1.25 1.25 0 0 1 1.768 0l6 6a1.25 1.25 0 0 1-1.768 1.768l-6-6a1.25 1.25 0 0 1 0-1.768z" fill="#000"/><path fill-rule="evenodd" clip-rule="evenodd" d="M23.75 6.018v4.325a1.25 1.25 0 1 0 2.5 0V5.414a2.25 2.25 0 0 0-3.84-1.59l.883.883-.884-.884L1.823 24.41a2.25 2.25 0 0 0 1.591 3.84H24A2.25 2.25 0 0 0 26.25 26v-4.342a1.25 1.25 0 0 0-2.5 0v4.093H4.018L23.75 6.018z" fill="#000"/></svg>