<svg width="32" height="32" fill="none" xmlns="http://www.w3.org/2000/svg"><path fill-rule="evenodd" clip-rule="evenodd" d="M5.25 8.25v19.066l3.615-3.038a2.25 2.25 0 0 1 1.447-.528H26.75V8.25H5.25zM3.409 6.409A2.25 2.25 0 0 1 5 5.75h22A2.25 2.25 0 0 1 29.25 8v16A2.25 2.25 0 0 1 27 26.25H10.404l-3.956 3.325a2.25 2.25 0 0 1-3.698-1.722V8c0-.597.237-1.169.659-1.591z" fill="#000"/><path d="M10 17.5a1.5 1.5 0 1 0 0-3 1.5 1.5 0 0 0 0 3zM16 17.5a1.5 1.5 0 1 0 0-3 1.5 1.5 0 0 0 0 3zM22 17.5a1.5 1.5 0 1 0 0-3 1.5 1.5 0 0 0 0 3z" fill="#000"/><path d="M10.25 18a1.75 1.75 0 1 0 0-3.5 1.75 1.75 0 0 0 0 3.5zM16.25 18a1.75 1.75 0 1 0 0-3.5 1.75 1.75 0 0 0 0 3.5zM22.25 18a1.75 1.75 0 1 0 0-3.5 1.75 1.75 0 0 0 0 3.5z" fill="#000"/></svg>