<svg width="32" height="32" fill="none" xmlns="http://www.w3.org/2000/svg"><path fill-rule="evenodd" clip-rule="evenodd" d="M5.25 6.25v13.132l2.912-2.354c.222-.18.5-.278.786-.278H20.75V6.25H5.25zM3.409 4.409A2.25 2.25 0 0 1 5 3.75h16A2.25 2.25 0 0 1 23.25 6v11A2.25 2.25 0 0 1 21 19.25H9.39l-4.604 3.722A1.25 1.25 0 0 1 2.75 22V6c0-.597.237-1.169.659-1.591z" fill="#000"/><path fill-rule="evenodd" clip-rule="evenodd" d="M20.75 11c0-.69.56-1.25 1.25-1.25h5A2.25 2.25 0 0 1 29.25 12v16a1.25 1.25 0 0 1-2.036.972L22.61 25.25H11A2.25 2.25 0 0 1 8.75 23v-5a1.25 1.25 0 1 1 2.5 0v4.75h11.802c.286 0 .564.098.786.278l2.912 2.354V12.25H22c-.69 0-1.25-.56-1.25-1.25z" fill="#000"/></svg>