<svg width="32" height="32" fill="none" xmlns="http://www.w3.org/2000/svg"><path fill-rule="evenodd" clip-rule="evenodd" d="M5.25 8.25v19.066l3.694-3.105c.111-.094.239-.167.376-.217l.46-.168a1.25 1.25 0 0 1 .429-.076H26.75V8.25H5.25zM3.409 6.409A2.25 2.25 0 0 1 5 5.75h22A2.25 2.25 0 0 1 29.25 8v16A2.25 2.25 0 0 1 27 26.25H10.43l-.046.017-3.936 3.308a2.25 2.25 0 0 1-3.698-1.722V8c0-.597.237-1.169.659-1.591z" fill="#000"/><path fill-rule="evenodd" clip-rule="evenodd" d="M10.75 14c0-.69.56-1.25 1.25-1.25h8a1.25 1.25 0 1 1 0 2.5h-8c-.69 0-1.25-.56-1.25-1.25zM10.75 18c0-.69.56-1.25 1.25-1.25h8a1.25 1.25 0 1 1 0 2.5h-8c-.69 0-1.25-.56-1.25-1.25z" fill="#000"/></svg>