<svg width="32" height="32" fill="none" xmlns="http://www.w3.org/2000/svg"><path fill-rule="evenodd" clip-rule="evenodd" d="M10.75 13c0-.69.56-1.25 1.25-1.25h8a1.25 1.25 0 1 1 0 2.5h-8c-.69 0-1.25-.56-1.25-1.25zM10.75 17c0-.69.56-1.25 1.25-1.25h8a1.25 1.25 0 1 1 0 2.5h-8c-.69 0-1.25-.56-1.25-1.25z" fill="#000"/><path fill-rule="evenodd" clip-rule="evenodd" d="M5.25 7.25v15.5h7.184a2.25 2.25 0 0 1 1.93 1.092l-1.073.643 1.072-.643L16 26.57l1.637-2.728 1.072.643-1.072-.643a2.25 2.25 0 0 1 1.93-1.092h7.183V7.25H5.25zM3.409 5.409A2.25 2.25 0 0 1 5 4.75h22A2.25 2.25 0 0 1 29.25 7v16A2.25 2.25 0 0 1 27 25.25h-7.292l-1.779 2.964a2.25 2.25 0 0 1-3.858 0l-1.779-2.964H5A2.25 2.25 0 0 1 2.75 23V7c0-.597.237-1.169.659-1.591z" fill="#000"/></svg>