<svg width="32" height="32" fill="none" xmlns="http://www.w3.org/2000/svg"><path fill-rule="evenodd" clip-rule="evenodd" d="M22.404 12.137c.477.5.459 1.29-.04 1.767l-7.334 7a1.25 1.25 0 0 1-1.726 0l-3.667-3.5a1.25 1.25 0 0 1 1.726-1.808l2.804 2.676 6.47-6.176a1.25 1.25 0 0 1 1.767.04z" fill="#000"/><path fill-rule="evenodd" clip-rule="evenodd" d="M16 5.25C10.063 5.25 5.25 10.063 5.25 16S10.063 26.75 16 26.75 26.75 21.937 26.75 16 21.937 5.25 16 5.25zM2.75 16C2.75 8.682 8.682 2.75 16 2.75S29.25 8.682 29.25 16 23.318 29.25 16 29.25 2.75 23.318 2.75 16z" fill="#000"/></svg>