<svg width="32" height="32" fill="none" xmlns="http://www.w3.org/2000/svg"><path fill-rule="evenodd" clip-rule="evenodd" d="M9.75 3c0-.69.56-1.25 1.25-1.25h10c.69 0 1.25.56 1.25 1.25v5c0 .69-.56 1.25-1.25 1.25H11c-.69 0-1.25-.56-1.25-1.25V3zm2.5 1.25v2.5h7.5v-2.5h-7.5z" fill="#000"/><path fill-rule="evenodd" clip-rule="evenodd" d="M7.25 6.25H11a1.25 1.25 0 1 0 0-2.5H7A2.25 2.25 0 0 0 4.75 6v21A2.25 2.25 0 0 0 7 29.25h18A2.25 2.25 0 0 0 27.25 27V6A2.25 2.25 0 0 0 25 3.75h-4a1.25 1.25 0 1 0 0 2.5h3.75v20.5H7.25V6.25z" fill="#000"/><path fill-rule="evenodd" clip-rule="evenodd" d="M10.75 19c0-.69.56-1.25 1.25-1.25h8a1.25 1.25 0 1 1 0 2.5h-8c-.69 0-1.25-.56-1.25-1.25zM10.75 15c0-.69.56-1.25 1.25-1.25h8a1.25 1.25 0 1 1 0 2.5h-8c-.69 0-1.25-.56-1.25-1.25z" fill="#000"/></svg>