<svg width="32" height="32" fill="none" xmlns="http://www.w3.org/2000/svg"><path fill-rule="evenodd" clip-rule="evenodd" d="M16 8.75c.69 0 1.25.56 1.25 1.25v6a1.25 1.25 0 1 1-2.5 0v-6c0-.69.56-1.25 1.25-1.25z" fill="#000"/><path fill-rule="evenodd" clip-rule="evenodd" d="M14.917 15.375a1.25 1.25 0 0 1 1.708-.457l5.196 3a1.25 1.25 0 1 1-1.25 2.165l-5.196-3a1.25 1.25 0 0 1-.458-1.708zM28.021 6.214c.69 0 1.25.56 1.25 1.25v5c0 .69-.56 1.25-1.25 1.25h-5a1.25 1.25 0 0 1 0-2.5h3.75v-3.75c0-.69.56-1.25 1.25-1.25z" fill="#000"/><path fill-rule="evenodd" clip-rule="evenodd" d="M17.902 6.437a9.75 9.75 0 1 0 4.992 16.457 1.25 1.25 0 1 1 1.768 1.768 12.25 12.25 0 1 1 0-17.324l-.842.842.842-.842 4.243 4.243a1.25 1.25 0 1 1-1.768 1.767l-4.243-4.242a9.75 9.75 0 0 0-4.992-2.669z" fill="#000"/></svg>