<svg width="32" height="32" fill="none" xmlns="http://www.w3.org/2000/svg"><path fill-rule="evenodd" clip-rule="evenodd" d="M16 8.75c.69 0 1.25.56 1.25 1.25v6a1.25 1.25 0 1 1-2.5 0v-6c0-.69.56-1.25 1.25-1.25z" fill="#000"/><path fill-rule="evenodd" clip-rule="evenodd" d="M14.917 15.375a1.25 1.25 0 0 1 1.708-.457l5.196 3a1.25 1.25 0 1 1-1.25 2.165l-5.196-3a1.25 1.25 0 0 1-.458-1.708zM3.979 6.214c.69 0 1.25.56 1.25 1.25v3.75h3.75a1.25 1.25 0 1 1 0 2.5h-5c-.69 0-1.25-.56-1.25-1.25v-5c0-.69.56-1.25 1.25-1.25z" fill="#000"/><path fill-rule="evenodd" clip-rule="evenodd" d="M13.61 3.985a12.25 12.25 0 1 1-6.272 20.677 1.25 1.25 0 0 1 1.768-1.768 9.75 9.75 0 1 0 0-13.788l-4.243 4.242a1.25 1.25 0 0 1-1.768-1.767l4.243-4.243a12.25 12.25 0 0 1 6.272-3.353z" fill="#000"/></svg>