<svg width="32" height="32" fill="none" xmlns="http://www.w3.org/2000/svg"><path fill-rule="evenodd" clip-rule="evenodd" d="M11 1.75c.69 0 1.25.56 1.25 1.25v4a1.25 1.25 0 1 1-2.5 0V3c0-.69.56-1.25 1.25-1.25zM15 1.75c.69 0 1.25.56 1.25 1.25v4a1.25 1.25 0 1 1-2.5 0V3c0-.69.56-1.25 1.25-1.25zM19 1.75c.69 0 1.25.56 1.25 1.25v4a1.25 1.25 0 1 1-2.5 0V3c0-.69.56-1.25 1.25-1.25zM2.75 27c0-.69.56-1.25 1.25-1.25h22a1.25 1.25 0 1 1 0 2.5H4c-.69 0-1.25-.56-1.25-1.25z" fill="#000"/><path fill-rule="evenodd" clip-rule="evenodd" d="M2.75 11c0-.69.56-1.25 1.25-1.25h22c.69 0 1.25.56 1.25 1.25v6a12.253 12.253 0 0 1-7.14 11.137 1.25 1.25 0 1 1-1.044-2.273A9.752 9.752 0 0 0 24.75 17v-4.75H5.25V17a9.753 9.753 0 0 0 5.684 8.864 1.25 1.25 0 1 1-1.043 2.273A12.252 12.252 0 0 1 2.75 17v-6z" fill="#000"/><path fill-rule="evenodd" clip-rule="evenodd" d="M24.75 11c0-.69.56-1.25 1.25-1.25A5.25 5.25 0 0 1 31.25 15v1A5.25 5.25 0 0 1 26 21.25h-.422a1.25 1.25 0 0 1 0-2.5H26A2.75 2.75 0 0 0 28.75 16v-1A2.75 2.75 0 0 0 26 12.25c-.69 0-1.25-.56-1.25-1.25z" fill="#000"/></svg>