<svg width="32" height="32" fill="none" xmlns="http://www.w3.org/2000/svg"><path fill-rule="evenodd" clip-rule="evenodd" d="M16 5.25C10.063 5.25 5.25 10.063 5.25 16S10.063 26.75 16 26.75 26.75 21.937 26.75 16 21.937 5.25 16 5.25zM2.75 16C2.75 8.682 8.682 2.75 16 2.75S29.25 8.682 29.25 16 23.318 29.25 16 29.25 2.75 23.318 2.75 16z" fill="#000"/><path fill-rule="evenodd" clip-rule="evenodd" d="M22.515 9.469c.369.367.47.925.256 1.4l-3.511 7.767a1.25 1.25 0 0 1-.647.634l-7.425 3.182a1.25 1.25 0 0 1-1.64-1.641l3.181-7.425a1.25 1.25 0 0 1 .632-.645l7.754-3.525a1.25 1.25 0 0 1 1.4.253zm-7.679 5.347-1.76 4.107 4.106-1.76 1.943-4.296-4.289 1.95z" fill="#000"/></svg>