<svg width="32" height="32" fill="none" xmlns="http://www.w3.org/2000/svg"><path fill-rule="evenodd" clip-rule="evenodd" d="M4.25 8.25v15.5h23.5V8.25H4.25zM1.75 8A2.25 2.25 0 0 1 4 5.75h24A2.25 2.25 0 0 1 30.25 8v16A2.25 2.25 0 0 1 28 26.25H4A2.25 2.25 0 0 1 1.75 24V8z" fill="#000"/><path fill-rule="evenodd" clip-rule="evenodd" d="M19.75 21c0-.69.559-1.25 1.25-1.25h4a1.25 1.25 0 0 1 0 2.5h-4c-.691 0-1.25-.56-1.25-1.25zM13.75 21c0-.69.559-1.25 1.25-1.25h2a1.25 1.25 0 0 1 0 2.5h-2c-.691 0-1.25-.56-1.25-1.25zM1.75 12.106c0-.69.559-1.25 1.25-1.25h26a1.25 1.25 0 0 1 0 2.5H3c-.691 0-1.25-.56-1.25-1.25z" fill="#000"/></svg>