<svg width="32" height="32" fill="none" xmlns="http://www.w3.org/2000/svg"><path fill-rule="evenodd" clip-rule="evenodd" d="M16 5.25C10.063 5.25 5.25 10.063 5.25 16S10.063 26.75 16 26.75 26.75 21.937 26.75 16 21.937 5.25 16 5.25zM2.75 16C2.75 8.682 8.682 2.75 16 2.75S29.25 8.682 29.25 16 23.318 29.25 16 29.25 2.75 23.318 2.75 16z" fill="#000"/><path fill-rule="evenodd" clip-rule="evenodd" d="M20.884 11.116a1.25 1.25 0 0 1 0 1.768l-8 8a1.25 1.25 0 0 1-1.768-1.768l8-8a1.25 1.25 0 0 1 1.768 0z" fill="#000"/><path fill-rule="evenodd" clip-rule="evenodd" d="M11.116 11.116a1.25 1.25 0 0 1 1.768 0l8 8a1.25 1.25 0 0 1-1.768 1.768l-8-8a1.25 1.25 0 0 1 0-1.768z" fill="#000"/></svg>