<svg width="32" height="32" fill="none" xmlns="http://www.w3.org/2000/svg"><path fill-rule="evenodd" clip-rule="evenodd" d="M15.307 2.96c.42-.28.966-.28 1.386 0l12 8c.348.232.557.622.557 1.04v13A2.25 2.25 0 0 1 27 27.25H5A2.25 2.25 0 0 1 2.75 25V12c0-.418.209-.808.557-1.04l12-8zM5.25 12.669V24.75h21.5V12.669L16 5.502 5.25 12.67z" fill="#000"/><path fill-rule="evenodd" clip-rule="evenodd" d="M2.982 11.274a1.25 1.25 0 0 1 1.744-.292l9.492 6.768h3.564l9.492-6.768a1.25 1.25 0 1 1 1.452 2.036l-9.818 7a1.25 1.25 0 0 1-.726.232h-4.364a1.25 1.25 0 0 1-.725-.232l-9.819-7a1.25 1.25 0 0 1-.292-1.744z" fill="#000"/></svg>