<svg width="32" height="32" fill="none" xmlns="http://www.w3.org/2000/svg"><path fill-rule="evenodd" clip-rule="evenodd" d="M3.079 6.155a1.25 1.25 0 0 1 1.766-.076L16 16.304 27.155 6.08a1.25 1.25 0 1 1 1.69 1.842l-12 11a1.25 1.25 0 0 1-1.69 0l-12-11a1.25 1.25 0 0 1-.076-1.766z" fill="#000"/><path fill-rule="evenodd" clip-rule="evenodd" d="M2.75 7c0-.69.56-1.25 1.25-1.25h24c.69 0 1.25.56 1.25 1.25v17A2.25 2.25 0 0 1 27 26.25H5A2.25 2.25 0 0 1 2.75 24V7zm2.5 1.25v15.5h21.5V8.25H5.25z" fill="#000"/><path fill-rule="evenodd" clip-rule="evenodd" d="M14.74 15.155a1.25 1.25 0 0 1-.077 1.766l-9.51 8.718a1.25 1.25 0 1 1-1.69-1.843l9.51-8.717a1.25 1.25 0 0 1 1.767.076zM17.26 15.155a1.25 1.25 0 0 1 1.766-.076l9.51 8.717a1.25 1.25 0 1 1-1.689 1.843l-9.51-8.717a1.25 1.25 0 0 1-.077-1.767z" fill="#000"/></svg>