<svg width="32" height="32" fill="none" xmlns="http://www.w3.org/2000/svg"><path d="m20.3 18.9-6.7-7.4-6.7-7.3c-.4-.6-1.2-.6-1.7-.1-.6.4-.6 1.2-.1 1.7l2.2 2.4C2.9 11 1 15.2.9 15.4c-.1.3-.1.7 0 1 .1.5 4.4 9.8 15.1 9.8h.1c2.2 0 4.3-.5 6.3-1.3l2.7 2.9c.2.3.6.4.9.4.3 0 .6-.1.8-.3.5-.5.5-1.3.1-1.8l-6.6-7.2zm-7.6-4.7 4.7 5.2c-.5.2-1.1.3-1.6.3-1 0-1.9-.5-2.6-1.2-.7-.7-1-1.7-1-2.7.1-.5.2-1.1.5-1.6zm3.4 9.5c-7.9 0-11.7-5.9-12.7-7.7.6-1.1 2.4-3.9 5.6-5.8l2 2.1c-.7 1-1.1 2.2-1.2 3.4-.1 1.6.5 3.3 1.6 4.5 1.1 1.2 2.7 2 4.3 2h.3c1.1 0 2.2-.3 3.2-.9l1.5 1.6c-1.5.6-3 .8-4.6.8zm15-7.2c-.1.1-1.3 3-4.2 5.6-.2.2-.5.3-.8.3-.3 0-.7-.1-.9-.4-.5-.5-.4-1.3.1-1.8 1.8-1.6 2.9-3.4 3.4-4.2-1-1.8-4.8-7.7-12.6-7.7-.8 0-1.6.1-2.4.2-.7.1-1.3-.3-1.4-1-.1-.7.3-1.3 1-1.4.9-.2 1.9-.2 2.8-.2 10.7 0 15 9.3 15.1 9.7.1.2.1.6-.1.9zm-14.3-4.4c-.5-.1-.9-.6-.8-1.2.1-.5.6-.9 1.2-.8 1.3.2 2.4.9 3.3 1.9.9 1 1.4 2.2 1.5 3.5.1.5-.4 1-.9 1.1H21c-.5 0-.9-.4-1-.9-.1-.9-.4-1.7-1-2.3-.6-.7-1.4-1.2-2.2-1.3z" fill="#000"/></svg>