<svg width="32" height="32" fill="none" xmlns="http://www.w3.org/2000/svg"><path fill-rule="evenodd" clip-rule="evenodd" d="M24.518 20.83a1.25 1.25 0 0 1 1.708.458l2.851 4.939a1.25 1.25 0 0 1-2.165 1.25l-2.851-4.939a1.25 1.25 0 0 1 .457-1.707zM19.056 23.427a1.25 1.25 0 0 1 1.448 1.014l.89 5.043a1.25 1.25 0 1 1-2.463.434l-.89-5.043a1.25 1.25 0 0 1 1.015-1.448zM12.933 23.424a1.25 1.25 0 0 1 1.014 1.448l-.89 5.044a1.25 1.25 0 1 1-2.461-.434l.889-5.044a1.25 1.25 0 0 1 1.448-1.014zM7.476 20.826a1.25 1.25 0 0 1 .458 1.708l-2.865 4.962a1.25 1.25 0 0 1-2.165-1.25l2.865-4.962a1.25 1.25 0 0 1 1.707-.458z" fill="#000"/><path fill-rule="evenodd" clip-rule="evenodd" d="M3.215 18.137a1.25 1.25 0 0 1 1.757.187C6.936 20.754 10.466 23.75 16 23.75c5.534 0 9.064-2.995 11.028-5.426a1.25 1.25 0 0 1 1.945 1.571C26.733 22.667 22.558 26.25 16 26.25c-6.557 0-10.733-3.583-12.972-6.355a1.25 1.25 0 0 1 .187-1.758z" fill="#000"/></svg>