<svg width="32" height="32" fill="none" xmlns="http://www.w3.org/2000/svg"><path fill-rule="evenodd" clip-rule="evenodd" d="M4.366 10.616C6.783 8.198 10.584 5.749 16 5.749s9.217 2.45 11.634 4.867a19.166 19.166 0 0 1 2.643 3.312 16.188 16.188 0 0 1 .802 1.429l.044.093.013.027.004.01.001.003v.001c.001 0 .001.001-1.141.509l1.142.509v.001l-.002.003-.005.01-.012.027a7.687 7.687 0 0 1-.207.417 16.22 16.22 0 0 1-.64 1.105 19.165 19.165 0 0 1-2.642 3.311C25.216 23.801 21.416 26.25 16 26.25s-9.217-2.448-11.634-4.866a19.168 19.168 0 0 1-2.643-3.31 16.19 16.19 0 0 1-.802-1.43 7.31 7.31 0 0 1-.044-.093l-.013-.027-.004-.01-.001-.003v-.001C.857 16.509.857 16.508 2 16a116.462 116.462 0 0 1-1.142-.509v-.001l.002-.003.004-.01.013-.027.044-.093c.038-.078.092-.188.163-.324.143-.272.354-.652.64-1.105a19.168 19.168 0 0 1 2.642-3.312zM2 16l-1.142-.508a1.25 1.25 0 0 0 0 1.016L2 16zm1.402 0c.11.2.255.451.437.74.493.784 1.25 1.83 2.295 2.876 2.083 2.082 5.282 4.133 9.866 4.133s7.784-2.05 9.866-4.133a16.672 16.672 0 0 0 2.295-2.876c.182-.288.327-.54.437-.74-.11-.2-.255-.452-.437-.74a16.673 16.673 0 0 0-2.295-2.877C23.783 10.3 20.584 8.25 16 8.25S8.217 10.3 6.134 12.383a16.67 16.67 0 0 0-2.295 2.877c-.182.288-.327.54-.437.74zM30 16l1.142.508a1.25 1.25 0 0 0 0-1.016L30 16z" fill="#000"/><path fill-rule="evenodd" clip-rule="evenodd" d="M16 12.25a3.75 3.75 0 1 0 0 7.5 3.75 3.75 0 0 0 0-7.5zM9.75 16a6.25 6.25 0 1 1 12.5 0 6.25 6.25 0 0 1-12.5 0z" fill="#000"/></svg>