<svg width="33" height="32" fill="none" xmlns="http://www.w3.org/2000/svg"><path d="M22.5 14.189a1.25 1.25 0 0 1-1.25 1.25h-10a1.25 1.25 0 0 1 0-2.5h10a1.25 1.25 0 0 1 1.25 1.25zm-1.25 2.75h-10a1.25 1.25 0 0 0 0 2.5h10a1.25 1.25 0 0 0 0-2.5zm11.25-3.75v3a4.27 4.27 0 0 1-4.25 4.25h-.48c-2.31 4.83-9.42 6.59-11.06 6.93a2.14 2.14 0 0 1-.92 0c-1.64-.37-8.79-2.1-11.06-6.93h-.48a4.231 4.231 0 0 1-3-1.25 4.19 4.19 0 0 1-1.25-3v-3a4.25 4.25 0 0 1 4.24-4.25c.042-.123.1-.24.17-.35a2.25 2.25 0 0 1 1.07-.82l10-3.63a2.15 2.15 0 0 1 1.52 0l10 3.63a2.2 2.2 0 0 1 1.07.83c.072.105.13.219.17.34a4.25 4.25 0 0 1 4.26 4.25zM4 17.909a5.58 5.58 0 0 1 0-.72v-5.73a1.79 1.79 0 0 0-1 .54 1.74 1.74 0 0 0-.5 1.19v3a1.73 1.73 0 0 0 .5 1.23c.268.271.62.444 1 .49zm22-.72v-7.13l-9.75-3.54-9.75 3.54v7.13c0 5.43 8.52 7.46 9.75 7.72 1.25-.27 9.75-2.29 9.75-7.72zm4-4a1.78 1.78 0 0 0-.51-1.19 1.73 1.73 0 0 0-1-.49v5.73c.015.243.015.487 0 .73a1.76 1.76 0 0 0 1.388-1.087c.088-.22.13-.456.122-.693v-3z" fill="#000"/></svg>