<svg width="32" height="32" fill="none" xmlns="http://www.w3.org/2000/svg"><path fill-rule="evenodd" clip-rule="evenodd" d="M7.249 5.25v21.5H24.75V11.518L18.482 5.25H7.25zM5.408 3.409a2.25 2.25 0 0 1 1.591-.659H19c.331 0 .65.132.884.366l7 7c.234.235.366.553.366.884v16A2.25 2.25 0 0 1 25 29.25H6.999A2.25 2.25 0 0 1 4.749 27V5c0-.597.237-1.169.659-1.591z" fill="#000"/><path fill-rule="evenodd" clip-rule="evenodd" d="M19 3a1 1 0 0 1 1 1v6h6.001a1 1 0 1 1 0 2H19a1 1 0 0 1-1-1V4a1 1 0 0 1 1-1zM11 17a1 1 0 0 1 1-1h8a1 1 0 1 1 0 2h-8a1 1 0 0 1-1-1zM11 21a1 1 0 0 1 1-1h8a1 1 0 1 1 0 2h-8a1 1 0 0 1-1-1z" fill="#000"/></svg>