<svg width="32" height="32" fill="none" xmlns="http://www.w3.org/2000/svg"><path d="M23.61 16.229a30.997 30.997 0 0 1-2.34 11.87 1.24 1.24 0 0 1-1.15.78 1.36 1.36 0 0 1-.48-.09 1.25 1.25 0 0 1-.68-1.63 28.658 28.658 0 0 0 2.15-10.93 1.25 1.25 0 0 1 2.5 0zm-8.95-4.44a4.85 4.85 0 0 1 2.82-.18 4.77 4.77 0 0 1 2.42 1.45 1.25 1.25 0 0 0 1.86-1.66 7.21 7.21 0 0 0-8-1.94 7.09 7.09 0 0 0-3.37 2.66 7.19 7.19 0 0 0-1.28 4.11 16.77 16.77 0 0 1-2.09 8.11 1.25 1.25 0 0 0 1.434 1.811 1.24 1.24 0 0 0 .747-.601 19.229 19.229 0 0 0 2.41-9.32 4.78 4.78 0 0 1 3.05-4.44zm13.46-1.65a13.189 13.189 0 0 0-9.94-7 13.23 13.23 0 0 0-6.24.59 1.251 1.251 0 0 0 .83 2.36 10.77 10.77 0 0 1 9.79 1.36 10.8 10.8 0 0 1 4.55 8.78 35.196 35.196 0 0 1-.86 7.75 1.25 1.25 0 0 0 .94 1.5c.094.01.188.01.28 0a1.24 1.24 0 0 0 1.21-1c.62-2.717.931-5.494.93-8.28a13.3 13.3 0 0 0-1.49-6.06zM9.19 8.219a1.25 1.25 0 0 0-1.66-1.87 13.25 13.25 0 0 0-3.27 4.47 13.08 13.08 0 0 0-1.15 5.41 10.79 10.79 0 0 1-1 4.48 1.26 1.26 0 0 0 .62 1.66 1.26 1.26 0 0 0 1.66-.62 13.31 13.31 0 0 0 1.2-5.52 10.71 10.71 0 0 1 .93-4.39 10.54 10.54 0 0 1 2.67-3.62zm5.51 16.87a1.24 1.24 0 0 0-1.65.62c-.24.52-.51 1-.78 1.54a1.25 1.25 0 0 0 .48 1.7c.19.097.398.149.61.15a1.24 1.24 0 0 0 1.09-.64 31.6 31.6 0 0 0 .87-1.71 1.26 1.26 0 0 0-.62-1.66zm1.66-10.11a1.25 1.25 0 0 0-1.25 1.25c.002 1.92-.24 3.83-.72 5.69a1.25 1.25 0 0 0 .9 1.52c.104.014.208.014.31 0a1.24 1.24 0 0 0 1.21-.94c.532-2.062.8-4.182.8-6.31a1.25 1.25 0 0 0-1.25-1.21z" fill="#000"/></svg>