<svg width="32" height="32" fill="none" xmlns="http://www.w3.org/2000/svg"><path d="M9.18 16.25a17.14 17.14 0 0 1-1.79 7.67 1.25 1.25 0 0 1-2.24-1.11 14.66 14.66 0 0 0 1.53-6.56A9.21 9.21 0 0 1 10.15 9a1.268 1.268 0 1 1 1.56 2 6.76 6.76 0 0 0-1.86 2.35 6.68 6.68 0 0 0-.67 2.9zM15.93 15a1.25 1.25 0 0 0-1.25 1.25 22.611 22.611 0 0 1-2.84 11 1.25 1.25 0 0 0 .49 1.75c.186.106.396.161.61.16a1.26 1.26 0 0 0 1.06-.68 25.14 25.14 0 0 0 3.15-12.23A1.25 1.25 0 0 0 15.93 15zm3.72-2.46a5.26 5.26 0 0 0-9 3.71 1.25 1.25 0 0 0 2.5 0 2.77 2.77 0 0 1 .85-1.94 2.82 2.82 0 0 1 3.89 0c.512.516.8 1.213.8 1.94a26.71 26.71 0 0 1-2.54 11.39 1.27 1.27 0 0 0 .6 1.67 1.24 1.24 0 0 0 1.66-.6 29.17 29.17 0 0 0 2.78-12.46 5.21 5.21 0 0 0-1.54-3.71zm5.65-5.66a13.25 13.25 0 0 0-22.62 9.37 10.65 10.65 0 0 1-.61 3.58 1.253 1.253 0 0 0 2.36.84 13.33 13.33 0 0 0 .75-4.42 10.76 10.76 0 0 1 18.36-7.6 10.67 10.67 0 0 1 3.14 7.6A35.604 35.604 0 0 1 26 23a1.24 1.24 0 0 0 1 1.47h.24a1.25 1.25 0 0 0 1.23-1c.468-2.385.703-4.81.7-7.24a13.13 13.13 0 0 0-3.87-9.35zM11.78 19a1.24 1.24 0 0 0-1.47 1 18.88 18.88 0 0 1-2.12 5.61 1.24 1.24 0 0 0 .45 1.7c.19.113.409.171.63.17a1.24 1.24 0 0 0 1.08-.62 21.322 21.322 0 0 0 2.41-6.36 1.24 1.24 0 0 0-.98-1.5zm10.27-9.69a9.26 9.26 0 0 0-7.27-2.24 1.25 1.25 0 1 0 .31 2.48 6.78 6.78 0 0 1 2.83.25 6.75 6.75 0 0 1 4.76 6.45 33.159 33.159 0 0 1-.23 3.85 1.24 1.24 0 0 0 1.08 1.39h.16a1.25 1.25 0 0 0 1.24-1.1c.168-1.377.252-2.763.25-4.15a9.052 9.052 0 0 0-.82-3.8 9.181 9.181 0 0 0-2.31-3.13zM23.24 23a1.26 1.26 0 0 0-1.53.9c-.18.71-.39 1.41-.62 2.1a1.25 1.25 0 0 0 .79 1.58c.128.047.264.071.4.07a1.24 1.24 0 0 0 1.18-.86c.25-.74.48-1.5.68-2.27a1.25 1.25 0 0 0-.9-1.52z" fill="#000"/></svg>