<svg width="32" height="32" fill="none" xmlns="http://www.w3.org/2000/svg"><path fill-rule="evenodd" clip-rule="evenodd" d="M4.205 12c0-.69.56-1.25 1.25-1.25H28a1.25 1.25 0 1 1 0 2.5H5.455c-.69 0-1.25-.56-1.25-1.25z" fill="#000"/><path fill-rule="evenodd" clip-rule="evenodd" d="M22.224 3.77a1.25 1.25 0 0 1 1.006 1.454l-4 22a1.25 1.25 0 0 1-2.46-.447l4-22a1.25 1.25 0 0 1 1.454-1.007zM14.224 3.77a1.25 1.25 0 0 1 1.006 1.454l-4 22a1.25 1.25 0 0 1-2.46-.447l4-22a1.25 1.25 0 0 1 1.454-1.007z" fill="#000"/><path fill-rule="evenodd" clip-rule="evenodd" d="M2.75 20c0-.69.56-1.25 1.25-1.25h22.546a1.25 1.25 0 0 1 0 2.5H4c-.69 0-1.25-.56-1.25-1.25z" fill="#000"/></svg>