<svg width="32" height="32" fill="none" xmlns="http://www.w3.org/2000/svg"><path d="M28.4 10.9c-.7-1.6-1.7-3.1-2.9-4.3-1.2-1.2-2.7-2.2-4.3-2.9-1.6-.7-3.4-1-5.1-1-1.8 0-3.5.3-5.1 1-1.6.7-3.1 1.7-4.3 2.9-1.2 1.2-2.2 2.7-2.9 4.3-.7 1.6-1 3.3-1 5.1v7c0 .9.3 1.7 1 2.3.6.6 1.4 1 2.3 1h2c.9 0 1.7-.3 2.3-1 .6-.6 1-1.4 1-2.3v-5c0-.9-.3-1.7-1-2.3-.6-.6-1.4-1-2.3-1H5.3c.1-1 .4-2 .8-2.9.5-1.3 1.3-2.5 2.4-3.5 1-1 2.2-1.8 3.5-2.3 1.3-.5 2.7-.8 4.2-.8 1.4 0 2.8.3 4.1.8 1.3.5 2.5 1.3 3.5 2.3 1 1 1.8 2.2 2.4 3.5.4.9.6 1.9.8 2.9h-2.7c-.9 0-1.7.3-2.3 1-.6.6-1 1.4-1 2.3v5c0 .9.3 1.7 1 2.3.7.6 1.4 1 2.3 1h2c.3 0 .5 0 .7-.1 0 .7-.3 1.3-.8 1.8s-1.2.8-1.9.8H17c-.7 0-1.2.6-1.2 1.2s.6 1.2 1.2 1.2h7.2c1.4 0 2.7-.5 3.7-1.5s1.5-2.3 1.5-3.7V16c0-1.8-.3-3.5-1-5.1zM8 17.2c.2 0 .4.1.5.2.1.1.2.3.2.5v5c0 .2-.1.4-.2.5-.1.1-.3.4-.5.4H6c-.2 0-.4-.1-.5-.2-.1-.1-.3-.4-.3-.6v-5.8H8zm18.2 6.6h-2c-.2 0-.4-.1-.5-.2-.1-.1-.2-.3-.2-.5v-5c0-.2.1-.4.2-.5.1-.1.3-.2.5-.2H27V23c0 .2-.1.4-.2.5-.2.2-.4.3-.6.3z" fill="#000"/></svg>