<svg width="32" height="32" fill="none" xmlns="http://www.w3.org/2000/svg"><path fill-rule="evenodd" clip-rule="evenodd" d="M14.486 3.686a2.25 2.25 0 0 1 3.027 0l10 9.092a2.252 2.252 0 0 1 .737 1.665V27a1.25 1.25 0 1 1-2.5 0V14.553L16 5.688l-9.75 8.865V27a1.25 1.25 0 1 1-2.5 0V14.442a2.25 2.25 0 0 1 .736-1.664l10-9.092z" fill="#000"/><path fill-rule="evenodd" clip-rule="evenodd" d="M.75 27c0-.69.56-1.25 1.25-1.25h28a1.25 1.25 0 1 1 0 2.5H2c-.69 0-1.25-.56-1.25-1.25z" fill="#000"/><path fill-rule="evenodd" clip-rule="evenodd" d="M11.75 18.999c0-.69.559-1.25 1.25-1.25h6c.69 0 1.25.56 1.25 1.25v8a1.25 1.25 0 0 1-2.5 0v-6.75h-3.5v6.75a1.25 1.25 0 0 1-2.5 0v-8z" fill="#000"/></svg>