<svg width="32" height="32" fill="none" xmlns="http://www.w3.org/2000/svg"><path fill-rule="evenodd" clip-rule="evenodd" d="m16 5.688-9.75 8.865V25.75h5.5V20A2.25 2.25 0 0 1 14 17.75h4A2.25 2.25 0 0 1 20.25 20v5.75h5.5V14.553L16 5.688zm-1.514-2.002a2.25 2.25 0 0 1 3.027 0l10 9.092a2.252 2.252 0 0 1 .737 1.665V26A2.25 2.25 0 0 1 26 28.25h-6.001a2.25 2.25 0 0 1-2.25-2.25v-5.75h-3.5V26A2.25 2.25 0 0 1 12 28.25H6A2.25 2.25 0 0 1 3.75 26V14.442a2.25 2.25 0 0 1 .736-1.664l10-9.092z" fill="#000"/></svg>