<svg width="32" height="32" fill="none" xmlns="http://www.w3.org/2000/svg"><path fill-rule="evenodd" clip-rule="evenodd" d="M19.75 6c0-.69.56-1.25 1.25-1.25h5c.69 0 1.25.56 1.25 1.25v5a1.25 1.25 0 1 1-2.5 0V7.25H21c-.69 0-1.25-.56-1.25-1.25zM6 19.75c.69 0 1.25.56 1.25 1.25v3.75H11a1.25 1.25 0 1 1 0 2.5H6c-.69 0-1.25-.56-1.25-1.25v-5c0-.69.56-1.25 1.25-1.25zM26 19.75c.69 0 1.25.56 1.25 1.25v5c0 .69-.56 1.25-1.25 1.25h-5a1.25 1.25 0 1 1 0-2.5h3.75V21c0-.69.56-1.25 1.25-1.25zM4.75 6c0-.69.56-1.25 1.25-1.25h5a1.25 1.25 0 1 1 0 2.5H7.25V11a1.25 1.25 0 1 1-2.5 0V6z" fill="#000"/></svg>