<svg width="32" height="32" fill="none" xmlns="http://www.w3.org/2000/svg"><path fill-rule="evenodd" clip-rule="evenodd" d="M5.25 7.25v17.5h21.5V7.25H5.25zM2.75 7A2.25 2.25 0 0 1 5 4.75h22A2.25 2.25 0 0 1 29.25 7v18A2.25 2.25 0 0 1 27 27.25H5A2.25 2.25 0 0 1 2.75 25V7z" fill="#000"/><path fill-rule="evenodd" clip-rule="evenodd" d="m11 15.768-6.116 6.116a1.25 1.25 0 1 1-1.768-1.768l6.293-6.293a2.25 2.25 0 0 1 3.182 0L18 19.233l2.409-2.41a2.25 2.25 0 0 1 3.182 0l5.293 5.293a1.25 1.25 0 0 1-1.768 1.768L22 18.768l-2.409 2.409a2.25 2.25 0 0 1-3.182 0L11 15.767z" fill="#000"/><path d="M19.5 14a1.5 1.5 0 1 0 0-3 1.5 1.5 0 0 0 0 3z" fill="#000"/></svg>