<svg width="32" height="32" fill="none" xmlns="http://www.w3.org/2000/svg"><path fill-rule="evenodd" clip-rule="evenodd" d="M22 11.75c.474 0 .906.268 1.118.691l7 14a1.25 1.25 0 0 1-2.236 1.118L22 15.795 16.118 27.56a1.25 1.25 0 1 1-2.236-1.118l7-14A1.25 1.25 0 0 1 22 11.75z" fill="#000"/><path fill-rule="evenodd" clip-rule="evenodd" d="M15.75 23c0-.69.56-1.25 1.25-1.25h10a1.25 1.25 0 1 1 0 2.5H17c-.69 0-1.25-.56-1.25-1.25zM11 2.75c.69 0 1.25.56 1.25 1.25v3a1.25 1.25 0 1 1-2.5 0V4c0-.69.56-1.25 1.25-1.25z" fill="#000"/><path fill-rule="evenodd" clip-rule="evenodd" d="M1.75 7c0-.69.56-1.25 1.25-1.25h16a1.25 1.25 0 1 1 0 2.5H3c-.69 0-1.25-.56-1.25-1.25z" fill="#000"/><path fill-rule="evenodd" clip-rule="evenodd" d="M15 5.75c.69 0 1.25.56 1.25 1.25A13.25 13.25 0 0 1 3 20.25a1.25 1.25 0 1 1 0-2.5A10.75 10.75 0 0 0 13.75 7c0-.69.56-1.25 1.25-1.25z" fill="#000"/><path fill-rule="evenodd" clip-rule="evenodd" d="M7.266 9.822a1.25 1.25 0 0 1 1.596.76 10.756 10.756 0 0 0 10.137 7.164 1.25 1.25 0 1 1 0 2.5 13.255 13.255 0 0 1-12.494-8.828 1.25 1.25 0 0 1 .761-1.596z" fill="#000"/></svg>