<svg width="32" height="32" fill="none" xmlns="http://www.w3.org/2000/svg"><path fill-rule="evenodd" clip-rule="evenodd" d="M16 16.25a1.25 1.25 0 1 0 0 2.5 1.25 1.25 0 0 0 0-2.5zm-3.75 1.25a3.75 3.75 0 1 1 7.5 0 3.75 3.75 0 0 1-7.5 0z" fill="#000"/><path fill-rule="evenodd" clip-rule="evenodd" d="M16 18.75c.69 0 1.25.56 1.25 1.25v3a1.25 1.25 0 0 1-2.5 0v-3c0-.69.559-1.25 1.25-1.25z" fill="#000"/><path fill-rule="evenodd" clip-rule="evenodd" d="M6.25 12.25v13.5h19.5v-13.5H6.25zM3.75 12A2.25 2.25 0 0 1 6 9.75h20A2.25 2.25 0 0 1 28.25 12v14A2.25 2.25 0 0 1 26 28.25H6A2.25 2.25 0 0 1 3.75 26V12z" fill="#000"/><path fill-rule="evenodd" clip-rule="evenodd" d="M16 3.25a3.25 3.25 0 0 0-3.25 3.25V11a1.25 1.25 0 0 1-2.5 0V6.5a5.75 5.75 0 0 1 11.5 0 1.25 1.25 0 0 1-2.5 0A3.25 3.25 0 0 0 16 3.25z" fill="#000"/></svg>