<svg width="32" height="32" fill="none" xmlns="http://www.w3.org/2000/svg"><path fill-rule="evenodd" clip-rule="evenodd" d="M13.213 4.697a1.25 1.25 0 0 1-.91 1.515L5.25 7.976v15.423l6.447-1.612a1.25 1.25 0 0 1 .606 2.425l-8 2A1.25 1.25 0 0 1 2.75 25V7c0-.574.39-1.074.947-1.213l8-2a1.25 1.25 0 0 1 1.516.91z" fill="#000"/><path fill-rule="evenodd" clip-rule="evenodd" d="M11.343 3.937a1.25 1.25 0 0 1 1.216-.055l8 4c.424.212.691.645.691 1.118v18a1.25 1.25 0 0 1-1.809 1.118l-8-4A1.25 1.25 0 0 1 10.75 23V5c0-.433.224-.836.593-1.063zm1.907 3.086v15.204l5.5 2.75V9.773l-5.5-2.75z" fill="#000"/><path fill-rule="evenodd" clip-rule="evenodd" d="M28.77 6.015c.303.237.48.6.48.985v18a1.25 1.25 0 0 1-.947 1.213l-8 2a1.25 1.25 0 0 1-.606-2.426l7.053-1.763V8.601l-6.447 1.612a1.25 1.25 0 0 1-.606-2.426l8-2a1.25 1.25 0 0 1 1.072.228z" fill="#000"/></svg>