<svg width="32" height="32" fill="none" xmlns="http://www.w3.org/2000/svg"><path fill-rule="evenodd" clip-rule="evenodd" d="M5.75 29c0-.69.56-1.25 1.25-1.25h18a1.25 1.25 0 1 1 0 2.5H7c-.69 0-1.25-.56-1.25-1.25zM16 10.25a2.75 2.75 0 1 0 0 5.5 2.75 2.75 0 0 0 0-5.5zM10.75 13a5.25 5.25 0 1 1 10.5 0 5.25 5.25 0 0 1-10.5 0z" fill="#000"/><path fill-rule="evenodd" clip-rule="evenodd" d="M16 4.25A8.75 8.75 0 0 0 7.25 13c0 4.05 2.265 7.762 4.693 10.555A31.27 31.27 0 0 0 16 27.432a31.27 31.27 0 0 0 4.057-3.877C22.485 20.762 24.75 17.05 24.75 13A8.75 8.75 0 0 0 16 4.25zM16 29a178.245 178.245 0 0 1-.717 1.023l-.004-.002-.008-.006-.026-.018a19.255 19.255 0 0 1-.433-.322c-.29-.22-.697-.543-1.184-.957a33.787 33.787 0 0 1-3.571-3.523C7.485 22.238 4.75 17.95 4.75 13a11.25 11.25 0 1 1 22.5 0c0 4.95-2.735 9.238-5.307 12.195a33.787 33.787 0 0 1-3.57 3.523 29.611 29.611 0 0 1-1.524 1.21l-.094.069-.026.018-.008.006-.003.002S16.716 30.024 16 29zm0 0 .718 1.023a1.252 1.252 0 0 1-1.435 0L16 29z" fill="#000"/></svg>