<svg width="32" height="32" fill="none" xmlns="http://www.w3.org/2000/svg"><path fill-rule="evenodd" clip-rule="evenodd" d="M16 3.25a8.75 8.75 0 1 0 0 17.5 8.75 8.75 0 0 0 0-17.5zM4.75 12C4.75 5.787 9.785.75 16 .75 22.211.75 27.25 5.787 27.25 12S22.211 23.25 16 23.25C9.785 23.25 4.75 18.213 4.75 12z" fill="#000"/><path fill-rule="evenodd" clip-rule="evenodd" d="M16 7.25a4.75 4.75 0 1 0 0 9.5 4.75 4.75 0 0 0 0-9.5zM8.75 12a7.25 7.25 0 1 1 14.5 0 7.25 7.25 0 0 1-14.5 0z" fill="#000"/><path fill-rule="evenodd" clip-rule="evenodd" d="M22 18.75c.69 0 1.25.56 1.25 1.25v10a1.25 1.25 0 0 1-1.809 1.118l-5.442-2.72-5.44 2.72A1.25 1.25 0 0 1 8.75 30V20a1.25 1.25 0 1 1 2.5 0v7.977l4.19-2.095a1.25 1.25 0 0 1 1.118 0l4.192 2.096v-7.979c0-.69.56-1.25 1.25-1.25z" fill="#000"/></svg>