<svg width="32" height="32" fill="none" xmlns="http://www.w3.org/2000/svg"><path fill-rule="evenodd" clip-rule="evenodd" d="M19 8.75c.69 0 1.25.56 1.25 1.25v15.331l.968.645 1.57-6.28a1.25 1.25 0 0 1 2.425.607l-1.656 6.623a2.249 2.249 0 0 1-3.431 1.327l.643-.964.024-.037m-.024.037-.643.964-1.374-.916a2.25 2.25 0 0 1-1.002-1.872V10c0-.69.56-1.25 1.25-1.25m2.131 17.57z" fill="#000"/><path fill-rule="evenodd" clip-rule="evenodd" d="M4.051 3.231a2.25 2.25 0 0 1 2.397.318 22.83 22.83 0 0 0 8.659 4.558c1.192.325 2.184.486 2.871.565a12.914 12.914 0 0 0 1.018.078H24a6.25 6.25 0 0 1 0 12.5H18.996a3.442 3.442 0 0 0-.234.009c-.175.01-.44.029-.784.068-.687.08-1.68.24-2.871.565a22.83 22.83 0 0 0-8.66 4.559A2.25 2.25 0 0 1 2.75 24.73V5.27a2.252 2.252 0 0 1 1.301-2.039zM19 20v-1.25h5a3.75 3.75 0 1 0 0-7.5h-5V10l-.001 1.25h-.035l-.075-.002a15.443 15.443 0 0 1-1.2-.092 22.122 22.122 0 0 1-3.24-.637A25.298 25.298 0 0 1 5.25 5.801v18.398a25.297 25.297 0 0 1 9.2-4.719 22.096 22.096 0 0 1 3.24-.636 15.361 15.361 0 0 1 1.2-.092l.074-.002H19L19 20zM4.839 24.537l.001-.002-.001.002z" fill="#000"/></svg>