<svg width="32" height="32" fill="none" xmlns="http://www.w3.org/2000/svg"><path d="M11.78 20.67A6.12 6.12 0 0 0 13.8 22a6.26 6.26 0 0 0 8.65-5.77v-8a6.25 6.25 0 0 0-10.67-4.4A6.212 6.212 0 0 0 10 8.25v8c0 .82.16 1.632.47 2.39a6.092 6.092 0 0 0 1.31 2.03zm.67-12.42a3.75 3.75 0 0 1 7.5 0v8a3.719 3.719 0 0 1-1.1 2.65 3.78 3.78 0 0 1-4.09.81 3.571 3.571 0 0 1-1.22-.81 3.782 3.782 0 0 1-.81-1.21 3.73 3.73 0 0 1-.28-1.44v-8zm13.93 9.14a10.21 10.21 0 0 1-8.93 9v2.84a1.25 1.25 0 1 1-2.5 0v-2.82a10.21 10.21 0 0 1-8.94-9A1.24 1.24 0 0 1 7.11 16a1.241 1.241 0 0 1 1.38 1.1A7.75 7.75 0 0 0 21.36 22a7.72 7.72 0 0 0 2.54-4.92A1.25 1.25 0 0 1 25.28 16a1.24 1.24 0 0 1 1.1 1.39z" fill="#000"/></svg>