<svg width="32" height="32" fill="none" xmlns="http://www.w3.org/2000/svg"><path d="M26.88 26.11 7.15 4.4a1.24 1.24 0 0 0-1.83 1.66l4.61 5.08v4.95a6.16 6.16 0 0 0 6.17 6.16 6.19 6.19 0 0 0 3.15-.87l1 1.11A7.64 7.64 0 0 1 8.5 16.94a1.233 1.233 0 0 0-2.45.27 10.1 10.1 0 0 0 6.48 8.34c.749.276 1.528.464 2.32.56v3.14a1.25 1.25 0 0 0 2.5 0v-3.14c.21 0 .43-.05.64-.09a10 10 0 0 0 3.94-1.68l3.12 3.43a1.24 1.24 0 0 0 .92.4 1.23 1.23 0 0 0 .91-2.06zM16.1 19.79a3.7 3.7 0 0 1-3.7-3.7v-2.24l5.13 5.64a3.66 3.66 0 0 1-1.43.3zM10.78 5a6.32 6.32 0 0 1 2.27-2.21 6.25 6.25 0 0 1 3-.79 6.23 6.23 0 0 1 5.77 3.86 6.11 6.11 0 0 1 .48 2.39v7.55a1.25 1.25 0 0 1-2.5 0V8.25c0-.491-.098-.978-.29-1.43a3.72 3.72 0 0 0-.81-1.22 3.76 3.76 0 0 0-2.6-1.1 3.78 3.78 0 0 0-1.83.5 3.88 3.88 0 0 0-1.36 1.28A1.25 1.25 0 0 1 10.78 5zm12.54 14.1a7.4 7.4 0 0 0 .48-2 1.252 1.252 0 1 1 2.49.28c-.1.897-.314 1.778-.64 2.62a1.26 1.26 0 0 1-1.17.8 1.2 1.2 0 0 1-.45-.09 1.26 1.26 0 0 1-.71-1.64v.03z" fill="#000"/></svg>