<svg width="32" height="32" fill="none" xmlns="http://www.w3.org/2000/svg"><path d="M31 11c0 .6-.4 1-1 1h-2v2c0 .6-.4 1-1 1s-1-.4-1-1v-2h-2c-.6 0-1-.4-1-1s.4-1 1-1h2V8c0-.6.4-1 1-1s1 .4 1 1v2h2c.6 0 1 .4 1 1zM19 6h1v1c0 .6.4 1 1 1s1-.4 1-1V6h1c.6 0 1-.4 1-1s-.4-1-1-1h-1V3c0-.6-.4-1-1-1s-1 .4-1 1v1h-1c-.6 0-1 .4-1 1s.4 1 1 1zm9.6 11.8c.3.3.4.7.3 1.2-.5 2.3-1.7 4.4-3.3 6.1-1.6 1.7-3.7 3-6 3.6-1.2.3-2.4.5-3.7.5-1.1 0-2.2-.1-3.3-.4-2.3-.6-4.4-1.8-6.1-3.5-1.7-1.7-2.9-3.8-3.5-6.1-.6-2.3-.6-4.7.1-7s1.9-4.3 3.6-6c1.7-1.6 3.8-2.8 6.1-3.3.4-.1.9 0 1.2.3.3.3.4.7.3 1.2-.4 1.8-.4 3.6.1 5.4.5 1.7 1.4 3.4 2.7 4.6 1.3 1.3 2.9 2.2 4.6 2.7 1.7.5 3.6.6 5.4.1.7.2 1.2.3 1.5.6zm-2.7 2.4c-1.5.1-3.1-.1-4.5-.5-2.2-.6-4.1-1.8-5.7-3.4-1.6-1.6-2.7-3.6-3.4-5.7-.4-1.5-.6-3-.5-4.5-1.2.5-2.2 1.2-3.2 2.1-1.4 1.3-2.4 3-2.9 4.8-.5 1.8-.6 3.8-.1 5.7.5 1.9 1.5 3.6 2.8 4.9 1.4 1.4 3.1 2.3 4.9 2.8 1.9.5 3.8.5 5.7-.1 1.8-.5 3.5-1.5 4.8-2.9.9-.9 1.6-2 2.1-3.2z" fill="#000"/></svg>