<svg width="32" height="32" fill="none" xmlns="http://www.w3.org/2000/svg"><path d="M13.454 31a2.445 2.445 0 0 1-2.325-1.648L3.131 6.278a2.476 2.476 0 0 1-.065-1.364c.096-.453.323-.867.655-1.19.324-.329.737-.556 1.189-.654.451-.112.925-.09 1.364.065l23.078 7.998a2.52 2.52 0 0 1 1.21.916c.296.425.45.933.437 1.451a2.357 2.357 0 0 1-.49 1.43c-.31.412-.742.717-1.234.872l-10.311 3.164-3.164 10.3A2.455 2.455 0 0 1 13.497 31h-.043zM5.892 5.896l7.54 21.82 2.968-9.645a2.454 2.454 0 0 1 1.626-1.625l9.645-2.968L5.892 5.896z" fill="#000"/></svg>