<svg width="32" height="32" fill="none" xmlns="http://www.w3.org/2000/svg"><path d="M7.05 4.41A1.25 1.25 0 1 0 5.2 6.09l2 2.19a10.15 10.15 0 0 0-1.29 5v1c0 4.24-.87 6.62-1.59 7.86-.2.332-.31.712-.32 1.1 0 .396.103.786.3 1.13.199.342.48.627.82.83a2.33 2.33 0 0 0 1.13.3h4.65a5.21 5.21 0 0 0 5.22 5 5.242 5.242 0 0 0 3.72-1.5 5.18 5.18 0 0 0 1.51-3.46h1.49l2.36 2.59a1.25 1.25 0 0 0 .92.41 1.22 1.22 0 0 0 .84-.33 1.24 1.24 0 0 0 .09-1.76l-20-22.04zm1.35 9.84v-1a7.73 7.73 0 0 1 .61-3L20.57 23H6.67a18.79 18.79 0 0 0 1.73-8.75zm9.67 12.94a2.82 2.82 0 0 1-3.89 0 2.77 2.77 0 0 1-.78-1.69h5.45a2.77 2.77 0 0 1-.78 1.69zM10.6 6a1.25 1.25 0 0 1 .47-1.7 10.22 10.22 0 0 1 15.28 9v.89a18.58 18.58 0 0 0 1 6.71 1.26 1.26 0 0 1-.71 1.62 1.209 1.209 0 0 1-.46.08 1.25 1.25 0 0 1-1.16-.79 21.101 21.101 0 0 1-1.21-7.62v-.89a7.82 7.82 0 0 0-7.63-7.8 7.56 7.56 0 0 0-3.87 1A1.26 1.26 0 0 1 10.6 6z" fill="#000"/></svg>