<svg width="32" height="32" fill="none" xmlns="http://www.w3.org/2000/svg"><path d="M27.94 22.12c-.72-1.25-1.59-3.63-1.59-7.87v-.89A10.32 10.32 0 0 0 16.2 3c-1.35 0-2.687.259-3.94.76a10.23 10.23 0 0 0-6.36 9.49v1c0 4.24-.87 6.62-1.59 7.86A2.23 2.23 0 0 0 4 23.24c0 .396.103.786.3 1.13.199.342.48.627.82.83a2.33 2.33 0 0 0 1.13.3h4.65a5.21 5.21 0 0 0 5.22 5 5.24 5.24 0 0 0 3.72-1.5 5.18 5.18 0 0 0 1.51-3.46H26c.394-.002.78-.11 1.12-.31a2.36 2.36 0 0 0 .83-.83c.19-.343.29-.728.29-1.12a2.2 2.2 0 0 0-.3-1.16zm-9.87 5.07a2.82 2.82 0 0 1-3.89 0 2.77 2.77 0 0 1-.78-1.69h5.45a2.77 2.77 0 0 1-.78 1.69zM6.67 23a18.79 18.79 0 0 0 1.73-8.75v-1a7.8 7.8 0 0 1 .59-3 7.7 7.7 0 0 1 4.22-4.17 7.53 7.53 0 0 1 2.92-.58 7.82 7.82 0 0 1 7.67 7.86v.89c0 4.42.89 7.16 1.73 8.75H6.67z" fill="#000"/></svg>