<svg width="32" height="32" fill="none" xmlns="http://www.w3.org/2000/svg"><path d="M28.19 9.053a2.2 2.2 0 0 0-.83-.83l-10.5-5.93a2.25 2.25 0 0 0-2.22 0l-10.5 5.93a2.33 2.33 0 0 0-.83.78 2.3 2.3 0 0 0-.31 1.18v11.82a2.26 2.26 0 0 0 1.14 2l10.5 5.94a2.271 2.271 0 0 0 2.22 0l10.5-5.94a2.18 2.18 0 0 0 .83-.82 2.27 2.27 0 0 0 .31-1.18v-11.82a2.23 2.23 0 0 0-.31-1.13zM26 21.873l-10.25 5.79-10.25-5.79v-11.55l10.25-5.79 10.25 5.8v11.54zm-16-5.77a5.75 5.75 0 1 0 5.75-5.75 5.76 5.76 0 0 0-5.75 5.75zm9 0a3.25 3.25 0 1 1-3.25-3.25 3.26 3.26 0 0 1 3.25 3.25z" fill="#000"/></svg>