<svg width="32" height="32" fill="none" xmlns="http://www.w3.org/2000/svg"><path fill-rule="evenodd" clip-rule="evenodd" d="M25.942 3.282a2.25 2.25 0 0 1 2.776 2.776l-6.57 23.291a2.25 2.25 0 0 1-4.198.352l-5.03-10.62L2.298 14.05A2.25 2.25 0 0 1 2.65 9.85l23.29-6.57zm.249 2.527L3.97 12.076l10.1 4.784-.536 1.13.535-1.13c.47.222.848.6 1.07 1.07l-1.13.535 1.13-.535 4.784 10.099 6.267-22.22z" fill="#000"/><path fill-rule="evenodd" clip-rule="evenodd" d="M20.398 11.601a1.25 1.25 0 0 1 0 1.768l-5.656 5.657a1.25 1.25 0 0 1-1.768-1.768l5.657-5.656a1.25 1.25 0 0 1 1.767 0z" fill="#000"/></svg>