<svg width="32" height="32" fill="none" xmlns="http://www.w3.org/2000/svg"><path fill-rule="evenodd" clip-rule="evenodd" d="M25 23.25a1.75 1.75 0 1 0 0 3.5 1.75 1.75 0 0 0 0-3.5zM20.75 25a4.25 4.25 0 1 1 8.5 0 4.25 4.25 0 0 1-8.5 0z" fill="#000"/><path fill-rule="evenodd" clip-rule="evenodd" d="M7.75 7c0-.69.56-1.25 1.25-1.25h12a5.25 5.25 0 0 1 0 10.5H9a3.75 3.75 0 0 0 0 7.5h13a1.25 1.25 0 1 1 0 2.5H9a6.25 6.25 0 0 1 0-12.5h12a2.75 2.75 0 1 0 0-5.5H9c-.69 0-1.25-.56-1.25-1.25z" fill="#000"/></svg>