<svg width="32" height="32" fill="none" xmlns="http://www.w3.org/2000/svg"><path fill-rule="evenodd" clip-rule="evenodd" d="M21 5.768 6.25 20.518v5.232h5.232L26.232 11 21 5.768zm-1.591-1.945a2.25 2.25 0 0 1 3.182 0l5.586 5.586a2.25 2.25 0 0 1 0 3.182l-15 15a2.25 2.25 0 0 1-1.591.659H6A2.25 2.25 0 0 1 3.75 26v-5.586a2.25 2.25 0 0 1 .659-1.59l15-15 .884.883-.884-.884z" fill="#000"/><path fill-rule="evenodd" clip-rule="evenodd" d="M16.116 7.116a1.25 1.25 0 0 1 1.768 0l7 7a1.25 1.25 0 0 1-1.768 1.768l-7-7a1.25 1.25 0 0 1 0-1.768zM4.18 19.18a1.25 1.25 0 0 1 1.768 0l6.872 6.872a1.25 1.25 0 1 1-1.768 1.768L4.18 20.947a1.25 1.25 0 0 1 0-1.767z" fill="#000"/></svg>