<svg width="32" height="32" fill="none" xmlns="http://www.w3.org/2000/svg"><path fill-rule="evenodd" clip-rule="evenodd" d="M14 4.5a9.5 9.5 0 1 0 0 19 9.5 9.5 0 0 0 0-19zM2.5 14C2.5 7.649 7.649 2.5 14 2.5S25.5 7.649 25.5 14 20.351 25.5 14 25.5 2.5 20.351 2.5 14z" fill="#000"/><path fill-rule="evenodd" clip-rule="evenodd" d="M14 9.75a3.375 3.375 0 1 0 0 6.75 3.375 3.375 0 0 0 0-6.75zm-5.375 3.375a5.375 5.375 0 1 1 10.75 0 5.375 5.375 0 0 1-10.75 0z" fill="#000"/><path fill-rule="evenodd" clip-rule="evenodd" d="M14 18.5a6.878 6.878 0 0 0-6.13 3.76 1 1 0 0 1-1.783-.907 8.878 8.878 0 0 1 15.826 0 1 1 0 1 1-1.782.907A6.877 6.877 0 0 0 14 18.5z" fill="#000"/><path fill-rule="evenodd" clip-rule="evenodd" d="M21.366 20.366a1.25 1.25 0 0 1 1.768 0l6.075 6.075a1.25 1.25 0 0 1-1.768 1.768l-6.075-6.075a1.25 1.25 0 0 1 0-1.768z" fill="#000"/></svg>