<svg width="32" height="32" fill="none" xmlns="http://www.w3.org/2000/svg"><path d="M19.87 13.13a1 1 0 0 0 .38.08h5a1 1 0 1 0 0-2h-2.59L27 6.92a1.018 1.018 0 0 0-1.46-1.42l-4.29 4.3V7.21a1 1 0 0 0-2 0v5c.002.13.029.26.08.38a1 1 0 0 0 .54.54z" fill="#000"/><path d="M29.16 20.72a2.28 2.28 0 0 0-1.07-.94l-5.85-2.51a2.382 2.382 0 0 0-1.09-.17 2.18 2.18 0 0 0-1 .37l-3 2A9.4 9.4 0 0 1 13 15.4l2-3.06c.201-.298.325-.642.36-1a2.38 2.38 0 0 0-.17-1.09l-2.51-5.88A2.25 2.25 0 0 0 10.33 3 7.25 7.25 0 0 0 4 10.21a18.11 18.11 0 0 0 5.35 12.9 18.11 18.11 0 0 0 12.9 5.35 7.25 7.25 0 0 0 7.19-6.34 2.29 2.29 0 0 0-.28-1.4zm-3.77 4.05A4.72 4.72 0 0 1 22.25 26 15.737 15.737 0 0 1 6.5 10.21a4.76 4.76 0 0 1 4-4.68l2.34 5.56-2 3.05c-.22.323-.348.7-.37 1.09-.026.385.046.77.21 1.12a11.85 11.85 0 0 0 5.46 5.44 2.249 2.249 0 0 0 2.21-.16l3-2L26.93 22a4.7 4.7 0 0 1-1.54 2.77z" fill="#000"/></svg>