<svg width="32" height="32" fill="none" xmlns="http://www.w3.org/2000/svg"><path d="M18.21 5.017a.999.999 0 0 1 1.23-.71 11 11 0 0 1 7.78 7.71 1.002 1.002 0 0 1-.71 1.23h-.26a1 1 0 0 1-1-.74 9.002 9.002 0 0 0-2.33-4 8.87 8.87 0 0 0-4-2.33 1 1 0 0 1-.71-1.16zm-.33 5a5 5 0 0 1 2.24 1.3 5.001 5.001 0 0 1 1.3 2.24 1 1 0 0 0 1 .74c.09.014.18.014.27 0a1 1 0 0 0 .7-1.22 7 7 0 0 0-5-4.95 1 1 0 0 0-.51 1.89zm10.56 12.12a7.25 7.25 0 0 1-7.19 6.34 18.109 18.109 0 0 1-12.9-5.35A18.11 18.11 0 0 1 3 10.226a7.25 7.25 0 0 1 6.33-7.21 2.25 2.25 0 0 1 2.35 1.37l2.51 5.85c.141.345.2.718.17 1.09a2.16 2.16 0 0 1-.36 1l-2 3.09a9.399 9.399 0 0 0 4.1 4.08l3-2a2.18 2.18 0 0 1 1-.37c.372-.03.745.028 1.09.17l5.85 2.51a2.22 2.22 0 0 1 1.35 2.34l.05-.01zm-2.51-.12-5.55-2.38-3 2a2.249 2.249 0 0 1-2.21.16 11.85 11.85 0 0 1-5.46-5.44 2.27 2.27 0 0 1-.21-1.12c.023-.39.15-.767.37-1.09l2-3.05-2.42-5.55a4.76 4.76 0 0 0-3.95 4.68 15.74 15.74 0 0 0 15.75 15.79 4.75 4.75 0 0 0 4.68-4z" fill="#000"/></svg>