<svg width="32" height="32" fill="none" xmlns="http://www.w3.org/2000/svg"><path d="M22.25 28.46a18.108 18.108 0 0 1-12.9-5.35A18.11 18.11 0 0 1 4 10.21 7.25 7.25 0 0 1 10.33 3a2.25 2.25 0 0 1 2.35 1.37l2.51 5.85c.141.345.2.718.17 1.09a2.158 2.158 0 0 1-.36 1l-2 3.09a9.4 9.4 0 0 0 4.1 4.08l3-2a2.18 2.18 0 0 1 1-.37c.372-.03.745.029 1.09.17l5.85 2.51a2.22 2.22 0 0 1 1.35 2.34 7.25 7.25 0 0 1-7.19 6.34l.05-.01zM10.45 5.53a4.76 4.76 0 0 0-3.95 4.68A15.74 15.74 0 0 0 22.25 26a4.75 4.75 0 0 0 4.68-4l-5.55-2.38-3 2a2.249 2.249 0 0 1-2.21.16 11.85 11.85 0 0 1-5.46-5.44 2.272 2.272 0 0 1-.21-1.12c.022-.39.15-.767.37-1.09l2-3.05-2.42-5.55zm16.8 5.68v-5a1 1 0 0 0-1-1h-5a1 1 0 0 0 0 2h4v4a1 1 0 1 0 2 0zM21 12.92l6-6a1.018 1.018 0 1 0-1.46-1.42l-6 6a1 1 0 0 0 0 1.42.998.998 0 0 0 1.42 0H21z" fill="#000"/></svg>