<svg width="32" height="32" fill="none" xmlns="http://www.w3.org/2000/svg"><path fill-rule="evenodd" clip-rule="evenodd" d="M16 8.25a15.75 15.75 0 0 0-11.137 4.613 4.751 4.751 0 0 0-.516 6.108l5.61-2.244.71-3.553a2.242 2.242 0 0 1 1.446-1.68l.01-.002a11.793 11.793 0 0 1 7.704-.018l.01.003a2.24 2.24 0 0 1 1.45 1.664l.002.004.747 3.58 5.616 2.246a4.751 4.751 0 0 0-.515-6.108A15.75 15.75 0 0 0 16 8.25zM3.095 11.095a18.25 18.25 0 0 1 25.81 0 7.252 7.252 0 0 1 .608 9.563l-.005.007a2.246 2.246 0 0 1-2.607.698l-.002-.001-5.916-2.366a2.25 2.25 0 0 1-1.367-1.63l-.747-3.576a9.293 9.293 0 0 0-5.778.013l-.709 3.547a2.25 2.25 0 0 1-1.37 1.648l-5.91 2.364h-.003a2.247 2.247 0 0 1-2.607-.697l-.005-.007a7.251 7.251 0 0 1 .608-9.563zM3.75 25c0-.69.56-1.25 1.25-1.25h22a1.25 1.25 0 1 1 0 2.5H5c-.69 0-1.25-.56-1.25-1.25z" fill="#000"/></svg>