<svg width="32" height="32" fill="none" xmlns="http://www.w3.org/2000/svg"><path d="M11.43 9.34 7 4.41a1.25 1.25 0 0 0-1.81-.09 1.26 1.26 0 0 0-.09 1.77l3.27 3.6a18.239 18.239 0 0 0-5.25 3.66 7.24 7.24 0 0 0-.6 9.57c.304.38.72.653 1.19.78a2.34 2.34 0 0 0 1.42-.09L11 21.25a2.34 2.34 0 0 0 .9-.66c.237-.29.398-.633.47-1l.71-3.55c.27-.09.55-.16.83-.23L25.1 28.09a1.27 1.27 0 0 0 .93.41 1.25 1.25 0 0 0 .97-2.09L11.43 9.34zm-.24 5.06c-.246.286-.415.63-.49 1L10 19l-5.62 2.22a4.75 4.75 0 0 1 .51-6.11 15.79 15.79 0 0 1 5.27-3.45l1.93 2.11a2.339 2.339 0 0 0-.9.63zm18.35 8.51a2.23 2.23 0 0 1-1.19.79 2.3 2.3 0 0 1-.58.07 2.17 2.17 0 0 1-.84-.16l-.5-.2a1.23 1.23 0 0 1-.7-1.62 1.25 1.25 0 0 1 1.62-.7l.33.13a4.73 4.73 0 0 0 .87-3 4.84 4.84 0 0 0-1.38-3.06 15.69 15.69 0 0 0-12-4.59A1.288 1.288 0 0 1 15 8a18.16 18.16 0 0 1 13.93 5.35A7.2 7.2 0 0 1 31 18a7.27 7.27 0 0 1-1.46 4.91z" fill="#000"/></svg>