<svg width="32" height="32" fill="none" xmlns="http://www.w3.org/2000/svg"><path fill-rule="evenodd" clip-rule="evenodd" d="M16 5.25C10.063 5.25 5.25 10.063 5.25 16S10.063 26.75 16 26.75 26.75 21.937 26.75 16 21.937 5.25 16 5.25zM2.75 16C2.75 8.682 8.682 2.75 16 2.75S29.25 8.682 29.25 16 23.318 29.25 16 29.25 2.75 23.318 2.75 16z" fill="#000"/><path fill-rule="evenodd" clip-rule="evenodd" d="M16 11.25a3.75 3.75 0 1 0 0 7.5 3.75 3.75 0 0 0 0-7.5zM9.75 15a6.25 6.25 0 1 1 12.5 0 6.25 6.25 0 0 1-12.5 0z" fill="#000"/><path fill-rule="evenodd" clip-rule="evenodd" d="M16 21.25a7.754 7.754 0 0 0-6.911 4.238 1.25 1.25 0 1 1-2.228-1.133 10.253 10.253 0 0 1 18.278 0 1.25 1.25 0 0 1-2.228 1.133A7.753 7.753 0 0 0 16 21.25z" fill="#000"/></svg>