<svg width="32" height="32" fill="none" xmlns="http://www.w3.org/2000/svg"><path fill-rule="evenodd" clip-rule="evenodd" d="M8.25 13c0-.69.56-1.25 1.25-1.25h13a1.25 1.25 0 1 1 0 2.5h-13c-.69 0-1.25-.56-1.25-1.25zM8.25 17c0-.69.56-1.25 1.25-1.25h13a1.25 1.25 0 1 1 0 2.5h-13c-.69 0-1.25-.56-1.25-1.25z" fill="#000"/><path fill-rule="evenodd" clip-rule="evenodd" d="M5.25 7.25v16.727l2.191-1.095a1.25 1.25 0 0 1 1.118 0L12 24.602l3.441-1.72a1.25 1.25 0 0 1 1.118 0L20 24.602l3.441-1.72a1.25 1.25 0 0 1 1.118 0l2.191 1.095V7.25H5.25zM3.409 5.409A2.25 2.25 0 0 1 5 4.75h22A2.25 2.25 0 0 1 29.25 7v19a1.25 1.25 0 0 1-1.809 1.118L24 25.398l-3.441 1.72a1.25 1.25 0 0 1-1.118 0L16 25.398l-3.441 1.72a1.25 1.25 0 0 1-1.118 0L8 25.398l-3.441 1.72A1.25 1.25 0 0 1 2.75 26V7c0-.597.237-1.169.659-1.591z" fill="#000"/></svg>