<svg width="32" height="32" fill="none" xmlns="http://www.w3.org/2000/svg"><path fill-rule="evenodd" clip-rule="evenodd" d="M5.75 6c0-.69.56-1.25 1.25-1.25A20.25 20.25 0 0 1 27.25 25a1.25 1.25 0 1 1-2.5 0A17.75 17.75 0 0 0 7 7.25c-.69 0-1.25-.56-1.25-1.25z" fill="#000"/><path fill-rule="evenodd" clip-rule="evenodd" d="M5.75 15c0-.69.56-1.25 1.25-1.25A11.25 11.25 0 0 1 18.25 25a1.25 1.25 0 1 1-2.5 0A8.749 8.749 0 0 0 7 16.25c-.69 0-1.25-.56-1.25-1.25z" fill="#000"/><path d="M7 26.5a1.5 1.5 0 1 0 0-3 1.5 1.5 0 0 0 0 3z" fill="#000"/></svg>