<svg width="32" height="32" fill="none" xmlns="http://www.w3.org/2000/svg"><path fill-rule="evenodd" clip-rule="evenodd" d="M4.75 18c0-.69.56-1.25 1.25-1.25A9.25 9.25 0 0 1 15.25 26a1.25 1.25 0 1 1-2.5 0A6.75 6.75 0 0 0 6 19.25c-.69 0-1.25-.56-1.25-1.25z" fill="#000"/><path fill-rule="evenodd" clip-rule="evenodd" d="M4.75 12c0-.69.56-1.25 1.25-1.25A15.25 15.25 0 0 1 21.25 26a1.25 1.25 0 1 1-2.5 0A12.75 12.75 0 0 0 6 13.25c-.69 0-1.25-.56-1.25-1.25z" fill="#000"/><path fill-rule="evenodd" clip-rule="evenodd" d="M4.75 6c0-.69.56-1.25 1.25-1.25A21.25 21.25 0 0 1 27.25 26a1.25 1.25 0 1 1-2.5 0A18.75 18.75 0 0 0 6 7.25c-.69 0-1.25-.56-1.25-1.25z" fill="#000"/><path d="M6.5 27a1.5 1.5 0 1 0 0-3 1.5 1.5 0 0 0 0 3z" fill="#000"/></svg>