<svg width="32" height="32" fill="none" xmlns="http://www.w3.org/2000/svg"><path fill-rule="evenodd" clip-rule="evenodd" d="M16 10.25a5.75 5.75 0 1 0 0 11.5 5.75 5.75 0 0 0 0-11.5zM7.75 16a8.25 8.25 0 1 1 16.5 0 8.25 8.25 0 0 1-16.5 0z" fill="#000"/><path fill-rule="evenodd" clip-rule="evenodd" d="M11.864 2.375a2.264 2.264 0 0 1 1.898.297l1.617 1.078h1.243l1.616-1.078a2.265 2.265 0 0 1 1.898-.297l.006.002c2.09.62 4.003 1.724 5.585 3.224l.005.005a2.263 2.263 0 0 1 .691 1.791l-.125 1.94.622 1.076 1.742.861a2.266 2.266 0 0 1 1.205 1.495l.002.007c.508 2.12.508 4.329 0 6.448l-.002.007a2.263 2.263 0 0 1-1.205 1.494l-1.742.862-.622 1.076.125 1.94a2.265 2.265 0 0 1-.692 1.791l-.004.005a13.825 13.825 0 0 1-5.585 3.224l-.006.002a2.263 2.263 0 0 1-1.898-.297l-1.616-1.078h-1.244l-1.616 1.078a2.263 2.263 0 0 1-1.898.297l-.006-.002a13.823 13.823 0 0 1-5.585-3.225l-.004-.004a2.264 2.264 0 0 1-.692-1.792l.125-1.939-.622-1.076-1.742-.862a2.265 2.265 0 0 1-1.205-1.495l-.002-.006a13.824 13.824 0 0 1 0-6.448l.002-.007a2.264 2.264 0 0 1 1.206-1.495l1.741-.861.622-1.077-.125-1.939a2.264 2.264 0 0 1 .692-1.791l.005-.005a13.824 13.824 0 0 1 5.584-3.224l.006-.002zm.594 2.432a11.324 11.324 0 0 0-4.38 2.529l.167 2.595-1.378 2.388-2.331 1.152a11.324 11.324 0 0 0 0 5.058l2.331 1.152 1.378 2.388-.167 2.595a11.326 11.326 0 0 0 4.38 2.528l2.163-1.442h2.757l2.164 1.442a11.324 11.324 0 0 0 4.38-2.528l-.167-2.595 1.378-2.388 2.331-1.152a11.325 11.325 0 0 0 0-5.058l-2.33-1.152-1.38-2.388.168-2.595a11.324 11.324 0 0 0-4.38-2.529L17.38 6.25h-2.757l-2.164-1.443z" fill="#000"/></svg>