<svg width="32" height="32" fill="none" xmlns="http://www.w3.org/2000/svg"><path fill-rule="evenodd" clip-rule="evenodd" d="M8 13.25a2.75 2.75 0 1 0 0 5.5 2.75 2.75 0 0 0 0-5.5zM2.75 16a5.25 5.25 0 1 1 10.5 0 5.25 5.25 0 0 1-10.5 0zM22 22.25a2.75 2.75 0 1 0 0 5.5 2.75 2.75 0 0 0 0-5.5zM16.75 25a5.25 5.25 0 1 1 10.5 0 5.25 5.25 0 0 1-10.5 0zM22 4.25a2.75 2.75 0 1 0 0 5.5 2.75 2.75 0 0 0 0-5.5zM16.75 7a5.25 5.25 0 1 1 10.5 0 5.25 5.25 0 0 1-10.5 0z" fill="#000"/><path fill-rule="evenodd" clip-rule="evenodd" d="M19.687 8.487a1.25 1.25 0 0 1-.376 1.727l-7.27 4.675a1.25 1.25 0 1 1-1.353-2.103L17.96 8.11a1.25 1.25 0 0 1 1.727.376zM10.313 17.487a1.25 1.25 0 0 1 1.727-.376l7.271 4.675a1.25 1.25 0 0 1-1.351 2.103l-7.272-4.675a1.25 1.25 0 0 1-.375-1.727z" fill="#000"/></svg>