<svg width="32" height="32" fill="none" xmlns="http://www.w3.org/2000/svg"><path fill-rule="evenodd" clip-rule="evenodd" d="M6.25 6.25v7.083c0 9.457 7.867 12.714 9.75 13.356 1.883-.642 9.75-3.899 9.75-13.356V6.25H6.25zM4.409 4.409A2.25 2.25 0 0 1 6 3.75h20A2.25 2.25 0 0 1 28.25 6v7.333c0 11.384-9.684 15.139-11.544 15.756a2.194 2.194 0 0 1-1.412 0c-1.86-.617-11.544-4.372-11.544-15.756V6c0-.597.237-1.169.659-1.591z" fill="#000"/><path fill-rule="evenodd" clip-rule="evenodd" d="M22.404 11.137c.477.5.459 1.29-.04 1.767l-7.334 7a1.25 1.25 0 0 1-1.726 0l-3.667-3.5a1.25 1.25 0 0 1 1.726-1.808l2.804 2.676 6.47-6.176a1.25 1.25 0 0 1 1.767.04z" fill="#000"/></svg>