<svg width="32" height="32" fill="none" xmlns="http://www.w3.org/2000/svg"><path fill-rule="evenodd" clip-rule="evenodd" d="M20.87 9.866a1.25 1.25 0 0 1 1.767 0l5.25 5.25a1.25 1.25 0 0 1 0 1.768l-5.25 5.25a1.25 1.25 0 0 1-1.767-1.768L25.236 16l-4.366-4.366a1.25 1.25 0 0 1 0-1.768z" fill="#000"/><path fill-rule="evenodd" clip-rule="evenodd" d="M11.75 16c0-.69.56-1.25 1.25-1.25h14a1.25 1.25 0 1 1 0 2.5H13c-.69 0-1.25-.56-1.25-1.25z" fill="#000"/><path fill-rule="evenodd" clip-rule="evenodd" d="M6.25 6.25H15a1.25 1.25 0 1 0 0-2.5H6A2.25 2.25 0 0 0 3.75 6v20A2.25 2.25 0 0 0 6 28.25h9a1.25 1.25 0 1 0 0-2.5H6.25V6.25z" fill="#000"/></svg>