<svg width="32" height="32" fill="none" xmlns="http://www.w3.org/2000/svg"><path fill-rule="evenodd" clip-rule="evenodd" d="M16 5.25C10.063 5.25 5.25 10.063 5.25 16S10.063 26.75 16 26.75 26.75 21.937 26.75 16 21.937 5.25 16 5.25zM2.75 16C2.75 8.682 8.682 2.75 16 2.75S29.25 8.682 29.25 16 23.318 29.25 16 29.25 2.75 23.318 2.75 16z" fill="#000"/><path fill-rule="evenodd" clip-rule="evenodd" d="M9.75 20c0-.69.56-1.25 1.25-1.25h10a1.25 1.25 0 1 1 0 2.5H11c-.69 0-1.25-.56-1.25-1.25z" fill="#000"/><path d="M11.75 15.5a1.75 1.75 0 1 0 0-3.5 1.75 1.75 0 0 0 0 3.5zM20.75 15.5a1.75 1.75 0 1 0 0-3.5 1.75 1.75 0 0 0 0 3.5z" fill="#000"/></svg>