<svg width="32" height="32" fill="none" xmlns="http://www.w3.org/2000/svg"><path fill-rule="evenodd" clip-rule="evenodd" d="M16 5.25C10.063 5.25 5.25 10.063 5.25 16S10.063 26.75 16 26.75 26.75 21.937 26.75 16 21.937 5.25 16 5.25zM2.75 16C2.75 8.682 8.682 2.75 16 2.75S29.25 8.682 29.25 16 23.318 29.25 16 29.25 2.75 23.318 2.75 16z" fill="#000"/><path fill-rule="evenodd" clip-rule="evenodd" d="M21.823 17.918a1.25 1.25 0 0 1 .456 1.707 7.253 7.253 0 0 1-12.558 0 1.25 1.25 0 0 1 2.164-1.25 4.753 4.753 0 0 0 8.23 0 1.25 1.25 0 0 1 1.708-.457z" fill="#000"/><path d="M11.75 15.5a1.75 1.75 0 1 0 0-3.5 1.75 1.75 0 0 0 0 3.5zM20.75 15.5a1.75 1.75 0 1 0 0-3.5 1.75 1.75 0 0 0 0 3.5z" fill="#000"/></svg>