<svg width="32" height="32" fill="none" xmlns="http://www.w3.org/2000/svg"><path d="M30 12.1c-.3-.9-1-1.5-1.9-1.5l-7.3-.4L18 3.3c-.2-.4-.4-.8-.8-1-.7-.5-1.7-.5-2.5 0-.4.3-.6.6-.8 1l-2.7 6.9-7.3.4c-.9.1-1.6.7-1.9 1.5-.3.9 0 1.8.7 2.4l5.6 4.7-1.7 6.6c-.2 1 .1 2 .9 2.6.8.6 1.9.6 2.7.1l5.8-3.7 6.3 4c.4.2.8.3 1.2.3.4 0 .9-.1 1.3-.4.7-.5 1.1-1.5.8-2.3l-1.8-7.1 5.7-4.7c.5-.7.8-1.6.5-2.5zm-7.8 5.4c-.3.3-.6.6-.7 1-.1.4-.1.8 0 1.2l1.8 7-6.2-3.9c-.7-.4-1.6-.4-2.3 0L9 26.6h-.1c-.1-.1-.1-.2-.1-.2l1.7-6.6c.1-.4.1-.8 0-1.2-.1-.4-.4-.7-.7-1L4.1 13l7.4-.5c.4 0 .8-.2 1.1-.4.3-.2.6-.6.7-1L16 4.3l2.7 6.8c.1.4.4.7.7 1 .3.2.7.4 1.1.4l7.3.4-5.6 4.6z" fill="#000"/></svg>