<svg width="32" height="32" fill="none" xmlns="http://www.w3.org/2000/svg"><path fill-rule="evenodd" clip-rule="evenodd" d="M11 6.25A4.75 4.75 0 0 0 6.25 11v10A4.75 4.75 0 0 0 11 25.75h5.78c.546-.218 1.288-.66 2.157-1.313a28.205 28.205 0 0 0 2.93-2.57 28.205 28.205 0 0 0 2.57-2.93c.653-.87 1.095-1.611 1.313-2.158V11A4.75 4.75 0 0 0 21 6.25H11zm-5.127-.377A7.25 7.25 0 0 1 11 3.75h10A7.25 7.25 0 0 1 28.25 11v6c0 .134-.022.268-.064.395-.314.943-.973 2.009-1.748 3.043a30.712 30.712 0 0 1-2.804 3.196 30.712 30.712 0 0 1-3.197 2.803c-1.033.776-2.1 1.435-3.042 1.749-.127.042-.26.064-.395.064h-6A7.25 7.25 0 0 1 3.75 21V11a7.25 7.25 0 0 1 2.123-5.127z" fill="#000"/><path fill-rule="evenodd" clip-rule="evenodd" d="M23 18.25A4.75 4.75 0 0 0 18.25 23v4a1.25 1.25 0 1 1-2.5 0v-4A7.25 7.25 0 0 1 23 15.75h4a1.25 1.25 0 1 1 0 2.5h-4z" fill="#000"/></svg>