<svg width="32" height="32" fill="none" xmlns="http://www.w3.org/2000/svg"><path fill-rule="evenodd" clip-rule="evenodd" d="M6 16.449a1 1 0 0 1 1 1V26h18V17.45a1 1 0 1 1 2 0V26a2 2 0 0 1-2 2H7a2 2 0 0 1-2-2V17.45a1 1 0 0 1 1-1zM5.55 4.403A2 2 0 0 1 6.754 4h18.492a2 2 0 0 1 1.923 1.45l1.793 6.275A1 1 0 0 1 28 13H4a1 1 0 0 1-.962-1.275l1.793-6.274.962.274-.962-.274a2 2 0 0 1 .719-1.048zM25.246 6H6.754l-1.428 5h21.348l-1.428-5z" fill="#000"/><path fill-rule="evenodd" clip-rule="evenodd" d="M4 11a1 1 0 0 1 1 1v2a3 3 0 0 0 6 0v-2a1 1 0 1 1 2 0v2a5 5 0 1 1-10 0v-2a1 1 0 0 1 1-1z" fill="#000"/><path fill-rule="evenodd" clip-rule="evenodd" d="M12 11a1 1 0 0 1 1 1v2a3 3 0 0 0 6 0v-2a1 1 0 1 1 2 0v2a5 5 0 1 1-10 0v-2a1 1 0 0 1 1-1z" fill="#000"/><path fill-rule="evenodd" clip-rule="evenodd" d="M20 11a1 1 0 0 1 1 1v2a3 3 0 0 0 6 0v-2a1 1 0 1 1 2 0v2a5 5 0 1 1-10 0v-2a1 1 0 0 1 1-1z" fill="#000"/></svg>