<svg width="32" height="32" fill="none" xmlns="http://www.w3.org/2000/svg"><path fill-rule="evenodd" clip-rule="evenodd" d="M10.164 3.91a1.25 1.25 0 0 1 1.633.677l.957 2.31a1.25 1.25 0 1 1-2.31.957l-.956-2.31a1.25 1.25 0 0 1 .676-1.633zM1.91 12.164a1.25 1.25 0 0 1 1.634-.676l2.31.956a1.25 1.25 0 1 1-.957 2.31l-2.31-.957a1.25 1.25 0 0 1-.676-1.633zM30.09 12.164a1.25 1.25 0 0 1-.677 1.633l-2.31.957a1.25 1.25 0 0 1-.957-2.31l2.31-.956a1.25 1.25 0 0 1 1.633.676zM21.836 3.91c.638.265.94.996.677 1.634l-.957 2.31a1.25 1.25 0 0 1-2.31-.957l.957-2.31a1.25 1.25 0 0 1 1.633-.676zM.75 20c0-.69.56-1.25 1.25-1.25h28a1.25 1.25 0 1 1 0 2.5H2c-.69 0-1.25-.56-1.25-1.25zM4.75 25c0-.69.56-1.25 1.25-1.25h20a1.25 1.25 0 1 1 0 2.5H6c-.69 0-1.25-.56-1.25-1.25z" fill="#000"/><path fill-rule="evenodd" clip-rule="evenodd" d="M16 11.757a6.25 6.25 0 0 0-6.025 7.911 1.25 1.25 0 0 1-2.41.664 8.75 8.75 0 1 1 16.87 0 1.25 1.25 0 0 1-2.41-.664A6.25 6.25 0 0 0 16 11.758z" fill="#000"/></svg>