<svg width="32" height="32" fill="none" xmlns="http://www.w3.org/2000/svg"><path fill-rule="evenodd" clip-rule="evenodd" d="M16 9.75a6.25 6.25 0 1 0 0 12.5 6.25 6.25 0 0 0 0-12.5zM7.25 16a8.75 8.75 0 1 1 17.5 0 8.75 8.75 0 0 1-17.5 0zM16 .75c.69 0 1.25.56 1.25 1.25v2.5a1.25 1.25 0 1 1-2.5 0V2c0-.69.56-1.25 1.25-1.25zM5.217 5.217a1.25 1.25 0 0 1 1.767 0l1.768 1.767a1.25 1.25 0 0 1-1.768 1.768L5.217 6.984a1.25 1.25 0 0 1 0-1.767zM.75 16c0-.69.56-1.25 1.25-1.25h2.5a1.25 1.25 0 1 1 0 2.5H2c-.69 0-1.25-.56-1.25-1.25zM8.752 23.248a1.25 1.25 0 0 1 0 1.768l-1.768 1.768a1.25 1.25 0 0 1-1.767-1.768l1.767-1.768a1.25 1.25 0 0 1 1.768 0zM16 26.25c.69 0 1.25.56 1.25 1.25V30a1.25 1.25 0 1 1-2.5 0v-2.5c0-.69.56-1.25 1.25-1.25zM23.248 23.248a1.25 1.25 0 0 1 1.768 0l1.768 1.768a1.25 1.25 0 0 1-1.768 1.768l-1.768-1.768a1.25 1.25 0 0 1 0-1.768zM26.25 16c0-.69.56-1.25 1.25-1.25H30a1.25 1.25 0 1 1 0 2.5h-2.5c-.69 0-1.25-.56-1.25-1.25zM26.784 5.217a1.25 1.25 0 0 1 0 1.767l-1.768 1.768a1.25 1.25 0 1 1-1.768-1.768l1.768-1.767a1.25 1.25 0 0 1 1.768 0z" fill="#000"/></svg>