<svg width="32" height="32" fill="none" xmlns="http://www.w3.org/2000/svg"><path fill-rule="evenodd" clip-rule="evenodd" d="M16 5.75C10.34 5.75 5.75 10.34 5.75 16S10.34 26.25 16 26.25 26.25 21.66 26.25 16 21.66 5.75 16 5.75zM3.25 16C3.25 8.958 8.958 3.25 16 3.25S28.75 8.958 28.75 16 23.042 28.75 16 28.75 3.25 23.042 3.25 16z" fill="#000"/><path fill-rule="evenodd" clip-rule="evenodd" d="M16 3.25c.69 0 1.25.56 1.25 1.25v5a1.25 1.25 0 1 1-2.5 0v-5c0-.69.56-1.25 1.25-1.25zM3.25 16c0-.69.56-1.25 1.25-1.25h5a1.25 1.25 0 1 1 0 2.5h-5c-.69 0-1.25-.56-1.25-1.25zM16 21.25c.69 0 1.25.56 1.25 1.25v5a1.25 1.25 0 1 1-2.5 0v-5c0-.69.56-1.25 1.25-1.25zM21.25 16c0-.69.56-1.25 1.25-1.25h5a1.25 1.25 0 1 1 0 2.5h-5c-.69 0-1.25-.56-1.25-1.25z" fill="#000"/></svg>