<svg width="32" height="32" fill="none" xmlns="http://www.w3.org/2000/svg"><path fill-rule="evenodd" clip-rule="evenodd" d="M16 6.25c-5.385 0-9.75 4.365-9.75 9.75s4.365 9.75 9.75 9.75 9.75-4.365 9.75-9.75S21.385 6.25 16 6.25zM3.75 16C3.75 9.235 9.235 3.75 16 3.75S28.25 9.235 28.25 16 22.765 28.25 16 28.25 3.75 22.765 3.75 16z" fill="#000"/><path fill-rule="evenodd" clip-rule="evenodd" d="M16 1.25c.69 0 1.25.56 1.25 1.25v5a1.25 1.25 0 1 1-2.5 0v-5c0-.69.56-1.25 1.25-1.25zM1.25 16c0-.69.56-1.25 1.25-1.25h5a1.25 1.25 0 1 1 0 2.5h-5c-.69 0-1.25-.56-1.25-1.25zM16 23.25c.69 0 1.25.56 1.25 1.25v5a1.25 1.25 0 1 1-2.5 0v-5c0-.69.56-1.25 1.25-1.25zM23.25 16c0-.69.56-1.25 1.25-1.25h5a1.25 1.25 0 1 1 0 2.5h-5c-.69 0-1.25-.56-1.25-1.25zM16 13.25a2.75 2.75 0 1 0 0 5.5 2.75 2.75 0 0 0 0-5.5zM10.75 16a5.25 5.25 0 1 1 10.5 0 5.25 5.25 0 0 1-10.5 0z" fill="#000"/></svg>