<svg width="32" height="32" fill="none" xmlns="http://www.w3.org/2000/svg"><path d="m30.21 19.85-1.5-12A3.23 3.23 0 0 0 25.48 5H4.25a2.21 2.21 0 0 0-1.59.66A2.21 2.21 0 0 0 2 7.25v11a2.27 2.27 0 0 0 1.388 2.081c.273.114.566.171.862.17h5.23l4.65 9.31a1.26 1.26 0 0 0 1.12.69 5.27 5.27 0 0 0 4.85-3.24c.26-.636.396-1.315.4-2V23.5H27a3.272 3.272 0 0 0 2.44-1.1c.305-.346.533-.752.67-1.19.133-.441.167-.906.1-1.36zM9 18H4.5V7.5H9V18zm18.7 2.47a.76.76 0 0 1-.15.28.83.83 0 0 1-.26.19.81.81 0 0 1-.29.06h-7.75A1.25 1.25 0 0 0 18 22.25v3a2.77 2.77 0 0 1-.8 1.94 2.73 2.73 0 0 1-1.23.71L11.5 19V7.5h14a.76.76 0 0 1 .75.66l1.5 12a.848.848 0 0 1-.05.31z" fill="#000"/></svg>