<svg width="32" height="32" fill="none" xmlns="http://www.w3.org/2000/svg"><path d="M30.09 11.29a3.25 3.25 0 0 0-1.77-2A3.23 3.23 0 0 0 27 9h-6.5V7.25a5.338 5.338 0 0 0-.4-2A5.25 5.25 0 0 0 15.25 2a1.26 1.26 0 0 0-1.12.69L9.48 12H4.25a2.209 2.209 0 0 0-1.59.66A2.21 2.21 0 0 0 2 14.25v11a2.27 2.27 0 0 0 1.388 2.081c.273.114.566.171.862.169h21.23a3.23 3.23 0 0 0 3.23-2.85l1.5-12a3.13 3.13 0 0 0-.12-1.36zM4.5 14.5H9V25H4.5V14.5zm21.73 9.84a.76.76 0 0 1-.75.66H11.5V13.55L16 4.6l.33.11c.335.136.639.34.89.6.26.252.464.555.6.89.133.317.204.656.21 1v3a1.252 1.252 0 0 0 1.22 1.3H27a.83.83 0 0 1 .57.25c.07.082.12.177.15.28.02.102.02.208 0 .31l-1.49 12z" fill="#000"/></svg>