<svg width="32" height="33" fill="none" xmlns="http://www.w3.org/2000/svg"><path fill-rule="evenodd" clip-rule="evenodd" d="M16 7.25c-5.385 0-9.75 4.365-9.75 9.75s4.365 9.75 9.75 9.75 9.75-4.365 9.75-9.75S21.385 7.25 16 7.25zM3.75 17C3.75 10.235 9.235 4.75 16 4.75S28.25 10.235 28.25 17 22.765 29.25 16 29.25 3.75 23.765 3.75 17z" fill="#000"/><path fill-rule="evenodd" clip-rule="evenodd" d="M21.834 11.166a1.25 1.25 0 0 1 0 1.768l-4.95 4.95a1.25 1.25 0 1 1-1.768-1.768l4.95-4.95a1.25 1.25 0 0 1 1.768 0zM11.75 2c0-.69.56-1.25 1.25-1.25h6a1.25 1.25 0 1 1 0 2.5h-6c-.69 0-1.25-.56-1.25-1.25z" fill="#000"/></svg>