<svg width="32" height="32" fill="none" xmlns="http://www.w3.org/2000/svg"><path fill-rule="evenodd" clip-rule="evenodd" d="M15.116 4.113a1.25 1.25 0 0 1 1.768 0l5.25 5.25a1.25 1.25 0 0 1-1.768 1.768L16 6.763l-4.366 4.366a1.25 1.25 0 0 1-1.768-1.767l5.25-5.25z" fill="#000"/><path fill-rule="evenodd" clip-rule="evenodd" d="M16 3.75c.69 0 1.25.56 1.25 1.25v14a1.25 1.25 0 1 1-2.5 0V5c0-.69.56-1.25 1.25-1.25z" fill="#000"/><path fill-rule="evenodd" clip-rule="evenodd" d="M4 15.75c.69 0 1.25.56 1.25 1.25v8.75h21.5V17a1.25 1.25 0 1 1 2.5 0v9A2.25 2.25 0 0 1 27 28.25H5A2.25 2.25 0 0 1 2.75 26v-9c0-.69.56-1.25 1.25-1.25z" fill="#000"/></svg>