<svg xmlns="http://www.w3.org/2000/svg" viewBox="0 0 32 32"><path d="M18 14c0-.6.4-1 1-1h5c.6 0 1 .4 1 1s-.4 1-1 1h-5c-.6 0-1-.4-1-1zm1 5h5c.6 0 1-.4 1-1s-.4-1-1-1h-5c-.6 0-1 .4-1 1s.4 1 1 1zM6.7 20.8c.3-1.1.9-2 1.8-2.7.1-.1.2-.1.3-.2-.8-.8-1.3-1.8-1.3-2.9 0-2.2 1.8-4 4-4s4 1.8 4 4c0 1.1-.5 2.1-1.2 2.9.1.1.2.1.3.2.9.7 1.5 1.6 1.8 2.7.1.5-.2 1.1-.7 1.2-.5.1-1.1-.2-1.2-.7-.2-.6-.5-1.2-1.1-1.6-1-.8-2.6-.8-3.7 0-.5.4-.9 1-1.1 1.6-.1.5-.5.8-1 .8h-.3c-.4-.3-.8-.8-.6-1.3zM9.5 15c0 1.1.9 2 2 2s2-.9 2-2-.9-2-2-2-2 .9-2 2zM29 7v18c0 1.1-.9 2-2 2H5c-1.1 0-2-.9-2-2V7c0-1.1.9-2 2-2h22c1.1 0 2 .9 2 2zm-2 0H5v18h22V7z" fill="#333"/></svg>