<svg width="32" height="32" fill="none" xmlns="http://www.w3.org/2000/svg"><path fill-rule="evenodd" clip-rule="evenodd" d="M11 8.25a5.25 5.25 0 1 0 0 10.5 5.25 5.25 0 0 0 0-10.5zM3.25 13.5a7.75 7.75 0 1 1 15.5 0 7.75 7.75 0 0 1-15.5 0zM21.987 8.31a5.25 5.25 0 0 0-2.221.135 1.25 1.25 0 0 1-.678-2.406A7.75 7.75 0 1 1 21.19 21.25a1.25 1.25 0 0 1 0-2.5 5.25 5.25 0 0 0 .797-10.44z" fill="#000"/><path fill-rule="evenodd" clip-rule="evenodd" d="M11 21.25a9.753 9.753 0 0 0-7.978 4.143 1.25 1.25 0 0 1-2.045-1.437 12.253 12.253 0 0 1 20.046-.001 1.25 1.25 0 0 1-2.045 1.438A9.752 9.752 0 0 0 11 21.25zM25.686 22.346a9.736 9.736 0 0 0-4.495-1.096 1.25 1.25 0 0 1-.002-2.5 12.237 12.237 0 0 1 10.024 5.206 1.25 1.25 0 1 1-2.046 1.436 9.736 9.736 0 0 0-3.481-3.046z" fill="#000"/></svg>