<svg width="32" height="32" fill="none" xmlns="http://www.w3.org/2000/svg"><path d="M30.88 9.17a1.24 1.24 0 0 0-1.25 0L24.5 12.1v-.35a5.26 5.26 0 0 0-5.25-5.25h-5.14a1.25 1.25 0 0 0 0 2.5h5.14A2.77 2.77 0 0 1 22 11.75v6.5c.005.147.035.293.09.43a.305.305 0 0 0 0 .1c.055.13.133.248.23.35.078.077.166.144.26.2l7 4c.19.106.403.161.62.16a1.25 1.25 0 0 0 1.25-1.25v-12a1.25 1.25 0 0 0-.57-1.07zM29 20.1l-4.5-2.58V15l4.5-2.6v7.7zM5.54 2.41a1.26 1.26 0 0 0-1.77-.09 1.25 1.25 0 0 0-.08 1.77L5.88 6.5H3.25a2.21 2.21 0 0 0-1.59.66A2.21 2.21 0 0 0 1 8.75v12A5.26 5.26 0 0 0 6.25 26h16a2.269 2.269 0 0 0 1.09-.29l4 4.38a1.23 1.23 0 0 0 .92.41 1.28 1.28 0 0 0 .84-.32 1.249 1.249 0 0 0 .08-1.77l-23.64-26zm.71 21.09a2.77 2.77 0 0 1-2.75-2.75V9h4.65l13.18 14.5H6.25z" fill="#000"/></svg>