<svg width="32" height="32" fill="none" xmlns="http://www.w3.org/2000/svg"><path d="M30.88 8.67a1.24 1.24 0 0 0-1.25 0L24.5 11.6v-.35A5.26 5.26 0 0 0 19.25 6h-16a2.21 2.21 0 0 0-1.59.66A2.21 2.21 0 0 0 1 8.25v12a5.26 5.26 0 0 0 5.25 5.25h16a2.21 2.21 0 0 0 1.59-.66 2.27 2.27 0 0 0 .66-1.59V19.9l5.13 2.94c.19.106.403.161.62.16a1.25 1.25 0 0 0 1.25-1.25v-12a1.25 1.25 0 0 0-.62-1.08zM22 23H6.25a2.77 2.77 0 0 1-2.75-2.75V8.5h15.75A2.77 2.77 0 0 1 22 11.25V23zm7-3.4L24.5 17v-2.52L29 11.9v7.7z" fill="#000"/></svg>