<svg width="32" height="32" fill="none" xmlns="http://www.w3.org/2000/svg"><path fill-rule="evenodd" clip-rule="evenodd" d="M16 10.75c.69 0 1.25.56 1.25 1.25v6a1.25 1.25 0 1 1-2.5 0v-6c0-.69.56-1.25 1.25-1.25z" fill="#000"/><path fill-rule="evenodd" clip-rule="evenodd" d="M14.377 3.185a3.25 3.25 0 0 1 4.436 1.187l-1.082.626 1.082-.626L29.81 23.37a3.25 3.25 0 0 1-2.813 4.878H5.003a3.25 3.25 0 0 1-2.813-4.878l10.997-19 1.082.627-1.082-.626a3.25 3.25 0 0 1 1.19-1.187zM16 5.25a.75.75 0 0 0-.65.374l-10.996 19-1.082-.627 1.082.626a.75.75 0 0 0 .649 1.126h21.994a.75.75 0 0 0 .65-1.126l1.08-.626-1.08.626L16.648 5.624A.75.75 0 0 0 16 5.25z" fill="#000"/><path d="M16 24a1.5 1.5 0 1 0 0-3 1.5 1.5 0 0 0 0 3z" fill="#000"/></svg>