<svg width="32" height="32" fill="none" xmlns="http://www.w3.org/2000/svg"><path d="m29.6 23.5-11-19c-.3-.5-.6-.8-1.1-1.1-.5-.3-1-.4-1.5-.4s-1 .1-1.5.4c-.5.3-.8.6-1.1 1.1l-11 19c-.3.5-.4 1-.4 1.5s.1 1 .4 1.5c.3.5.6.8 1.1 1.1.5.3 1 .4 1.5.4h22c.5 0 1-.1 1.5-.4.5-.3.8-.6 1.1-1.1.3-.5.4-1 .4-1.5s-.1-1-.4-1.5zM15 12c0-.3.1-.5.3-.7.2-.2.4-.3.7-.3.3 0 .5.1.7.3.2.2.3.4.3.7v6c0 .3-.1.5-.3.7-.2.2-.4.3-.7.3-.3 0-.5-.1-.7-.3-.2-.2-.3-.4-.3-.7v-6zm1 12c-.3 0-.6-.1-.8-.3-.2-.2-.4-.4-.6-.7-.1-.3-.1-.6-.1-.9.1-.3.2-.6.4-.8.2-.2.5-.4.8-.4.3-.1.6 0 .9.1.3.1.5.3.7.6.2.3.3.5.3.8 0 .4-.2.8-.4 1.1-.4.3-.8.5-1.2.5z" fill="#000"/></svg>