<svg width="32" height="32" fill="none" xmlns="http://www.w3.org/2000/svg"><path fill-rule="evenodd" clip-rule="evenodd" d="M16 8.25a7.75 7.75 0 1 0 0 15.5 7.75 7.75 0 0 0 0-15.5zM5.75 16c0-5.66 4.59-10.25 10.25-10.25S26.25 10.34 26.25 16 21.66 26.25 16 26.25 5.75 21.66 5.75 16z" fill="#000"/><path fill-rule="evenodd" clip-rule="evenodd" d="M16 9.75c.69 0 1.25.56 1.25 1.25v4.75H21a1.25 1.25 0 1 1 0 2.5h-5c-.69 0-1.25-.56-1.25-1.25v-6c0-.69.56-1.25 1.25-1.25z" fill="#000"/><path fill-rule="evenodd" clip-rule="evenodd" d="m13.044 4.25-.814 4.489a1.25 1.25 0 1 1-2.46-.446l.851-4.694a2.25 2.25 0 0 1 2.214-1.849h6.33a2.25 2.25 0 0 1 2.214 1.849l.85 4.694a1.25 1.25 0 1 1-2.459.446l-.814-4.489h-5.912zM21.223 22.254a1.25 1.25 0 0 1 1.007 1.453l-.851 4.694a2.25 2.25 0 0 1-2.214 1.85h-6.33a2.25 2.25 0 0 1-2.214-1.85l-.851-4.694a1.25 1.25 0 1 1 2.46-.446l.814 4.49h5.912l.814-4.49a1.25 1.25 0 0 1 1.453-1.007z" fill="#000"/></svg>