<svg width="32" height="32" fill="none" xmlns="http://www.w3.org/2000/svg"><path d="M30.9 15.1c-.3-2.2-1.2-4.3-2.8-5.9-1.5-1.6-3.6-2.7-5.8-3-1.5-.2-3-.1-4.5.2L3.5 6.2c-.7 0-1.3.3-1.8.7C1.2 7.3 1 8 1 8.7V15c0 .6.2 1.2.6 1.7.4.5 1 .8 1.6.8l7.8 1c.6 2.5 2.1 4.7 4.3 6.1 2.1 1.4 4.7 1.9 7.3 1.5 2.5-.4 4.8-1.8 6.3-3.9 1.6-2 2.3-4.6 2-7.1zm-2.2 3.5c-.4 1.1-.9 2.1-1.7 3-1 1.1-2.4 2-3.9 2.4-1.5.4-3.1.4-4.5 0s-2.8-1.3-3.8-2.4c-1-1.1-1.7-2.6-2-4.1 0-.2-.1-.4-.3-.5-.1-.1-.3-.2-.5-.3l-8.5-1.1c-.2 0-.3-.1-.4-.2-.1-.1-.2-.3-.2-.4V8.7c0-.2.1-.3.2-.5.1-.1.3-.2.5-.2h4.1v2.5c0 .3.1.5.3.7.2.2.4.3.7.3.3 0 .5-.1.7-.3.2-.2.3-.4.3-.7V8.1h8.5c1.3-.2 2.6-.3 3.9-.2 1.8.3 3.4 1.1 4.7 2.5 1.3 1.3 2 3 2.2 4.8.2 1.2 0 2.3-.3 3.4z" fill="#000"/><path d="M24.7 12.2c-.5-.5-1.1-.9-1.8-1.2-1.7-.7-3.6-.5-5.1.5-.9.6-1.6 1.5-2 2.5-.4 1-.5 2.1-.3 3.2s.7 2 1.5 2.8c.8.8 1.7 1.3 2.8 1.5.4.1.7.1 1.1.1.7 0 1.4-.1 2.1-.4 1-.4 1.9-1.1 2.5-2 .6-.9.9-2 .9-3 0-.7-.1-1.4-.4-2.1-.4-.8-.8-1.4-1.3-1.9zm-.3 3.9c0 1-.4 1.9-1.1 2.5-1.2 1.2-3.1 1.4-4.5.4-.6-.4-1-1-1.3-1.6-.3-.7-.3-1.4-.2-2.1.1-.7.5-1.3 1-1.8s1.1-.8 1.8-1c.2 0 .5-.1.7-.1.5 0 .9.1 1.4.3.7.3 1.2.7 1.6 1.3.4.7.6 1.4.6 2.1z" fill="#000"/></svg>